<svg width="202" height="54" viewBox="0 0 202 54" fill="none" xmlns="http://www.w3.org/2000/svg">
<path d="M194.622 20.957C194.622 23.7221 192.391 25.954 189.626 25.954C186.861 25.954 184.629 23.7221 184.629 20.957C184.629 18.1918 186.861 15.96 189.626 15.96C192.391 15.96 194.622 18.1918 194.622 20.957Z" fill="#A4FFFF"/>
<path d="M180.007 13.9848C180.007 16.75 177.776 18.9819 175.011 18.9819C172.246 18.9819 170.014 16.75 170.014 13.9848C170.014 11.2197 172.246 8.98779 175.011 8.98779C177.776 8.98779 180.007 11.2197 180.007 13.9848Z" fill="#A4FFFF"/>
<path d="M163.773 10.3505C163.773 13.1157 161.541 15.3476 158.776 15.3476C156.011 15.3476 153.779 13.1157 153.779 10.3505C153.779 7.58539 156.011 5.35352 158.776 5.35352C161.521 5.35352 163.773 7.58539 163.773 10.3505Z" fill="#A4FFFF"/>
<path d="M147.38 7.68429C147.38 10.4494 145.148 12.6813 142.383 12.6813C139.618 12.6813 137.387 10.4494 137.387 7.68429C137.387 4.91913 139.618 2.68726 142.383 2.68726C145.148 2.68726 147.38 4.93888 147.38 7.68429Z" fill="#A4FFFF"/>
<path d="M130.77 6.6772C130.77 9.44235 128.539 11.6742 125.773 11.6742C123.008 11.6742 120.777 9.44235 120.777 6.6772C120.777 3.91205 123.008 1.68018 125.773 1.68018C128.519 1.68018 130.77 3.9318 130.77 6.6772Z" fill="#A4FFFF"/>
<path d="M114.141 5.66988C114.141 8.43503 111.909 10.6669 109.144 10.6669C106.379 10.6669 104.147 8.43503 104.147 5.66988C104.147 2.90472 106.379 0.672852 109.144 0.672852C111.909 0.692603 114.141 2.92447 114.141 5.66988Z" fill="#A4FFFF"/>
<path d="M97.5308 5.51169C97.5308 8.27684 95.2991 10.5087 92.5341 10.5087C89.769 10.5087 87.5373 8.27684 87.5373 5.51169C87.5373 2.74653 89.769 0.514648 92.5341 0.514648C95.2991 0.514648 97.5308 2.74653 97.5308 5.51169Z" fill="#A4FFFF"/>
<path d="M80.9012 6.519C80.9012 9.28416 78.6695 11.5161 75.9045 11.5161C73.1395 11.5161 70.9077 9.28416 70.9077 6.519C70.9077 3.75385 73.1395 1.52197 75.9045 1.52197C78.6695 1.52197 80.9012 3.75385 80.9012 6.519Z" fill="#A4FFFF"/>
<path d="M64.2914 7.52633C64.2914 10.2915 62.0596 12.5234 59.2946 12.5234C56.5296 12.5234 54.2979 10.2915 54.2979 7.52633C54.2979 4.76117 56.5296 2.5293 59.2946 2.5293C62.0596 2.5293 64.2914 4.76117 64.2914 7.52633Z" fill="#A4FFFF"/>
<path d="M47.8395 9.75802C47.8395 12.5232 45.6077 14.7551 42.8427 14.7551C40.0777 14.7551 37.8459 12.5232 37.8459 9.75802C37.8459 6.99286 40.0777 4.76099 42.8427 4.76099C45.6077 4.76099 47.8395 6.99286 47.8395 9.75802Z" fill="#A4FFFF"/>
<path d="M31.6049 13.3923C31.6049 16.1575 29.3731 18.3893 26.6081 18.3893C23.8431 18.3893 21.6113 16.1575 21.6113 13.3923C21.6113 10.6271 23.8431 8.39526 26.6081 8.39526C29.3534 8.39526 31.6049 10.6271 31.6049 13.3923Z" fill="#A4FFFF"/>
<path d="M16.4368 19.2189C16.4368 21.9841 14.2051 24.216 11.44 24.216C8.67501 24.216 6.44324 21.9841 6.44324 19.2189C6.44324 16.4538 8.67501 14.2219 11.44 14.2219C14.1853 14.2219 16.4368 16.4538 16.4368 19.2189Z" fill="#A4FFFF"/>
<path d="M10.7487 29.8452C10.7487 32.6103 8.51702 34.8422 5.75201 34.8422C2.987 34.8422 0.755249 32.6103 0.755249 29.8452C0.755249 27.08 2.987 24.8481 5.75201 24.8481C8.51702 24.8481 10.7487 27.08 10.7487 29.8452Z" fill="#A4FFFF"/>
<path d="M24.4158 38.7529C24.4158 41.518 22.1841 43.7499 19.4191 43.7499C16.6541 43.7499 14.4223 41.518 14.4223 38.7529C14.4223 35.9877 16.6541 33.7559 19.4191 33.7559C22.1841 33.7559 24.4158 35.9877 24.4158 38.7529Z" fill="#A4FFFF"/>
<path d="M40.6505 42.3869C40.6505 45.1521 38.4187 47.384 35.6537 47.384C32.8887 47.384 30.6569 45.1521 30.6569 42.3869C30.6569 39.6218 32.8887 37.3899 35.6537 37.3899C38.4187 37.3899 40.6505 39.6415 40.6505 42.3869Z" fill="#A4FFFF"/>
<path d="M56.9443 45.7841C56.9443 48.5493 54.7126 50.7811 51.9475 50.7811C49.1825 50.7811 46.9507 48.5493 46.9507 45.7841C46.9507 43.019 49.1825 40.7871 51.9475 40.7871C54.6928 40.7871 56.9443 43.019 56.9443 45.7841Z" fill="#A4FFFF"/>
<path d="M73.5542 46.7915C73.5542 49.5566 71.3224 51.7885 68.5574 51.7885C65.7924 51.7885 63.5607 49.5566 63.5607 46.7915C63.5607 44.0263 65.7924 41.7944 68.5574 41.7944C71.3224 41.7944 73.5542 44.0263 73.5542 46.7915Z" fill="#A4FFFF"/>
<path d="M90.1641 47.7988C90.1641 50.5639 87.9323 52.7958 85.1673 52.7958C82.4022 52.7958 80.1705 50.5639 80.1705 47.7988C80.1705 45.0336 82.4022 42.8018 85.1673 42.8018C87.9323 42.8018 90.1641 45.0336 90.1641 47.7988Z" fill="#A4FFFF"/>
<path d="M106.794 48.5295C106.794 51.2947 104.562 53.5266 101.797 53.5266C99.0318 53.5266 96.8 51.2947 96.8 48.5295C96.8 45.7643 99.0318 43.5325 101.797 43.5325C104.562 43.5325 106.794 45.7643 106.794 48.5295Z" fill="#A4FFFF"/>
<path d="M123.404 47.5224C123.404 50.2876 121.172 52.5195 118.407 52.5195C115.642 52.5195 113.41 50.2876 113.41 47.5224C113.41 44.7573 115.642 42.5254 118.407 42.5254C121.172 42.5254 123.404 44.7573 123.404 47.5224Z" fill="#A4FFFF"/>
<path d="M140.033 46.5151C140.033 49.2803 137.801 51.5121 135.036 51.5121C132.271 51.5121 130.04 49.2803 130.04 46.5151C130.04 43.75 132.271 41.5181 135.036 41.5181C137.782 41.5181 140.033 43.75 140.033 46.5151Z" fill="#A4FFFF"/>
<path d="M156.584 45.0139C156.584 47.779 154.352 50.0109 151.587 50.0109C148.822 50.0109 146.59 47.779 146.59 45.0139C146.59 42.2487 148.822 40.0168 151.587 40.0168C154.332 40.0168 156.584 42.2487 156.584 45.0139Z" fill="#A4FFFF"/>
<path d="M172.818 41.3796C172.818 44.1447 170.587 46.3766 167.822 46.3766C165.056 46.3766 162.825 44.1447 162.825 41.3796C162.825 38.6144 165.056 36.3826 167.822 36.3826C170.587 36.3826 172.818 38.6144 172.818 41.3796Z" fill="#A4FFFF"/>
<path d="M188.954 37.4887C188.954 40.2539 186.722 42.4858 183.957 42.4858C181.192 42.4858 178.961 40.2539 178.961 37.4887C178.961 34.7236 181.192 32.4917 183.957 32.4917C186.703 32.4917 188.954 34.7433 188.954 37.4887Z" fill="#A4FFFF"/>
<path d="M201.772 26.8825C201.772 29.6477 199.54 31.8795 196.775 31.8795C194.01 31.8795 191.778 29.6477 191.778 26.8825C191.778 24.1174 194.01 21.8855 196.775 21.8855C199.54 21.8855 201.772 24.1174 201.772 26.8825Z" fill="#A4FFFF"/>
</svg>
