<svg width="20" height="18" viewBox="0 0 20 18" fill="none" xmlns="http://www.w3.org/2000/svg">
<path opacity="0.3" fill-rule="evenodd" clip-rule="evenodd" d="M5.25619 15.9292L3.97889 17.4681C1.47693 15.3916 0 12.3153 0 8.99998C0 5.68921 1.47282 2.61675 3.96885 0.540161L5.24797 2.07765C3.20393 3.77819 2 6.28973 2 8.99998C2 11.714 3.2073 14.2287 5.25619 15.9292ZM14.7438 15.9292L16.0211 17.4681C18.5231 15.3916 20 12.3153 20 8.99998C20 5.68921 18.5272 2.61675 16.0311 0.540161L14.752 2.07765C16.7961 3.77819 18 6.28973 18 8.99998C18 11.714 16.7927 14.2287 14.7438 15.9292ZM12.1785 12.8599L13.4509 14.4029C15.0529 13.082 16 11.1173 16 8.99998C16 6.88957 15.0591 4.93072 13.4661 3.60961L12.1894 5.14908C13.329 6.09417 14 7.49119 14 8.99998C14 10.5137 13.3245 11.9149 12.1785 12.8599ZM6.5491 14.4029L7.8215 12.8599C6.6755 11.9149 6 10.5137 6 8.99998C6 7.49119 6.67104 6.09417 7.81062 5.14908L6.53389 3.60961C4.94091 4.93072 4 6.88957 4 8.99998C4 11.1173 4.94714 13.082 6.5491 14.4029Z" fill="#4BB59B"/>
</svg>
