<svg width="299" height="106" viewBox="0 0 299 106" fill="none" xmlns="http://www.w3.org/2000/svg">
<path d="M57.148 3.148C58.828 3.148 60.052 3.478 60.82 4.138C61.588 4.798 61.972 5.728 61.972 6.928C61.972 7.636 61.81 8.302 61.486 8.926C61.174 9.538 60.64 10.036 59.884 10.42C59.14 10.804 58.126 10.996 56.842 10.996H55.366V16H53.746V3.148H57.148ZM57.004 4.534H55.366V9.61H56.662C57.886 9.61 58.798 9.412 59.398 9.016C59.998 8.62 60.298 7.948 60.298 7C60.298 6.172 60.034 5.554 59.506 5.146C58.978 4.738 58.144 4.534 57.004 4.534ZM66.0124 16H64.4284V2.32H66.0124V16ZM72.7231 6.19C73.8991 6.19 74.7691 6.448 75.3331 6.964C75.8971 7.48 76.1791 8.302 76.1791 9.43V16H75.0271L74.7211 14.632H74.6491C74.2291 15.16 73.7851 15.55 73.3171 15.802C72.8611 16.054 72.2251 16.18 71.4091 16.18C70.5331 16.18 69.8071 15.952 69.2311 15.496C68.6551 15.028 68.3671 14.302 68.3671 13.318C68.3671 12.358 68.7451 11.62 69.5011 11.104C70.2571 10.576 71.4211 10.288 72.9931 10.24L74.6311 10.186V9.61C74.6311 8.806 74.4571 8.248 74.1091 7.936C73.7611 7.624 73.2691 7.468 72.6331 7.468C72.1291 7.468 71.6491 7.546 71.1931 7.702C70.7371 7.846 70.3111 8.014 69.9151 8.206L69.4291 7.018C69.8491 6.79 70.3471 6.598 70.9231 6.442C71.4991 6.274 72.0991 6.19 72.7231 6.19ZM73.1911 11.338C71.9911 11.386 71.1571 11.578 70.6891 11.914C70.2331 12.25 70.0051 12.724 70.0051 13.336C70.0051 13.876 70.1671 14.272 70.4911 14.524C70.8271 14.776 71.2531 14.902 71.7691 14.902C72.5851 14.902 73.2631 14.68 73.8031 14.236C74.3431 13.78 74.6131 13.084 74.6131 12.148V11.284L73.1911 11.338ZM77.6469 6.352H79.3389L81.4269 11.842C81.6069 12.322 81.7689 12.784 81.9129 13.228C82.0569 13.66 82.1649 14.074 82.2369 14.47H82.3089C82.3809 14.17 82.4949 13.78 82.6509 13.3C82.8069 12.808 82.9689 12.316 83.1369 11.824L85.0989 6.352H86.8089L82.6509 17.332C82.3149 18.244 81.8769 18.97 81.3369 19.51C80.8089 20.05 80.0769 20.32 79.1409 20.32C78.8529 20.32 78.6009 20.302 78.3849 20.266C78.1689 20.242 77.9829 20.212 77.8269 20.176V18.916C77.9589 18.94 78.1149 18.964 78.2949 18.988C78.4869 19.012 78.6849 19.024 78.8889 19.024C79.4409 19.024 79.8849 18.868 80.2209 18.556C80.5689 18.244 80.8389 17.83 81.0309 17.314L81.5349 16.036L77.6469 6.352ZM89.1447 2.734C89.3847 2.734 89.5947 2.818 89.7747 2.986C89.9667 3.142 90.0627 3.394 90.0627 3.742C90.0627 4.078 89.9667 4.33 89.7747 4.498C89.5947 4.666 89.3847 4.75 89.1447 4.75C88.8807 4.75 88.6587 4.666 88.4787 4.498C88.2987 4.33 88.2087 4.078 88.2087 3.742C88.2087 3.394 88.2987 3.142 88.4787 2.986C88.6587 2.818 88.8807 2.734 89.1447 2.734ZM89.9187 6.352V16H88.3347V6.352H89.9187ZM97.6193 6.172C98.7713 6.172 99.6413 6.454 100.229 7.018C100.817 7.57 101.111 8.47 101.111 9.718V16H99.5453V9.826C99.5453 8.278 98.8253 7.504 97.3853 7.504C96.3173 7.504 95.5793 7.804 95.1713 8.404C94.7633 9.004 94.5593 9.868 94.5593 10.996V16H92.9753V6.352H94.2533L94.4873 7.666H94.5773C94.8893 7.162 95.3213 6.79 95.8733 6.55C96.4253 6.298 97.0073 6.172 97.6193 6.172ZM107.522 6.172C108.158 6.172 108.728 6.292 109.232 6.532C109.748 6.772 110.186 7.138 110.546 7.63H110.636L110.852 6.352H112.112V16.162C112.112 17.542 111.758 18.58 111.05 19.276C110.354 19.972 109.268 20.32 107.792 20.32C106.376 20.32 105.218 20.116 104.318 19.708V18.25C105.266 18.754 106.454 19.006 107.882 19.006C108.71 19.006 109.358 18.76 109.826 18.268C110.306 17.788 110.546 17.128 110.546 16.288V15.91C110.546 15.766 110.552 15.562 110.564 15.298C110.576 15.022 110.588 14.83 110.6 14.722H110.528C109.88 15.694 108.884 16.18 107.54 16.18C106.292 16.18 105.314 15.742 104.606 14.866C103.91 13.99 103.562 12.766 103.562 11.194C103.562 9.658 103.91 8.44 104.606 7.54C105.314 6.628 106.286 6.172 107.522 6.172ZM107.738 7.504C106.934 7.504 106.31 7.828 105.866 8.476C105.422 9.112 105.2 10.024 105.2 11.212C105.2 12.4 105.416 13.312 105.848 13.948C106.292 14.572 106.934 14.884 107.774 14.884C108.746 14.884 109.454 14.626 109.898 14.11C110.342 13.582 110.564 12.736 110.564 11.572V11.194C110.564 9.874 110.336 8.932 109.88 8.368C109.424 7.792 108.71 7.504 107.738 7.504ZM126.527 9.214H130.973V15.514C130.277 15.742 129.575 15.91 128.867 16.018C128.159 16.126 127.355 16.18 126.455 16.18C125.123 16.18 124.001 15.916 123.089 15.388C122.177 14.848 121.481 14.086 121.001 13.102C120.533 12.106 120.299 10.93 120.299 9.574C120.299 8.23 120.563 7.066 121.091 6.082C121.619 5.098 122.375 4.336 123.359 3.796C124.355 3.244 125.555 2.968 126.959 2.968C127.679 2.968 128.357 3.034 128.993 3.166C129.641 3.298 130.241 3.484 130.793 3.724L130.181 5.128C129.725 4.924 129.209 4.75 128.633 4.606C128.069 4.462 127.481 4.39 126.869 4.39C125.333 4.39 124.133 4.852 123.269 5.776C122.417 6.7 121.991 7.966 121.991 9.574C121.991 10.594 122.153 11.5 122.477 12.292C122.813 13.072 123.335 13.684 124.043 14.128C124.751 14.56 125.681 14.776 126.833 14.776C127.397 14.776 127.877 14.746 128.273 14.686C128.669 14.626 129.029 14.554 129.353 14.47V10.654H126.527V9.214ZM137.481 6.19C138.657 6.19 139.527 6.448 140.091 6.964C140.655 7.48 140.937 8.302 140.937 9.43V16H139.785L139.479 14.632H139.407C138.987 15.16 138.543 15.55 138.075 15.802C137.619 16.054 136.983 16.18 136.167 16.18C135.291 16.18 134.565 15.952 133.989 15.496C133.413 15.028 133.125 14.302 133.125 13.318C133.125 12.358 133.503 11.62 134.259 11.104C135.015 10.576 136.179 10.288 137.751 10.24L139.389 10.186V9.61C139.389 8.806 139.215 8.248 138.867 7.936C138.519 7.624 138.027 7.468 137.391 7.468C136.887 7.468 136.407 7.546 135.951 7.702C135.495 7.846 135.069 8.014 134.673 8.206L134.187 7.018C134.607 6.79 135.105 6.598 135.681 6.442C136.257 6.274 136.857 6.19 137.481 6.19ZM137.949 11.338C136.749 11.386 135.915 11.578 135.447 11.914C134.991 12.25 134.763 12.724 134.763 13.336C134.763 13.876 134.925 14.272 135.249 14.524C135.585 14.776 136.011 14.902 136.527 14.902C137.343 14.902 138.021 14.68 138.561 14.236C139.101 13.78 139.371 13.084 139.371 12.148V11.284L137.949 11.338ZM154.501 6.172C155.593 6.172 156.409 6.454 156.949 7.018C157.489 7.57 157.759 8.47 157.759 9.718V16H156.193V9.79C156.193 8.266 155.539 7.504 154.231 7.504C153.295 7.504 152.623 7.774 152.215 8.314C151.819 8.854 151.621 9.64 151.621 10.672V16H150.055V9.79C150.055 8.266 149.395 7.504 148.075 7.504C147.103 7.504 146.431 7.804 146.059 8.404C145.687 9.004 145.501 9.868 145.501 10.996V16H143.917V6.352H145.195L145.429 7.666H145.519C145.819 7.162 146.221 6.79 146.725 6.55C147.241 6.298 147.787 6.172 148.363 6.172C149.875 6.172 150.859 6.712 151.315 7.792H151.405C151.729 7.24 152.167 6.832 152.719 6.568C153.283 6.304 153.877 6.172 154.501 6.172ZM164.465 6.172C165.293 6.172 166.001 6.352 166.589 6.712C167.189 7.072 167.645 7.582 167.957 8.242C168.281 8.89 168.443 9.652 168.443 10.528V11.482H161.837C161.861 12.574 162.137 13.408 162.665 13.984C163.205 14.548 163.955 14.83 164.915 14.83C165.527 14.83 166.067 14.776 166.535 14.668C167.015 14.548 167.507 14.38 168.011 14.164V15.55C167.519 15.766 167.033 15.922 166.553 16.018C166.073 16.126 165.503 16.18 164.843 16.18C163.931 16.18 163.121 15.994 162.413 15.622C161.717 15.25 161.171 14.698 160.775 13.966C160.391 13.222 160.199 12.316 160.199 11.248C160.199 10.192 160.373 9.286 160.721 8.53C161.081 7.774 161.579 7.192 162.215 6.784C162.863 6.376 163.613 6.172 164.465 6.172ZM164.447 7.468C163.691 7.468 163.091 7.714 162.647 8.206C162.215 8.686 161.957 9.358 161.873 10.222H166.787C166.775 9.406 166.583 8.746 166.211 8.242C165.839 7.726 165.251 7.468 164.447 7.468ZM177.181 13.336C177.181 14.272 176.833 14.98 176.137 15.46C175.441 15.94 174.505 16.18 173.329 16.18C172.657 16.18 172.075 16.126 171.583 16.018C171.103 15.91 170.677 15.76 170.305 15.568V14.128C170.689 14.32 171.151 14.5 171.691 14.668C172.243 14.824 172.801 14.902 173.365 14.902C174.169 14.902 174.751 14.776 175.111 14.524C175.471 14.26 175.651 13.912 175.651 13.48C175.651 13.24 175.585 13.024 175.453 12.832C175.321 12.64 175.081 12.448 174.733 12.256C174.397 12.064 173.911 11.848 173.275 11.608C172.651 11.368 172.117 11.128 171.673 10.888C171.229 10.648 170.887 10.36 170.647 10.024C170.407 9.688 170.287 9.256 170.287 8.728C170.287 7.912 170.617 7.282 171.277 6.838C171.949 6.394 172.825 6.172 173.905 6.172C174.493 6.172 175.039 6.232 175.543 6.352C176.059 6.46 176.539 6.616 176.983 6.82L176.443 8.08C176.035 7.912 175.609 7.768 175.165 7.648C174.721 7.528 174.265 7.468 173.797 7.468C173.149 7.468 172.651 7.576 172.303 7.792C171.967 7.996 171.799 8.278 171.799 8.638C171.799 8.902 171.877 9.13 172.033 9.322C172.189 9.502 172.447 9.682 172.807 9.862C173.179 10.03 173.671 10.234 174.283 10.474C174.895 10.702 175.417 10.936 175.849 11.176C176.281 11.416 176.611 11.71 176.839 12.058C177.067 12.394 177.181 12.82 177.181 13.336Z" fill="#4BB59B"/>
<path d="M56.984 48.14C55.7053 48.14 54.7533 47.8413 54.128 47.244C53.512 46.6373 53.204 45.718 53.204 44.486V38.2H54.212V44.626C54.212 45.5313 54.436 46.1987 54.884 46.628C55.332 47.0573 56.032 47.272 56.984 47.272C57.9453 47.272 58.6453 47.062 59.084 46.642C59.5227 46.2127 59.742 45.5407 59.742 44.626V38.2H60.75V44.486C60.75 45.7367 60.4467 46.6607 59.84 47.258C59.2333 47.846 58.2813 48.14 56.984 48.14ZM65.3421 48.14C64.9221 48.14 64.4881 48.07 64.0401 47.93C63.5921 47.79 63.2188 47.6033 62.9201 47.37C62.6214 47.1367 62.4721 46.8893 62.4721 46.628C62.4721 46.5067 62.5094 46.3993 62.5841 46.306C62.6681 46.2033 62.7708 46.1333 62.8921 46.096C63.2281 46.5347 63.5921 46.8567 63.9841 47.062C64.3761 47.258 64.8474 47.356 65.3981 47.356C65.9861 47.356 66.4294 47.2207 66.7281 46.95C67.0361 46.6793 67.1901 46.32 67.1901 45.872C67.1901 45.5733 67.0968 45.3307 66.9101 45.144C66.7328 44.9573 66.5088 44.8173 66.2381 44.724C65.9768 44.6307 65.6128 44.5233 65.1461 44.402C64.6048 44.262 64.1661 44.1267 63.8301 43.996C63.5034 43.8653 63.2234 43.6693 62.9901 43.408C62.7661 43.1373 62.6541 42.778 62.6541 42.33C62.6541 41.854 62.7801 41.4527 63.0321 41.126C63.2841 40.7993 63.6061 40.5567 63.9981 40.398C64.3901 40.2393 64.7914 40.16 65.2021 40.16C65.7901 40.16 66.3221 40.2767 66.7981 40.51C67.2834 40.7433 67.6614 41.084 67.9321 41.532C67.7081 41.7653 67.5168 41.882 67.3581 41.882C67.2368 41.882 67.1201 41.8167 67.0081 41.686C66.7841 41.4247 66.5228 41.2333 66.2241 41.112C65.9348 40.9813 65.5801 40.916 65.1601 40.916C64.6841 40.916 64.3061 41.028 64.0261 41.252C63.7461 41.476 63.6061 41.8213 63.6061 42.288C63.6061 42.5587 63.6901 42.778 63.8581 42.946C64.0261 43.114 64.2361 43.2447 64.4881 43.338C64.7401 43.422 65.0854 43.52 65.5241 43.632C66.0841 43.7627 66.5368 43.898 66.8821 44.038C67.2368 44.178 67.5354 44.3973 67.7781 44.696C68.0208 44.9853 68.1421 45.3773 68.1421 45.872C68.1421 46.5627 67.8854 47.1133 67.3721 47.524C66.8681 47.9347 66.1914 48.14 65.3421 48.14ZM75.987 43.604C75.987 43.8187 75.9777 44.0333 75.959 44.248H70.387C70.4057 45.2187 70.6204 45.9747 71.031 46.516C71.451 47.0573 72.0297 47.328 72.767 47.328C73.271 47.328 73.6957 47.23 74.041 47.034C74.3957 46.838 74.6897 46.5253 74.923 46.096C74.9884 45.9747 75.0864 45.914 75.217 45.914C75.3664 45.914 75.5717 46.0027 75.833 46.18C75.6277 46.7867 75.2497 47.2673 74.699 47.622C74.1484 47.9673 73.5044 48.14 72.767 48.14C72.0857 48.14 71.4884 47.9813 70.975 47.664C70.471 47.3373 70.0837 46.8753 69.813 46.278C69.5424 45.6713 69.407 44.9573 69.407 44.136C69.407 42.8947 69.715 41.924 70.331 41.224C70.947 40.5147 71.7917 40.16 72.865 40.16C73.845 40.16 74.6104 40.4633 75.161 41.07C75.7117 41.6767 75.987 42.5213 75.987 43.604ZM75.007 43.492C75.007 41.812 74.279 40.972 72.823 40.972C72.1137 40.972 71.5537 41.1867 71.143 41.616C70.7324 42.0453 70.4897 42.6707 70.415 43.492H75.007ZM80.825 40.202C81.1517 40.202 81.399 40.258 81.567 40.37C81.7443 40.4727 81.833 40.6313 81.833 40.846C81.833 40.9953 81.7817 41.1307 81.679 41.252C81.455 41.1307 81.147 41.07 80.755 41.07C80.1297 41.07 79.6257 41.3173 79.243 41.812C78.8697 42.3067 78.683 42.9553 78.683 43.758V48H77.731V40.3H78.683V41.686C78.8977 41.2567 79.201 40.902 79.593 40.622C79.985 40.342 80.3957 40.202 80.825 40.202ZM85.5765 48.14C85.1565 48.14 84.7225 48.07 84.2745 47.93C83.8265 47.79 83.4532 47.6033 83.1545 47.37C82.8558 47.1367 82.7065 46.8893 82.7065 46.628C82.7065 46.5067 82.7438 46.3993 82.8185 46.306C82.9025 46.2033 83.0052 46.1333 83.1265 46.096C83.4625 46.5347 83.8265 46.8567 84.2185 47.062C84.6105 47.258 85.0818 47.356 85.6325 47.356C86.2205 47.356 86.6638 47.2207 86.9625 46.95C87.2705 46.6793 87.4245 46.32 87.4245 45.872C87.4245 45.5733 87.3312 45.3307 87.1445 45.144C86.9672 44.9573 86.7432 44.8173 86.4725 44.724C86.2112 44.6307 85.8472 44.5233 85.3805 44.402C84.8392 44.262 84.4005 44.1267 84.0645 43.996C83.7378 43.8653 83.4578 43.6693 83.2245 43.408C83.0005 43.1373 82.8885 42.778 82.8885 42.33C82.8885 41.854 83.0145 41.4527 83.2665 41.126C83.5185 40.7993 83.8405 40.5567 84.2325 40.398C84.6245 40.2393 85.0258 40.16 85.4365 40.16C86.0245 40.16 86.5565 40.2767 87.0325 40.51C87.5178 40.7433 87.8958 41.084 88.1665 41.532C87.9425 41.7653 87.7512 41.882 87.5925 41.882C87.4712 41.882 87.3545 41.8167 87.2425 41.686C87.0185 41.4247 86.7572 41.2333 86.4585 41.112C86.1692 40.9813 85.8145 40.916 85.3945 40.916C84.9185 40.916 84.5405 41.028 84.2605 41.252C83.9805 41.476 83.8405 41.8213 83.8405 42.288C83.8405 42.5587 83.9245 42.778 84.0925 42.946C84.2605 43.114 84.4705 43.2447 84.7225 43.338C84.9745 43.422 85.3198 43.52 85.7585 43.632C86.3185 43.7627 86.7712 43.898 87.1165 44.038C87.4712 44.178 87.7698 44.3973 88.0125 44.696C88.2552 44.9853 88.3765 45.3773 88.3765 45.872C88.3765 46.5627 88.1198 47.1133 87.6065 47.524C87.1025 47.9347 86.4258 48.14 85.5765 48.14ZM96.6948 48.14C95.5654 48.14 94.6834 47.7853 94.0488 47.076C93.4234 46.3667 93.1108 45.3773 93.1108 44.108C93.1108 43.3053 93.2508 42.61 93.5308 42.022C93.8201 41.4247 94.2308 40.9673 94.7628 40.65C95.2948 40.3233 95.9201 40.16 96.6388 40.16C97.4974 40.16 98.2021 40.3793 98.7528 40.818C99.3128 41.2473 99.6394 41.8353 99.7328 42.582C99.6488 42.6193 99.5321 42.6567 99.3828 42.694C99.2428 42.7313 99.1261 42.75 99.0328 42.75C98.9394 42.75 98.8694 42.7267 98.8228 42.68C98.7854 42.624 98.7434 42.512 98.6968 42.344C98.5941 41.9053 98.3608 41.5647 97.9968 41.322C97.6328 41.07 97.1801 40.944 96.6388 40.944C96.1348 40.944 95.6868 41.0747 95.2948 41.336C94.9121 41.5973 94.6134 41.9707 94.3988 42.456C94.1934 42.932 94.0908 43.4827 94.0908 44.108C94.0908 45.0973 94.3241 45.886 94.7908 46.474C95.2668 47.062 95.9014 47.356 96.6948 47.356C97.3014 47.356 97.8194 47.216 98.2488 46.936C98.6781 46.6467 99.0001 46.2267 99.2148 45.676C99.3454 45.676 99.4528 45.732 99.5368 45.844C99.6301 45.956 99.6768 46.0867 99.6768 46.236C99.6768 46.5627 99.5368 46.8753 99.2568 47.174C98.9861 47.4633 98.6174 47.6967 98.1508 47.874C97.6934 48.0513 97.2081 48.14 96.6948 48.14ZM106.926 46.082C106.926 46.5113 106.958 46.852 107.024 47.104C107.098 47.3467 107.224 47.566 107.402 47.762C107.308 47.8553 107.196 47.93 107.066 47.986C106.944 48.042 106.828 48.07 106.716 48.07C106.529 48.07 106.37 47.9627 106.24 47.748C106.118 47.5333 106.039 47.2393 106.002 46.866C105.712 47.258 105.325 47.5707 104.84 47.804C104.354 48.028 103.846 48.14 103.314 48.14C102.604 48.14 102.035 47.958 101.606 47.594C101.176 47.2207 100.962 46.7353 100.962 46.138C100.962 45.2607 101.386 44.5747 102.236 44.08C103.094 43.5853 104.34 43.3007 105.974 43.226V42.778C105.974 42.162 105.815 41.7047 105.498 41.406C105.19 41.098 104.718 40.944 104.084 40.944C103.673 40.944 103.29 41.0327 102.936 41.21C102.59 41.378 102.217 41.6627 101.816 42.064C101.76 42.12 101.69 42.148 101.606 42.148C101.512 42.148 101.41 42.1107 101.298 42.036C101.186 41.952 101.078 41.8353 100.976 41.686C101.396 41.1913 101.872 40.8133 102.404 40.552C102.945 40.2907 103.519 40.16 104.126 40.16C104.994 40.16 105.675 40.3933 106.17 40.86C106.674 41.3267 106.926 41.966 106.926 42.778V46.082ZM103.384 47.356C103.888 47.356 104.364 47.216 104.812 46.936C105.26 46.656 105.647 46.2593 105.974 45.746V44.01C103.286 44.122 101.942 44.8267 101.942 46.124C101.942 46.9453 102.422 47.356 103.384 47.356ZM115.348 46.208C115.348 46.7773 115.353 47.1647 115.362 47.37C115.381 47.566 115.418 47.7433 115.474 47.902C115.25 48.014 115.008 48.07 114.746 48.07C114.606 48.07 114.513 47.972 114.466 47.776C114.42 47.5707 114.396 47.1693 114.396 46.572V42.778C114.396 42.1247 114.275 41.6533 114.032 41.364C113.79 41.0653 113.398 40.916 112.856 40.916C112.016 40.916 111.158 41.3313 110.28 42.162V48H109.328V42.918C109.328 41.5367 109.272 40.7153 109.16 40.454C109.459 40.314 109.697 40.244 109.874 40.244C110.145 40.244 110.28 40.5147 110.28 41.056V41.182C110.71 40.8273 111.139 40.5707 111.568 40.412C112.007 40.244 112.469 40.16 112.954 40.16C113.757 40.16 114.354 40.3793 114.746 40.818C115.148 41.2473 115.348 41.9053 115.348 42.792V46.208ZM123.653 48.14C123.233 48.14 122.799 48.07 122.351 47.93C121.903 47.79 121.529 47.6033 121.231 47.37C120.932 47.1367 120.783 46.8893 120.783 46.628C120.783 46.5067 120.82 46.3993 120.895 46.306C120.979 46.2033 121.081 46.1333 121.203 46.096C121.539 46.5347 121.903 46.8567 122.295 47.062C122.687 47.258 123.158 47.356 123.709 47.356C124.297 47.356 124.74 47.2207 125.039 46.95C125.347 46.6793 125.501 46.32 125.501 45.872C125.501 45.5733 125.407 45.3307 125.221 45.144C125.043 44.9573 124.819 44.8173 124.549 44.724C124.287 44.6307 123.923 44.5233 123.457 44.402C122.915 44.262 122.477 44.1267 122.141 43.996C121.814 43.8653 121.534 43.6693 121.301 43.408C121.077 43.1373 120.965 42.778 120.965 42.33C120.965 41.854 121.091 41.4527 121.343 41.126C121.595 40.7993 121.917 40.5567 122.309 40.398C122.701 40.2393 123.102 40.16 123.513 40.16C124.101 40.16 124.633 40.2767 125.109 40.51C125.594 40.7433 125.972 41.084 126.243 41.532C126.019 41.7653 125.827 41.882 125.669 41.882C125.547 41.882 125.431 41.8167 125.319 41.686C125.095 41.4247 124.833 41.2333 124.535 41.112C124.245 40.9813 123.891 40.916 123.471 40.916C122.995 40.916 122.617 41.028 122.337 41.252C122.057 41.476 121.917 41.8213 121.917 42.288C121.917 42.5587 122.001 42.778 122.169 42.946C122.337 43.114 122.547 43.2447 122.799 43.338C123.051 43.422 123.396 43.52 123.835 43.632C124.395 43.7627 124.847 43.898 125.193 44.038C125.547 44.178 125.846 44.3973 126.089 44.696C126.331 44.9853 126.453 45.3773 126.453 45.872C126.453 46.5627 126.196 47.1133 125.683 47.524C125.179 47.9347 124.502 48.14 123.653 48.14ZM131.61 40.16C132.655 40.16 133.453 40.5053 134.004 41.196C134.554 41.8773 134.83 42.8573 134.83 44.136C134.83 44.948 134.685 45.6573 134.396 46.264C134.116 46.8613 133.705 47.3233 133.164 47.65C132.632 47.9767 132.006 48.14 131.288 48.14C130.933 48.14 130.574 48.1027 130.21 48.028C129.855 47.9627 129.538 47.874 129.258 47.762V51.08H128.306V42.918C128.306 41.5367 128.25 40.7153 128.138 40.454C128.436 40.314 128.674 40.244 128.852 40.244C129.122 40.244 129.258 40.5147 129.258 41.056V41.112C129.566 40.804 129.92 40.5707 130.322 40.412C130.732 40.244 131.162 40.16 131.61 40.16ZM131.288 47.356C132.09 47.356 132.711 47.076 133.15 46.516C133.598 45.956 133.822 45.1627 133.822 44.136C133.822 42.008 133.084 40.944 131.61 40.944C131.18 40.944 130.76 41.042 130.35 41.238C129.948 41.434 129.584 41.714 129.258 42.078V46.936C129.836 47.216 130.513 47.356 131.288 47.356ZM142.665 43.604C142.665 43.8187 142.655 44.0333 142.637 44.248H137.065C137.083 45.2187 137.298 45.9747 137.709 46.516C138.129 47.0573 138.707 47.328 139.445 47.328C139.949 47.328 140.373 47.23 140.719 47.034C141.073 46.838 141.367 46.5253 141.601 46.096C141.666 45.9747 141.764 45.914 141.895 45.914C142.044 45.914 142.249 46.0027 142.511 46.18C142.305 46.7867 141.927 47.2673 141.377 47.622C140.826 47.9673 140.182 48.14 139.445 48.14C138.763 48.14 138.166 47.9813 137.653 47.664C137.149 47.3373 136.761 46.8753 136.491 46.278C136.22 45.6713 136.085 44.9573 136.085 44.136C136.085 42.8947 136.393 41.924 137.009 41.224C137.625 40.5147 138.469 40.16 139.543 40.16C140.523 40.16 141.288 40.4633 141.839 41.07C142.389 41.6767 142.665 42.5213 142.665 43.604ZM141.685 43.492C141.685 41.812 140.957 40.972 139.501 40.972C138.791 40.972 138.231 41.1867 137.821 41.616C137.41 42.0453 137.167 42.6707 137.093 43.492H141.685ZM150.499 46.208C150.499 46.7773 150.503 47.1647 150.513 47.37C150.531 47.566 150.569 47.7433 150.625 47.902C150.401 48.014 150.158 48.07 149.897 48.07C149.757 48.07 149.663 47.972 149.617 47.776C149.57 47.5707 149.547 47.1693 149.547 46.572V42.778C149.547 42.1247 149.425 41.6533 149.183 41.364C148.94 41.0653 148.548 40.916 148.007 40.916C147.167 40.916 146.308 41.3313 145.431 42.162V48H144.479V42.918C144.479 41.5367 144.423 40.7153 144.311 40.454C144.609 40.314 144.847 40.244 145.025 40.244C145.295 40.244 145.431 40.5147 145.431 41.056V41.182C145.86 40.8273 146.289 40.5707 146.719 40.412C147.157 40.244 147.619 40.16 148.105 40.16C148.907 40.16 149.505 40.3793 149.897 40.818C150.298 41.2473 150.499 41.9053 150.499 42.792V46.208ZM158.862 46.208C158.862 46.5067 158.88 46.81 158.918 47.118C158.955 47.426 159.002 47.6827 159.058 47.888C158.824 48 158.61 48.056 158.414 48.056C158.162 48.056 158.003 47.7387 157.938 47.104C157.63 47.4773 157.294 47.7433 156.93 47.902C156.566 48.0607 156.118 48.14 155.586 48.14C154.568 48.14 153.77 47.79 153.192 47.09C152.613 46.3807 152.324 45.41 152.324 44.178C152.324 42.9087 152.632 41.924 153.248 41.224C153.873 40.5147 154.741 40.16 155.852 40.16C156.197 40.16 156.561 40.2253 156.944 40.356C157.336 40.4773 157.658 40.6313 157.91 40.818V36.926H158.862V46.208ZM155.656 47.356C156.132 47.356 156.552 47.258 156.916 47.062C157.28 46.866 157.611 46.5627 157.91 46.152V41.742C157.686 41.5087 157.378 41.3127 156.986 41.154C156.603 40.9953 156.225 40.916 155.852 40.916C155.03 40.916 154.4 41.196 153.962 41.756C153.523 42.316 153.304 43.1233 153.304 44.178C153.304 45.2047 153.504 45.9933 153.906 46.544C154.307 47.0853 154.89 47.356 155.656 47.356ZM168.528 47.062C168.594 47.1087 168.645 47.1787 168.682 47.272C168.729 47.356 168.752 47.4447 168.752 47.538C168.752 47.7153 168.678 47.8413 168.528 47.916C168.23 48.0653 167.842 48.14 167.366 48.14C166.76 48.14 166.274 47.9767 165.91 47.65C165.546 47.314 165.364 46.866 165.364 46.306V41.056H163.908V40.3H165.364V38.2H166.316V40.3H168.332V41.056H166.316V46.124C166.316 46.908 166.652 47.3 167.324 47.3C167.754 47.3 168.155 47.2207 168.528 47.062ZM170.517 40.3H171.469V48H170.517V40.3ZM170.937 38.886C170.517 38.886 170.307 38.676 170.307 38.256V38.13C170.307 37.71 170.517 37.5 170.937 37.5H171.049C171.469 37.5 171.679 37.71 171.679 38.13V38.256C171.679 38.676 171.469 38.886 171.049 38.886H170.937ZM182.264 40.16C182.926 40.16 183.463 40.3747 183.874 40.804C184.294 41.2333 184.504 41.7887 184.504 42.47V48H183.538V42.512C183.538 41.9707 183.416 41.5693 183.174 41.308C182.931 41.0467 182.562 40.916 182.068 40.916C181.274 40.916 180.537 41.28 179.856 42.008C179.874 42.1573 179.884 42.2693 179.884 42.344V48H178.932V42.372C178.932 41.9333 178.796 41.5833 178.526 41.322C178.264 41.0513 177.914 40.916 177.476 40.916C177.074 40.916 176.692 41.0047 176.328 41.182C175.973 41.3593 175.614 41.644 175.25 42.036V48H174.298V42.918C174.298 41.5367 174.242 40.7153 174.13 40.454C174.428 40.314 174.666 40.244 174.844 40.244C175.114 40.244 175.25 40.5147 175.25 41.056V41.112C175.604 40.776 175.968 40.5333 176.342 40.384C176.724 40.2347 177.158 40.16 177.644 40.16C178.082 40.16 178.474 40.2627 178.82 40.468C179.165 40.664 179.431 40.9347 179.618 41.28C180.019 40.888 180.425 40.6033 180.836 40.426C181.256 40.2487 181.732 40.16 182.264 40.16ZM193.059 43.604C193.059 43.8187 193.05 44.0333 193.031 44.248H187.459C187.478 45.2187 187.693 45.9747 188.103 46.516C188.523 47.0573 189.102 47.328 189.839 47.328C190.343 47.328 190.768 47.23 191.113 47.034C191.468 46.838 191.762 46.5253 191.995 46.096C192.061 45.9747 192.159 45.914 192.289 45.914C192.439 45.914 192.644 46.0027 192.905 46.18C192.7 46.7867 192.322 47.2673 191.771 47.622C191.221 47.9673 190.577 48.14 189.839 48.14C189.158 48.14 188.561 47.9813 188.047 47.664C187.543 47.3373 187.156 46.8753 186.885 46.278C186.615 45.6713 186.479 44.9573 186.479 44.136C186.479 42.8947 186.787 41.924 187.403 41.224C188.019 40.5147 188.864 40.16 189.937 40.16C190.917 40.16 191.683 40.4633 192.233 41.07C192.784 41.6767 193.059 42.5213 193.059 43.604ZM192.079 43.492C192.079 41.812 191.351 40.972 189.895 40.972C189.186 40.972 188.626 41.1867 188.215 41.616C187.805 42.0453 187.562 42.6707 187.487 43.492H192.079ZM198.763 40.3H199.715V48H198.763V40.3ZM199.183 38.886C198.763 38.886 198.553 38.676 198.553 38.256V38.13C198.553 37.71 198.763 37.5 199.183 37.5H199.295C199.715 37.5 199.925 37.71 199.925 38.13V38.256C199.925 38.676 199.715 38.886 199.295 38.886H199.183ZM208.536 46.208C208.536 46.7773 208.541 47.1647 208.55 47.37C208.569 47.566 208.606 47.7433 208.662 47.902C208.438 48.014 208.195 48.07 207.934 48.07C207.794 48.07 207.701 47.972 207.654 47.776C207.607 47.5707 207.584 47.1693 207.584 46.572V42.778C207.584 42.1247 207.463 41.6533 207.22 41.364C206.977 41.0653 206.585 40.916 206.044 40.916C205.204 40.916 204.345 41.3313 203.468 42.162V48H202.516V42.918C202.516 41.5367 202.46 40.7153 202.348 40.454C202.647 40.314 202.885 40.244 203.062 40.244C203.333 40.244 203.468 40.5147 203.468 41.056V41.182C203.897 40.8273 204.327 40.5707 204.756 40.412C205.195 40.244 205.657 40.16 206.142 40.16C206.945 40.16 207.542 40.3793 207.934 40.818C208.335 41.2473 208.536 41.9053 208.536 42.792V46.208ZM218.198 47.062C218.263 47.1087 218.315 47.1787 218.352 47.272C218.399 47.356 218.422 47.4447 218.422 47.538C218.422 47.7153 218.347 47.8413 218.198 47.916C217.899 48.0653 217.512 48.14 217.036 48.14C216.429 48.14 215.944 47.9767 215.58 47.65C215.216 47.314 215.034 46.866 215.034 46.306V41.056H213.578V40.3H215.034V38.2H215.986V40.3H218.002V41.056H215.986V46.124C215.986 46.908 216.322 47.3 216.994 47.3C217.423 47.3 217.825 47.2207 218.198 47.062ZM223.588 40.16C224.391 40.16 225.026 40.3933 225.492 40.86C225.959 41.3173 226.192 41.9427 226.192 42.736V48H225.24V42.834C225.24 42.2273 225.091 41.7607 224.792 41.434C224.494 41.1073 224.064 40.944 223.504 40.944C223.075 40.944 222.622 41.042 222.146 41.238C221.67 41.4247 221.246 41.6767 220.872 41.994V48H219.92V36.926H220.872V41.084C221.283 40.7853 221.722 40.5567 222.188 40.398C222.655 40.2393 223.122 40.16 223.588 40.16ZM234.745 43.604C234.745 43.8187 234.736 44.0333 234.717 44.248H229.145C229.164 45.2187 229.378 45.9747 229.789 46.516C230.209 47.0573 230.788 47.328 231.525 47.328C232.029 47.328 232.454 47.23 232.799 47.034C233.154 46.838 233.448 46.5253 233.681 46.096C233.746 45.9747 233.844 45.914 233.975 45.914C234.124 45.914 234.33 46.0027 234.591 46.18C234.386 46.7867 234.008 47.2673 233.457 47.622C232.906 47.9673 232.262 48.14 231.525 48.14C230.844 48.14 230.246 47.9813 229.733 47.664C229.229 47.3373 228.842 46.8753 228.571 46.278C228.3 45.6713 228.165 44.9573 228.165 44.136C228.165 42.8947 228.473 41.924 229.089 41.224C229.705 40.5147 230.55 40.16 231.623 40.16C232.603 40.16 233.368 40.4633 233.919 41.07C234.47 41.6767 234.745 42.5213 234.745 43.604ZM233.765 43.492C233.765 41.812 233.037 40.972 231.581 40.972C230.872 40.972 230.312 41.1867 229.901 41.616C229.49 42.0453 229.248 42.6707 229.173 43.492H233.765ZM245.572 46.082C245.572 46.5113 245.605 46.852 245.67 47.104C245.745 47.3467 245.871 47.566 246.048 47.762C245.955 47.8553 245.843 47.93 245.712 47.986C245.591 48.042 245.474 48.07 245.362 48.07C245.176 48.07 245.017 47.9627 244.886 47.748C244.765 47.5333 244.686 47.2393 244.648 46.866C244.359 47.258 243.972 47.5707 243.486 47.804C243.001 48.028 242.492 48.14 241.96 48.14C241.251 48.14 240.682 47.958 240.252 47.594C239.823 47.2207 239.608 46.7353 239.608 46.138C239.608 45.2607 240.033 44.5747 240.882 44.08C241.741 43.5853 242.987 43.3007 244.62 43.226V42.778C244.62 42.162 244.462 41.7047 244.144 41.406C243.836 41.098 243.365 40.944 242.73 40.944C242.32 40.944 241.937 41.0327 241.582 41.21C241.237 41.378 240.864 41.6627 240.462 42.064C240.406 42.12 240.336 42.148 240.252 42.148C240.159 42.148 240.056 42.1107 239.944 42.036C239.832 41.952 239.725 41.8353 239.622 41.686C240.042 41.1913 240.518 40.8133 241.05 40.552C241.592 40.2907 242.166 40.16 242.772 40.16C243.64 40.16 244.322 40.3933 244.816 40.86C245.32 41.3267 245.572 41.966 245.572 42.778V46.082ZM242.03 47.356C242.534 47.356 243.01 47.216 243.458 46.936C243.906 46.656 244.294 46.2593 244.62 45.746V44.01C241.932 44.122 240.588 44.8267 240.588 46.124C240.588 46.9453 241.069 47.356 242.03 47.356ZM251.307 40.16C252.352 40.16 253.15 40.5053 253.701 41.196C254.252 41.8773 254.527 42.8573 254.527 44.136C254.527 44.948 254.382 45.6573 254.093 46.264C253.813 46.8613 253.402 47.3233 252.861 47.65C252.329 47.9767 251.704 48.14 250.985 48.14C250.63 48.14 250.271 48.1027 249.907 48.028C249.552 47.9627 249.235 47.874 248.955 47.762V51.08H248.003V42.918C248.003 41.5367 247.947 40.7153 247.835 40.454C248.134 40.314 248.372 40.244 248.549 40.244C248.82 40.244 248.955 40.5147 248.955 41.056V41.112C249.263 40.804 249.618 40.5707 250.019 40.412C250.43 40.244 250.859 40.16 251.307 40.16ZM250.985 47.356C251.788 47.356 252.408 47.076 252.847 46.516C253.295 45.956 253.519 45.1627 253.519 44.136C253.519 42.008 252.782 40.944 251.307 40.944C250.878 40.944 250.458 41.042 250.047 41.238C249.646 41.434 249.282 41.714 248.955 42.078V46.936C249.534 47.216 250.21 47.356 250.985 47.356ZM259.674 40.16C260.719 40.16 261.517 40.5053 262.068 41.196C262.619 41.8773 262.894 42.8573 262.894 44.136C262.894 44.948 262.749 45.6573 262.46 46.264C262.18 46.8613 261.769 47.3233 261.228 47.65C260.696 47.9767 260.071 48.14 259.352 48.14C258.997 48.14 258.638 48.1027 258.274 48.028C257.919 47.9627 257.602 47.874 257.322 47.762V51.08H256.37V42.918C256.37 41.5367 256.314 40.7153 256.202 40.454C256.501 40.314 256.739 40.244 256.916 40.244C257.187 40.244 257.322 40.5147 257.322 41.056V41.112C257.63 40.804 257.985 40.5707 258.386 40.412C258.797 40.244 259.226 40.16 259.674 40.16ZM259.352 47.356C260.155 47.356 260.775 47.076 261.214 46.516C261.662 45.956 261.886 45.1627 261.886 44.136C261.886 42.008 261.149 40.944 259.674 40.944C259.245 40.944 258.825 41.042 258.414 41.238C258.013 41.434 257.649 41.714 257.322 42.078V46.936C257.901 47.216 258.577 47.356 259.352 47.356ZM271.791 40.16C272.827 40.16 273.625 40.496 274.185 41.168C274.754 41.84 275.039 42.792 275.039 44.024C275.039 45.312 274.745 46.32 274.157 47.048C273.569 47.776 272.757 48.14 271.721 48.14C270.731 48.14 269.957 47.846 269.397 47.258C269.313 47.7527 269.149 48 268.907 48C268.627 48 268.393 47.944 268.207 47.832C268.384 47.44 268.473 46.88 268.473 46.152V36.926H269.453V40.874C270.134 40.398 270.913 40.16 271.791 40.16ZM271.721 47.328C272.467 47.328 273.041 47.0433 273.443 46.474C273.853 45.8953 274.059 45.0787 274.059 44.024C274.059 43.0347 273.863 42.274 273.471 41.742C273.079 41.21 272.519 40.944 271.791 40.944C270.932 40.944 270.153 41.21 269.453 41.742V46.292C270.003 46.9827 270.759 47.328 271.721 47.328ZM282.24 40.3L279.258 48.588C278.996 49.3253 278.665 49.862 278.264 50.198C277.872 50.5433 277.372 50.716 276.766 50.716C276.411 50.716 276.131 50.66 275.926 50.548C275.72 50.4453 275.618 50.3053 275.618 50.128C275.618 49.9413 275.697 49.792 275.856 49.68C275.949 49.7453 276.089 49.8013 276.276 49.848C276.472 49.8947 276.663 49.918 276.85 49.918C277.232 49.918 277.559 49.75 277.83 49.414C278.11 49.078 278.348 48.5647 278.544 47.874L275.8 40.3H276.808L279.034 46.502L281.232 40.3H282.24ZM56.592 62.16C57.6373 62.16 58.4353 62.5053 58.986 63.196C59.5367 63.8773 59.812 64.8573 59.812 66.136C59.812 66.948 59.6673 67.6573 59.378 68.264C59.098 68.8613 58.6873 69.3233 58.146 69.65C57.614 69.9767 56.9887 70.14 56.27 70.14C55.9153 70.14 55.556 70.1027 55.192 70.028C54.8373 69.9627 54.52 69.874 54.24 69.762V73.08H53.288V64.918C53.288 63.5367 53.232 62.7153 53.12 62.454C53.4187 62.314 53.6567 62.244 53.834 62.244C54.1047 62.244 54.24 62.5147 54.24 63.056V63.112C54.548 62.804 54.9027 62.5707 55.304 62.412C55.7147 62.244 56.144 62.16 56.592 62.16ZM56.27 69.356C57.0727 69.356 57.6933 69.076 58.132 68.516C58.58 67.956 58.804 67.1627 58.804 66.136C58.804 64.008 58.0667 62.944 56.592 62.944C56.1627 62.944 55.7427 63.042 55.332 63.238C54.9307 63.434 54.5667 63.714 54.24 64.078V68.936C54.8187 69.216 55.4953 69.356 56.27 69.356ZM61.7672 58.926H62.7192V70H61.7672V58.926ZM70.7773 68.082C70.7773 68.5113 70.8099 68.852 70.8753 69.104C70.9499 69.3467 71.0759 69.566 71.2533 69.762C71.1599 69.8553 71.0479 69.93 70.9173 69.986C70.7959 70.042 70.6793 70.07 70.5673 70.07C70.3806 70.07 70.2219 69.9627 70.0913 69.748C69.9699 69.5333 69.8906 69.2393 69.8533 68.866C69.5639 69.258 69.1766 69.5707 68.6913 69.804C68.2059 70.028 67.6973 70.14 67.1653 70.14C66.4559 70.14 65.8866 69.958 65.4573 69.594C65.0279 69.2207 64.8133 68.7353 64.8133 68.138C64.8133 67.2607 65.2379 66.5747 66.0873 66.08C66.9459 65.5853 68.1919 65.3007 69.8253 65.226V64.778C69.8253 64.162 69.6666 63.7047 69.3493 63.406C69.0413 63.098 68.5699 62.944 67.9353 62.944C67.5246 62.944 67.1419 63.0327 66.7873 63.21C66.4419 63.378 66.0686 63.6627 65.6673 64.064C65.6113 64.12 65.5413 64.148 65.4573 64.148C65.3639 64.148 65.2613 64.1107 65.1493 64.036C65.0373 63.952 64.9299 63.8353 64.8273 63.686C65.2473 63.1913 65.7233 62.8133 66.2553 62.552C66.7966 62.2907 67.3706 62.16 67.9773 62.16C68.8453 62.16 69.5266 62.3933 70.0213 62.86C70.5253 63.3267 70.7773 63.966 70.7773 64.778V68.082ZM67.2353 69.356C67.7393 69.356 68.2153 69.216 68.6633 68.936C69.1113 68.656 69.4986 68.2593 69.8253 67.746V66.01C67.1373 66.122 65.7933 66.8267 65.7933 68.124C65.7933 68.9453 66.2739 69.356 67.2353 69.356ZM78.5559 62.3L75.5739 70.588C75.3126 71.3253 74.9813 71.862 74.5799 72.198C74.1879 72.5433 73.6886 72.716 73.0819 72.716C72.7273 72.716 72.4473 72.66 72.2419 72.548C72.0366 72.4453 71.9339 72.3053 71.9339 72.128C71.9339 71.9413 72.0133 71.792 72.1719 71.68C72.2653 71.7453 72.4053 71.8013 72.5919 71.848C72.7879 71.8947 72.9793 71.918 73.1659 71.918C73.5486 71.918 73.8753 71.75 74.1459 71.414C74.4259 71.078 74.6639 70.5647 74.8599 69.874L72.1159 62.3H73.1239L75.3499 68.502L77.5479 62.3H78.5559ZM80.2548 62.3H81.2068V70H80.2548V62.3ZM80.6748 60.886C80.2548 60.886 80.0448 60.676 80.0448 60.256V60.13C80.0448 59.71 80.2548 59.5 80.6748 59.5H80.7868C81.2068 59.5 81.4168 59.71 81.4168 60.13V60.256C81.4168 60.676 81.2068 60.886 80.7868 60.886H80.6748ZM90.028 68.208C90.028 68.7773 90.0327 69.1647 90.042 69.37C90.0607 69.566 90.098 69.7433 90.154 69.902C89.93 70.014 89.6874 70.07 89.426 70.07C89.286 70.07 89.1927 69.972 89.146 69.776C89.0994 69.5707 89.076 69.1693 89.076 68.572V64.778C89.076 64.1247 88.9547 63.6533 88.712 63.364C88.4694 63.0653 88.0774 62.916 87.536 62.916C86.696 62.916 85.8374 63.3313 84.96 64.162V70H84.008V64.918C84.008 63.5367 83.952 62.7153 83.84 62.454C84.1387 62.314 84.3767 62.244 84.554 62.244C84.8247 62.244 84.96 62.5147 84.96 63.056V63.182C85.3894 62.8273 85.8187 62.5707 86.248 62.412C86.6867 62.244 87.1487 62.16 87.634 62.16C88.4367 62.16 89.034 62.3793 89.426 62.818C89.8274 63.2473 90.028 63.9053 90.028 64.792V68.208ZM98.713 61.894C98.881 61.894 99.0023 61.9407 99.077 62.034C99.161 62.118 99.203 62.258 99.203 62.454C99.203 62.51 99.1936 62.622 99.175 62.79C98.4843 62.79 98.0036 62.8833 97.733 63.07C98.1063 63.518 98.293 64.0733 98.293 64.736C98.293 66.528 97.2616 67.424 95.199 67.424C94.5643 67.424 94.0976 67.4707 93.799 67.564C93.5096 67.648 93.365 67.7833 93.365 67.97C93.365 68.39 94.1163 68.6 95.619 68.6C96.6736 68.6 97.4903 68.7773 98.069 69.132C98.6476 69.4867 98.937 69.9907 98.937 70.644C98.937 71.344 98.6243 71.8807 97.999 72.254C97.383 72.6367 96.4963 72.828 95.339 72.828C94.247 72.828 93.4163 72.66 92.847 72.324C92.2776 71.988 91.993 71.4933 91.993 70.84C91.993 70.4667 92.119 70.1353 92.371 69.846C92.6323 69.5567 92.9916 69.342 93.449 69.202V69.16C93.169 69.0853 92.945 68.95 92.777 68.754C92.609 68.5487 92.525 68.306 92.525 68.026C92.525 67.7927 92.6183 67.5873 92.805 67.41C92.9916 67.2233 93.2436 67.0973 93.561 67.032C93.1596 66.808 92.847 66.514 92.623 66.15C92.4083 65.7767 92.301 65.3613 92.301 64.904C92.301 63.0747 93.3556 62.16 95.465 62.16C96.1276 62.16 96.6923 62.3047 97.159 62.594C97.3923 62.3793 97.6443 62.2113 97.915 62.09C98.195 61.9593 98.461 61.894 98.713 61.894ZM95.283 66.64C96.0016 66.64 96.515 66.5 96.823 66.22C97.1403 65.9307 97.299 65.4547 97.299 64.792C97.299 64.1387 97.1403 63.6627 96.823 63.364C96.5056 63.0653 95.9923 62.916 95.283 62.916C94.5923 62.916 94.0836 63.07 93.757 63.378C93.4396 63.6767 93.281 64.148 93.281 64.792C93.281 66.024 93.9483 66.64 95.283 66.64ZM95.395 69.468C94.6016 69.468 93.9996 69.5753 93.589 69.79C93.1876 70.0047 92.987 70.3173 92.987 70.728C92.987 71.1573 93.1876 71.484 93.589 71.708C93.9903 71.932 94.5736 72.044 95.339 72.044C96.1976 72.044 96.8463 71.932 97.285 71.708C97.7236 71.4933 97.943 71.1667 97.943 70.728C97.943 70.28 97.7423 69.958 97.341 69.762C96.949 69.566 96.3003 69.468 95.395 69.468ZM110.512 61.894C110.68 61.894 110.801 61.9407 110.876 62.034C110.96 62.118 111.002 62.258 111.002 62.454C111.002 62.51 110.992 62.622 110.974 62.79C110.283 62.79 109.802 62.8833 109.532 63.07C109.905 63.518 110.092 64.0733 110.092 64.736C110.092 66.528 109.06 67.424 106.998 67.424C106.363 67.424 105.896 67.4707 105.598 67.564C105.308 67.648 105.164 67.7833 105.164 67.97C105.164 68.39 105.915 68.6 107.418 68.6C108.472 68.6 109.289 68.7773 109.868 69.132C110.446 69.4867 110.736 69.9907 110.736 70.644C110.736 71.344 110.423 71.8807 109.798 72.254C109.182 72.6367 108.295 72.828 107.138 72.828C106.046 72.828 105.215 72.66 104.646 72.324C104.076 71.988 103.792 71.4933 103.792 70.84C103.792 70.4667 103.918 70.1353 104.17 69.846C104.431 69.5567 104.79 69.342 105.248 69.202V69.16C104.968 69.0853 104.744 68.95 104.576 68.754C104.408 68.5487 104.324 68.306 104.324 68.026C104.324 67.7927 104.417 67.5873 104.604 67.41C104.79 67.2233 105.042 67.0973 105.36 67.032C104.958 66.808 104.646 66.514 104.422 66.15C104.207 65.7767 104.1 65.3613 104.1 64.904C104.1 63.0747 105.154 62.16 107.264 62.16C107.926 62.16 108.491 62.3047 108.958 62.594C109.191 62.3793 109.443 62.2113 109.714 62.09C109.994 61.9593 110.26 61.894 110.512 61.894ZM107.082 66.64C107.8 66.64 108.314 66.5 108.622 66.22C108.939 65.9307 109.098 65.4547 109.098 64.792C109.098 64.1387 108.939 63.6627 108.622 63.364C108.304 63.0653 107.791 62.916 107.082 62.916C106.391 62.916 105.882 63.07 105.556 63.378C105.238 63.6767 105.08 64.148 105.08 64.792C105.08 66.024 105.747 66.64 107.082 66.64ZM107.194 69.468C106.4 69.468 105.798 69.5753 105.388 69.79C104.986 70.0047 104.786 70.3173 104.786 70.728C104.786 71.1573 104.986 71.484 105.388 71.708C105.789 71.932 106.372 72.044 107.138 72.044C107.996 72.044 108.645 71.932 109.084 71.708C109.522 71.4933 109.742 71.1667 109.742 70.728C109.742 70.28 109.541 69.958 109.14 69.762C108.748 69.566 108.099 69.468 107.194 69.468ZM117.945 68.082C117.945 68.5113 117.978 68.852 118.043 69.104C118.118 69.3467 118.244 69.566 118.421 69.762C118.328 69.8553 118.216 69.93 118.085 69.986C117.964 70.042 117.847 70.07 117.735 70.07C117.549 70.07 117.39 69.9627 117.259 69.748C117.138 69.5333 117.059 69.2393 117.021 68.866C116.732 69.258 116.345 69.5707 115.859 69.804C115.374 70.028 114.865 70.14 114.333 70.14C113.624 70.14 113.055 69.958 112.625 69.594C112.196 69.2207 111.981 68.7353 111.981 68.138C111.981 67.2607 112.406 66.5747 113.255 66.08C114.114 65.5853 115.36 65.3007 116.993 65.226V64.778C116.993 64.162 116.835 63.7047 116.517 63.406C116.209 63.098 115.738 62.944 115.103 62.944C114.693 62.944 114.31 63.0327 113.955 63.21C113.61 63.378 113.237 63.6627 112.835 64.064C112.779 64.12 112.709 64.148 112.625 64.148C112.532 64.148 112.429 64.1107 112.317 64.036C112.205 63.952 112.098 63.8353 111.995 63.686C112.415 63.1913 112.891 62.8133 113.423 62.552C113.965 62.2907 114.539 62.16 115.145 62.16C116.013 62.16 116.695 62.3933 117.189 62.86C117.693 63.3267 117.945 63.966 117.945 64.778V68.082ZM114.403 69.356C114.907 69.356 115.383 69.216 115.831 68.936C116.279 68.656 116.667 68.2593 116.993 67.746V66.01C114.305 66.122 112.961 66.8267 112.961 68.124C112.961 68.9453 113.442 69.356 114.403 69.356ZM128.342 62.16C129.005 62.16 129.541 62.3747 129.952 62.804C130.372 63.2333 130.582 63.7887 130.582 64.47V70H129.616V64.512C129.616 63.9707 129.495 63.5693 129.252 63.308C129.009 63.0467 128.641 62.916 128.146 62.916C127.353 62.916 126.615 63.28 125.934 64.008C125.953 64.1573 125.962 64.2693 125.962 64.344V70H125.01V64.372C125.01 63.9333 124.875 63.5833 124.604 63.322C124.343 63.0513 123.993 62.916 123.554 62.916C123.153 62.916 122.77 63.0047 122.406 63.182C122.051 63.3593 121.692 63.644 121.328 64.036V70H120.376V64.918C120.376 63.5367 120.32 62.7153 120.208 62.454C120.507 62.314 120.745 62.244 120.922 62.244C121.193 62.244 121.328 62.5147 121.328 63.056V63.112C121.683 62.776 122.047 62.5333 122.42 62.384C122.803 62.2347 123.237 62.16 123.722 62.16C124.161 62.16 124.553 62.2627 124.898 62.468C125.243 62.664 125.509 62.9347 125.696 63.28C126.097 62.888 126.503 62.6033 126.914 62.426C127.334 62.2487 127.81 62.16 128.342 62.16ZM139.137 65.604C139.137 65.8187 139.128 66.0333 139.109 66.248H133.537C133.556 67.2187 133.771 67.9747 134.181 68.516C134.601 69.0573 135.18 69.328 135.917 69.328C136.421 69.328 136.846 69.23 137.191 69.034C137.546 68.838 137.84 68.5253 138.073 68.096C138.139 67.9747 138.237 67.914 138.367 67.914C138.517 67.914 138.722 68.0027 138.983 68.18C138.778 68.7867 138.4 69.2673 137.849 69.622C137.299 69.9673 136.655 70.14 135.917 70.14C135.236 70.14 134.639 69.9813 134.125 69.664C133.621 69.3373 133.234 68.8753 132.963 68.278C132.693 67.6713 132.557 66.9573 132.557 66.136C132.557 64.8947 132.865 63.924 133.481 63.224C134.097 62.5147 134.942 62.16 136.015 62.16C136.995 62.16 137.761 62.4633 138.311 63.07C138.862 63.6767 139.137 64.5213 139.137 65.604ZM138.157 65.492C138.157 63.812 137.429 62.972 135.973 62.972C135.264 62.972 134.704 63.1867 134.293 63.616C133.883 64.0453 133.64 64.6707 133.565 65.492H138.157ZM143.121 70.14C142.701 70.14 142.267 70.07 141.819 69.93C141.371 69.79 140.998 69.6033 140.699 69.37C140.401 69.1367 140.251 68.8893 140.251 68.628C140.251 68.5067 140.289 68.3993 140.363 68.306C140.447 68.2033 140.55 68.1333 140.671 68.096C141.007 68.5347 141.371 68.8567 141.763 69.062C142.155 69.258 142.627 69.356 143.177 69.356C143.765 69.356 144.209 69.2207 144.507 68.95C144.815 68.6793 144.969 68.32 144.969 67.872C144.969 67.5733 144.876 67.3307 144.689 67.144C144.512 66.9573 144.288 66.8173 144.017 66.724C143.756 66.6307 143.392 66.5233 142.925 66.402C142.384 66.262 141.945 66.1267 141.609 65.996C141.283 65.8653 141.003 65.6693 140.769 65.408C140.545 65.1373 140.433 64.778 140.433 64.33C140.433 63.854 140.559 63.4527 140.811 63.126C141.063 62.7993 141.385 62.5567 141.777 62.398C142.169 62.2393 142.571 62.16 142.981 62.16C143.569 62.16 144.101 62.2767 144.577 62.51C145.063 62.7433 145.441 63.084 145.711 63.532C145.487 63.7653 145.296 63.882 145.137 63.882C145.016 63.882 144.899 63.8167 144.787 63.686C144.563 63.4247 144.302 63.2333 144.003 63.112C143.714 62.9813 143.359 62.916 142.939 62.916C142.463 62.916 142.085 63.028 141.805 63.252C141.525 63.476 141.385 63.8213 141.385 64.288C141.385 64.5587 141.469 64.778 141.637 64.946C141.805 65.114 142.015 65.2447 142.267 65.338C142.519 65.422 142.865 65.52 143.303 65.632C143.863 65.7627 144.316 65.898 144.661 66.038C145.016 66.178 145.315 66.3973 145.557 66.696C145.8 66.9853 145.921 67.3773 145.921 67.872C145.921 68.5627 145.665 69.1133 145.151 69.524C144.647 69.9347 143.971 70.14 143.121 70.14ZM156.76 68.082C156.76 68.5113 156.792 68.852 156.858 69.104C156.932 69.3467 157.058 69.566 157.236 69.762C157.142 69.8553 157.03 69.93 156.9 69.986C156.778 70.042 156.662 70.07 156.55 70.07C156.363 70.07 156.204 69.9627 156.074 69.748C155.952 69.5333 155.873 69.2393 155.836 68.866C155.546 69.258 155.159 69.5707 154.674 69.804C154.188 70.028 153.68 70.14 153.148 70.14C152.438 70.14 151.869 69.958 151.44 69.594C151.01 69.2207 150.796 68.7353 150.796 68.138C150.796 67.2607 151.22 66.5747 152.07 66.08C152.928 65.5853 154.174 65.3007 155.808 65.226V64.778C155.808 64.162 155.649 63.7047 155.332 63.406C155.024 63.098 154.552 62.944 153.918 62.944C153.507 62.944 153.124 63.0327 152.77 63.21C152.424 63.378 152.051 63.6627 151.65 64.064C151.594 64.12 151.524 64.148 151.44 64.148C151.346 64.148 151.244 64.1107 151.132 64.036C151.02 63.952 150.912 63.8353 150.81 63.686C151.23 63.1913 151.706 62.8133 152.238 62.552C152.779 62.2907 153.353 62.16 153.96 62.16C154.828 62.16 155.509 62.3933 156.004 62.86C156.508 63.3267 156.76 63.966 156.76 64.778V68.082ZM153.218 69.356C153.722 69.356 154.198 69.216 154.646 68.936C155.094 68.656 155.481 68.2593 155.808 67.746V66.01C153.12 66.122 151.776 66.8267 151.776 68.124C151.776 68.9453 152.256 69.356 153.218 69.356ZM165.182 68.208C165.182 68.7773 165.187 69.1647 165.196 69.37C165.215 69.566 165.252 69.7433 165.308 69.902C165.084 70.014 164.842 70.07 164.58 70.07C164.44 70.07 164.347 69.972 164.3 69.776C164.254 69.5707 164.23 69.1693 164.23 68.572V64.778C164.23 64.1247 164.109 63.6533 163.866 63.364C163.624 63.0653 163.232 62.916 162.69 62.916C161.85 62.916 160.992 63.3313 160.114 64.162V70H159.162V64.918C159.162 63.5367 159.106 62.7153 158.994 62.454C159.293 62.314 159.531 62.244 159.708 62.244C159.979 62.244 160.114 62.5147 160.114 63.056V63.182C160.544 62.8273 160.973 62.5707 161.402 62.412C161.841 62.244 162.303 62.16 162.788 62.16C163.591 62.16 164.188 62.3793 164.58 62.818C164.982 63.2473 165.182 63.9053 165.182 64.792V68.208ZM173.545 68.208C173.545 68.5067 173.564 68.81 173.601 69.118C173.639 69.426 173.685 69.6827 173.741 69.888C173.508 70 173.293 70.056 173.097 70.056C172.845 70.056 172.687 69.7387 172.621 69.104C172.313 69.4773 171.977 69.7433 171.613 69.902C171.249 70.0607 170.801 70.14 170.269 70.14C169.252 70.14 168.454 69.79 167.875 69.09C167.297 68.3807 167.007 67.41 167.007 66.178C167.007 64.9087 167.315 63.924 167.931 63.224C168.557 62.5147 169.425 62.16 170.535 62.16C170.881 62.16 171.245 62.2253 171.627 62.356C172.019 62.4773 172.341 62.6313 172.593 62.818V58.926H173.545V68.208ZM170.339 69.356C170.815 69.356 171.235 69.258 171.599 69.062C171.963 68.866 172.295 68.5627 172.593 68.152V63.742C172.369 63.5087 172.061 63.3127 171.669 63.154C171.287 62.9953 170.909 62.916 170.535 62.916C169.714 62.916 169.084 63.196 168.645 63.756C168.207 64.316 167.987 65.1233 167.987 66.178C167.987 67.2047 168.188 67.9933 168.589 68.544C168.991 69.0853 169.574 69.356 170.339 69.356ZM185.704 65.604C185.704 65.8187 185.694 66.0333 185.676 66.248H180.104C180.122 67.2187 180.337 67.9747 180.748 68.516C181.168 69.0573 181.746 69.328 182.484 69.328C182.988 69.328 183.412 69.23 183.758 69.034C184.112 68.838 184.406 68.5253 184.64 68.096C184.705 67.9747 184.803 67.914 184.934 67.914C185.083 67.914 185.288 68.0027 185.55 68.18C185.344 68.7867 184.966 69.2673 184.416 69.622C183.865 69.9673 183.221 70.14 182.484 70.14C181.802 70.14 181.205 69.9813 180.692 69.664C180.188 69.3373 179.8 68.8753 179.53 68.278C179.259 67.6713 179.124 66.9573 179.124 66.136C179.124 64.8947 179.432 63.924 180.048 63.224C180.664 62.5147 181.508 62.16 182.582 62.16C183.562 62.16 184.327 62.4633 184.878 63.07C185.428 63.6767 185.704 64.5213 185.704 65.604ZM184.724 65.492C184.724 63.812 183.996 62.972 182.54 62.972C181.83 62.972 181.27 63.1867 180.86 63.616C180.449 64.0453 180.206 64.6707 180.132 65.492H184.724ZM192.922 68.082C192.922 68.5113 192.954 68.852 193.02 69.104C193.094 69.3467 193.22 69.566 193.398 69.762C193.304 69.8553 193.192 69.93 193.062 69.986C192.94 70.042 192.824 70.07 192.712 70.07C192.525 70.07 192.366 69.9627 192.236 69.748C192.114 69.5333 192.035 69.2393 191.998 68.866C191.708 69.258 191.321 69.5707 190.836 69.804C190.35 70.028 189.842 70.14 189.31 70.14C188.6 70.14 188.031 69.958 187.602 69.594C187.172 69.2207 186.958 68.7353 186.958 68.138C186.958 67.2607 187.382 66.5747 188.232 66.08C189.09 65.5853 190.336 65.3007 191.97 65.226V64.778C191.97 64.162 191.811 63.7047 191.494 63.406C191.186 63.098 190.714 62.944 190.08 62.944C189.669 62.944 189.286 63.0327 188.932 63.21C188.586 63.378 188.213 63.6627 187.812 64.064C187.756 64.12 187.686 64.148 187.602 64.148C187.508 64.148 187.406 64.1107 187.294 64.036C187.182 63.952 187.074 63.8353 186.972 63.686C187.392 63.1913 187.868 62.8133 188.4 62.552C188.941 62.2907 189.515 62.16 190.122 62.16C190.99 62.16 191.671 62.3933 192.166 62.86C192.67 63.3267 192.922 63.966 192.922 64.778V68.082ZM189.38 69.356C189.884 69.356 190.36 69.216 190.808 68.936C191.256 68.656 191.643 68.2593 191.97 67.746V66.01C189.282 66.122 187.938 66.8267 187.938 68.124C187.938 68.9453 188.418 69.356 189.38 69.356ZM198.348 62.202C198.675 62.202 198.922 62.258 199.09 62.37C199.268 62.4727 199.356 62.6313 199.356 62.846C199.356 62.9953 199.305 63.1307 199.202 63.252C198.978 63.1307 198.67 63.07 198.278 63.07C197.653 63.07 197.149 63.3173 196.766 63.812C196.393 64.3067 196.206 64.9553 196.206 65.758V70H195.254V62.3H196.206V63.686C196.421 63.2567 196.724 62.902 197.116 62.622C197.508 62.342 197.919 62.202 198.348 62.202ZM206.95 68.208C206.95 68.7773 206.955 69.1647 206.964 69.37C206.983 69.566 207.02 69.7433 207.076 69.902C206.852 70.014 206.609 70.07 206.348 70.07C206.208 70.07 206.115 69.972 206.068 69.776C206.021 69.5707 205.998 69.1693 205.998 68.572V64.778C205.998 64.1247 205.877 63.6533 205.634 63.364C205.391 63.0653 204.999 62.916 204.458 62.916C203.618 62.916 202.759 63.3313 201.882 64.162V70H200.93V64.918C200.93 63.5367 200.874 62.7153 200.762 62.454C201.061 62.314 201.299 62.244 201.476 62.244C201.747 62.244 201.882 62.5147 201.882 63.056V63.182C202.311 62.8273 202.741 62.5707 203.17 62.412C203.609 62.244 204.071 62.16 204.556 62.16C205.359 62.16 205.956 62.3793 206.348 62.818C206.749 63.2473 206.95 63.9053 206.95 64.792V68.208ZM219.09 60.2C219.128 60.368 219.146 60.48 219.146 60.536C219.146 60.6947 219.104 60.8207 219.02 60.914C218.936 60.998 218.81 61.04 218.642 61.04H216.066V70H215.058V61.04H212.034V60.2H219.09ZM221.515 61.04V64.498H225.673V65.338H221.515V70H220.507V60.2H226.275V61.04H221.515ZM232.985 64.946C233.498 65.086 233.918 65.3707 234.245 65.8C234.571 66.2293 234.735 66.724 234.735 67.284C234.735 68.152 234.436 68.824 233.839 69.3C233.241 69.7667 232.392 70 231.291 70H227.931V60.2H231.151C232.121 60.2 232.887 60.4333 233.447 60.9C234.007 61.3573 234.287 61.9827 234.287 62.776C234.287 63.2707 234.165 63.714 233.923 64.106C233.689 64.498 233.377 64.778 232.985 64.946ZM233.279 62.776C233.279 62.2347 233.087 61.81 232.705 61.502C232.331 61.194 231.813 61.04 231.151 61.04H228.939V64.61H231.109C232.555 64.61 233.279 63.9987 233.279 62.776ZM231.151 69.16C232.065 69.16 232.723 69.0153 233.125 68.726C233.526 68.4273 233.727 67.9467 233.727 67.284C233.727 66.6307 233.517 66.1547 233.097 65.856C232.686 65.5573 232.028 65.408 231.123 65.408H228.939V69.16H231.151ZM242.074 70C241.925 69.104 241.631 68.32 241.192 67.648C240.753 66.9667 240.161 66.248 239.414 65.492C238.667 66.248 238.075 66.9667 237.636 67.648C237.197 68.32 236.903 69.104 236.754 70H235.676C235.816 69.2347 236.035 68.5487 236.334 67.942C236.642 67.326 236.987 66.7847 237.37 66.318C237.753 65.8513 238.215 65.352 238.756 64.82C237.963 64.0267 237.333 63.2893 236.866 62.608C236.399 61.9173 236.073 61.1147 235.886 60.2H236.936C237.104 60.984 237.389 61.6747 237.79 62.272C238.201 62.86 238.742 63.49 239.414 64.162C240.086 63.49 240.623 62.86 241.024 62.272C241.435 61.6747 241.724 60.984 241.892 60.2H242.942C242.755 61.1147 242.429 61.9173 241.962 62.608C241.495 63.2893 240.865 64.0267 240.072 64.82C240.613 65.352 241.075 65.8513 241.458 66.318C241.841 66.7847 242.181 67.326 242.48 67.942C242.788 68.5487 243.012 69.2347 243.152 70H242.074ZM250.682 59.052C251.111 59.052 251.438 59.1033 251.662 59.206C251.886 59.3087 251.998 59.458 251.998 59.654C251.998 59.7567 251.979 59.8547 251.942 59.948C251.914 60.032 251.876 60.074 251.83 60.074C251.55 59.934 251.228 59.864 250.864 59.864C250.472 59.864 250.173 59.9853 249.968 60.228C249.762 60.4707 249.66 60.8207 249.66 61.278V62.3H251.396V63.028H249.66V70H248.708V63.028H247.266V62.3H248.708V61.264C248.708 60.592 248.885 60.0553 249.24 59.654C249.604 59.2527 250.084 59.052 250.682 59.052ZM256.071 62.202C256.398 62.202 256.645 62.258 256.813 62.37C256.99 62.4727 257.079 62.6313 257.079 62.846C257.079 62.9953 257.028 63.1307 256.925 63.252C256.701 63.1307 256.393 63.07 256.001 63.07C255.376 63.07 254.872 63.3173 254.489 63.812C254.116 64.3067 253.929 64.9553 253.929 65.758V70H252.977V62.3H253.929V63.686C254.144 63.2567 254.447 62.902 254.839 62.622C255.231 62.342 255.642 62.202 256.071 62.202ZM261.229 70.14C260.146 70.14 259.329 69.804 258.779 69.132C258.228 68.46 257.953 67.4613 257.953 66.136C257.953 63.4853 259.045 62.16 261.229 62.16C263.413 62.16 264.505 63.4853 264.505 66.136C264.505 67.4613 264.229 68.46 263.679 69.132C263.128 69.804 262.311 70.14 261.229 70.14ZM261.229 69.356C262.022 69.356 262.601 69.0993 262.965 68.586C263.338 68.0633 263.525 67.2467 263.525 66.136C263.525 65.0347 263.338 64.2273 262.965 63.714C262.601 63.2007 262.022 62.944 261.229 62.944C260.435 62.944 259.852 63.2007 259.479 63.714C259.115 64.2273 258.933 65.0347 258.933 66.136C258.933 67.2467 259.115 68.0633 259.479 68.586C259.852 69.0993 260.435 69.356 261.229 69.356ZM274.317 62.16C274.979 62.16 275.516 62.3747 275.927 62.804C276.347 63.2333 276.557 63.7887 276.557 64.47V70H275.591V64.512C275.591 63.9707 275.469 63.5693 275.227 63.308C274.984 63.0467 274.615 62.916 274.121 62.916C273.327 62.916 272.59 63.28 271.909 64.008C271.927 64.1573 271.937 64.2693 271.937 64.344V70H270.985V64.372C270.985 63.9333 270.849 63.5833 270.579 63.322C270.317 63.0513 269.967 62.916 269.529 62.916C269.127 62.916 268.745 63.0047 268.381 63.182C268.026 63.3593 267.667 63.644 267.303 64.036V70H266.351V64.918C266.351 63.5367 266.295 62.7153 266.183 62.454C266.481 62.314 266.719 62.244 266.897 62.244C267.167 62.244 267.303 62.5147 267.303 63.056V63.112C267.657 62.776 268.021 62.5333 268.395 62.384C268.777 62.2347 269.211 62.16 269.697 62.16C270.135 62.16 270.527 62.2627 270.873 62.468C271.218 62.664 271.484 62.9347 271.671 63.28C272.072 62.888 272.478 62.6033 272.889 62.426C273.309 62.2487 273.785 62.16 274.317 62.16ZM56.788 91.062C56.8533 91.1087 56.9047 91.1787 56.942 91.272C56.9887 91.356 57.012 91.4447 57.012 91.538C57.012 91.7153 56.9373 91.8413 56.788 91.916C56.4893 92.0653 56.102 92.14 55.626 92.14C55.0193 92.14 54.534 91.9767 54.17 91.65C53.806 91.314 53.624 90.866 53.624 90.306V85.056H52.168V84.3H53.624V82.2H54.576V84.3H56.592V85.056H54.576V90.124C54.576 90.908 54.912 91.3 55.584 91.3C56.0133 91.3 56.4147 91.2207 56.788 91.062ZM62.1783 84.16C62.981 84.16 63.6157 84.3933 64.0823 84.86C64.549 85.3173 64.7823 85.9427 64.7823 86.736V92H63.8303V86.834C63.8303 86.2273 63.681 85.7607 63.3823 85.434C63.0837 85.1073 62.6543 84.944 62.0943 84.944C61.665 84.944 61.2123 85.042 60.7363 85.238C60.2603 85.4247 59.8357 85.6767 59.4623 85.994V92H58.5103V80.926H59.4623V85.084C59.873 84.7853 60.3117 84.5567 60.7783 84.398C61.245 84.2393 61.7117 84.16 62.1783 84.16ZM73.3347 87.604C73.3347 87.8187 73.3254 88.0333 73.3067 88.248H67.7347C67.7534 89.2187 67.968 89.9747 68.3787 90.516C68.7987 91.0573 69.3774 91.328 70.1147 91.328C70.6187 91.328 71.0434 91.23 71.3887 91.034C71.7434 90.838 72.0374 90.5253 72.2707 90.096C72.336 89.9747 72.434 89.914 72.5647 89.914C72.714 89.914 72.9194 90.0027 73.1807 90.18C72.9754 90.7867 72.5974 91.2673 72.0467 91.622C71.496 91.9673 70.852 92.14 70.1147 92.14C69.4334 92.14 68.836 91.9813 68.3227 91.664C67.8187 91.3373 67.4314 90.8753 67.1607 90.278C66.89 89.6713 66.7547 88.9573 66.7547 88.136C66.7547 86.8947 67.0627 85.924 67.6787 85.224C68.2947 84.5147 69.1394 84.16 70.2127 84.16C71.1927 84.16 71.958 84.4633 72.5087 85.07C73.0594 85.6767 73.3347 86.5213 73.3347 87.604ZM72.3547 87.492C72.3547 85.812 71.6267 84.972 70.1707 84.972C69.4614 84.972 68.9014 85.1867 68.4907 85.616C68.08 86.0453 67.8374 86.6707 67.7627 87.492H72.3547ZM80.928 92.14C80.508 92.14 80.074 92.07 79.626 91.93C79.178 91.79 78.8047 91.6033 78.506 91.37C78.2074 91.1367 78.058 90.8893 78.058 90.628C78.058 90.5067 78.0954 90.3993 78.17 90.306C78.254 90.2033 78.3567 90.1333 78.478 90.096C78.814 90.5347 79.178 90.8567 79.57 91.062C79.962 91.258 80.4334 91.356 80.984 91.356C81.572 91.356 82.0154 91.2207 82.314 90.95C82.622 90.6793 82.776 90.32 82.776 89.872C82.776 89.5733 82.6827 89.3307 82.496 89.144C82.3187 88.9573 82.0947 88.8173 81.824 88.724C81.5627 88.6307 81.1987 88.5233 80.732 88.402C80.1907 88.262 79.752 88.1267 79.416 87.996C79.0894 87.8653 78.8094 87.6693 78.576 87.408C78.352 87.1373 78.24 86.778 78.24 86.33C78.24 85.854 78.366 85.4527 78.618 85.126C78.87 84.7993 79.192 84.5567 79.584 84.398C79.976 84.2393 80.3774 84.16 80.788 84.16C81.376 84.16 81.908 84.2767 82.384 84.51C82.8694 84.7433 83.2474 85.084 83.518 85.532C83.294 85.7653 83.1027 85.882 82.944 85.882C82.8227 85.882 82.706 85.8167 82.594 85.686C82.37 85.4247 82.1087 85.2333 81.81 85.112C81.5207 84.9813 81.166 84.916 80.746 84.916C80.27 84.916 79.892 85.028 79.612 85.252C79.332 85.476 79.192 85.8213 79.192 86.288C79.192 86.5587 79.276 86.778 79.444 86.946C79.612 87.114 79.822 87.2447 80.074 87.338C80.326 87.422 80.6714 87.52 81.11 87.632C81.67 87.7627 82.1227 87.898 82.468 88.038C82.8227 88.178 83.1214 88.3973 83.364 88.696C83.6067 88.9853 83.728 89.3773 83.728 89.872C83.728 90.5627 83.4714 91.1133 82.958 91.524C82.454 91.9347 81.7774 92.14 80.928 92.14ZM88.885 84.16C89.9303 84.16 90.7283 84.5053 91.279 85.196C91.8296 85.8773 92.105 86.8573 92.105 88.136C92.105 88.948 91.9603 89.6573 91.671 90.264C91.391 90.8613 90.9803 91.3233 90.439 91.65C89.907 91.9767 89.2816 92.14 88.563 92.14C88.2083 92.14 87.849 92.1027 87.485 92.028C87.1303 91.9627 86.813 91.874 86.533 91.762V95.08H85.581V86.918C85.581 85.5367 85.525 84.7153 85.413 84.454C85.7116 84.314 85.9496 84.244 86.127 84.244C86.3976 84.244 86.533 84.5147 86.533 85.056V85.112C86.841 84.804 87.1956 84.5707 87.597 84.412C88.0076 84.244 88.437 84.16 88.885 84.16ZM88.563 91.356C89.3656 91.356 89.9863 91.076 90.425 90.516C90.873 89.956 91.097 89.1627 91.097 88.136C91.097 86.008 90.3596 84.944 88.885 84.944C88.4556 84.944 88.0356 85.042 87.625 85.238C87.2236 85.434 86.8596 85.714 86.533 86.078V90.936C87.1116 91.216 87.7883 91.356 88.563 91.356ZM96.4962 92.14C95.4135 92.14 94.5968 91.804 94.0462 91.132C93.4955 90.46 93.2202 89.4613 93.2202 88.136C93.2202 85.4853 94.3122 84.16 96.4962 84.16C98.6802 84.16 99.7722 85.4853 99.7722 88.136C99.7722 89.4613 99.4968 90.46 98.9462 91.132C98.3955 91.804 97.5788 92.14 96.4962 92.14ZM96.4962 91.356C97.2895 91.356 97.8682 91.0993 98.2322 90.586C98.6055 90.0633 98.7922 89.2467 98.7922 88.136C98.7922 87.0347 98.6055 86.2273 98.2322 85.714C97.8682 85.2007 97.2895 84.944 96.4962 84.944C95.7028 84.944 95.1195 85.2007 94.7462 85.714C94.3822 86.2273 94.2002 87.0347 94.2002 88.136C94.2002 89.2467 94.3822 90.0633 94.7462 90.586C95.1195 91.0993 95.7028 91.356 96.4962 91.356ZM107.61 90.208C107.61 90.7773 107.615 91.1647 107.624 91.37C107.643 91.566 107.68 91.7433 107.736 91.902C107.512 92.014 107.269 92.07 107.008 92.07C106.868 92.07 106.775 91.972 106.728 91.776C106.681 91.5707 106.658 91.1693 106.658 90.572V86.778C106.658 86.1247 106.537 85.6533 106.294 85.364C106.051 85.0653 105.659 84.916 105.118 84.916C104.278 84.916 103.419 85.3313 102.542 86.162V92H101.59V86.918C101.59 85.5367 101.534 84.7153 101.422 84.454C101.721 84.314 101.959 84.244 102.136 84.244C102.407 84.244 102.542 84.5147 102.542 85.056V85.182C102.971 84.8273 103.401 84.5707 103.83 84.412C104.269 84.244 104.731 84.16 105.216 84.16C106.019 84.16 106.616 84.3793 107.008 84.818C107.409 85.2473 107.61 85.9053 107.61 86.792V90.208ZM112.305 92.14C111.885 92.14 111.451 92.07 111.003 91.93C110.555 91.79 110.182 91.6033 109.883 91.37C109.584 91.1367 109.435 90.8893 109.435 90.628C109.435 90.5067 109.472 90.3993 109.547 90.306C109.631 90.2033 109.734 90.1333 109.855 90.096C110.191 90.5347 110.555 90.8567 110.947 91.062C111.339 91.258 111.81 91.356 112.361 91.356C112.949 91.356 113.392 91.2207 113.691 90.95C113.999 90.6793 114.153 90.32 114.153 89.872C114.153 89.5733 114.06 89.3307 113.873 89.144C113.696 88.9573 113.472 88.8173 113.201 88.724C112.94 88.6307 112.576 88.5233 112.109 88.402C111.568 88.262 111.129 88.1267 110.793 87.996C110.466 87.8653 110.186 87.6693 109.953 87.408C109.729 87.1373 109.617 86.778 109.617 86.33C109.617 85.854 109.743 85.4527 109.995 85.126C110.247 84.7993 110.569 84.5567 110.961 84.398C111.353 84.2393 111.754 84.16 112.165 84.16C112.753 84.16 113.285 84.2767 113.761 84.51C114.246 84.7433 114.624 85.084 114.895 85.532C114.671 85.7653 114.48 85.882 114.321 85.882C114.2 85.882 114.083 85.8167 113.971 85.686C113.747 85.4247 113.486 85.2333 113.187 85.112C112.898 84.9813 112.543 84.916 112.123 84.916C111.647 84.916 111.269 85.028 110.989 85.252C110.709 85.476 110.569 85.8213 110.569 86.288C110.569 86.5587 110.653 86.778 110.821 86.946C110.989 87.114 111.199 87.2447 111.451 87.338C111.703 87.422 112.048 87.52 112.487 87.632C113.047 87.7627 113.5 87.898 113.845 88.038C114.2 88.178 114.498 88.3973 114.741 88.696C114.984 88.9853 115.105 89.3773 115.105 89.872C115.105 90.5627 114.848 91.1133 114.335 91.524C113.831 91.9347 113.154 92.14 112.305 92.14ZM119.506 92.14C118.423 92.14 117.607 91.804 117.056 91.132C116.505 90.46 116.23 89.4613 116.23 88.136C116.23 85.4853 117.322 84.16 119.506 84.16C121.69 84.16 122.782 85.4853 122.782 88.136C122.782 89.4613 122.507 90.46 121.956 91.132C121.405 91.804 120.589 92.14 119.506 92.14ZM119.506 91.356C120.299 91.356 120.878 91.0993 121.242 90.586C121.615 90.0633 121.802 89.2467 121.802 88.136C121.802 87.0347 121.615 86.2273 121.242 85.714C120.878 85.2007 120.299 84.944 119.506 84.944C118.713 84.944 118.129 85.2007 117.756 85.714C117.392 86.2273 117.21 87.0347 117.21 88.136C117.21 89.2467 117.392 90.0633 117.756 90.586C118.129 91.0993 118.713 91.356 119.506 91.356ZM127.624 84.202C127.951 84.202 128.198 84.258 128.366 84.37C128.543 84.4727 128.632 84.6313 128.632 84.846C128.632 84.9953 128.581 85.1307 128.478 85.252C128.254 85.1307 127.946 85.07 127.554 85.07C126.929 85.07 126.425 85.3173 126.042 85.812C125.669 86.3067 125.482 86.9553 125.482 87.758V92H124.53V84.3H125.482V85.686C125.697 85.2567 126 84.902 126.392 84.622C126.784 84.342 127.195 84.202 127.624 84.202ZM132.375 92.14C131.955 92.14 131.521 92.07 131.073 91.93C130.625 91.79 130.252 91.6033 129.953 91.37C129.655 91.1367 129.505 90.8893 129.505 90.628C129.505 90.5067 129.543 90.3993 129.617 90.306C129.701 90.2033 129.804 90.1333 129.925 90.096C130.261 90.5347 130.625 90.8567 131.017 91.062C131.409 91.258 131.881 91.356 132.431 91.356C133.019 91.356 133.463 91.2207 133.761 90.95C134.069 90.6793 134.223 90.32 134.223 89.872C134.223 89.5733 134.13 89.3307 133.943 89.144C133.766 88.9573 133.542 88.8173 133.271 88.724C133.01 88.6307 132.646 88.5233 132.179 88.402C131.638 88.262 131.199 88.1267 130.863 87.996C130.537 87.8653 130.257 87.6693 130.023 87.408C129.799 87.1373 129.687 86.778 129.687 86.33C129.687 85.854 129.813 85.4527 130.065 85.126C130.317 84.7993 130.639 84.5567 131.031 84.398C131.423 84.2393 131.825 84.16 132.235 84.16C132.823 84.16 133.355 84.2767 133.831 84.51C134.317 84.7433 134.695 85.084 134.965 85.532C134.741 85.7653 134.55 85.882 134.391 85.882C134.27 85.882 134.153 85.8167 134.041 85.686C133.817 85.4247 133.556 85.2333 133.257 85.112C132.968 84.9813 132.613 84.916 132.193 84.916C131.717 84.916 131.339 85.028 131.059 85.252C130.779 85.476 130.639 85.8213 130.639 86.288C130.639 86.5587 130.723 86.778 130.891 86.946C131.059 87.114 131.269 87.2447 131.521 87.338C131.773 87.422 132.119 87.52 132.557 87.632C133.117 87.7627 133.57 87.898 133.915 88.038C134.27 88.178 134.569 88.3973 134.811 88.696C135.054 88.9853 135.175 89.3773 135.175 89.872C135.175 90.5627 134.919 91.1133 134.405 91.524C133.901 91.9347 133.225 92.14 132.375 92.14ZM137.84 92C137.42 92 137.21 91.79 137.21 91.37V91.244C137.21 90.824 137.42 90.614 137.84 90.614H137.952C138.372 90.614 138.582 90.824 138.582 91.244V91.37C138.582 91.79 138.372 92 137.952 92H137.84Z" fill="#79A3B5"/>
<path opacity="0.3" fill-rule="evenodd" clip-rule="evenodd" d="M14 11.4722C14.8262 12.2117 15.8584 12.7255 17 12.9171V20.5C17 21.3284 16.3284 22 15.5 22C14.6716 22 14 21.3284 14 20.5V11.4722Z" fill="#4BB59B"/>
<path opacity="0.3" fill-rule="evenodd" clip-rule="evenodd" d="M7 12.9171C8.14157 12.7255 9.17384 12.2117 10 11.4722V20.5C10 21.3284 9.32843 22 8.5 22C7.67157 22 7 21.3284 7 20.5V12.9171Z" fill="#4BB59B"/>
<path fill-rule="evenodd" clip-rule="evenodd" d="M18 12C20.7614 12 23 9.76142 23 7C23 4.23858 20.7614 2 18 2C15.2386 2 13 4.23858 13 7C13 9.76142 15.2386 12 18 12ZM14 7.25C14 6.83579 14.3358 6.5 14.75 6.5H15.25C15.6642 6.5 16 6.83579 16 7.25C16 7.66421 15.6642 8 15.25 8H14.75C14.3358 8 14 7.66421 14 7.25ZM21 5C20.4477 5 20 5.44772 20 6V8C20 8.55228 20.4477 9 21 9C21.5523 9 22 8.55228 22 8V6C22 5.44772 21.5523 5 21 5Z" fill="#4BB59B"/>
<path fill-rule="evenodd" clip-rule="evenodd" d="M6 12C8.76142 12 11 9.76142 11 7C11 4.23858 8.76142 2 6 2C3.23858 2 1 4.23858 1 7C1 9.76142 3.23858 12 6 12ZM8 7.25C8 6.83579 8.33579 6.5 8.75 6.5H9.25C9.66421 6.5 10 6.83579 10 7.25C10 7.66421 9.66421 8 9.25 8H8.75C8.33579 8 8 7.66421 8 7.25ZM3 5C2.44772 5 2 5.44772 2 6V8C2 8.55228 2.44772 9 3 9C3.55228 9 4 8.55228 4 8V6C4 5.44772 3.55228 5 3 5Z" fill="#4BB59B"/>
</svg>
