<svg width="299" height="106" viewBox="0 0 299 106" fill="none" xmlns="http://www.w3.org/2000/svg">
<path d="M61.036 12.562C61.036 13.702 60.622 14.59 59.794 15.226C58.966 15.862 57.85 16.18 56.446 16.18C55.726 16.18 55.06 16.126 54.448 16.018C53.836 15.91 53.326 15.76 52.918 15.568V14.02C53.35 14.212 53.884 14.386 54.52 14.542C55.168 14.698 55.834 14.776 56.518 14.776C57.478 14.776 58.198 14.59 58.678 14.218C59.17 13.846 59.416 13.342 59.416 12.706C59.416 12.286 59.326 11.932 59.146 11.644C58.966 11.356 58.654 11.092 58.21 10.852C57.778 10.6 57.172 10.336 56.392 10.06C55.3 9.664 54.472 9.178 53.908 8.602C53.356 8.026 53.08 7.24 53.08 6.244C53.08 5.56 53.254 4.978 53.602 4.498C53.95 4.006 54.43 3.628 55.042 3.364C55.666 3.1 56.38 2.968 57.184 2.968C57.892 2.968 58.54 3.034 59.128 3.166C59.716 3.298 60.25 3.472 60.73 3.688L60.226 5.074C59.782 4.882 59.296 4.72 58.768 4.588C58.252 4.456 57.712 4.39 57.148 4.39C56.344 4.39 55.738 4.564 55.33 4.912C54.922 5.248 54.718 5.698 54.718 6.262C54.718 6.694 54.808 7.054 54.988 7.342C55.168 7.63 55.462 7.888 55.87 8.116C56.278 8.344 56.83 8.59 57.526 8.854C58.282 9.13 58.918 9.43 59.434 9.754C59.962 10.066 60.358 10.444 60.622 10.888C60.898 11.332 61.036 11.89 61.036 12.562ZM64.9929 6.334C64.9929 6.814 64.9629 7.264 64.9029 7.684H65.0109C65.3229 7.192 65.7429 6.82 66.2709 6.568C66.8109 6.316 67.3929 6.19 68.0169 6.19C69.1929 6.19 70.0749 6.472 70.6629 7.036C71.2509 7.588 71.5449 8.482 71.5449 9.718V16H69.9789V9.826C69.9789 8.278 69.2589 7.504 67.8189 7.504C66.7389 7.504 65.9949 7.81 65.5869 8.422C65.1909 9.022 64.9929 9.886 64.9929 11.014V16H63.4089V2.32H64.9929V6.334ZM82.9239 11.158C82.9239 12.754 82.5159 13.99 81.6999 14.866C80.8959 15.742 79.8039 16.18 78.4239 16.18C77.5719 16.18 76.8099 15.988 76.1379 15.604C75.4779 15.208 74.9559 14.638 74.5719 13.894C74.1879 13.138 73.9959 12.226 73.9959 11.158C73.9959 9.562 74.3979 8.332 75.2019 7.468C76.0059 6.604 77.0979 6.172 78.4779 6.172C79.3539 6.172 80.1219 6.37 80.7819 6.766C81.4539 7.15 81.9759 7.714 82.3479 8.458C82.7319 9.19 82.9239 10.09 82.9239 11.158ZM75.6339 11.158C75.6339 12.298 75.8559 13.204 76.2999 13.876C76.7559 14.536 77.4759 14.866 78.4599 14.866C79.4319 14.866 80.1459 14.536 80.6019 13.876C81.0579 13.204 81.2859 12.298 81.2859 11.158C81.2859 10.018 81.0579 9.124 80.6019 8.476C80.1459 7.828 79.4259 7.504 78.4419 7.504C77.4579 7.504 76.7439 7.828 76.2999 8.476C75.8559 9.124 75.6339 10.018 75.6339 11.158ZM90.0243 6.172C91.2123 6.172 92.1663 6.586 92.8863 7.414C93.6183 8.242 93.9843 9.49 93.9843 11.158C93.9843 12.802 93.6183 14.05 92.8863 14.902C92.1663 15.754 91.2063 16.18 90.0063 16.18C89.2623 16.18 88.6443 16.042 88.1523 15.766C87.6723 15.478 87.2943 15.148 87.0183 14.776H86.9103C86.9343 14.98 86.9583 15.238 86.9823 15.55C87.0063 15.862 87.0183 16.132 87.0183 16.36V20.32H85.4343V6.352H86.7303L86.9463 7.666H87.0183C87.3063 7.246 87.6843 6.892 88.1523 6.604C88.6203 6.316 89.2443 6.172 90.0243 6.172ZM89.7363 7.504C88.7523 7.504 88.0563 7.78 87.6483 8.332C87.2523 8.884 87.0423 9.724 87.0183 10.852V11.158C87.0183 12.346 87.2103 13.264 87.5943 13.912C87.9903 14.548 88.7163 14.866 89.7723 14.866C90.3603 14.866 90.8403 14.704 91.2123 14.38C91.5963 14.056 91.8783 13.618 92.0583 13.066C92.2503 12.502 92.3463 11.86 92.3463 11.14C92.3463 10.036 92.1303 9.154 91.6983 8.494C91.2783 7.834 90.6243 7.504 89.7363 7.504ZM101.099 6.172C102.287 6.172 103.241 6.586 103.961 7.414C104.693 8.242 105.059 9.49 105.059 11.158C105.059 12.802 104.693 14.05 103.961 14.902C103.241 15.754 102.281 16.18 101.081 16.18C100.337 16.18 99.7185 16.042 99.2265 15.766C98.7465 15.478 98.3685 15.148 98.0925 14.776H97.9845C98.0085 14.98 98.0325 15.238 98.0565 15.55C98.0805 15.862 98.0925 16.132 98.0925 16.36V20.32H96.5085V6.352H97.8045L98.0205 7.666H98.0925C98.3805 7.246 98.7585 6.892 99.2265 6.604C99.6945 6.316 100.319 6.172 101.099 6.172ZM100.811 7.504C99.8265 7.504 99.1305 7.78 98.7225 8.332C98.3265 8.884 98.1165 9.724 98.0925 10.852V11.158C98.0925 12.346 98.2845 13.264 98.6685 13.912C99.0645 14.548 99.7905 14.866 100.847 14.866C101.435 14.866 101.915 14.704 102.287 14.38C102.671 14.056 102.953 13.618 103.133 13.066C103.325 12.502 103.421 11.86 103.421 11.14C103.421 10.036 103.205 9.154 102.773 8.494C102.353 7.834 101.699 7.504 100.811 7.504ZM108.393 2.734C108.633 2.734 108.843 2.818 109.023 2.986C109.215 3.142 109.311 3.394 109.311 3.742C109.311 4.078 109.215 4.33 109.023 4.498C108.843 4.666 108.633 4.75 108.393 4.75C108.129 4.75 107.907 4.666 107.727 4.498C107.547 4.33 107.457 4.078 107.457 3.742C107.457 3.394 107.547 3.142 107.727 2.986C107.907 2.818 108.129 2.734 108.393 2.734ZM109.167 6.352V16H107.583V6.352H109.167ZM116.867 6.172C118.019 6.172 118.889 6.454 119.477 7.018C120.065 7.57 120.359 8.47 120.359 9.718V16H118.793V9.826C118.793 8.278 118.073 7.504 116.633 7.504C115.565 7.504 114.827 7.804 114.419 8.404C114.011 9.004 113.807 9.868 113.807 10.996V16H112.223V6.352H113.501L113.735 7.666H113.825C114.137 7.162 114.569 6.79 115.121 6.55C115.673 6.298 116.255 6.172 116.867 6.172ZM126.77 6.172C127.406 6.172 127.976 6.292 128.48 6.532C128.996 6.772 129.434 7.138 129.794 7.63H129.884L130.1 6.352H131.36V16.162C131.36 17.542 131.006 18.58 130.298 19.276C129.602 19.972 128.516 20.32 127.04 20.32C125.624 20.32 124.466 20.116 123.566 19.708V18.25C124.514 18.754 125.702 19.006 127.13 19.006C127.958 19.006 128.606 18.76 129.074 18.268C129.554 17.788 129.794 17.128 129.794 16.288V15.91C129.794 15.766 129.8 15.562 129.812 15.298C129.824 15.022 129.836 14.83 129.848 14.722H129.776C129.128 15.694 128.132 16.18 126.788 16.18C125.54 16.18 124.562 15.742 123.854 14.866C123.158 13.99 122.81 12.766 122.81 11.194C122.81 9.658 123.158 8.44 123.854 7.54C124.562 6.628 125.534 6.172 126.77 6.172ZM126.986 7.504C126.182 7.504 125.558 7.828 125.114 8.476C124.67 9.112 124.448 10.024 124.448 11.212C124.448 12.4 124.664 13.312 125.096 13.948C125.54 14.572 126.182 14.884 127.022 14.884C127.994 14.884 128.702 14.626 129.146 14.11C129.59 13.582 129.812 12.736 129.812 11.572V11.194C129.812 9.874 129.584 8.932 129.128 8.368C128.672 7.792 127.958 7.504 126.986 7.504Z" fill="#4BB59B"/>
<path d="M59.07 47.16C59.07 47.496 59.0187 47.72 58.916 47.832C58.8227 47.944 58.6313 48 58.342 48H53.204V38.2H59.056V39.04H54.212V42.568H58.384V43.408H54.212V47.16H59.07ZM66.4 40.3C66.288 41.7373 66.0127 43.0813 65.574 44.332C65.1353 45.5733 64.5053 46.796 63.684 48H62.774C61.9527 46.796 61.3227 45.5733 60.884 44.332C60.4453 43.0813 60.17 41.7373 60.058 40.3H61.01C61.1407 41.6533 61.3787 42.8573 61.724 43.912C62.0787 44.9573 62.5827 45.9747 63.236 46.964C63.8893 45.9747 64.3887 44.9573 64.734 43.912C65.0793 42.8573 65.3173 41.6533 65.448 40.3H66.4ZM73.9089 43.604C73.9089 43.8187 73.8996 44.0333 73.8809 44.248H68.3089C68.3276 45.2187 68.5422 45.9747 68.9529 46.516C69.3729 47.0573 69.9516 47.328 70.6889 47.328C71.1929 47.328 71.6176 47.23 71.9629 47.034C72.3176 46.838 72.6116 46.5253 72.8449 46.096C72.9102 45.9747 73.0082 45.914 73.1389 45.914C73.2882 45.914 73.4936 46.0027 73.7549 46.18C73.5496 46.7867 73.1716 47.2673 72.6209 47.622C72.0702 47.9673 71.4262 48.14 70.6889 48.14C70.0076 48.14 69.4102 47.9813 68.8969 47.664C68.3929 47.3373 68.0056 46.8753 67.7349 46.278C67.4642 45.6713 67.3289 44.9573 67.3289 44.136C67.3289 42.8947 67.6369 41.924 68.2529 41.224C68.8689 40.5147 69.7136 40.16 70.7869 40.16C71.7669 40.16 72.5322 40.4633 73.0829 41.07C73.6336 41.6767 73.9089 42.5213 73.9089 43.604ZM72.9289 43.492C72.9289 41.812 72.2009 40.972 70.7449 40.972C70.0356 40.972 69.4756 41.1867 69.0649 41.616C68.6542 42.0453 68.4116 42.6707 68.3369 43.492H72.9289ZM78.7469 40.202C79.0736 40.202 79.3209 40.258 79.4889 40.37C79.6662 40.4727 79.7549 40.6313 79.7549 40.846C79.7549 40.9953 79.7036 41.1307 79.6009 41.252C79.3769 41.1307 79.0689 41.07 78.6769 41.07C78.0516 41.07 77.5476 41.3173 77.1649 41.812C76.7916 42.3067 76.6049 42.9553 76.6049 43.758V48H75.6529V40.3H76.6049V41.686C76.8196 41.2567 77.1229 40.902 77.5149 40.622C77.9069 40.342 78.3176 40.202 78.7469 40.202ZM86.7044 40.3L83.7224 48.588C83.461 49.3253 83.1297 49.862 82.7284 50.198C82.3364 50.5433 81.837 50.716 81.2304 50.716C80.8757 50.716 80.5957 50.66 80.3904 50.548C80.185 50.4453 80.0824 50.3053 80.0824 50.128C80.0824 49.9413 80.1617 49.792 80.3204 49.68C80.4137 49.7453 80.5537 49.8013 80.7404 49.848C80.9364 49.8947 81.1277 49.918 81.3144 49.918C81.697 49.918 82.0237 49.75 82.2944 49.414C82.5744 49.078 82.8124 48.5647 83.0084 47.874L80.2644 40.3H81.2724L83.4984 46.502L85.6964 40.3H86.7044ZM90.6993 48.14C89.6166 48.14 88.7999 47.804 88.2493 47.132C87.6986 46.46 87.4233 45.4613 87.4233 44.136C87.4233 41.4853 88.5153 40.16 90.6993 40.16C92.8833 40.16 93.9753 41.4853 93.9753 44.136C93.9753 45.4613 93.6999 46.46 93.1493 47.132C92.5986 47.804 91.7819 48.14 90.6993 48.14ZM90.6993 47.356C91.4926 47.356 92.0713 47.0993 92.4353 46.586C92.8086 46.0633 92.9953 45.2467 92.9953 44.136C92.9953 43.0347 92.8086 42.2273 92.4353 41.714C92.0713 41.2007 91.4926 40.944 90.6993 40.944C89.9059 40.944 89.3226 41.2007 88.9493 41.714C88.5853 42.2273 88.4033 43.0347 88.4033 44.136C88.4033 45.2467 88.5853 46.0633 88.9493 46.586C89.3226 47.0993 89.9059 47.356 90.6993 47.356ZM101.813 46.208C101.813 46.7773 101.818 47.1647 101.827 47.37C101.846 47.566 101.883 47.7433 101.939 47.902C101.715 48.014 101.473 48.07 101.211 48.07C101.071 48.07 100.978 47.972 100.931 47.776C100.885 47.5707 100.861 47.1693 100.861 46.572V42.778C100.861 42.1247 100.74 41.6533 100.497 41.364C100.255 41.0653 99.8625 40.916 99.3212 40.916C98.4812 40.916 97.6225 41.3313 96.7452 42.162V48H95.7932V42.918C95.7932 41.5367 95.7372 40.7153 95.6252 40.454C95.9239 40.314 96.1619 40.244 96.3392 40.244C96.6099 40.244 96.7452 40.5147 96.7452 41.056V41.182C97.1745 40.8273 97.6039 40.5707 98.0332 40.412C98.4719 40.244 98.9339 40.16 99.4192 40.16C100.222 40.16 100.819 40.3793 101.211 40.818C101.613 41.2473 101.813 41.9053 101.813 42.792V46.208ZM110.358 43.604C110.358 43.8187 110.349 44.0333 110.33 44.248H104.758C104.777 45.2187 104.991 45.9747 105.402 46.516C105.822 47.0573 106.401 47.328 107.138 47.328C107.642 47.328 108.067 47.23 108.412 47.034C108.767 46.838 109.061 46.5253 109.294 46.096C109.359 45.9747 109.457 45.914 109.588 45.914C109.737 45.914 109.943 46.0027 110.204 46.18C109.999 46.7867 109.621 47.2673 109.07 47.622C108.519 47.9673 107.875 48.14 107.138 48.14C106.457 48.14 105.859 47.9813 105.346 47.664C104.842 47.3373 104.455 46.8753 104.184 46.278C103.913 45.6713 103.778 44.9573 103.778 44.136C103.778 42.8947 104.086 41.924 104.702 41.224C105.318 40.5147 106.163 40.16 107.236 40.16C108.216 40.16 108.981 40.4633 109.532 41.07C110.083 41.6767 110.358 42.5213 110.358 43.604ZM109.378 43.492C109.378 41.812 108.65 40.972 107.194 40.972C106.485 40.972 105.925 41.1867 105.514 41.616C105.103 42.0453 104.861 42.6707 104.786 43.492H109.378ZM118.665 48.14C117.536 48.14 116.654 47.7853 116.019 47.076C115.394 46.3667 115.081 45.3773 115.081 44.108C115.081 43.3053 115.221 42.61 115.501 42.022C115.791 41.4247 116.201 40.9673 116.733 40.65C117.265 40.3233 117.891 40.16 118.609 40.16C119.468 40.16 120.173 40.3793 120.723 40.818C121.283 41.2473 121.61 41.8353 121.703 42.582C121.619 42.6193 121.503 42.6567 121.353 42.694C121.213 42.7313 121.097 42.75 121.003 42.75C120.91 42.75 120.84 42.7267 120.793 42.68C120.756 42.624 120.714 42.512 120.667 42.344C120.565 41.9053 120.331 41.5647 119.967 41.322C119.603 41.07 119.151 40.944 118.609 40.944C118.105 40.944 117.657 41.0747 117.265 41.336C116.883 41.5973 116.584 41.9707 116.369 42.456C116.164 42.932 116.061 43.4827 116.061 44.108C116.061 45.0973 116.295 45.886 116.761 46.474C117.237 47.062 117.872 47.356 118.665 47.356C119.272 47.356 119.79 47.216 120.219 46.936C120.649 46.6467 120.971 46.2267 121.185 45.676C121.316 45.676 121.423 45.732 121.507 45.844C121.601 45.956 121.647 46.0867 121.647 46.236C121.647 46.5627 121.507 46.8753 121.227 47.174C120.957 47.4633 120.588 47.6967 120.121 47.874C119.664 48.0513 119.179 48.14 118.665 48.14ZM128.896 46.082C128.896 46.5113 128.929 46.852 128.994 47.104C129.069 47.3467 129.195 47.566 129.372 47.762C129.279 47.8553 129.167 47.93 129.036 47.986C128.915 48.042 128.798 48.07 128.686 48.07C128.5 48.07 128.341 47.9627 128.21 47.748C128.089 47.5333 128.01 47.2393 127.972 46.866C127.683 47.258 127.296 47.5707 126.81 47.804C126.325 48.028 125.816 48.14 125.284 48.14C124.575 48.14 124.006 47.958 123.576 47.594C123.147 47.2207 122.932 46.7353 122.932 46.138C122.932 45.2607 123.357 44.5747 124.206 44.08C125.065 43.5853 126.311 43.3007 127.944 43.226V42.778C127.944 42.162 127.786 41.7047 127.468 41.406C127.16 41.098 126.689 40.944 126.054 40.944C125.644 40.944 125.261 41.0327 124.906 41.21C124.561 41.378 124.188 41.6627 123.786 42.064C123.73 42.12 123.66 42.148 123.576 42.148C123.483 42.148 123.38 42.1107 123.268 42.036C123.156 41.952 123.049 41.8353 122.946 41.686C123.366 41.1913 123.842 40.8133 124.374 40.552C124.916 40.2907 125.49 40.16 126.096 40.16C126.964 40.16 127.646 40.3933 128.14 40.86C128.644 41.3267 128.896 41.966 128.896 42.778V46.082ZM125.354 47.356C125.858 47.356 126.334 47.216 126.782 46.936C127.23 46.656 127.618 46.2593 127.944 45.746V44.01C125.256 44.122 123.912 44.8267 123.912 46.124C123.912 46.9453 124.393 47.356 125.354 47.356ZM137.319 46.208C137.319 46.7773 137.324 47.1647 137.333 47.37C137.352 47.566 137.389 47.7433 137.445 47.902C137.221 48.014 136.978 48.07 136.717 48.07C136.577 48.07 136.484 47.972 136.437 47.776C136.39 47.5707 136.367 47.1693 136.367 46.572V42.778C136.367 42.1247 136.246 41.6533 136.003 41.364C135.76 41.0653 135.368 40.916 134.827 40.916C133.987 40.916 133.128 41.3313 132.251 42.162V48H131.299V42.918C131.299 41.5367 131.243 40.7153 131.131 40.454C131.43 40.314 131.668 40.244 131.845 40.244C132.116 40.244 132.251 40.5147 132.251 41.056V41.182C132.68 40.8273 133.11 40.5707 133.539 40.412C133.978 40.244 134.44 40.16 134.925 40.16C135.728 40.16 136.325 40.3793 136.717 40.818C137.118 41.2473 137.319 41.9053 137.319 42.792V46.208ZM149.431 46.418C149.431 46.9593 149.501 47.454 149.641 47.902C149.445 48.014 149.245 48.07 149.039 48.07C148.843 48.07 148.699 47.9907 148.605 47.832C148.521 47.664 148.475 47.3653 148.465 46.936C148.204 47.3 147.835 47.594 147.359 47.818C146.883 48.0327 146.37 48.14 145.819 48.14C144.242 48.14 143.453 47.2767 143.453 45.55V40.3H144.405V45.452C144.405 46.1333 144.531 46.628 144.783 46.936C145.035 47.2347 145.437 47.384 145.987 47.384C146.482 47.384 146.944 47.258 147.373 47.006C147.812 46.754 148.176 46.3993 148.465 45.942V40.3H149.431V46.418ZM154.168 48.14C153.748 48.14 153.314 48.07 152.866 47.93C152.418 47.79 152.045 47.6033 151.746 47.37C151.448 47.1367 151.298 46.8893 151.298 46.628C151.298 46.5067 151.336 46.3993 151.41 46.306C151.494 46.2033 151.597 46.1333 151.718 46.096C152.054 46.5347 152.418 46.8567 152.81 47.062C153.202 47.258 153.674 47.356 154.224 47.356C154.812 47.356 155.256 47.2207 155.554 46.95C155.862 46.6793 156.016 46.32 156.016 45.872C156.016 45.5733 155.923 45.3307 155.736 45.144C155.559 44.9573 155.335 44.8173 155.064 44.724C154.803 44.6307 154.439 44.5233 153.972 44.402C153.431 44.262 152.992 44.1267 152.656 43.996C152.33 43.8653 152.05 43.6693 151.816 43.408C151.592 43.1373 151.48 42.778 151.48 42.33C151.48 41.854 151.606 41.4527 151.858 41.126C152.11 40.7993 152.432 40.5567 152.824 40.398C153.216 40.2393 153.618 40.16 154.028 40.16C154.616 40.16 155.148 40.2767 155.624 40.51C156.11 40.7433 156.488 41.084 156.758 41.532C156.534 41.7653 156.343 41.882 156.184 41.882C156.063 41.882 155.946 41.8167 155.834 41.686C155.61 41.4247 155.349 41.2333 155.05 41.112C154.761 40.9813 154.406 40.916 153.986 40.916C153.51 40.916 153.132 41.028 152.852 41.252C152.572 41.476 152.432 41.8213 152.432 42.288C152.432 42.5587 152.516 42.778 152.684 42.946C152.852 43.114 153.062 43.2447 153.314 43.338C153.566 43.422 153.912 43.52 154.35 43.632C154.91 43.7627 155.363 43.898 155.708 44.038C156.063 44.178 156.362 44.3973 156.604 44.696C156.847 44.9853 156.968 45.3773 156.968 45.872C156.968 46.5627 156.712 47.1133 156.198 47.524C155.694 47.9347 155.018 48.14 154.168 48.14ZM164.813 43.604C164.813 43.8187 164.804 44.0333 164.785 44.248H159.213C159.232 45.2187 159.447 45.9747 159.857 46.516C160.277 47.0573 160.856 47.328 161.593 47.328C162.097 47.328 162.522 47.23 162.867 47.034C163.222 46.838 163.516 46.5253 163.749 46.096C163.815 45.9747 163.913 45.914 164.043 45.914C164.193 45.914 164.398 46.0027 164.659 46.18C164.454 46.7867 164.076 47.2673 163.525 47.622C162.975 47.9673 162.331 48.14 161.593 48.14C160.912 48.14 160.315 47.9813 159.801 47.664C159.297 47.3373 158.91 46.8753 158.639 46.278C158.369 45.6713 158.233 44.9573 158.233 44.136C158.233 42.8947 158.541 41.924 159.157 41.224C159.773 40.5147 160.618 40.16 161.691 40.16C162.671 40.16 163.437 40.4633 163.987 41.07C164.538 41.6767 164.813 42.5213 164.813 43.604ZM163.833 43.492C163.833 41.812 163.105 40.972 161.649 40.972C160.94 40.972 160.38 41.1867 159.969 41.616C159.559 42.0453 159.316 42.6707 159.241 43.492H163.833ZM172.813 48.14C171.73 48.14 170.913 47.804 170.363 47.132C169.812 46.46 169.537 45.4613 169.537 44.136C169.537 41.4853 170.629 40.16 172.813 40.16C174.997 40.16 176.089 41.4853 176.089 44.136C176.089 45.4613 175.813 46.46 175.263 47.132C174.712 47.804 173.895 48.14 172.813 48.14ZM172.813 47.356C173.606 47.356 174.185 47.0993 174.549 46.586C174.922 46.0633 175.109 45.2467 175.109 44.136C175.109 43.0347 174.922 42.2273 174.549 41.714C174.185 41.2007 173.606 40.944 172.813 40.944C172.019 40.944 171.436 41.2007 171.063 41.714C170.699 42.2273 170.517 43.0347 170.517 44.136C170.517 45.2467 170.699 46.0633 171.063 46.586C171.436 47.0993 172.019 47.356 172.813 47.356ZM186.754 40.3C186.381 43.1373 185.672 45.704 184.626 48H183.758C183.273 46.936 182.886 45.9653 182.596 45.088C182.316 44.2107 182.097 43.296 181.938 42.344C181.77 43.3147 181.542 44.2433 181.252 45.13C180.963 46.0073 180.576 46.964 180.09 48H179.194C178.7 46.9453 178.284 45.8067 177.948 44.584C177.622 43.3613 177.342 41.9333 177.108 40.3H178.088C178.247 41.6627 178.448 42.8573 178.69 43.884C178.942 44.9013 179.269 45.8487 179.67 46.726C180.566 44.8873 181.173 42.7453 181.49 40.3H182.414C182.75 42.8293 183.352 44.9807 184.22 46.754C185.032 44.8127 185.513 42.6613 185.662 40.3H186.754ZM194.563 46.208C194.563 46.7773 194.568 47.1647 194.577 47.37C194.596 47.566 194.633 47.7433 194.689 47.902C194.465 48.014 194.223 48.07 193.961 48.07C193.821 48.07 193.728 47.972 193.681 47.776C193.635 47.5707 193.611 47.1693 193.611 46.572V42.778C193.611 42.1247 193.49 41.6533 193.247 41.364C193.005 41.0653 192.613 40.916 192.071 40.916C191.231 40.916 190.373 41.3313 189.495 42.162V48H188.543V42.918C188.543 41.5367 188.487 40.7153 188.375 40.454C188.674 40.314 188.912 40.244 189.089 40.244C189.36 40.244 189.495 40.5147 189.495 41.056V41.182C189.925 40.8273 190.354 40.5707 190.783 40.412C191.222 40.244 191.684 40.16 192.169 40.16C192.972 40.16 193.569 40.3793 193.961 40.818C194.363 41.2473 194.563 41.9053 194.563 42.792V46.208ZM206.704 38.2C206.741 38.368 206.76 38.48 206.76 38.536C206.76 38.6947 206.718 38.8207 206.633 38.914C206.549 38.998 206.424 39.04 206.256 39.04H203.68V48H202.672V39.04H199.648V38.2H206.704ZM209.128 39.04V42.498H213.286V43.338H209.128V48H208.12V38.2H213.888V39.04H209.128ZM220.598 42.946C221.111 43.086 221.531 43.3707 221.858 43.8C222.185 44.2293 222.348 44.724 222.348 45.284C222.348 46.152 222.049 46.824 221.452 47.3C220.855 47.7667 220.005 48 218.904 48H215.544V38.2H218.764C219.735 38.2 220.5 38.4333 221.06 38.9C221.62 39.3573 221.9 39.9827 221.9 40.776C221.9 41.2707 221.779 41.714 221.536 42.106C221.303 42.498 220.99 42.778 220.598 42.946ZM220.892 40.776C220.892 40.2347 220.701 39.81 220.318 39.502C219.945 39.194 219.427 39.04 218.764 39.04H216.552V42.61H218.722C220.169 42.61 220.892 41.9987 220.892 40.776ZM218.764 47.16C219.679 47.16 220.337 47.0153 220.738 46.726C221.139 46.4273 221.34 45.9467 221.34 45.284C221.34 44.6307 221.13 44.1547 220.71 43.856C220.299 43.5573 219.641 43.408 218.736 43.408H216.552V47.16H218.764ZM229.687 48C229.538 47.104 229.244 46.32 228.805 45.648C228.366 44.9667 227.774 44.248 227.027 43.492C226.28 44.248 225.688 44.9667 225.249 45.648C224.81 46.32 224.516 47.104 224.367 48H223.289C223.429 47.2347 223.648 46.5487 223.947 45.942C224.255 45.326 224.6 44.7847 224.983 44.318C225.366 43.8513 225.828 43.352 226.369 42.82C225.576 42.0267 224.946 41.2893 224.479 40.608C224.012 39.9173 223.686 39.1147 223.499 38.2H224.549C224.717 38.984 225.002 39.6747 225.403 40.272C225.814 40.86 226.355 41.49 227.027 42.162C227.699 41.49 228.236 40.86 228.637 40.272C229.048 39.6747 229.337 38.984 229.505 38.2H230.555C230.368 39.1147 230.042 39.9173 229.575 40.608C229.108 41.2893 228.478 42.0267 227.685 42.82C228.226 43.352 228.688 43.8513 229.071 44.318C229.454 44.7847 229.794 45.326 230.093 45.942C230.401 46.5487 230.625 47.2347 230.765 48H229.687ZM234.532 48.14C234.112 48.14 233.678 48.07 233.23 47.93C232.782 47.79 232.408 47.6033 232.11 47.37C231.811 47.1367 231.662 46.8893 231.662 46.628C231.662 46.5067 231.699 46.3993 231.774 46.306C231.858 46.2033 231.96 46.1333 232.082 46.096C232.418 46.5347 232.782 46.8567 233.174 47.062C233.566 47.258 234.037 47.356 234.588 47.356C235.176 47.356 235.619 47.2207 235.918 46.95C236.226 46.6793 236.38 46.32 236.38 45.872C236.38 45.5733 236.286 45.3307 236.1 45.144C235.922 44.9573 235.698 44.8173 235.428 44.724C235.166 44.6307 234.802 44.5233 234.336 44.402C233.794 44.262 233.356 44.1267 233.02 43.996C232.693 43.8653 232.413 43.6693 232.18 43.408C231.956 43.1373 231.844 42.778 231.844 42.33C231.844 41.854 231.97 41.4527 232.222 41.126C232.474 40.7993 232.796 40.5567 233.188 40.398C233.58 40.2393 233.981 40.16 234.392 40.16C234.98 40.16 235.512 40.2767 235.988 40.51C236.473 40.7433 236.851 41.084 237.122 41.532C236.898 41.7653 236.706 41.882 236.548 41.882C236.426 41.882 236.31 41.8167 236.198 41.686C235.974 41.4247 235.712 41.2333 235.414 41.112C235.124 40.9813 234.77 40.916 234.35 40.916C233.874 40.916 233.496 41.028 233.216 41.252C232.936 41.476 232.796 41.8213 232.796 42.288C232.796 42.5587 232.88 42.778 233.048 42.946C233.216 43.114 233.426 43.2447 233.678 43.338C233.93 43.422 234.275 43.52 234.714 43.632C235.274 43.7627 235.726 43.898 236.072 44.038C236.426 44.178 236.725 44.3973 236.968 44.696C237.21 44.9853 237.332 45.3773 237.332 45.872C237.332 46.5627 237.075 47.1133 236.562 47.524C236.058 47.9347 235.381 48.14 234.532 48.14ZM245.09 37.052C245.519 37.052 245.846 37.1033 246.07 37.206C246.294 37.3087 246.406 37.458 246.406 37.654C246.406 37.7567 246.387 37.8547 246.35 37.948C246.322 38.032 246.285 38.074 246.238 38.074C245.958 37.934 245.636 37.864 245.272 37.864C244.88 37.864 244.581 37.9853 244.376 38.228C244.171 38.4707 244.068 38.8207 244.068 39.278V40.3H245.804V41.028H244.068V48H243.116V41.028H241.674V40.3H243.116V39.264C243.116 38.592 243.293 38.0553 243.648 37.654C244.012 37.2527 244.493 37.052 245.09 37.052ZM250.031 48.14C248.949 48.14 248.132 47.804 247.581 47.132C247.031 46.46 246.755 45.4613 246.755 44.136C246.755 41.4853 247.847 40.16 250.031 40.16C252.215 40.16 253.307 41.4853 253.307 44.136C253.307 45.4613 253.032 46.46 252.481 47.132C251.931 47.804 251.114 48.14 250.031 48.14ZM250.031 47.356C250.825 47.356 251.403 47.0993 251.767 46.586C252.141 46.0633 252.327 45.2467 252.327 44.136C252.327 43.0347 252.141 42.2273 251.767 41.714C251.403 41.2007 250.825 40.944 250.031 40.944C249.238 40.944 248.655 41.2007 248.281 41.714C247.917 42.2273 247.735 43.0347 247.735 44.136C247.735 45.2467 247.917 46.0633 248.281 46.586C248.655 47.0993 249.238 47.356 250.031 47.356ZM258.149 40.202C258.476 40.202 258.723 40.258 258.891 40.37C259.069 40.4727 259.157 40.6313 259.157 40.846C259.157 40.9953 259.106 41.1307 259.003 41.252C258.779 41.1307 258.471 41.07 258.079 41.07C257.454 41.07 256.95 41.3173 256.567 41.812C256.194 42.3067 256.007 42.9553 256.007 43.758V48H255.055V40.3H256.007V41.686C256.222 41.2567 256.525 40.902 256.917 40.622C257.309 40.342 257.72 40.202 258.149 40.202ZM55.43 70.14C55.01 70.14 54.576 70.07 54.128 69.93C53.68 69.79 53.3067 69.6033 53.008 69.37C52.7093 69.1367 52.56 68.8893 52.56 68.628C52.56 68.5067 52.5973 68.3993 52.672 68.306C52.756 68.2033 52.8587 68.1333 52.98 68.096C53.316 68.5347 53.68 68.8567 54.072 69.062C54.464 69.258 54.9353 69.356 55.486 69.356C56.074 69.356 56.5173 69.2207 56.816 68.95C57.124 68.6793 57.278 68.32 57.278 67.872C57.278 67.5733 57.1847 67.3307 56.998 67.144C56.8207 66.9573 56.5967 66.8173 56.326 66.724C56.0647 66.6307 55.7007 66.5233 55.234 66.402C54.6927 66.262 54.254 66.1267 53.918 65.996C53.5913 65.8653 53.3113 65.6693 53.078 65.408C52.854 65.1373 52.742 64.778 52.742 64.33C52.742 63.854 52.868 63.4527 53.12 63.126C53.372 62.7993 53.694 62.5567 54.086 62.398C54.478 62.2393 54.8793 62.16 55.29 62.16C55.878 62.16 56.41 62.2767 56.886 62.51C57.3713 62.7433 57.7493 63.084 58.02 63.532C57.796 63.7653 57.6047 63.882 57.446 63.882C57.3247 63.882 57.208 63.8167 57.096 63.686C56.872 63.4247 56.6107 63.2333 56.312 63.112C56.0227 62.9813 55.668 62.916 55.248 62.916C54.772 62.916 54.394 63.028 54.114 63.252C53.834 63.476 53.694 63.8213 53.694 64.288C53.694 64.5587 53.778 64.778 53.946 64.946C54.114 65.114 54.324 65.2447 54.576 65.338C54.828 65.422 55.1733 65.52 55.612 65.632C56.172 65.7627 56.6247 65.898 56.97 66.038C57.3247 66.178 57.6233 66.3973 57.866 66.696C58.1087 66.9853 58.23 67.3773 58.23 67.872C58.23 68.5627 57.9733 69.1133 57.46 69.524C56.956 69.9347 56.2793 70.14 55.43 70.14ZM63.7369 62.16C64.5396 62.16 65.1743 62.3933 65.6409 62.86C66.1076 63.3173 66.3409 63.9427 66.3409 64.736V70H65.3889V64.834C65.3889 64.2273 65.2396 63.7607 64.9409 63.434C64.6423 63.1073 64.2129 62.944 63.6529 62.944C63.2236 62.944 62.7709 63.042 62.2949 63.238C61.8189 63.4247 61.3943 63.6767 61.0209 63.994V70H60.0689V58.926H61.0209V63.084C61.4316 62.7853 61.8703 62.5567 62.3369 62.398C62.8036 62.2393 63.2703 62.16 63.7369 62.16ZM71.4493 70.14C70.3666 70.14 69.5499 69.804 68.9993 69.132C68.4486 68.46 68.1733 67.4613 68.1733 66.136C68.1733 63.4853 69.2653 62.16 71.4493 62.16C73.6333 62.16 74.7253 63.4853 74.7253 66.136C74.7253 67.4613 74.4499 68.46 73.8993 69.132C73.3486 69.804 72.5319 70.14 71.4493 70.14ZM71.4493 69.356C72.2426 69.356 72.8213 69.0993 73.1853 68.586C73.5586 68.0633 73.7453 67.2467 73.7453 66.136C73.7453 65.0347 73.5586 64.2273 73.1853 63.714C72.8213 63.2007 72.2426 62.944 71.4493 62.944C70.6559 62.944 70.0726 63.2007 69.6993 63.714C69.3353 64.2273 69.1533 65.0347 69.1533 66.136C69.1533 67.2467 69.3353 68.0633 69.6993 68.586C70.0726 69.0993 70.6559 69.356 71.4493 69.356ZM79.8752 62.16C80.9205 62.16 81.7185 62.5053 82.2692 63.196C82.8199 63.8773 83.0952 64.8573 83.0952 66.136C83.0952 66.948 82.9505 67.6573 82.6612 68.264C82.3812 68.8613 81.9705 69.3233 81.4292 69.65C80.8972 69.9767 80.2719 70.14 79.5532 70.14C79.1985 70.14 78.8392 70.1027 78.4752 70.028C78.1205 69.9627 77.8032 69.874 77.5232 69.762V73.08H76.5712V64.918C76.5712 63.5367 76.5152 62.7153 76.4032 62.454C76.7019 62.314 76.9399 62.244 77.1172 62.244C77.3879 62.244 77.5232 62.5147 77.5232 63.056V63.112C77.8312 62.804 78.1859 62.5707 78.5872 62.412C78.9979 62.244 79.4272 62.16 79.8752 62.16ZM79.5532 69.356C80.3559 69.356 80.9765 69.076 81.4152 68.516C81.8632 67.956 82.0872 67.1627 82.0872 66.136C82.0872 64.008 81.3499 62.944 79.8752 62.944C79.4459 62.944 79.0259 63.042 78.6152 63.238C78.2139 63.434 77.8499 63.714 77.5232 64.078V68.936C78.1019 69.216 78.7785 69.356 79.5532 69.356ZM88.2424 62.16C89.2877 62.16 90.0857 62.5053 90.6364 63.196C91.1871 63.8773 91.4624 64.8573 91.4624 66.136C91.4624 66.948 91.3177 67.6573 91.0284 68.264C90.7484 68.8613 90.3377 69.3233 89.7964 69.65C89.2644 69.9767 88.6391 70.14 87.9204 70.14C87.5657 70.14 87.2064 70.1027 86.8424 70.028C86.4877 69.9627 86.1704 69.874 85.8904 69.762V73.08H84.9384V64.918C84.9384 63.5367 84.8824 62.7153 84.7704 62.454C85.0691 62.314 85.3071 62.244 85.4844 62.244C85.7551 62.244 85.8904 62.5147 85.8904 63.056V63.112C86.1984 62.804 86.5531 62.5707 86.9544 62.412C87.3651 62.244 87.7944 62.16 88.2424 62.16ZM87.9204 69.356C88.7231 69.356 89.3437 69.076 89.7824 68.516C90.2304 67.956 90.4544 67.1627 90.4544 66.136C90.4544 64.008 89.7171 62.944 88.2424 62.944C87.8131 62.944 87.3931 63.042 86.9824 63.238C86.5811 63.434 86.2171 63.714 85.8904 64.078V68.936C86.4691 69.216 87.1457 69.356 87.9204 69.356ZM93.5576 62.3H94.5096V70H93.5576V62.3ZM93.9776 60.886C93.5576 60.886 93.3476 60.676 93.3476 60.256V60.13C93.3476 59.71 93.5576 59.5 93.9776 59.5H94.0896C94.5096 59.5 94.7196 59.71 94.7196 60.13V60.256C94.7196 60.676 94.5096 60.886 94.0896 60.886H93.9776ZM103.331 68.208C103.331 68.7773 103.335 69.1647 103.345 69.37C103.363 69.566 103.401 69.7433 103.457 69.902C103.233 70.014 102.99 70.07 102.729 70.07C102.589 70.07 102.495 69.972 102.449 69.776C102.402 69.5707 102.379 69.1693 102.379 68.572V64.778C102.379 64.1247 102.257 63.6533 102.015 63.364C101.772 63.0653 101.38 62.916 100.839 62.916C99.9988 62.916 99.1401 63.3313 98.2628 64.162V70H97.3108V64.918C97.3108 63.5367 97.2548 62.7153 97.1428 62.454C97.4414 62.314 97.6794 62.244 97.8568 62.244C98.1274 62.244 98.2628 62.5147 98.2628 63.056V63.182C98.6921 62.8273 99.1214 62.5707 99.5508 62.412C99.9894 62.244 100.451 62.16 100.937 62.16C101.739 62.16 102.337 62.3793 102.729 62.818C103.13 63.2473 103.331 63.9053 103.331 64.792V68.208ZM112.016 61.894C112.184 61.894 112.305 61.9407 112.38 62.034C112.464 62.118 112.506 62.258 112.506 62.454C112.506 62.51 112.496 62.622 112.478 62.79C111.787 62.79 111.306 62.8833 111.036 63.07C111.409 63.518 111.596 64.0733 111.596 64.736C111.596 66.528 110.564 67.424 108.502 67.424C107.867 67.424 107.4 67.4707 107.102 67.564C106.812 67.648 106.668 67.7833 106.668 67.97C106.668 68.39 107.419 68.6 108.922 68.6C109.976 68.6 110.793 68.7773 111.372 69.132C111.95 69.4867 112.24 69.9907 112.24 70.644C112.24 71.344 111.927 71.8807 111.302 72.254C110.686 72.6367 109.799 72.828 108.642 72.828C107.55 72.828 106.719 72.66 106.15 72.324C105.58 71.988 105.296 71.4933 105.296 70.84C105.296 70.4667 105.422 70.1353 105.674 69.846C105.935 69.5567 106.294 69.342 106.752 69.202V69.16C106.472 69.0853 106.248 68.95 106.08 68.754C105.912 68.5487 105.828 68.306 105.828 68.026C105.828 67.7927 105.921 67.5873 106.108 67.41C106.294 67.2233 106.546 67.0973 106.864 67.032C106.462 66.808 106.15 66.514 105.926 66.15C105.711 65.7767 105.604 65.3613 105.604 64.904C105.604 63.0747 106.658 62.16 108.768 62.16C109.43 62.16 109.995 62.3047 110.462 62.594C110.695 62.3793 110.947 62.2113 111.218 62.09C111.498 61.9593 111.764 61.894 112.016 61.894ZM108.586 66.64C109.304 66.64 109.818 66.5 110.126 66.22C110.443 65.9307 110.602 65.4547 110.602 64.792C110.602 64.1387 110.443 63.6627 110.126 63.364C109.808 63.0653 109.295 62.916 108.586 62.916C107.895 62.916 107.386 63.07 107.06 63.378C106.742 63.6767 106.584 64.148 106.584 64.792C106.584 66.024 107.251 66.64 108.586 66.64ZM108.698 69.468C107.904 69.468 107.302 69.5753 106.892 69.79C106.49 70.0047 106.29 70.3173 106.29 70.728C106.29 71.1573 106.49 71.484 106.892 71.708C107.293 71.932 107.876 72.044 108.642 72.044C109.5 72.044 110.149 71.932 110.588 71.708C111.026 71.4933 111.246 71.1667 111.246 70.728C111.246 70.28 111.045 69.958 110.644 69.762C110.252 69.566 109.603 69.468 108.698 69.468ZM117.935 62.3H118.887V70H117.935V62.3ZM118.355 60.886C117.935 60.886 117.725 60.676 117.725 60.256V60.13C117.725 59.71 117.935 59.5 118.355 59.5H118.467C118.887 59.5 119.097 59.71 119.097 60.13V60.256C119.097 60.676 118.887 60.886 118.467 60.886H118.355ZM127.708 68.208C127.708 68.7773 127.712 69.1647 127.722 69.37C127.74 69.566 127.778 69.7433 127.834 69.902C127.61 70.014 127.367 70.07 127.106 70.07C126.966 70.07 126.872 69.972 126.826 69.776C126.779 69.5707 126.756 69.1693 126.756 68.572V64.778C126.756 64.1247 126.634 63.6533 126.392 63.364C126.149 63.0653 125.757 62.916 125.216 62.916C124.376 62.916 123.517 63.3313 122.64 64.162V70H121.688V64.918C121.688 63.5367 121.632 62.7153 121.52 62.454C121.818 62.314 122.056 62.244 122.234 62.244C122.504 62.244 122.64 62.5147 122.64 63.056V63.182C123.069 62.8273 123.498 62.5707 123.928 62.412C124.366 62.244 124.828 62.16 125.314 62.16C126.116 62.16 126.714 62.3793 127.106 62.818C127.507 63.2473 127.708 63.9053 127.708 64.792V68.208ZM137.37 69.062C137.435 69.1087 137.487 69.1787 137.524 69.272C137.571 69.356 137.594 69.4447 137.594 69.538C137.594 69.7153 137.519 69.8413 137.37 69.916C137.071 70.0653 136.684 70.14 136.208 70.14C135.601 70.14 135.116 69.9767 134.752 69.65C134.388 69.314 134.206 68.866 134.206 68.306V63.056H132.75V62.3H134.206V60.2H135.158V62.3H137.174V63.056H135.158V68.124C135.158 68.908 135.494 69.3 136.166 69.3C136.595 69.3 136.997 69.2207 137.37 69.062ZM142.76 62.16C143.563 62.16 144.198 62.3933 144.664 62.86C145.131 63.3173 145.364 63.9427 145.364 64.736V70H144.412V64.834C144.412 64.2273 144.263 63.7607 143.964 63.434C143.666 63.1073 143.236 62.944 142.676 62.944C142.247 62.944 141.794 63.042 141.318 63.238C140.842 63.4247 140.418 63.6767 140.044 63.994V70H139.092V58.926H140.044V63.084C140.455 62.7853 140.894 62.5567 141.36 62.398C141.827 62.2393 142.294 62.16 142.76 62.16ZM153.917 65.604C153.917 65.8187 153.907 66.0333 153.889 66.248H148.317C148.335 67.2187 148.55 67.9747 148.961 68.516C149.381 69.0573 149.959 69.328 150.697 69.328C151.201 69.328 151.625 69.23 151.971 69.034C152.325 68.838 152.619 68.5253 152.853 68.096C152.918 67.9747 153.016 67.914 153.147 67.914C153.296 67.914 153.501 68.0027 153.763 68.18C153.557 68.7867 153.179 69.2673 152.629 69.622C152.078 69.9673 151.434 70.14 150.697 70.14C150.015 70.14 149.418 69.9813 148.905 69.664C148.401 69.3373 148.013 68.8753 147.743 68.278C147.472 67.6713 147.337 66.9573 147.337 66.136C147.337 64.8947 147.645 63.924 148.261 63.224C148.877 62.5147 149.721 62.16 150.795 62.16C151.775 62.16 152.54 62.4633 153.091 63.07C153.641 63.6767 153.917 64.5213 153.917 65.604ZM152.937 65.492C152.937 63.812 152.209 62.972 150.753 62.972C150.043 62.972 149.483 63.1867 149.073 63.616C148.662 64.0453 148.419 64.6707 148.345 65.492H152.937ZM161.51 70.14C161.09 70.14 160.656 70.07 160.208 69.93C159.76 69.79 159.387 69.6033 159.088 69.37C158.789 69.1367 158.64 68.8893 158.64 68.628C158.64 68.5067 158.677 68.3993 158.752 68.306C158.836 68.2033 158.939 68.1333 159.06 68.096C159.396 68.5347 159.76 68.8567 160.152 69.062C160.544 69.258 161.015 69.356 161.566 69.356C162.154 69.356 162.597 69.2207 162.896 68.95C163.204 68.6793 163.358 68.32 163.358 67.872C163.358 67.5733 163.265 67.3307 163.078 67.144C162.901 66.9573 162.677 66.8173 162.406 66.724C162.145 66.6307 161.781 66.5233 161.314 66.402C160.773 66.262 160.334 66.1267 159.998 65.996C159.671 65.8653 159.391 65.6693 159.158 65.408C158.934 65.1373 158.822 64.778 158.822 64.33C158.822 63.854 158.948 63.4527 159.2 63.126C159.452 62.7993 159.774 62.5567 160.166 62.398C160.558 62.2393 160.959 62.16 161.37 62.16C161.958 62.16 162.49 62.2767 162.966 62.51C163.451 62.7433 163.829 63.084 164.1 63.532C163.876 63.7653 163.685 63.882 163.526 63.882C163.405 63.882 163.288 63.8167 163.176 63.686C162.952 63.4247 162.691 63.2333 162.392 63.112C162.103 62.9813 161.748 62.916 161.328 62.916C160.852 62.916 160.474 63.028 160.194 63.252C159.914 63.476 159.774 63.8213 159.774 64.288C159.774 64.5587 159.858 64.778 160.026 64.946C160.194 65.114 160.404 65.2447 160.656 65.338C160.908 65.422 161.253 65.52 161.692 65.632C162.252 65.7627 162.705 65.898 163.05 66.038C163.405 66.178 163.703 66.3973 163.946 66.696C164.189 66.9853 164.31 67.3773 164.31 67.872C164.31 68.5627 164.053 69.1133 163.54 69.524C163.036 69.9347 162.359 70.14 161.51 70.14ZM169.817 62.16C170.62 62.16 171.254 62.3933 171.721 62.86C172.188 63.3173 172.421 63.9427 172.421 64.736V70H171.469V64.834C171.469 64.2273 171.32 63.7607 171.021 63.434C170.722 63.1073 170.293 62.944 169.733 62.944C169.304 62.944 168.851 63.042 168.375 63.238C167.899 63.4247 167.474 63.6767 167.101 63.994V70H166.149V58.926H167.101V63.084C167.512 62.7853 167.95 62.5567 168.417 62.398C168.884 62.2393 169.35 62.16 169.817 62.16ZM177.529 70.14C176.447 70.14 175.63 69.804 175.079 69.132C174.529 68.46 174.253 67.4613 174.253 66.136C174.253 63.4853 175.345 62.16 177.529 62.16C179.713 62.16 180.805 63.4853 180.805 66.136C180.805 67.4613 180.53 68.46 179.979 69.132C179.429 69.804 178.612 70.14 177.529 70.14ZM177.529 69.356C178.323 69.356 178.901 69.0993 179.265 68.586C179.639 68.0633 179.825 67.2467 179.825 66.136C179.825 65.0347 179.639 64.2273 179.265 63.714C178.901 63.2007 178.323 62.944 177.529 62.944C176.736 62.944 176.153 63.2007 175.779 63.714C175.415 64.2273 175.233 65.0347 175.233 66.136C175.233 67.2467 175.415 68.0633 175.779 68.586C176.153 69.0993 176.736 69.356 177.529 69.356ZM185.955 62.16C187.001 62.16 187.799 62.5053 188.349 63.196C188.9 63.8773 189.175 64.8573 189.175 66.136C189.175 66.948 189.031 67.6573 188.741 68.264C188.461 68.8613 188.051 69.3233 187.509 69.65C186.977 69.9767 186.352 70.14 185.633 70.14C185.279 70.14 184.919 70.1027 184.555 70.028C184.201 69.9627 183.883 69.874 183.603 69.762V73.08H182.651V64.918C182.651 63.5367 182.595 62.7153 182.483 62.454C182.782 62.314 183.02 62.244 183.197 62.244C183.468 62.244 183.603 62.5147 183.603 63.056V63.112C183.911 62.804 184.266 62.5707 184.667 62.412C185.078 62.244 185.507 62.16 185.955 62.16ZM185.633 69.356C186.436 69.356 187.057 69.076 187.495 68.516C187.943 67.956 188.167 67.1627 188.167 66.136C188.167 64.008 187.43 62.944 185.955 62.944C185.526 62.944 185.106 63.042 184.695 63.238C184.294 63.434 183.93 63.714 183.603 64.078V68.936C184.182 69.216 184.859 69.356 185.633 69.356ZM191.83 70C191.41 70 191.2 69.79 191.2 69.37V69.244C191.2 68.824 191.41 68.614 191.83 68.614H191.942C192.362 68.614 192.572 68.824 192.572 69.244V69.37C192.572 69.79 192.362 70 191.942 70H191.83ZM204.912 60.2C204.95 60.368 204.968 60.48 204.968 60.536C204.968 60.6947 204.926 60.8207 204.842 60.914C204.758 60.998 204.632 61.04 204.464 61.04H201.888V70H200.88V61.04H197.856V60.2H204.912ZM207.337 61.04V64.498H211.495V65.338H207.337V70H206.329V60.2H212.097V61.04H207.337ZM218.807 64.946C219.32 65.086 219.74 65.3707 220.067 65.8C220.393 66.2293 220.557 66.724 220.557 67.284C220.557 68.152 220.258 68.824 219.661 69.3C219.063 69.7667 218.214 70 217.113 70H213.753V60.2H216.973C217.943 60.2 218.709 60.4333 219.269 60.9C219.829 61.3573 220.109 61.9827 220.109 62.776C220.109 63.2707 219.987 63.714 219.745 64.106C219.511 64.498 219.199 64.778 218.807 64.946ZM219.101 62.776C219.101 62.2347 218.909 61.81 218.527 61.502C218.153 61.194 217.635 61.04 216.973 61.04H214.761V64.61H216.931C218.377 64.61 219.101 63.9987 219.101 62.776ZM216.973 69.16C217.887 69.16 218.545 69.0153 218.947 68.726C219.348 68.4273 219.549 67.9467 219.549 67.284C219.549 66.6307 219.339 66.1547 218.919 65.856C218.508 65.5573 217.85 65.408 216.945 65.408H214.761V69.16H216.973ZM229.279 70.14C228.635 70.14 228.043 70.042 227.501 69.846C226.96 69.6407 226.531 69.3653 226.213 69.02C225.896 68.6747 225.737 68.2967 225.737 67.886C225.737 67.6993 225.803 67.55 225.933 67.438C226.073 67.3167 226.255 67.2513 226.479 67.242C226.629 67.9047 226.946 68.4087 227.431 68.754C227.917 69.0993 228.542 69.272 229.307 69.272C230.091 69.272 230.721 69.09 231.197 68.726C231.683 68.362 231.925 67.886 231.925 67.298C231.925 66.9527 231.837 66.6587 231.659 66.416C231.491 66.1733 231.211 65.9587 230.819 65.772C230.427 65.576 229.886 65.3893 229.195 65.212C228.393 64.9973 227.763 64.7733 227.305 64.54C226.848 64.2973 226.517 64.0267 226.311 63.728C226.115 63.42 226.017 63.042 226.017 62.594C226.017 61.81 226.307 61.194 226.885 60.746C227.464 60.2887 228.262 60.06 229.279 60.06C230.166 60.06 230.903 60.27 231.491 60.69C232.089 61.1007 232.49 61.684 232.695 62.44C232.574 62.5613 232.387 62.622 232.135 62.622C231.874 62.622 231.683 62.496 231.561 62.244C231.356 61.8333 231.043 61.5067 230.623 61.264C230.213 61.0213 229.765 60.9 229.279 60.9C228.542 60.9 227.982 61.0447 227.599 61.334C227.217 61.6233 227.025 62.0433 227.025 62.594C227.025 62.874 227.095 63.112 227.235 63.308C227.375 63.4947 227.609 63.6673 227.935 63.826C228.262 63.9847 228.724 64.148 229.321 64.316C230.32 64.596 231.071 64.862 231.575 65.114C232.089 65.366 232.448 65.6507 232.653 65.968C232.859 66.2853 232.961 66.7007 232.961 67.214C232.961 67.802 232.812 68.32 232.513 68.768C232.215 69.2067 231.785 69.5473 231.225 69.79C230.675 70.0233 230.026 70.14 229.279 70.14ZM238.696 62.16C239.499 62.16 240.133 62.3933 240.6 62.86C241.067 63.3173 241.3 63.9427 241.3 64.736V70H240.348V64.834C240.348 64.2273 240.199 63.7607 239.9 63.434C239.601 63.1073 239.172 62.944 238.612 62.944C238.183 62.944 237.73 63.042 237.254 63.238C236.778 63.4247 236.353 63.6767 235.98 63.994V70H235.028V58.926H235.98V63.084C236.391 62.7853 236.829 62.5567 237.296 62.398C237.763 62.2393 238.229 62.16 238.696 62.16ZM246.408 70.14C245.326 70.14 244.509 69.804 243.958 69.132C243.408 68.46 243.132 67.4613 243.132 66.136C243.132 63.4853 244.224 62.16 246.408 62.16C248.592 62.16 249.684 63.4853 249.684 66.136C249.684 67.4613 249.409 68.46 248.858 69.132C248.308 69.804 247.491 70.14 246.408 70.14ZM246.408 69.356C247.202 69.356 247.78 69.0993 248.144 68.586C248.518 68.0633 248.704 67.2467 248.704 66.136C248.704 65.0347 248.518 64.2273 248.144 63.714C247.78 63.2007 247.202 62.944 246.408 62.944C245.615 62.944 245.032 63.2007 244.658 63.714C244.294 64.2273 244.112 65.0347 244.112 66.136C244.112 67.2467 244.294 68.0633 244.658 68.586C245.032 69.0993 245.615 69.356 246.408 69.356ZM254.834 62.16C255.88 62.16 256.678 62.5053 257.228 63.196C257.779 63.8773 258.054 64.8573 258.054 66.136C258.054 66.948 257.91 67.6573 257.62 68.264C257.34 68.8613 256.93 69.3233 256.388 69.65C255.856 69.9767 255.231 70.14 254.512 70.14C254.158 70.14 253.798 70.1027 253.434 70.028C253.08 69.9627 252.762 69.874 252.482 69.762V73.08H251.53V64.918C251.53 63.5367 251.474 62.7153 251.362 62.454C251.661 62.314 251.899 62.244 252.076 62.244C252.347 62.244 252.482 62.5147 252.482 63.056V63.112C252.79 62.804 253.145 62.5707 253.546 62.412C253.957 62.244 254.386 62.16 254.834 62.16ZM254.512 69.356C255.315 69.356 255.936 69.076 256.374 68.516C256.822 67.956 257.046 67.1627 257.046 66.136C257.046 64.008 256.309 62.944 254.834 62.944C254.405 62.944 253.985 63.042 253.574 63.238C253.173 63.434 252.809 63.714 252.482 64.078V68.936C253.061 69.216 253.738 69.356 254.512 69.356ZM56.144 92.14C55.0147 92.14 54.1327 91.7853 53.498 91.076C52.8727 90.3667 52.56 89.3773 52.56 88.108C52.56 87.3053 52.7 86.61 52.98 86.022C53.2693 85.4247 53.68 84.9673 54.212 84.65C54.744 84.3233 55.3693 84.16 56.088 84.16C56.9467 84.16 57.6513 84.3793 58.202 84.818C58.762 85.2473 59.0887 85.8353 59.182 86.582C59.098 86.6193 58.9813 86.6567 58.832 86.694C58.692 86.7313 58.5753 86.75 58.482 86.75C58.3887 86.75 58.3187 86.7267 58.272 86.68C58.2347 86.624 58.1927 86.512 58.146 86.344C58.0433 85.9053 57.81 85.5647 57.446 85.322C57.082 85.07 56.6293 84.944 56.088 84.944C55.584 84.944 55.136 85.0747 54.744 85.336C54.3613 85.5973 54.0627 85.9707 53.848 86.456C53.6427 86.932 53.54 87.4827 53.54 88.108C53.54 89.0973 53.7733 89.886 54.24 90.474C54.716 91.062 55.3507 91.356 56.144 91.356C56.7507 91.356 57.2687 91.216 57.698 90.936C58.1273 90.6467 58.4493 90.2267 58.664 89.676C58.7947 89.676 58.902 89.732 58.986 89.844C59.0793 89.956 59.126 90.0867 59.126 90.236C59.126 90.5627 58.986 90.8753 58.706 91.174C58.4353 91.4633 58.0667 91.6967 57.6 91.874C57.1427 92.0513 56.6573 92.14 56.144 92.14ZM63.5469 92.14C62.4643 92.14 61.6476 91.804 61.0969 91.132C60.5463 90.46 60.2709 89.4613 60.2709 88.136C60.2709 85.4853 61.3629 84.16 63.5469 84.16C65.7309 84.16 66.8229 85.4853 66.8229 88.136C66.8229 89.4613 66.5476 90.46 65.9969 91.132C65.4463 91.804 64.6296 92.14 63.5469 92.14ZM63.5469 91.356C64.3403 91.356 64.9189 91.0993 65.2829 90.586C65.6563 90.0633 65.8429 89.2467 65.8429 88.136C65.8429 87.0347 65.6563 86.2273 65.2829 85.714C64.9189 85.2007 64.3403 84.944 63.5469 84.944C62.7536 84.944 62.1703 85.2007 61.7969 85.714C61.4329 86.2273 61.2509 87.0347 61.2509 88.136C61.2509 89.2467 61.4329 90.0633 61.7969 90.586C62.1703 91.0993 62.7536 91.356 63.5469 91.356ZM74.6609 90.208C74.6609 90.7773 74.6655 91.1647 74.6749 91.37C74.6935 91.566 74.7309 91.7433 74.7869 91.902C74.5629 92.014 74.3202 92.07 74.0589 92.07C73.9189 92.07 73.8255 91.972 73.7789 91.776C73.7322 91.5707 73.7089 91.1693 73.7089 90.572V86.778C73.7089 86.1247 73.5875 85.6533 73.3449 85.364C73.1022 85.0653 72.7102 84.916 72.1689 84.916C71.3289 84.916 70.4702 85.3313 69.5929 86.162V92H68.6409V86.918C68.6409 85.5367 68.5849 84.7153 68.4729 84.454C68.7715 84.314 69.0095 84.244 69.1869 84.244C69.4575 84.244 69.5929 84.5147 69.5929 85.056V85.182C70.0222 84.8273 70.4515 84.5707 70.8809 84.412C71.3195 84.244 71.7815 84.16 72.2669 84.16C73.0695 84.16 73.6669 84.3793 74.0589 84.818C74.4602 85.2473 74.6609 85.9053 74.6609 86.792V90.208ZM80.7138 91.062C80.7791 91.1087 80.8304 91.1787 80.8678 91.272C80.9144 91.356 80.9378 91.4447 80.9378 91.538C80.9378 91.7153 80.8631 91.8413 80.7138 91.916C80.4151 92.0653 80.0278 92.14 79.5518 92.14C78.9451 92.14 78.4598 91.9767 78.0958 91.65C77.7318 91.314 77.5498 90.866 77.5498 90.306V85.056H76.0938V84.3H77.5498V82.2H78.5018V84.3H80.5178V85.056H78.5018V90.124C78.5018 90.908 78.8378 91.3 79.5098 91.3C79.9391 91.3 80.3404 91.2207 80.7138 91.062ZM87.8261 90.082C87.8261 90.5113 87.8588 90.852 87.9241 91.104C87.9988 91.3467 88.1248 91.566 88.3021 91.762C88.2088 91.8553 88.0968 91.93 87.9661 91.986C87.8448 92.042 87.7281 92.07 87.6161 92.07C87.4294 92.07 87.2708 91.9627 87.1401 91.748C87.0188 91.5333 86.9394 91.2393 86.9021 90.866C86.6128 91.258 86.2254 91.5707 85.7401 91.804C85.2548 92.028 84.7461 92.14 84.2141 92.14C83.5048 92.14 82.9354 91.958 82.5061 91.594C82.0768 91.2207 81.8621 90.7353 81.8621 90.138C81.8621 89.2607 82.2868 88.5747 83.1361 88.08C83.9948 87.5853 85.2408 87.3007 86.8741 87.226V86.778C86.8741 86.162 86.7154 85.7047 86.3981 85.406C86.0901 85.098 85.6188 84.944 84.9841 84.944C84.5734 84.944 84.1908 85.0327 83.8361 85.21C83.4908 85.378 83.1174 85.6627 82.7161 86.064C82.6601 86.12 82.5901 86.148 82.5061 86.148C82.4128 86.148 82.3101 86.1107 82.1981 86.036C82.0861 85.952 81.9788 85.8353 81.8761 85.686C82.2961 85.1913 82.7721 84.8133 83.3041 84.552C83.8454 84.2907 84.4194 84.16 85.0261 84.16C85.8941 84.16 86.5754 84.3933 87.0701 84.86C87.5741 85.3267 87.8261 85.966 87.8261 86.778V90.082ZM84.2841 91.356C84.7881 91.356 85.2641 91.216 85.7121 90.936C86.1601 90.656 86.5474 90.2593 86.8741 89.746V88.01C84.1861 88.122 82.8421 88.8267 82.8421 90.124C82.8421 90.9453 83.3228 91.356 84.2841 91.356ZM90.5088 84.3H91.4608V92H90.5088V84.3ZM90.9288 82.886C90.5088 82.886 90.2988 82.676 90.2988 82.256V82.13C90.2988 81.71 90.5088 81.5 90.9288 81.5H91.0408C91.4608 81.5 91.6708 81.71 91.6708 82.13V82.256C91.6708 82.676 91.4608 82.886 91.0408 82.886H90.9288ZM100.282 90.208C100.282 90.7773 100.287 91.1647 100.296 91.37C100.315 91.566 100.352 91.7433 100.408 91.902C100.184 92.014 99.9413 92.07 99.68 92.07C99.54 92.07 99.4466 91.972 99.4 91.776C99.3533 91.5707 99.33 91.1693 99.33 90.572V86.778C99.33 86.1247 99.2086 85.6533 98.966 85.364C98.7233 85.0653 98.3313 84.916 97.79 84.916C96.95 84.916 96.0913 85.3313 95.214 86.162V92H94.262V86.918C94.262 85.5367 94.206 84.7153 94.094 84.454C94.3926 84.314 94.6306 84.244 94.808 84.244C95.0786 84.244 95.214 84.5147 95.214 85.056V85.182C95.6433 84.8273 96.0726 84.5707 96.502 84.412C96.9406 84.244 97.4026 84.16 97.888 84.16C98.6906 84.16 99.288 84.3793 99.68 84.818C100.081 85.2473 100.282 85.9053 100.282 86.792V90.208ZM104.977 92.14C104.557 92.14 104.123 92.07 103.675 91.93C103.227 91.79 102.854 91.6033 102.555 91.37C102.256 91.1367 102.107 90.8893 102.107 90.628C102.107 90.5067 102.144 90.3993 102.219 90.306C102.303 90.2033 102.406 90.1333 102.527 90.096C102.863 90.5347 103.227 90.8567 103.619 91.062C104.011 91.258 104.482 91.356 105.033 91.356C105.621 91.356 106.064 91.2207 106.363 90.95C106.671 90.6793 106.825 90.32 106.825 89.872C106.825 89.5733 106.732 89.3307 106.545 89.144C106.368 88.9573 106.144 88.8173 105.873 88.724C105.612 88.6307 105.248 88.5233 104.781 88.402C104.24 88.262 103.801 88.1267 103.465 87.996C103.138 87.8653 102.858 87.6693 102.625 87.408C102.401 87.1373 102.289 86.778 102.289 86.33C102.289 85.854 102.415 85.4527 102.667 85.126C102.919 84.7993 103.241 84.5567 103.633 84.398C104.025 84.2393 104.426 84.16 104.837 84.16C105.425 84.16 105.957 84.2767 106.433 84.51C106.918 84.7433 107.296 85.084 107.567 85.532C107.343 85.7653 107.152 85.882 106.993 85.882C106.872 85.882 106.755 85.8167 106.643 85.686C106.419 85.4247 106.158 85.2333 105.859 85.112C105.57 84.9813 105.215 84.916 104.795 84.916C104.319 84.916 103.941 85.028 103.661 85.252C103.381 85.476 103.241 85.8213 103.241 86.288C103.241 86.5587 103.325 86.778 103.493 86.946C103.661 87.114 103.871 87.2447 104.123 87.338C104.375 87.422 104.72 87.52 105.159 87.632C105.719 87.7627 106.172 87.898 106.517 88.038C106.872 88.178 107.17 88.3973 107.413 88.696C107.656 88.9853 107.777 89.3773 107.777 89.872C107.777 90.5627 107.52 91.1133 107.007 91.524C106.503 91.9347 105.826 92.14 104.977 92.14ZM118.615 90.082C118.615 90.5113 118.648 90.852 118.713 91.104C118.788 91.3467 118.914 91.566 119.091 91.762C118.998 91.8553 118.886 91.93 118.755 91.986C118.634 92.042 118.517 92.07 118.405 92.07C118.219 92.07 118.06 91.9627 117.929 91.748C117.808 91.5333 117.729 91.2393 117.691 90.866C117.402 91.258 117.015 91.5707 116.529 91.804C116.044 92.028 115.535 92.14 115.003 92.14C114.294 92.14 113.725 91.958 113.295 91.594C112.866 91.2207 112.651 90.7353 112.651 90.138C112.651 89.2607 113.076 88.5747 113.925 88.08C114.784 87.5853 116.03 87.3007 117.663 87.226V86.778C117.663 86.162 117.505 85.7047 117.187 85.406C116.879 85.098 116.408 84.944 115.773 84.944C115.363 84.944 114.98 85.0327 114.625 85.21C114.28 85.378 113.907 85.6627 113.505 86.064C113.449 86.12 113.379 86.148 113.295 86.148C113.202 86.148 113.099 86.1107 112.987 86.036C112.875 85.952 112.768 85.8353 112.665 85.686C113.085 85.1913 113.561 84.8133 114.093 84.552C114.635 84.2907 115.209 84.16 115.815 84.16C116.683 84.16 117.365 84.3933 117.859 84.86C118.363 85.3267 118.615 85.966 118.615 86.778V90.082ZM115.073 91.356C115.577 91.356 116.053 91.216 116.501 90.936C116.949 90.656 117.337 90.2593 117.663 89.746V88.01C114.975 88.122 113.631 88.8267 113.631 90.124C113.631 90.9453 114.112 91.356 115.073 91.356ZM129.933 84.3C129.821 85.7373 129.546 87.0813 129.107 88.332C128.669 89.5733 128.039 90.796 127.217 92H126.307C125.486 90.796 124.856 89.5733 124.417 88.332C123.979 87.0813 123.703 85.7373 123.591 84.3H124.543C124.674 85.6533 124.912 86.8573 125.257 87.912C125.612 88.9573 126.116 89.9747 126.769 90.964C127.423 89.9747 127.922 88.9573 128.267 87.912C128.613 86.8573 128.851 85.6533 128.981 84.3H129.933ZM136.826 90.082C136.826 90.5113 136.859 90.852 136.924 91.104C136.999 91.3467 137.125 91.566 137.302 91.762C137.209 91.8553 137.097 91.93 136.966 91.986C136.845 92.042 136.728 92.07 136.616 92.07C136.429 92.07 136.271 91.9627 136.14 91.748C136.019 91.5333 135.939 91.2393 135.902 90.866C135.613 91.258 135.225 91.5707 134.74 91.804C134.255 92.028 133.746 92.14 133.214 92.14C132.505 92.14 131.935 91.958 131.506 91.594C131.077 91.2207 130.862 90.7353 130.862 90.138C130.862 89.2607 131.287 88.5747 132.136 88.08C132.995 87.5853 134.241 87.3007 135.874 87.226V86.778C135.874 86.162 135.715 85.7047 135.398 85.406C135.09 85.098 134.619 84.944 133.984 84.944C133.573 84.944 133.191 85.0327 132.836 85.21C132.491 85.378 132.117 85.6627 131.716 86.064C131.66 86.12 131.59 86.148 131.506 86.148C131.413 86.148 131.31 86.1107 131.198 86.036C131.086 85.952 130.979 85.8353 130.876 85.686C131.296 85.1913 131.772 84.8133 132.304 84.552C132.845 84.2907 133.419 84.16 134.026 84.16C134.894 84.16 135.575 84.3933 136.07 84.86C136.574 85.3267 136.826 85.966 136.826 86.778V90.082ZM133.284 91.356C133.788 91.356 134.264 91.216 134.712 90.936C135.16 90.656 135.547 90.2593 135.874 89.746V88.01C133.186 88.122 131.842 88.8267 131.842 90.124C131.842 90.9453 132.323 91.356 133.284 91.356ZM142.253 84.202C142.579 84.202 142.827 84.258 142.995 84.37C143.172 84.4727 143.261 84.6313 143.261 84.846C143.261 84.9953 143.209 85.1307 143.107 85.252C142.883 85.1307 142.575 85.07 142.183 85.07C141.557 85.07 141.053 85.3173 140.671 85.812C140.297 86.3067 140.111 86.9553 140.111 87.758V92H139.159V84.3H140.111V85.686C140.325 85.2567 140.629 84.902 141.021 84.622C141.413 84.342 141.823 84.202 142.253 84.202ZM145.114 84.3H146.066V92H145.114V84.3ZM145.534 82.886C145.114 82.886 144.904 82.676 144.904 82.256V82.13C144.904 81.71 145.114 81.5 145.534 81.5H145.646C146.066 81.5 146.276 81.71 146.276 82.13V82.256C146.276 82.676 146.066 82.886 145.646 82.886H145.534ZM154.887 87.604C154.887 87.8187 154.878 88.0333 154.859 88.248H149.287C149.306 89.2187 149.521 89.9747 149.931 90.516C150.351 91.0573 150.93 91.328 151.667 91.328C152.171 91.328 152.596 91.23 152.941 91.034C153.296 90.838 153.59 90.5253 153.823 90.096C153.889 89.9747 153.987 89.914 154.117 89.914C154.267 89.914 154.472 90.0027 154.733 90.18C154.528 90.7867 154.15 91.2673 153.599 91.622C153.049 91.9673 152.405 92.14 151.667 92.14C150.986 92.14 150.389 91.9813 149.875 91.664C149.371 91.3373 148.984 90.8753 148.713 90.278C148.443 89.6713 148.307 88.9573 148.307 88.136C148.307 86.8947 148.615 85.924 149.231 85.224C149.847 84.5147 150.692 84.16 151.765 84.16C152.745 84.16 153.511 84.4633 154.061 85.07C154.612 85.6767 154.887 86.5213 154.887 87.604ZM153.907 87.492C153.907 85.812 153.179 84.972 151.723 84.972C151.014 84.972 150.454 85.1867 150.043 85.616C149.633 86.0453 149.39 86.6707 149.315 87.492H153.907ZM160.229 91.062C160.295 91.1087 160.346 91.1787 160.383 91.272C160.43 91.356 160.453 91.4447 160.453 91.538C160.453 91.7153 160.379 91.8413 160.229 91.916C159.931 92.0653 159.543 92.14 159.067 92.14C158.461 92.14 157.975 91.9767 157.611 91.65C157.247 91.314 157.065 90.866 157.065 90.306V85.056H155.609V84.3H157.065V82.2H158.017V84.3H160.033V85.056H158.017V90.124C158.017 90.908 158.353 91.3 159.025 91.3C159.455 91.3 159.856 91.2207 160.229 91.062ZM167.314 84.3L164.332 92.588C164.07 93.3253 163.739 93.862 163.338 94.198C162.946 94.5433 162.446 94.716 161.84 94.716C161.485 94.716 161.205 94.66 161 94.548C160.794 94.4453 160.692 94.3053 160.692 94.128C160.692 93.9413 160.771 93.792 160.93 93.68C161.023 93.7453 161.163 93.8013 161.35 93.848C161.546 93.8947 161.737 93.918 161.924 93.918C162.306 93.918 162.633 93.75 162.904 93.414C163.184 93.078 163.422 92.5647 163.618 91.874L160.874 84.3H161.882L164.108 90.502L166.306 84.3H167.314ZM174.918 92.14C173.835 92.14 173.019 91.804 172.468 91.132C171.917 90.46 171.642 89.4613 171.642 88.136C171.642 85.4853 172.734 84.16 174.918 84.16C177.102 84.16 178.194 85.4853 178.194 88.136C178.194 89.4613 177.919 90.46 177.368 91.132C176.817 91.804 176.001 92.14 174.918 92.14ZM174.918 91.356C175.711 91.356 176.29 91.0993 176.654 90.586C177.027 90.0633 177.214 89.2467 177.214 88.136C177.214 87.0347 177.027 86.2273 176.654 85.714C176.29 85.2007 175.711 84.944 174.918 84.944C174.125 84.944 173.541 85.2007 173.168 85.714C172.804 86.2273 172.622 87.0347 172.622 88.136C172.622 89.2467 172.804 90.0633 173.168 90.586C173.541 91.0993 174.125 91.356 174.918 91.356ZM182.336 81.052C182.765 81.052 183.092 81.1033 183.316 81.206C183.54 81.3087 183.652 81.458 183.652 81.654C183.652 81.7567 183.633 81.8547 183.596 81.948C183.568 82.032 183.531 82.074 183.484 82.074C183.204 81.934 182.882 81.864 182.518 81.864C182.126 81.864 181.827 81.9853 181.622 82.228C181.417 82.4707 181.314 82.8207 181.314 83.278V84.3H183.05V85.028H181.314V92H180.362V85.028H178.92V84.3H180.362V83.264C180.362 82.592 180.539 82.0553 180.894 81.654C181.258 81.2527 181.739 81.052 182.336 81.052ZM191.643 84.16C192.688 84.16 193.486 84.5053 194.037 85.196C194.587 85.8773 194.863 86.8573 194.863 88.136C194.863 88.948 194.718 89.6573 194.429 90.264C194.149 90.8613 193.738 91.3233 193.197 91.65C192.665 91.9767 192.039 92.14 191.321 92.14C190.966 92.14 190.607 92.1027 190.243 92.028C189.888 91.9627 189.571 91.874 189.291 91.762V95.08H188.339V86.918C188.339 85.5367 188.283 84.7153 188.171 84.454C188.469 84.314 188.707 84.244 188.885 84.244C189.155 84.244 189.291 84.5147 189.291 85.056V85.112C189.599 84.804 189.953 84.5707 190.355 84.412C190.765 84.244 191.195 84.16 191.643 84.16ZM191.321 91.356C192.123 91.356 192.744 91.076 193.183 90.516C193.631 89.956 193.855 89.1627 193.855 88.136C193.855 86.008 193.117 84.944 191.643 84.944C191.213 84.944 190.793 85.042 190.383 85.238C189.981 85.434 189.617 85.714 189.291 86.078V90.936C189.869 91.216 190.546 91.356 191.321 91.356ZM199.702 84.202C200.029 84.202 200.276 84.258 200.444 84.37C200.621 84.4727 200.71 84.6313 200.71 84.846C200.71 84.9953 200.659 85.1307 200.556 85.252C200.332 85.1307 200.024 85.07 199.632 85.07C199.007 85.07 198.503 85.3173 198.12 85.812C197.747 86.3067 197.56 86.9553 197.56 87.758V92H196.608V84.3H197.56V85.686C197.775 85.2567 198.078 84.902 198.47 84.622C198.862 84.342 199.273 84.202 199.702 84.202ZM204.859 92.14C203.777 92.14 202.96 91.804 202.409 91.132C201.859 90.46 201.583 89.4613 201.583 88.136C201.583 85.4853 202.675 84.16 204.859 84.16C207.043 84.16 208.135 85.4853 208.135 88.136C208.135 89.4613 207.86 90.46 207.309 91.132C206.759 91.804 205.942 92.14 204.859 92.14ZM204.859 91.356C205.653 91.356 206.231 91.0993 206.595 90.586C206.969 90.0633 207.155 89.2467 207.155 88.136C207.155 87.0347 206.969 86.2273 206.595 85.714C206.231 85.2007 205.653 84.944 204.859 84.944C204.066 84.944 203.483 85.2007 203.109 85.714C202.745 86.2273 202.563 87.0347 202.563 88.136C202.563 89.2467 202.745 90.0633 203.109 90.586C203.483 91.0993 204.066 91.356 204.859 91.356ZM215.791 90.208C215.791 90.5067 215.81 90.81 215.847 91.118C215.885 91.426 215.931 91.6827 215.987 91.888C215.754 92 215.539 92.056 215.343 92.056C215.091 92.056 214.933 91.7387 214.867 91.104C214.559 91.4773 214.223 91.7433 213.859 91.902C213.495 92.0607 213.047 92.14 212.515 92.14C211.498 92.14 210.7 91.79 210.121 91.09C209.543 90.3807 209.253 89.41 209.253 88.178C209.253 86.9087 209.561 85.924 210.177 85.224C210.803 84.5147 211.671 84.16 212.781 84.16C213.127 84.16 213.491 84.2253 213.873 84.356C214.265 84.4773 214.587 84.6313 214.839 84.818V80.926H215.791V90.208ZM212.585 91.356C213.061 91.356 213.481 91.258 213.845 91.062C214.209 90.866 214.541 90.5627 214.839 90.152V85.742C214.615 85.5087 214.307 85.3127 213.915 85.154C213.533 84.9953 213.155 84.916 212.781 84.916C211.96 84.916 211.33 85.196 210.891 85.756C210.453 86.316 210.233 87.1233 210.233 88.178C210.233 89.2047 210.434 89.9933 210.835 90.544C211.237 91.0853 211.82 91.356 212.585 91.356ZM224.299 90.418C224.299 90.9593 224.369 91.454 224.509 91.902C224.313 92.014 224.112 92.07 223.907 92.07C223.711 92.07 223.566 91.9907 223.473 91.832C223.389 91.664 223.342 91.3653 223.333 90.936C223.071 91.3 222.703 91.594 222.227 91.818C221.751 92.0327 221.237 92.14 220.687 92.14C219.109 92.14 218.321 91.2767 218.321 89.55V84.3H219.273V89.452C219.273 90.1333 219.399 90.628 219.651 90.936C219.903 91.2347 220.304 91.384 220.855 91.384C221.349 91.384 221.811 91.258 222.241 91.006C222.679 90.754 223.043 90.3993 223.333 89.942V84.3H224.299V90.418ZM229.749 92.14C228.62 92.14 227.738 91.7853 227.103 91.076C226.478 90.3667 226.165 89.3773 226.165 88.108C226.165 87.3053 226.305 86.61 226.585 86.022C226.875 85.4247 227.285 84.9673 227.817 84.65C228.349 84.3233 228.975 84.16 229.693 84.16C230.552 84.16 231.257 84.3793 231.807 84.818C232.367 85.2473 232.694 85.8353 232.787 86.582C232.703 86.6193 232.587 86.6567 232.437 86.694C232.297 86.7313 232.181 86.75 232.087 86.75C231.994 86.75 231.924 86.7267 231.877 86.68C231.84 86.624 231.798 86.512 231.751 86.344C231.649 85.9053 231.415 85.5647 231.051 85.322C230.687 85.07 230.235 84.944 229.693 84.944C229.189 84.944 228.741 85.0747 228.349 85.336C227.967 85.5973 227.668 85.9707 227.453 86.456C227.248 86.932 227.145 87.4827 227.145 88.108C227.145 89.0973 227.379 89.886 227.845 90.474C228.321 91.062 228.956 91.356 229.749 91.356C230.356 91.356 230.874 91.216 231.303 90.936C231.733 90.6467 232.055 90.2267 232.269 89.676C232.4 89.676 232.507 89.732 232.591 89.844C232.685 89.956 232.731 90.0867 232.731 90.236C232.731 90.5627 232.591 90.8753 232.311 91.174C232.041 91.4633 231.672 91.6967 231.205 91.874C230.748 92.0513 230.263 92.14 229.749 92.14ZM238.104 91.062C238.17 91.1087 238.221 91.1787 238.258 91.272C238.305 91.356 238.328 91.4447 238.328 91.538C238.328 91.7153 238.254 91.8413 238.104 91.916C237.806 92.0653 237.418 92.14 236.942 92.14C236.336 92.14 235.85 91.9767 235.486 91.65C235.122 91.314 234.94 90.866 234.94 90.306V85.056H233.484V84.3H234.94V82.2H235.892V84.3H237.908V85.056H235.892V90.124C235.892 90.908 236.228 91.3 236.9 91.3C237.33 91.3 237.731 91.2207 238.104 91.062ZM241.983 92.14C241.563 92.14 241.129 92.07 240.681 91.93C240.233 91.79 239.859 91.6033 239.561 91.37C239.262 91.1367 239.113 90.8893 239.113 90.628C239.113 90.5067 239.15 90.3993 239.225 90.306C239.309 90.2033 239.411 90.1333 239.533 90.096C239.869 90.5347 240.233 90.8567 240.625 91.062C241.017 91.258 241.488 91.356 242.039 91.356C242.627 91.356 243.07 91.2207 243.369 90.95C243.677 90.6793 243.831 90.32 243.831 89.872C243.831 89.5733 243.737 89.3307 243.551 89.144C243.373 88.9573 243.149 88.8173 242.879 88.724C242.617 88.6307 242.253 88.5233 241.787 88.402C241.245 88.262 240.807 88.1267 240.471 87.996C240.144 87.8653 239.864 87.6693 239.631 87.408C239.407 87.1373 239.295 86.778 239.295 86.33C239.295 85.854 239.421 85.4527 239.673 85.126C239.925 84.7993 240.247 84.5567 240.639 84.398C241.031 84.2393 241.432 84.16 241.843 84.16C242.431 84.16 242.963 84.2767 243.439 84.51C243.924 84.7433 244.302 85.084 244.573 85.532C244.349 85.7653 244.157 85.882 243.999 85.882C243.877 85.882 243.761 85.8167 243.649 85.686C243.425 85.4247 243.163 85.2333 242.865 85.112C242.575 84.9813 242.221 84.916 241.801 84.916C241.325 84.916 240.947 85.028 240.667 85.252C240.387 85.476 240.247 85.8213 240.247 86.288C240.247 86.5587 240.331 86.778 240.499 86.946C240.667 87.114 240.877 87.2447 241.129 87.338C241.381 87.422 241.726 87.52 242.165 87.632C242.725 87.7627 243.177 87.898 243.523 88.038C243.877 88.178 244.176 88.3973 244.419 88.696C244.661 88.9853 244.783 89.3773 244.783 89.872C244.783 90.5627 244.526 91.1133 244.013 91.524C243.509 91.9347 242.832 92.14 241.983 92.14ZM247.448 92C247.028 92 246.818 91.79 246.818 91.37V91.244C246.818 90.824 247.028 90.614 247.448 90.614H247.56C247.98 90.614 248.19 90.824 248.19 91.244V91.37C248.19 91.79 247.98 92 247.56 92H247.448Z" fill="#79A3B5"/>
<path opacity="0.3" fill-rule="evenodd" clip-rule="evenodd" d="M4.22182 14.1213C3.44077 14.9024 3.44077 16.1687 4.22182 16.9497L7.05025 19.7782C7.8313 20.5592 9.09763 20.5592 9.87868 19.7782L12.7071 16.9497C13.4882 16.1687 13.4882 14.9024 12.7071 14.1213L12 13.4142L9.87868 15.5355C9.48815 15.926 8.85499 15.926 8.46446 15.5355C8.07394 15.145 8.07394 14.5118 8.46446 14.1213L10.5858 12L9.87868 11.2929C9.09763 10.5118 7.8313 10.5118 7.05025 11.2929L4.22182 14.1213Z" fill="#4BB59B"/>
<path fill-rule="evenodd" clip-rule="evenodd" d="M11.2929 7.05026C10.5118 7.83131 10.5118 9.09764 11.2929 9.87869L12 10.5858L14.1213 8.46448C14.5118 8.07395 15.145 8.07395 15.5355 8.46448C15.9261 8.855 15.9261 9.48817 15.5355 9.87869L13.4142 12L14.1213 12.7071C14.9024 13.4882 16.1687 13.4882 16.9497 12.7071L19.7782 9.87869C20.5592 9.09764 20.5592 7.83131 19.7782 7.05026L16.9497 4.22184C16.1687 3.44079 14.9024 3.44079 14.1213 4.22184L11.2929 7.05026Z" fill="#4BB59B"/>
</svg>
