<svg width="299" height="106" viewBox="0 0 299 106" fill="none" xmlns="http://www.w3.org/2000/svg">
<path d="M61.81 16L60.262 12.022H55.168L53.638 16H52L57.022 3.094H58.48L63.484 16H61.81ZM58.336 6.694C58.3 6.598 58.24 6.424 58.156 6.172C58.072 5.92 57.988 5.662 57.904 5.398C57.832 5.122 57.772 4.912 57.724 4.768C57.64 5.14 57.544 5.506 57.436 5.866C57.328 6.214 57.238 6.49 57.166 6.694L55.708 10.582H59.776L58.336 6.694ZM69.6701 6.172C70.8221 6.172 71.6921 6.454 72.2801 7.018C72.8681 7.57 73.1621 8.47 73.1621 9.718V16H71.5961V9.826C71.5961 8.278 70.8761 7.504 69.4361 7.504C68.3681 7.504 67.6301 7.804 67.2221 8.404C66.8141 9.004 66.6101 9.868 66.6101 10.996V16H65.0261V6.352H66.3041L66.5381 7.666H66.6281C66.9401 7.162 67.3721 6.79 67.9241 6.55C68.4761 6.298 69.0581 6.172 69.6701 6.172ZM82.435 13.336C82.435 14.272 82.087 14.98 81.391 15.46C80.695 15.94 79.759 16.18 78.583 16.18C77.911 16.18 77.329 16.126 76.837 16.018C76.357 15.91 75.931 15.76 75.559 15.568V14.128C75.943 14.32 76.405 14.5 76.945 14.668C77.497 14.824 78.055 14.902 78.619 14.902C79.423 14.902 80.005 14.776 80.365 14.524C80.725 14.26 80.905 13.912 80.905 13.48C80.905 13.24 80.839 13.024 80.707 12.832C80.575 12.64 80.335 12.448 79.987 12.256C79.651 12.064 79.165 11.848 78.529 11.608C77.905 11.368 77.371 11.128 76.927 10.888C76.483 10.648 76.141 10.36 75.901 10.024C75.661 9.688 75.541 9.256 75.541 8.728C75.541 7.912 75.871 7.282 76.531 6.838C77.203 6.394 78.079 6.172 79.159 6.172C79.747 6.172 80.293 6.232 80.797 6.352C81.313 6.46 81.793 6.616 82.237 6.82L81.697 8.08C81.289 7.912 80.863 7.768 80.419 7.648C79.975 7.528 79.519 7.468 79.051 7.468C78.403 7.468 77.905 7.576 77.557 7.792C77.221 7.996 77.053 8.278 77.053 8.638C77.053 8.902 77.131 9.13 77.287 9.322C77.443 9.502 77.701 9.682 78.061 9.862C78.433 10.03 78.925 10.234 79.537 10.474C80.149 10.702 80.671 10.936 81.103 11.176C81.535 11.416 81.865 11.71 82.093 12.058C82.321 12.394 82.435 12.82 82.435 13.336ZM90.9943 10.546C90.8383 10.054 90.7003 9.574 90.5803 9.106C90.4723 8.626 90.3883 8.254 90.3283 7.99H90.2563C90.2083 8.254 90.1303 8.626 90.0223 9.106C89.9143 9.574 89.7763 10.06 89.6083 10.564L87.8803 15.982H86.0803L83.4343 6.334H85.0723L86.4043 11.482C86.5363 11.998 86.6623 12.52 86.7823 13.048C86.9023 13.576 86.9863 14.014 87.0343 14.362H87.1063C87.1543 14.158 87.2083 13.906 87.2683 13.606C87.3403 13.306 87.4183 12.994 87.5023 12.67C87.5863 12.334 87.6703 12.034 87.7543 11.77L89.4643 6.334H91.1923L92.8483 11.77C92.9803 12.178 93.1063 12.622 93.2263 13.102C93.3583 13.582 93.4483 13.996 93.4963 14.344H93.5683C93.6043 14.044 93.6823 13.63 93.8023 13.102C93.9343 12.574 94.0723 12.034 94.2163 11.482L95.5663 6.334H97.1863L94.5043 15.982H92.6503L90.9943 10.546ZM102.643 6.172C103.471 6.172 104.179 6.352 104.767 6.712C105.367 7.072 105.823 7.582 106.135 8.242C106.459 8.89 106.621 9.652 106.621 10.528V11.482H100.015C100.039 12.574 100.315 13.408 100.843 13.984C101.383 14.548 102.133 14.83 103.093 14.83C103.705 14.83 104.245 14.776 104.713 14.668C105.193 14.548 105.685 14.38 106.189 14.164V15.55C105.697 15.766 105.211 15.922 104.731 16.018C104.251 16.126 103.681 16.18 103.021 16.18C102.109 16.18 101.299 15.994 100.591 15.622C99.8947 15.25 99.3487 14.698 98.9527 13.966C98.5687 13.222 98.3767 12.316 98.3767 11.248C98.3767 10.192 98.5507 9.286 98.8987 8.53C99.2587 7.774 99.7567 7.192 100.393 6.784C101.041 6.376 101.791 6.172 102.643 6.172ZM102.625 7.468C101.869 7.468 101.269 7.714 100.825 8.206C100.393 8.686 100.135 9.358 100.051 10.222H104.965C104.953 9.406 104.761 8.746 104.389 8.242C104.017 7.726 103.429 7.468 102.625 7.468ZM113.577 6.172C113.757 6.172 113.949 6.184 114.153 6.208C114.369 6.22 114.555 6.244 114.711 6.28L114.513 7.738C114.357 7.702 114.183 7.672 113.991 7.648C113.811 7.624 113.637 7.612 113.469 7.612C112.977 7.612 112.515 7.75 112.083 8.026C111.651 8.29 111.303 8.668 111.039 9.16C110.787 9.64 110.661 10.204 110.661 10.852V16H109.077V6.352H110.373L110.553 8.116H110.625C110.937 7.588 111.339 7.132 111.831 6.748C112.323 6.364 112.905 6.172 113.577 6.172ZM117.322 2.734C117.562 2.734 117.772 2.818 117.952 2.986C118.144 3.142 118.24 3.394 118.24 3.742C118.24 4.078 118.144 4.33 117.952 4.498C117.772 4.666 117.562 4.75 117.322 4.75C117.058 4.75 116.836 4.666 116.656 4.498C116.476 4.33 116.386 4.078 116.386 3.742C116.386 3.394 116.476 3.142 116.656 2.986C116.836 2.818 117.058 2.734 117.322 2.734ZM118.096 6.352V16H116.512V6.352H118.096ZM125.797 6.172C126.949 6.172 127.819 6.454 128.407 7.018C128.995 7.57 129.289 8.47 129.289 9.718V16H127.723V9.826C127.723 8.278 127.003 7.504 125.563 7.504C124.495 7.504 123.757 7.804 123.349 8.404C122.941 9.004 122.737 9.868 122.737 10.996V16H121.153V6.352H122.431L122.665 7.666H122.755C123.067 7.162 123.499 6.79 124.051 6.55C124.603 6.298 125.185 6.172 125.797 6.172ZM135.7 6.172C136.336 6.172 136.906 6.292 137.41 6.532C137.926 6.772 138.364 7.138 138.724 7.63H138.814L139.03 6.352H140.29V16.162C140.29 17.542 139.936 18.58 139.228 19.276C138.532 19.972 137.446 20.32 135.97 20.32C134.554 20.32 133.396 20.116 132.496 19.708V18.25C133.444 18.754 134.632 19.006 136.06 19.006C136.888 19.006 137.536 18.76 138.004 18.268C138.484 17.788 138.724 17.128 138.724 16.288V15.91C138.724 15.766 138.73 15.562 138.742 15.298C138.754 15.022 138.766 14.83 138.778 14.722H138.706C138.058 15.694 137.062 16.18 135.718 16.18C134.47 16.18 133.492 15.742 132.784 14.866C132.088 13.99 131.74 12.766 131.74 11.194C131.74 9.658 132.088 8.44 132.784 7.54C133.492 6.628 134.464 6.172 135.7 6.172ZM135.916 7.504C135.112 7.504 134.488 7.828 134.044 8.476C133.6 9.112 133.378 10.024 133.378 11.212C133.378 12.4 133.594 13.312 134.026 13.948C134.47 14.572 135.112 14.884 135.952 14.884C136.924 14.884 137.632 14.626 138.076 14.11C138.52 13.582 138.742 12.736 138.742 11.572V11.194C138.742 9.874 138.514 8.932 138.058 8.368C137.602 7.792 136.888 7.504 135.916 7.504ZM156.415 12.562C156.415 13.702 156.001 14.59 155.173 15.226C154.345 15.862 153.229 16.18 151.825 16.18C151.105 16.18 150.439 16.126 149.827 16.018C149.215 15.91 148.705 15.76 148.297 15.568V14.02C148.729 14.212 149.263 14.386 149.899 14.542C150.547 14.698 151.213 14.776 151.897 14.776C152.857 14.776 153.577 14.59 154.057 14.218C154.549 13.846 154.795 13.342 154.795 12.706C154.795 12.286 154.705 11.932 154.525 11.644C154.345 11.356 154.033 11.092 153.589 10.852C153.157 10.6 152.551 10.336 151.771 10.06C150.679 9.664 149.851 9.178 149.287 8.602C148.735 8.026 148.459 7.24 148.459 6.244C148.459 5.56 148.633 4.978 148.981 4.498C149.329 4.006 149.809 3.628 150.421 3.364C151.045 3.1 151.759 2.968 152.563 2.968C153.271 2.968 153.919 3.034 154.507 3.166C155.095 3.298 155.629 3.472 156.109 3.688L155.605 5.074C155.161 4.882 154.675 4.72 154.147 4.588C153.631 4.456 153.091 4.39 152.527 4.39C151.723 4.39 151.117 4.564 150.709 4.912C150.301 5.248 150.097 5.698 150.097 6.262C150.097 6.694 150.187 7.054 150.367 7.342C150.547 7.63 150.841 7.888 151.249 8.116C151.657 8.344 152.209 8.59 152.905 8.854C153.661 9.13 154.297 9.43 154.813 9.754C155.341 10.066 155.737 10.444 156.001 10.888C156.277 11.332 156.415 11.89 156.415 12.562ZM166.852 6.352V16H165.556L165.322 14.722H165.25C164.938 15.226 164.506 15.598 163.954 15.838C163.402 16.066 162.814 16.18 162.19 16.18C161.026 16.18 160.15 15.904 159.562 15.352C158.974 14.788 158.68 13.894 158.68 12.67V6.352H160.282V12.562C160.282 14.098 160.996 14.866 162.424 14.866C163.492 14.866 164.23 14.566 164.638 13.966C165.058 13.366 165.268 12.502 165.268 11.374V6.352H166.852ZM174.415 6.172C174.595 6.172 174.787 6.184 174.991 6.208C175.207 6.22 175.393 6.244 175.549 6.28L175.351 7.738C175.195 7.702 175.021 7.672 174.829 7.648C174.649 7.624 174.475 7.612 174.307 7.612C173.815 7.612 173.353 7.75 172.921 8.026C172.489 8.29 172.141 8.668 171.877 9.16C171.625 9.64 171.499 10.204 171.499 10.852V16H169.915V6.352H171.211L171.391 8.116H171.463C171.775 7.588 172.177 7.132 172.669 6.748C173.161 6.364 173.743 6.172 174.415 6.172ZM179.474 16L175.82 6.352H177.512L179.564 12.04C179.66 12.304 179.762 12.598 179.87 12.922C179.978 13.246 180.074 13.558 180.158 13.858C180.242 14.146 180.302 14.392 180.338 14.596H180.41C180.458 14.392 180.524 14.14 180.608 13.84C180.704 13.54 180.806 13.228 180.914 12.904C181.034 12.58 181.136 12.292 181.22 12.04L183.272 6.352H184.964L181.292 16H179.474ZM190.217 6.172C191.045 6.172 191.753 6.352 192.341 6.712C192.941 7.072 193.397 7.582 193.709 8.242C194.033 8.89 194.195 9.652 194.195 10.528V11.482H187.589C187.613 12.574 187.889 13.408 188.417 13.984C188.957 14.548 189.707 14.83 190.667 14.83C191.279 14.83 191.819 14.776 192.287 14.668C192.767 14.548 193.259 14.38 193.763 14.164V15.55C193.271 15.766 192.785 15.922 192.305 16.018C191.825 16.126 191.255 16.18 190.595 16.18C189.683 16.18 188.873 15.994 188.165 15.622C187.469 15.25 186.923 14.698 186.527 13.966C186.143 13.222 185.951 12.316 185.951 11.248C185.951 10.192 186.125 9.286 186.473 8.53C186.833 7.774 187.331 7.192 187.967 6.784C188.615 6.376 189.365 6.172 190.217 6.172ZM190.199 7.468C189.443 7.468 188.843 7.714 188.399 8.206C187.967 8.686 187.709 9.358 187.625 10.222H192.539C192.527 9.406 192.335 8.746 191.963 8.242C191.591 7.726 191.003 7.468 190.199 7.468ZM194.788 6.352H196.48L198.568 11.842C198.748 12.322 198.91 12.784 199.054 13.228C199.198 13.66 199.306 14.074 199.378 14.47H199.45C199.522 14.17 199.636 13.78 199.792 13.3C199.948 12.808 200.11 12.316 200.278 11.824L202.24 6.352H203.95L199.792 17.332C199.456 18.244 199.018 18.97 198.478 19.51C197.95 20.05 197.218 20.32 196.282 20.32C195.994 20.32 195.742 20.302 195.526 20.266C195.31 20.242 195.124 20.212 194.968 20.176V18.916C195.1 18.94 195.256 18.964 195.436 18.988C195.628 19.012 195.826 19.024 196.03 19.024C196.582 19.024 197.026 18.868 197.362 18.556C197.71 18.244 197.98 17.83 198.172 17.314L198.676 16.036L194.788 6.352ZM211.757 13.336C211.757 14.272 211.409 14.98 210.713 15.46C210.017 15.94 209.081 16.18 207.905 16.18C207.233 16.18 206.651 16.126 206.159 16.018C205.679 15.91 205.253 15.76 204.881 15.568V14.128C205.265 14.32 205.727 14.5 206.267 14.668C206.819 14.824 207.377 14.902 207.941 14.902C208.745 14.902 209.327 14.776 209.687 14.524C210.047 14.26 210.227 13.912 210.227 13.48C210.227 13.24 210.161 13.024 210.029 12.832C209.897 12.64 209.657 12.448 209.309 12.256C208.973 12.064 208.487 11.848 207.851 11.608C207.227 11.368 206.693 11.128 206.249 10.888C205.805 10.648 205.463 10.36 205.223 10.024C204.983 9.688 204.863 9.256 204.863 8.728C204.863 7.912 205.193 7.282 205.853 6.838C206.525 6.394 207.401 6.172 208.481 6.172C209.069 6.172 209.615 6.232 210.119 6.352C210.635 6.46 211.115 6.616 211.559 6.82L211.019 8.08C210.611 7.912 210.185 7.768 209.741 7.648C209.297 7.528 208.841 7.468 208.373 7.468C207.725 7.468 207.227 7.576 206.879 7.792C206.543 7.996 206.375 8.278 206.375 8.638C206.375 8.902 206.453 9.13 206.609 9.322C206.765 9.502 207.023 9.682 207.383 9.862C207.755 10.03 208.247 10.234 208.859 10.474C209.471 10.702 209.993 10.936 210.425 11.176C210.857 11.416 211.187 11.71 211.415 12.058C211.643 12.394 211.757 12.82 211.757 13.336Z" fill="#4BB59B"/>
<path d="M56.984 48.14C55.7053 48.14 54.7533 47.8413 54.128 47.244C53.512 46.6373 53.204 45.718 53.204 44.486V38.2H54.212V44.626C54.212 45.5313 54.436 46.1987 54.884 46.628C55.332 47.0573 56.032 47.272 56.984 47.272C57.9453 47.272 58.6453 47.062 59.084 46.642C59.5227 46.2127 59.742 45.5407 59.742 44.626V38.2H60.75V44.486C60.75 45.7367 60.4467 46.6607 59.84 47.258C59.2333 47.846 58.2813 48.14 56.984 48.14ZM65.3421 48.14C64.9221 48.14 64.4881 48.07 64.0401 47.93C63.5921 47.79 63.2188 47.6033 62.9201 47.37C62.6214 47.1367 62.4721 46.8893 62.4721 46.628C62.4721 46.5067 62.5094 46.3993 62.5841 46.306C62.6681 46.2033 62.7708 46.1333 62.8921 46.096C63.2281 46.5347 63.5921 46.8567 63.9841 47.062C64.3761 47.258 64.8474 47.356 65.3981 47.356C65.9861 47.356 66.4294 47.2207 66.7281 46.95C67.0361 46.6793 67.1901 46.32 67.1901 45.872C67.1901 45.5733 67.0968 45.3307 66.9101 45.144C66.7328 44.9573 66.5088 44.8173 66.2381 44.724C65.9768 44.6307 65.6128 44.5233 65.1461 44.402C64.6048 44.262 64.1661 44.1267 63.8301 43.996C63.5034 43.8653 63.2234 43.6693 62.9901 43.408C62.7661 43.1373 62.6541 42.778 62.6541 42.33C62.6541 41.854 62.7801 41.4527 63.0321 41.126C63.2841 40.7993 63.6061 40.5567 63.9981 40.398C64.3901 40.2393 64.7914 40.16 65.2021 40.16C65.7901 40.16 66.3221 40.2767 66.7981 40.51C67.2834 40.7433 67.6614 41.084 67.9321 41.532C67.7081 41.7653 67.5168 41.882 67.3581 41.882C67.2368 41.882 67.1201 41.8167 67.0081 41.686C66.7841 41.4247 66.5228 41.2333 66.2241 41.112C65.9348 40.9813 65.5801 40.916 65.1601 40.916C64.6841 40.916 64.3061 41.028 64.0261 41.252C63.7461 41.476 63.6061 41.8213 63.6061 42.288C63.6061 42.5587 63.6901 42.778 63.8581 42.946C64.0261 43.114 64.2361 43.2447 64.4881 43.338C64.7401 43.422 65.0854 43.52 65.5241 43.632C66.0841 43.7627 66.5368 43.898 66.8821 44.038C67.2368 44.178 67.5354 44.3973 67.7781 44.696C68.0208 44.9853 68.1421 45.3773 68.1421 45.872C68.1421 46.5627 67.8854 47.1133 67.3721 47.524C66.8681 47.9347 66.1914 48.14 65.3421 48.14ZM75.987 43.604C75.987 43.8187 75.9777 44.0333 75.959 44.248H70.387C70.4057 45.2187 70.6204 45.9747 71.031 46.516C71.451 47.0573 72.0297 47.328 72.767 47.328C73.271 47.328 73.6957 47.23 74.041 47.034C74.3957 46.838 74.6897 46.5253 74.923 46.096C74.9884 45.9747 75.0864 45.914 75.217 45.914C75.3664 45.914 75.5717 46.0027 75.833 46.18C75.6277 46.7867 75.2497 47.2673 74.699 47.622C74.1484 47.9673 73.5044 48.14 72.767 48.14C72.0857 48.14 71.4884 47.9813 70.975 47.664C70.471 47.3373 70.0837 46.8753 69.813 46.278C69.5424 45.6713 69.407 44.9573 69.407 44.136C69.407 42.8947 69.715 41.924 70.331 41.224C70.947 40.5147 71.7917 40.16 72.865 40.16C73.845 40.16 74.6104 40.4633 75.161 41.07C75.7117 41.6767 75.987 42.5213 75.987 43.604ZM75.007 43.492C75.007 41.812 74.279 40.972 72.823 40.972C72.1137 40.972 71.5537 41.1867 71.143 41.616C70.7324 42.0453 70.4897 42.6707 70.415 43.492H75.007ZM80.825 40.202C81.1517 40.202 81.399 40.258 81.567 40.37C81.7443 40.4727 81.833 40.6313 81.833 40.846C81.833 40.9953 81.7817 41.1307 81.679 41.252C81.455 41.1307 81.147 41.07 80.755 41.07C80.1297 41.07 79.6257 41.3173 79.243 41.812C78.8697 42.3067 78.683 42.9553 78.683 43.758V48H77.731V40.3H78.683V41.686C78.8977 41.2567 79.201 40.902 79.593 40.622C79.985 40.342 80.3957 40.202 80.825 40.202ZM85.5765 48.14C85.1565 48.14 84.7225 48.07 84.2745 47.93C83.8265 47.79 83.4532 47.6033 83.1545 47.37C82.8558 47.1367 82.7065 46.8893 82.7065 46.628C82.7065 46.5067 82.7438 46.3993 82.8185 46.306C82.9025 46.2033 83.0052 46.1333 83.1265 46.096C83.4625 46.5347 83.8265 46.8567 84.2185 47.062C84.6105 47.258 85.0818 47.356 85.6325 47.356C86.2205 47.356 86.6638 47.2207 86.9625 46.95C87.2705 46.6793 87.4245 46.32 87.4245 45.872C87.4245 45.5733 87.3312 45.3307 87.1445 45.144C86.9672 44.9573 86.7432 44.8173 86.4725 44.724C86.2112 44.6307 85.8472 44.5233 85.3805 44.402C84.8392 44.262 84.4005 44.1267 84.0645 43.996C83.7378 43.8653 83.4578 43.6693 83.2245 43.408C83.0005 43.1373 82.8885 42.778 82.8885 42.33C82.8885 41.854 83.0145 41.4527 83.2665 41.126C83.5185 40.7993 83.8405 40.5567 84.2325 40.398C84.6245 40.2393 85.0258 40.16 85.4365 40.16C86.0245 40.16 86.5565 40.2767 87.0325 40.51C87.5178 40.7433 87.8958 41.084 88.1665 41.532C87.9425 41.7653 87.7512 41.882 87.5925 41.882C87.4712 41.882 87.3545 41.8167 87.2425 41.686C87.0185 41.4247 86.7572 41.2333 86.4585 41.112C86.1692 40.9813 85.8145 40.916 85.3945 40.916C84.9185 40.916 84.5405 41.028 84.2605 41.252C83.9805 41.476 83.8405 41.8213 83.8405 42.288C83.8405 42.5587 83.9245 42.778 84.0925 42.946C84.2605 43.114 84.4705 43.2447 84.7225 43.338C84.9745 43.422 85.3198 43.52 85.7585 43.632C86.3185 43.7627 86.7712 43.898 87.1165 44.038C87.4712 44.178 87.7698 44.3973 88.0125 44.696C88.2552 44.9853 88.3765 45.3773 88.3765 45.872C88.3765 46.5627 88.1198 47.1133 87.6065 47.524C87.1025 47.9347 86.4258 48.14 85.5765 48.14ZM99.2148 46.082C99.2148 46.5113 99.2474 46.852 99.3128 47.104C99.3874 47.3467 99.5134 47.566 99.6908 47.762C99.5974 47.8553 99.4854 47.93 99.3548 47.986C99.2334 48.042 99.1168 48.07 99.0048 48.07C98.8181 48.07 98.6594 47.9627 98.5288 47.748C98.4074 47.5333 98.3281 47.2393 98.2908 46.866C98.0014 47.258 97.6141 47.5707 97.1288 47.804C96.6434 48.028 96.1348 48.14 95.6028 48.14C94.8934 48.14 94.3241 47.958 93.8948 47.594C93.4654 47.2207 93.2508 46.7353 93.2508 46.138C93.2508 45.2607 93.6754 44.5747 94.5248 44.08C95.3834 43.5853 96.6294 43.3007 98.2628 43.226V42.778C98.2628 42.162 98.1041 41.7047 97.7868 41.406C97.4788 41.098 97.0074 40.944 96.3728 40.944C95.9621 40.944 95.5794 41.0327 95.2248 41.21C94.8794 41.378 94.5061 41.6627 94.1048 42.064C94.0488 42.12 93.9788 42.148 93.8948 42.148C93.8014 42.148 93.6988 42.1107 93.5868 42.036C93.4748 41.952 93.3674 41.8353 93.2648 41.686C93.6848 41.1913 94.1608 40.8133 94.6928 40.552C95.2341 40.2907 95.8081 40.16 96.4148 40.16C97.2828 40.16 97.9641 40.3933 98.4588 40.86C98.9628 41.3267 99.2148 41.966 99.2148 42.778V46.082ZM95.6728 47.356C96.1768 47.356 96.6528 47.216 97.1008 46.936C97.5488 46.656 97.9361 46.2593 98.2628 45.746V44.01C95.5748 44.122 94.2308 44.8267 94.2308 46.124C94.2308 46.9453 94.7114 47.356 95.6728 47.356ZM107.637 46.208C107.637 46.7773 107.642 47.1647 107.651 47.37C107.67 47.566 107.707 47.7433 107.763 47.902C107.539 48.014 107.297 48.07 107.035 48.07C106.895 48.07 106.802 47.972 106.755 47.776C106.709 47.5707 106.685 47.1693 106.685 46.572V42.778C106.685 42.1247 106.564 41.6533 106.321 41.364C106.079 41.0653 105.687 40.916 105.145 40.916C104.305 40.916 103.447 41.3313 102.569 42.162V48H101.617V42.918C101.617 41.5367 101.561 40.7153 101.449 40.454C101.748 40.314 101.986 40.244 102.163 40.244C102.434 40.244 102.569 40.5147 102.569 41.056V41.182C102.999 40.8273 103.428 40.5707 103.857 40.412C104.296 40.244 104.758 40.16 105.243 40.16C106.046 40.16 106.643 40.3793 107.035 40.818C107.437 41.2473 107.637 41.9053 107.637 42.792V46.208ZM112.332 48.14C111.912 48.14 111.478 48.07 111.03 47.93C110.582 47.79 110.209 47.6033 109.91 47.37C109.612 47.1367 109.462 46.8893 109.462 46.628C109.462 46.5067 109.5 46.3993 109.574 46.306C109.658 46.2033 109.761 46.1333 109.882 46.096C110.218 46.5347 110.582 46.8567 110.974 47.062C111.366 47.258 111.838 47.356 112.388 47.356C112.976 47.356 113.42 47.2207 113.718 46.95C114.026 46.6793 114.18 46.32 114.18 45.872C114.18 45.5733 114.087 45.3307 113.9 45.144C113.723 44.9573 113.499 44.8173 113.228 44.724C112.967 44.6307 112.603 44.5233 112.136 44.402C111.595 44.262 111.156 44.1267 110.82 43.996C110.494 43.8653 110.214 43.6693 109.98 43.408C109.756 43.1373 109.644 42.778 109.644 42.33C109.644 41.854 109.77 41.4527 110.022 41.126C110.274 40.7993 110.596 40.5567 110.988 40.398C111.38 40.2393 111.782 40.16 112.192 40.16C112.78 40.16 113.312 40.2767 113.788 40.51C114.274 40.7433 114.652 41.084 114.922 41.532C114.698 41.7653 114.507 41.882 114.348 41.882C114.227 41.882 114.11 41.8167 113.998 41.686C113.774 41.4247 113.513 41.2333 113.214 41.112C112.925 40.9813 112.57 40.916 112.15 40.916C111.674 40.916 111.296 41.028 111.016 41.252C110.736 41.476 110.596 41.8213 110.596 42.288C110.596 42.5587 110.68 42.778 110.848 42.946C111.016 43.114 111.226 43.2447 111.478 43.338C111.73 43.422 112.076 43.52 112.514 43.632C113.074 43.7627 113.527 43.898 113.872 44.038C114.227 44.178 114.526 44.3973 114.768 44.696C115.011 44.9853 115.132 45.3773 115.132 45.872C115.132 46.5627 114.876 47.1133 114.362 47.524C113.858 47.9347 113.182 48.14 112.332 48.14ZM125.805 40.3C125.432 43.1373 124.723 45.704 123.677 48H122.809C122.324 46.936 121.937 45.9653 121.647 45.088C121.367 44.2107 121.148 43.296 120.989 42.344C120.821 43.3147 120.593 44.2433 120.303 45.13C120.014 46.0073 119.627 46.964 119.141 48H118.245C117.751 46.9453 117.335 45.8067 116.999 44.584C116.673 43.3613 116.393 41.9333 116.159 40.3H117.139C117.298 41.6627 117.499 42.8573 117.741 43.884C117.993 44.9013 118.32 45.8487 118.721 46.726C119.617 44.8873 120.224 42.7453 120.541 40.3H121.465C121.801 42.8293 122.403 44.9807 123.271 46.754C124.083 44.8127 124.564 42.6613 124.713 40.3H125.805ZM133.614 43.604C133.614 43.8187 133.605 44.0333 133.586 44.248H128.014C128.033 45.2187 128.247 45.9747 128.658 46.516C129.078 47.0573 129.657 47.328 130.394 47.328C130.898 47.328 131.323 47.23 131.668 47.034C132.023 46.838 132.317 46.5253 132.55 46.096C132.615 45.9747 132.713 45.914 132.844 45.914C132.993 45.914 133.199 46.0027 133.46 46.18C133.255 46.7867 132.877 47.2673 132.326 47.622C131.775 47.9673 131.131 48.14 130.394 48.14C129.713 48.14 129.115 47.9813 128.602 47.664C128.098 47.3373 127.711 46.8753 127.44 46.278C127.169 45.6713 127.034 44.9573 127.034 44.136C127.034 42.8947 127.342 41.924 127.958 41.224C128.574 40.5147 129.419 40.16 130.492 40.16C131.472 40.16 132.237 40.4633 132.788 41.07C133.339 41.6767 133.614 42.5213 133.614 43.604ZM132.634 43.492C132.634 41.812 131.906 40.972 130.45 40.972C129.741 40.972 129.181 41.1867 128.77 41.616C128.359 42.0453 128.117 42.6707 128.042 43.492H132.634ZM138.452 40.202C138.779 40.202 139.026 40.258 139.194 40.37C139.371 40.4727 139.46 40.6313 139.46 40.846C139.46 40.9953 139.409 41.1307 139.306 41.252C139.082 41.1307 138.774 41.07 138.382 41.07C137.757 41.07 137.253 41.3173 136.87 41.812C136.497 42.3067 136.31 42.9553 136.31 43.758V48H135.358V40.3H136.31V41.686C136.525 41.2567 136.828 40.902 137.22 40.622C137.612 40.342 138.023 40.202 138.452 40.202ZM148.171 47.062C148.236 47.1087 148.287 47.1787 148.325 47.272C148.371 47.356 148.395 47.4447 148.395 47.538C148.395 47.7153 148.32 47.8413 148.171 47.916C147.872 48.0653 147.485 48.14 147.009 48.14C146.402 48.14 145.917 47.9767 145.553 47.65C145.189 47.314 145.007 46.866 145.007 46.306V41.056H143.551V40.3H145.007V38.2H145.959V40.3H147.975V41.056H145.959V46.124C145.959 46.908 146.295 47.3 146.967 47.3C147.396 47.3 147.797 47.2207 148.171 47.062ZM153.561 40.16C154.364 40.16 154.998 40.3933 155.465 40.86C155.932 41.3173 156.165 41.9427 156.165 42.736V48H155.213V42.834C155.213 42.2273 155.064 41.7607 154.765 41.434C154.466 41.1073 154.037 40.944 153.477 40.944C153.048 40.944 152.595 41.042 152.119 41.238C151.643 41.4247 151.218 41.6767 150.845 41.994V48H149.893V36.926H150.845V41.084C151.256 40.7853 151.694 40.5567 152.161 40.398C152.628 40.2393 153.094 40.16 153.561 40.16ZM164.718 43.604C164.718 43.8187 164.708 44.0333 164.69 44.248H159.118C159.136 45.2187 159.351 45.9747 159.762 46.516C160.182 47.0573 160.76 47.328 161.498 47.328C162.002 47.328 162.426 47.23 162.772 47.034C163.126 46.838 163.42 46.5253 163.654 46.096C163.719 45.9747 163.817 45.914 163.948 45.914C164.097 45.914 164.302 46.0027 164.564 46.18C164.358 46.7867 163.98 47.2673 163.43 47.622C162.879 47.9673 162.235 48.14 161.498 48.14C160.816 48.14 160.219 47.9813 159.706 47.664C159.202 47.3373 158.814 46.8753 158.544 46.278C158.273 45.6713 158.138 44.9573 158.138 44.136C158.138 42.8947 158.446 41.924 159.062 41.224C159.678 40.5147 160.522 40.16 161.596 40.16C162.576 40.16 163.341 40.4633 163.892 41.07C164.442 41.6767 164.718 42.5213 164.718 43.604ZM163.738 43.492C163.738 41.812 163.01 40.972 161.553 40.972C160.844 40.972 160.284 41.1867 159.874 41.616C159.463 42.0453 159.22 42.6707 159.146 43.492H163.738ZM172.311 48.14C171.891 48.14 171.457 48.07 171.009 47.93C170.561 47.79 170.188 47.6033 169.889 47.37C169.59 47.1367 169.441 46.8893 169.441 46.628C169.441 46.5067 169.478 46.3993 169.553 46.306C169.637 46.2033 169.74 46.1333 169.861 46.096C170.197 46.5347 170.561 46.8567 170.953 47.062C171.345 47.258 171.816 47.356 172.367 47.356C172.955 47.356 173.398 47.2207 173.697 46.95C174.005 46.6793 174.159 46.32 174.159 45.872C174.159 45.5733 174.066 45.3307 173.879 45.144C173.702 44.9573 173.478 44.8173 173.207 44.724C172.946 44.6307 172.582 44.5233 172.115 44.402C171.574 44.262 171.135 44.1267 170.799 43.996C170.472 43.8653 170.192 43.6693 169.959 43.408C169.735 43.1373 169.623 42.778 169.623 42.33C169.623 41.854 169.749 41.4527 170.001 41.126C170.253 40.7993 170.575 40.5567 170.967 40.398C171.359 40.2393 171.76 40.16 172.171 40.16C172.759 40.16 173.291 40.2767 173.767 40.51C174.252 40.7433 174.63 41.084 174.901 41.532C174.677 41.7653 174.486 41.882 174.327 41.882C174.206 41.882 174.089 41.8167 173.977 41.686C173.753 41.4247 173.492 41.2333 173.193 41.112C172.904 40.9813 172.549 40.916 172.129 40.916C171.653 40.916 171.275 41.028 170.995 41.252C170.715 41.476 170.575 41.8213 170.575 42.288C170.575 42.5587 170.659 42.778 170.827 42.946C170.995 43.114 171.205 43.2447 171.457 43.338C171.709 43.422 172.054 43.52 172.493 43.632C173.053 43.7627 173.506 43.898 173.851 44.038C174.206 44.178 174.504 44.3973 174.747 44.696C174.99 44.9853 175.111 45.3773 175.111 45.872C175.111 46.5627 174.854 47.1133 174.341 47.524C173.837 47.9347 173.16 48.14 172.311 48.14ZM182.914 46.418C182.914 46.9593 182.984 47.454 183.124 47.902C182.928 48.014 182.727 48.07 182.522 48.07C182.326 48.07 182.181 47.9907 182.088 47.832C182.004 47.664 181.957 47.3653 181.948 46.936C181.686 47.3 181.318 47.594 180.842 47.818C180.366 48.0327 179.852 48.14 179.302 48.14C177.724 48.14 176.936 47.2767 176.936 45.55V40.3H177.888V45.452C177.888 46.1333 178.014 46.628 178.266 46.936C178.518 47.2347 178.919 47.384 179.47 47.384C179.964 47.384 180.426 47.258 180.856 47.006C181.294 46.754 181.658 46.3993 181.948 45.942V40.3H182.914V46.418ZM188.505 40.202C188.831 40.202 189.079 40.258 189.247 40.37C189.424 40.4727 189.513 40.6313 189.513 40.846C189.513 40.9953 189.461 41.1307 189.359 41.252C189.135 41.1307 188.827 41.07 188.435 41.07C187.809 41.07 187.305 41.3173 186.923 41.812C186.549 42.3067 186.363 42.9553 186.363 43.758V48H185.411V40.3H186.363V41.686C186.577 41.2567 186.881 40.902 187.273 40.622C187.665 40.342 188.075 40.202 188.505 40.202ZM196.392 40.3C196.28 41.7373 196.005 43.0813 195.566 44.332C195.128 45.5733 194.498 46.796 193.676 48H192.766C191.945 46.796 191.315 45.5733 190.876 44.332C190.438 43.0813 190.162 41.7373 190.05 40.3H191.002C191.133 41.6533 191.371 42.8573 191.716 43.912C192.071 44.9573 192.575 45.9747 193.228 46.964C193.882 45.9747 194.381 44.9573 194.726 43.912C195.072 42.8573 195.31 41.6533 195.44 40.3H196.392ZM203.901 43.604C203.901 43.8187 203.892 44.0333 203.873 44.248H198.301C198.32 45.2187 198.534 45.9747 198.945 46.516C199.365 47.0573 199.944 47.328 200.681 47.328C201.185 47.328 201.61 47.23 201.955 47.034C202.31 46.838 202.604 46.5253 202.837 46.096C202.902 45.9747 203 45.914 203.131 45.914C203.28 45.914 203.486 46.0027 203.747 46.18C203.542 46.7867 203.164 47.2673 202.613 47.622C202.062 47.9673 201.418 48.14 200.681 48.14C200 48.14 199.402 47.9813 198.889 47.664C198.385 47.3373 197.998 46.8753 197.727 46.278C197.456 45.6713 197.321 44.9573 197.321 44.136C197.321 42.8947 197.629 41.924 198.245 41.224C198.861 40.5147 199.706 40.16 200.779 40.16C201.759 40.16 202.524 40.4633 203.075 41.07C203.626 41.6767 203.901 42.5213 203.901 43.604ZM202.921 43.492C202.921 41.812 202.193 40.972 200.737 40.972C200.028 40.972 199.468 41.1867 199.057 41.616C198.646 42.0453 198.404 42.6707 198.329 43.492H202.921ZM211.091 40.3L208.109 48.588C207.848 49.3253 207.516 49.862 207.115 50.198C206.723 50.5433 206.224 50.716 205.617 50.716C205.262 50.716 204.982 50.66 204.777 50.548C204.572 50.4453 204.469 50.3053 204.469 50.128C204.469 49.9413 204.548 49.792 204.707 49.68C204.8 49.7453 204.94 49.8013 205.127 49.848C205.323 49.8947 205.514 49.918 205.701 49.918C206.084 49.918 206.41 49.75 206.681 49.414C206.961 49.078 207.199 48.5647 207.395 47.874L204.651 40.3H205.659L207.885 46.502L210.083 40.3H211.091ZM214.68 48.14C214.26 48.14 213.826 48.07 213.378 47.93C212.93 47.79 212.557 47.6033 212.258 47.37C211.959 47.1367 211.81 46.8893 211.81 46.628C211.81 46.5067 211.847 46.3993 211.922 46.306C212.006 46.2033 212.109 46.1333 212.23 46.096C212.566 46.5347 212.93 46.8567 213.322 47.062C213.714 47.258 214.185 47.356 214.736 47.356C215.324 47.356 215.767 47.2207 216.066 46.95C216.374 46.6793 216.528 46.32 216.528 45.872C216.528 45.5733 216.435 45.3307 216.248 45.144C216.071 44.9573 215.847 44.8173 215.576 44.724C215.315 44.6307 214.951 44.5233 214.484 44.402C213.943 44.262 213.504 44.1267 213.168 43.996C212.841 43.8653 212.561 43.6693 212.328 43.408C212.104 43.1373 211.992 42.778 211.992 42.33C211.992 41.854 212.118 41.4527 212.37 41.126C212.622 40.7993 212.944 40.5567 213.336 40.398C213.728 40.2393 214.129 40.16 214.54 40.16C215.128 40.16 215.66 40.2767 216.136 40.51C216.621 40.7433 216.999 41.084 217.27 41.532C217.046 41.7653 216.855 41.882 216.696 41.882C216.575 41.882 216.458 41.8167 216.346 41.686C216.122 41.4247 215.861 41.2333 215.562 41.112C215.273 40.9813 214.918 40.916 214.498 40.916C214.022 40.916 213.644 41.028 213.364 41.252C213.084 41.476 212.944 41.8213 212.944 42.288C212.944 42.5587 213.028 42.778 213.196 42.946C213.364 43.114 213.574 43.2447 213.826 43.338C214.078 43.422 214.423 43.52 214.862 43.632C215.422 43.7627 215.875 43.898 216.22 44.038C216.575 44.178 216.873 44.3973 217.116 44.696C217.359 44.9853 217.48 45.3773 217.48 45.872C217.48 46.5627 217.223 47.1133 216.71 47.524C216.206 47.9347 215.529 48.14 214.68 48.14ZM223.194 40.3H224.146V48H223.194V40.3ZM223.614 38.886C223.194 38.886 222.984 38.676 222.984 38.256V38.13C222.984 37.71 223.194 37.5 223.614 37.5H223.726C224.146 37.5 224.356 37.71 224.356 38.13V38.256C224.356 38.676 224.146 38.886 223.726 38.886H223.614ZM232.968 46.208C232.968 46.7773 232.972 47.1647 232.982 47.37C233 47.566 233.038 47.7433 233.094 47.902C232.87 48.014 232.627 48.07 232.366 48.07C232.226 48.07 232.132 47.972 232.086 47.776C232.039 47.5707 232.016 47.1693 232.016 46.572V42.778C232.016 42.1247 231.894 41.6533 231.652 41.364C231.409 41.0653 231.017 40.916 230.476 40.916C229.636 40.916 228.777 41.3313 227.9 42.162V48H226.948V42.918C226.948 41.5367 226.892 40.7153 226.78 40.454C227.078 40.314 227.316 40.244 227.494 40.244C227.764 40.244 227.9 40.5147 227.9 41.056V41.182C228.329 40.8273 228.758 40.5707 229.188 40.412C229.626 40.244 230.088 40.16 230.574 40.16C231.376 40.16 231.974 40.3793 232.366 40.818C232.767 41.2473 232.968 41.9053 232.968 42.792V46.208ZM242.63 47.062C242.695 47.1087 242.746 47.1787 242.784 47.272C242.83 47.356 242.854 47.4447 242.854 47.538C242.854 47.7153 242.779 47.8413 242.63 47.916C242.331 48.0653 241.944 48.14 241.468 48.14C240.861 48.14 240.376 47.9767 240.012 47.65C239.648 47.314 239.466 46.866 239.466 46.306V41.056H238.01V40.3H239.466V38.2H240.418V40.3H242.434V41.056H240.418V46.124C240.418 46.908 240.754 47.3 241.426 47.3C241.855 47.3 242.256 47.2207 242.63 47.062ZM248.02 40.16C248.823 40.16 249.457 40.3933 249.924 40.86C250.391 41.3173 250.624 41.9427 250.624 42.736V48H249.672V42.834C249.672 42.2273 249.523 41.7607 249.224 41.434C248.925 41.1073 248.496 40.944 247.936 40.944C247.507 40.944 247.054 41.042 246.578 41.238C246.102 41.4247 245.677 41.6767 245.304 41.994V48H244.352V36.926H245.304V41.084C245.715 40.7853 246.153 40.5567 246.62 40.398C247.087 40.2393 247.553 40.16 248.02 40.16ZM259.176 43.604C259.176 43.8187 259.167 44.0333 259.148 44.248H253.576C253.595 45.2187 253.81 45.9747 254.22 46.516C254.64 47.0573 255.219 47.328 255.956 47.328C256.46 47.328 256.885 47.23 257.23 47.034C257.585 46.838 257.879 46.5253 258.112 46.096C258.178 45.9747 258.276 45.914 258.406 45.914C258.556 45.914 258.761 46.0027 259.022 46.18C258.817 46.7867 258.439 47.2673 257.888 47.622C257.338 47.9673 256.694 48.14 255.956 48.14C255.275 48.14 254.678 47.9813 254.164 47.664C253.66 47.3373 253.273 46.8753 253.002 46.278C252.732 45.6713 252.596 44.9573 252.596 44.136C252.596 42.8947 252.904 41.924 253.52 41.224C254.136 40.5147 254.981 40.16 256.054 40.16C257.034 40.16 257.8 40.4633 258.35 41.07C258.901 41.6767 259.176 42.5213 259.176 43.604ZM258.196 43.492C258.196 41.812 257.468 40.972 256.012 40.972C255.303 40.972 254.743 41.1867 254.332 41.616C253.922 42.0453 253.679 42.6707 253.604 43.492H258.196ZM56.284 62.202C56.6107 62.202 56.858 62.258 57.026 62.37C57.2033 62.4727 57.292 62.6313 57.292 62.846C57.292 62.9953 57.2407 63.1307 57.138 63.252C56.914 63.1307 56.606 63.07 56.214 63.07C55.5887 63.07 55.0847 63.3173 54.702 63.812C54.3287 64.3067 54.142 64.9553 54.142 65.758V70H53.19V62.3H54.142V63.686C54.3567 63.2567 54.66 62.902 55.052 62.622C55.444 62.342 55.8547 62.202 56.284 62.202ZM64.8855 65.604C64.8855 65.8187 64.8761 66.0333 64.8575 66.248H59.2855C59.3041 67.2187 59.5188 67.9747 59.9295 68.516C60.3495 69.0573 60.9281 69.328 61.6655 69.328C62.1695 69.328 62.5941 69.23 62.9395 69.034C63.2941 68.838 63.5881 68.5253 63.8215 68.096C63.8868 67.9747 63.9848 67.914 64.1155 67.914C64.2648 67.914 64.4701 68.0027 64.7315 68.18C64.5261 68.7867 64.1481 69.2673 63.5975 69.622C63.0468 69.9673 62.4028 70.14 61.6655 70.14C60.9841 70.14 60.3868 69.9813 59.8735 69.664C59.3695 69.3373 58.9821 68.8753 58.7115 68.278C58.4408 67.6713 58.3055 66.9573 58.3055 66.136C58.3055 64.8947 58.6135 63.924 59.2295 63.224C59.8455 62.5147 60.6901 62.16 61.7635 62.16C62.7435 62.16 63.5088 62.4633 64.0595 63.07C64.6101 63.6767 64.8855 64.5213 64.8855 65.604ZM63.9055 65.492C63.9055 63.812 63.1775 62.972 61.7215 62.972C61.0121 62.972 60.4521 63.1867 60.0415 63.616C59.6308 64.0453 59.3881 64.6707 59.3135 65.492H63.9055ZM72.1595 62.244C72.2901 62.244 72.3975 62.258 72.4815 62.286C72.5748 62.314 72.6821 62.37 72.8035 62.454C72.7381 62.6313 72.6775 62.9767 72.6215 63.49C72.5655 63.994 72.5375 64.4747 72.5375 64.932V73.08H71.5855V69.552C71.1748 69.7853 70.8108 69.9393 70.4935 70.014C70.1855 70.098 69.7841 70.14 69.2895 70.14C68.2628 70.14 67.4555 69.7853 66.8675 69.076C66.2888 68.3573 65.9995 67.368 65.9995 66.108C65.9995 64.8853 66.2935 63.924 66.8815 63.224C67.4695 62.5147 68.2768 62.16 69.3035 62.16C69.8075 62.16 70.2368 62.2253 70.5915 62.356C70.9555 62.4773 71.3101 62.692 71.6555 63C71.7395 62.496 71.9075 62.244 72.1595 62.244ZM69.5275 69.412C69.9475 69.412 70.3208 69.3607 70.6475 69.258C70.9741 69.146 71.2868 68.9733 71.5855 68.74V63.98C71.0068 63.2613 70.2695 62.902 69.3735 62.902C68.6081 62.902 68.0201 63.1773 67.6095 63.728C67.1988 64.2787 66.9935 65.072 66.9935 66.108C66.9935 67.2187 67.2035 68.0493 67.6235 68.6C68.0435 69.1413 68.6781 69.412 69.5275 69.412ZM81.195 68.418C81.195 68.9593 81.265 69.454 81.405 69.902C81.209 70.014 81.0084 70.07 80.803 70.07C80.607 70.07 80.4624 69.9907 80.369 69.832C80.285 69.664 80.2384 69.3653 80.229 68.936C79.9677 69.3 79.599 69.594 79.123 69.818C78.647 70.0327 78.1337 70.14 77.583 70.14C76.0057 70.14 75.217 69.2767 75.217 67.55V62.3H76.169V67.452C76.169 68.1333 76.295 68.628 76.547 68.936C76.799 69.2347 77.2004 69.384 77.751 69.384C78.2457 69.384 78.7077 69.258 79.137 69.006C79.5757 68.754 79.9397 68.3993 80.229 67.942V62.3H81.195V68.418ZM84.042 62.3H84.994V70H84.042V62.3ZM84.462 60.886C84.042 60.886 83.832 60.676 83.832 60.256V60.13C83.832 59.71 84.042 59.5 84.462 59.5H84.574C84.994 59.5 85.204 59.71 85.204 60.13V60.256C85.204 60.676 84.994 60.886 84.574 60.886H84.462ZM90.8192 62.202C91.1458 62.202 91.3932 62.258 91.5612 62.37C91.7385 62.4727 91.8272 62.6313 91.8272 62.846C91.8272 62.9953 91.7758 63.1307 91.6732 63.252C91.4492 63.1307 91.1412 63.07 90.7492 63.07C90.1238 63.07 89.6198 63.3173 89.2372 63.812C88.8638 64.3067 88.6772 64.9553 88.6772 65.758V70H87.7252V62.3H88.6772V63.686C88.8918 63.2567 89.1952 62.902 89.5872 62.622C89.9792 62.342 90.3898 62.202 90.8192 62.202ZM99.4206 65.604C99.4206 65.8187 99.4113 66.0333 99.3926 66.248H93.8206C93.8393 67.2187 94.054 67.9747 94.4646 68.516C94.8846 69.0573 95.4633 69.328 96.2006 69.328C96.7046 69.328 97.1293 69.23 97.4746 69.034C97.8293 68.838 98.1233 68.5253 98.3566 68.096C98.422 67.9747 98.52 67.914 98.6506 67.914C98.8 67.914 99.0053 68.0027 99.2666 68.18C99.0613 68.7867 98.6833 69.2673 98.1326 69.622C97.582 69.9673 96.938 70.14 96.2006 70.14C95.5193 70.14 94.922 69.9813 94.4086 69.664C93.9046 69.3373 93.5173 68.8753 93.2466 68.278C92.976 67.6713 92.8406 66.9573 92.8406 66.136C92.8406 64.8947 93.1486 63.924 93.7646 63.224C94.3806 62.5147 95.2253 62.16 96.2986 62.16C97.2786 62.16 98.044 62.4633 98.5946 63.07C99.1453 63.6767 99.4206 64.5213 99.4206 65.604ZM98.4406 65.492C98.4406 63.812 97.7126 62.972 96.2566 62.972C95.5473 62.972 94.9873 63.1867 94.5766 63.616C94.166 64.0453 93.9233 64.6707 93.8486 65.492H98.4406ZM107.073 68.208C107.073 68.5067 107.091 68.81 107.129 69.118C107.166 69.426 107.213 69.6827 107.269 69.888C107.035 70 106.821 70.056 106.625 70.056C106.373 70.056 106.214 69.7387 106.149 69.104C105.841 69.4773 105.505 69.7433 105.141 69.902C104.777 70.0607 104.329 70.14 103.797 70.14C102.779 70.14 101.981 69.79 101.403 69.09C100.824 68.3807 100.535 67.41 100.535 66.178C100.535 64.9087 100.843 63.924 101.459 63.224C102.084 62.5147 102.952 62.16 104.063 62.16C104.408 62.16 104.772 62.2253 105.155 62.356C105.547 62.4773 105.869 62.6313 106.121 62.818V58.926H107.073V68.208ZM103.867 69.356C104.343 69.356 104.763 69.258 105.127 69.062C105.491 68.866 105.822 68.5627 106.121 68.152V63.742C105.897 63.5087 105.589 63.3127 105.197 63.154C104.814 62.9953 104.436 62.916 104.063 62.916C103.241 62.916 102.611 63.196 102.173 63.756C101.734 64.316 101.515 65.1233 101.515 66.178C101.515 67.2047 101.715 67.9933 102.117 68.544C102.518 69.0853 103.101 69.356 103.867 69.356ZM116.739 69.062C116.805 69.1087 116.856 69.1787 116.893 69.272C116.94 69.356 116.963 69.4447 116.963 69.538C116.963 69.7153 116.889 69.8413 116.739 69.916C116.441 70.0653 116.053 70.14 115.577 70.14C114.971 70.14 114.485 69.9767 114.121 69.65C113.757 69.314 113.575 68.866 113.575 68.306V63.056H112.119V62.3H113.575V60.2H114.527V62.3H116.543V63.056H114.527V68.124C114.527 68.908 114.863 69.3 115.535 69.3C115.965 69.3 116.366 69.2207 116.739 69.062ZM118.728 62.3H119.68V70H118.728V62.3ZM119.148 60.886C118.728 60.886 118.518 60.676 118.518 60.256V60.13C118.518 59.71 118.728 59.5 119.148 59.5H119.26C119.68 59.5 119.89 59.71 119.89 60.13V60.256C119.89 60.676 119.68 60.886 119.26 60.886H119.148ZM130.475 62.16C131.137 62.16 131.674 62.3747 132.085 62.804C132.505 63.2333 132.715 63.7887 132.715 64.47V70H131.749V64.512C131.749 63.9707 131.627 63.5693 131.385 63.308C131.142 63.0467 130.773 62.916 130.279 62.916C129.485 62.916 128.748 63.28 128.067 64.008C128.085 64.1573 128.095 64.2693 128.095 64.344V70H127.143V64.372C127.143 63.9333 127.007 63.5833 126.737 63.322C126.475 63.0513 126.125 62.916 125.687 62.916C125.285 62.916 124.903 63.0047 124.539 63.182C124.184 63.3593 123.825 63.644 123.461 64.036V70H122.509V64.918C122.509 63.5367 122.453 62.7153 122.341 62.454C122.639 62.314 122.877 62.244 123.055 62.244C123.325 62.244 123.461 62.5147 123.461 63.056V63.112C123.815 62.776 124.179 62.5333 124.553 62.384C124.935 62.2347 125.369 62.16 125.855 62.16C126.293 62.16 126.685 62.2627 127.031 62.468C127.376 62.664 127.642 62.9347 127.829 63.28C128.23 62.888 128.636 62.6033 129.047 62.426C129.467 62.2487 129.943 62.16 130.475 62.16ZM141.27 65.604C141.27 65.8187 141.261 66.0333 141.242 66.248H135.67C135.689 67.2187 135.904 67.9747 136.314 68.516C136.734 69.0573 137.313 69.328 138.05 69.328C138.554 69.328 138.979 69.23 139.324 69.034C139.679 68.838 139.973 68.5253 140.206 68.096C140.272 67.9747 140.37 67.914 140.5 67.914C140.65 67.914 140.855 68.0027 141.116 68.18C140.911 68.7867 140.533 69.2673 139.982 69.622C139.432 69.9673 138.788 70.14 138.05 70.14C137.369 70.14 136.772 69.9813 136.258 69.664C135.754 69.3373 135.367 68.8753 135.096 68.278C134.826 67.6713 134.69 66.9573 134.69 66.136C134.69 64.8947 134.998 63.924 135.614 63.224C136.23 62.5147 137.075 62.16 138.148 62.16C139.128 62.16 139.894 62.4633 140.444 63.07C140.995 63.6767 141.27 64.5213 141.27 65.604ZM140.29 65.492C140.29 63.812 139.562 62.972 138.106 62.972C137.397 62.972 136.837 63.1867 136.426 63.616C136.016 64.0453 135.773 64.6707 135.698 65.492H140.29ZM150.222 69.062C150.287 69.1087 150.338 69.1787 150.376 69.272C150.422 69.356 150.446 69.4447 150.446 69.538C150.446 69.7153 150.371 69.8413 150.222 69.916C149.923 70.0653 149.536 70.14 149.06 70.14C148.453 70.14 147.968 69.9767 147.604 69.65C147.24 69.314 147.058 68.866 147.058 68.306V63.056H145.602V62.3H147.058V60.2H148.01V62.3H150.026V63.056H148.01V68.124C148.01 68.908 148.346 69.3 149.018 69.3C149.447 69.3 149.848 69.2207 150.222 69.062ZM154.506 70.14C153.423 70.14 152.607 69.804 152.056 69.132C151.505 68.46 151.23 67.4613 151.23 66.136C151.23 63.4853 152.322 62.16 154.506 62.16C156.69 62.16 157.782 63.4853 157.782 66.136C157.782 67.4613 157.507 68.46 156.956 69.132C156.405 69.804 155.589 70.14 154.506 70.14ZM154.506 69.356C155.299 69.356 155.878 69.0993 156.242 68.586C156.615 68.0633 156.802 67.2467 156.802 66.136C156.802 65.0347 156.615 64.2273 156.242 63.714C155.878 63.2007 155.299 62.944 154.506 62.944C153.713 62.944 153.129 63.2007 152.756 63.714C152.392 64.2273 152.21 65.0347 152.21 66.136C152.21 67.2467 152.392 68.0633 152.756 68.586C153.129 69.0993 153.713 69.356 154.506 69.356ZM169.229 65.604C169.229 65.8187 169.22 66.0333 169.201 66.248H163.629C163.648 67.2187 163.863 67.9747 164.273 68.516C164.693 69.0573 165.272 69.328 166.009 69.328C166.513 69.328 166.938 69.23 167.283 69.034C167.638 68.838 167.932 68.5253 168.165 68.096C168.231 67.9747 168.329 67.914 168.459 67.914C168.609 67.914 168.814 68.0027 169.075 68.18C168.87 68.7867 168.492 69.2673 167.941 69.622C167.391 69.9673 166.747 70.14 166.009 70.14C165.328 70.14 164.731 69.9813 164.217 69.664C163.713 69.3373 163.326 68.8753 163.055 68.278C162.785 67.6713 162.649 66.9573 162.649 66.136C162.649 64.8947 162.957 63.924 163.573 63.224C164.189 62.5147 165.034 62.16 166.107 62.16C167.087 62.16 167.853 62.4633 168.403 63.07C168.954 63.6767 169.229 64.5213 169.229 65.604ZM168.249 65.492C168.249 63.812 167.521 62.972 166.065 62.972C165.356 62.972 164.796 63.1867 164.385 63.616C163.975 64.0453 163.732 64.6707 163.657 65.492H168.249ZM176.447 68.082C176.447 68.5113 176.48 68.852 176.545 69.104C176.62 69.3467 176.746 69.566 176.923 69.762C176.83 69.8553 176.718 69.93 176.587 69.986C176.466 70.042 176.349 70.07 176.237 70.07C176.051 70.07 175.892 69.9627 175.761 69.748C175.64 69.5333 175.561 69.2393 175.523 68.866C175.234 69.258 174.847 69.5707 174.361 69.804C173.876 70.028 173.367 70.14 172.835 70.14C172.126 70.14 171.557 69.958 171.127 69.594C170.698 69.2207 170.483 68.7353 170.483 68.138C170.483 67.2607 170.908 66.5747 171.757 66.08C172.616 65.5853 173.862 65.3007 175.495 65.226V64.778C175.495 64.162 175.337 63.7047 175.019 63.406C174.711 63.098 174.24 62.944 173.605 62.944C173.195 62.944 172.812 63.0327 172.457 63.21C172.112 63.378 171.739 63.6627 171.337 64.064C171.281 64.12 171.211 64.148 171.127 64.148C171.034 64.148 170.931 64.1107 170.819 64.036C170.707 63.952 170.6 63.8353 170.497 63.686C170.917 63.1913 171.393 62.8133 171.925 62.552C172.467 62.2907 173.041 62.16 173.647 62.16C174.515 62.16 175.197 62.3933 175.691 62.86C176.195 63.3267 176.447 63.966 176.447 64.778V68.082ZM172.905 69.356C173.409 69.356 173.885 69.216 174.333 68.936C174.781 68.656 175.169 68.2593 175.495 67.746V66.01C172.807 66.122 171.463 66.8267 171.463 68.124C171.463 68.9453 171.944 69.356 172.905 69.356ZM181.874 62.202C182.201 62.202 182.448 62.258 182.616 62.37C182.793 62.4727 182.882 62.6313 182.882 62.846C182.882 62.9953 182.831 63.1307 182.728 63.252C182.504 63.1307 182.196 63.07 181.804 63.07C181.179 63.07 180.675 63.3173 180.292 63.812C179.919 64.3067 179.732 64.9553 179.732 65.758V70H178.78V62.3H179.732V63.686C179.947 63.2567 180.25 62.902 180.642 62.622C181.034 62.342 181.445 62.202 181.874 62.202ZM190.475 68.208C190.475 68.7773 190.48 69.1647 190.489 69.37C190.508 69.566 190.545 69.7433 190.601 69.902C190.377 70.014 190.135 70.07 189.873 70.07C189.733 70.07 189.64 69.972 189.593 69.776C189.547 69.5707 189.523 69.1693 189.523 68.572V64.778C189.523 64.1247 189.402 63.6533 189.159 63.364C188.917 63.0653 188.525 62.916 187.983 62.916C187.143 62.916 186.285 63.3313 185.407 64.162V70H184.455V64.918C184.455 63.5367 184.399 62.7153 184.287 62.454C184.586 62.314 184.824 62.244 185.001 62.244C185.272 62.244 185.407 62.5147 185.407 63.056V63.182C185.837 62.8273 186.266 62.5707 186.695 62.412C187.134 62.244 187.596 62.16 188.081 62.16C188.884 62.16 189.481 62.3793 189.873 62.818C190.275 63.2473 190.475 63.9053 190.475 64.792V68.208ZM202.616 60.2C202.653 60.368 202.672 60.48 202.672 60.536C202.672 60.6947 202.63 60.8207 202.546 60.914C202.462 60.998 202.336 61.04 202.168 61.04H199.592V70H198.584V61.04H195.56V60.2H202.616ZM205.04 61.04V64.498H209.198V65.338H205.04V70H204.032V60.2H209.8V61.04H205.04ZM216.51 64.946C217.023 65.086 217.443 65.3707 217.77 65.8C218.097 66.2293 218.26 66.724 218.26 67.284C218.26 68.152 217.961 68.824 217.364 69.3C216.767 69.7667 215.917 70 214.816 70H211.456V60.2H214.676C215.647 60.2 216.412 60.4333 216.972 60.9C217.532 61.3573 217.812 61.9827 217.812 62.776C217.812 63.2707 217.691 63.714 217.448 64.106C217.215 64.498 216.902 64.778 216.51 64.946ZM216.804 62.776C216.804 62.2347 216.613 61.81 216.23 61.502C215.857 61.194 215.339 61.04 214.676 61.04H212.464V64.61H214.634C216.081 64.61 216.804 63.9987 216.804 62.776ZM214.676 69.16C215.591 69.16 216.249 69.0153 216.65 68.726C217.051 68.4273 217.252 67.9467 217.252 67.284C217.252 66.6307 217.042 66.1547 216.622 65.856C216.211 65.5573 215.553 65.408 214.648 65.408H212.464V69.16H214.676ZM225.599 70C225.45 69.104 225.156 68.32 224.717 67.648C224.279 66.9667 223.686 66.248 222.939 65.492C222.193 66.248 221.6 66.9667 221.161 67.648C220.723 68.32 220.429 69.104 220.279 70H219.201C219.341 69.2347 219.561 68.5487 219.859 67.942C220.167 67.326 220.513 66.7847 220.895 66.318C221.278 65.8513 221.74 65.352 222.281 64.82C221.488 64.0267 220.858 63.2893 220.391 62.608C219.925 61.9173 219.598 61.1147 219.411 60.2H220.461C220.629 60.984 220.914 61.6747 221.315 62.272C221.726 62.86 222.267 63.49 222.939 64.162C223.611 63.49 224.148 62.86 224.549 62.272C224.96 61.6747 225.249 60.984 225.417 60.2H226.467C226.281 61.1147 225.954 61.9173 225.487 62.608C225.021 63.2893 224.391 64.0267 223.597 64.82C224.139 65.352 224.601 65.8513 224.983 66.318C225.366 66.7847 225.707 67.326 226.005 67.942C226.313 68.5487 226.537 69.2347 226.677 70H225.599ZM229.114 70C228.694 70 228.484 69.79 228.484 69.37V69.244C228.484 68.824 228.694 68.614 229.114 68.614H229.226C229.646 68.614 229.856 68.824 229.856 69.244V69.37C229.856 69.79 229.646 70 229.226 70H229.114ZM242.364 70C242.112 68.8427 241.874 67.8953 241.65 67.158H236.89C236.666 67.8953 236.428 68.8427 236.176 70H235.14C235.625 68.0027 236.152 66.2293 236.722 64.68C237.291 63.1213 237.968 61.628 238.752 60.2H239.802C240.576 61.6187 241.248 63.1073 241.818 64.666C242.387 66.2153 242.914 67.9933 243.4 70H242.364ZM241.412 66.318C240.842 64.5073 240.128 62.8087 239.27 61.222C238.411 62.8087 237.697 64.5073 237.128 66.318H241.412ZM245.011 58.926H245.963V70H245.011V58.926ZM250.787 70.14C250.367 70.14 249.933 70.07 249.485 69.93C249.037 69.79 248.664 69.6033 248.365 69.37C248.067 69.1367 247.917 68.8893 247.917 68.628C247.917 68.5067 247.955 68.3993 248.029 68.306C248.113 68.2033 248.216 68.1333 248.337 68.096C248.673 68.5347 249.037 68.8567 249.429 69.062C249.821 69.258 250.293 69.356 250.843 69.356C251.431 69.356 251.875 69.2207 252.173 68.95C252.481 68.6793 252.635 68.32 252.635 67.872C252.635 67.5733 252.542 67.3307 252.355 67.144C252.178 66.9573 251.954 66.8173 251.683 66.724C251.422 66.6307 251.058 66.5233 250.591 66.402C250.05 66.262 249.611 66.1267 249.275 65.996C248.949 65.8653 248.669 65.6693 248.435 65.408C248.211 65.1373 248.099 64.778 248.099 64.33C248.099 63.854 248.225 63.4527 248.477 63.126C248.729 62.7993 249.051 62.5567 249.443 62.398C249.835 62.2393 250.237 62.16 250.647 62.16C251.235 62.16 251.767 62.2767 252.243 62.51C252.729 62.7433 253.107 63.084 253.377 63.532C253.153 63.7653 252.962 63.882 252.803 63.882C252.682 63.882 252.565 63.8167 252.453 63.686C252.229 63.4247 251.968 63.2333 251.669 63.112C251.38 62.9813 251.025 62.916 250.605 62.916C250.129 62.916 249.751 63.028 249.471 63.252C249.191 63.476 249.051 63.8213 249.051 64.288C249.051 64.5587 249.135 64.778 249.303 64.946C249.471 65.114 249.681 65.2447 249.933 65.338C250.185 65.422 250.531 65.52 250.969 65.632C251.529 65.7627 251.982 65.898 252.327 66.038C252.682 66.178 252.981 66.3973 253.223 66.696C253.466 66.9853 253.587 67.3773 253.587 67.872C253.587 68.5627 253.331 69.1133 252.817 69.524C252.313 69.9347 251.637 70.14 250.787 70.14ZM257.988 70.14C256.906 70.14 256.089 69.804 255.538 69.132C254.988 68.46 254.712 67.4613 254.712 66.136C254.712 63.4853 255.804 62.16 257.988 62.16C260.172 62.16 261.264 63.4853 261.264 66.136C261.264 67.4613 260.989 68.46 260.438 69.132C259.888 69.804 259.071 70.14 257.988 70.14ZM257.988 69.356C258.782 69.356 259.36 69.0993 259.724 68.586C260.098 68.0633 260.284 67.2467 260.284 66.136C260.284 65.0347 260.098 64.2273 259.724 63.714C259.36 63.2007 258.782 62.944 257.988 62.944C257.195 62.944 256.612 63.2007 256.238 63.714C255.874 64.2273 255.692 65.0347 255.692 66.136C255.692 67.2467 255.874 68.0633 256.238 68.586C256.612 69.0993 257.195 69.356 257.988 69.356ZM59.238 90.418C59.238 90.9593 59.308 91.454 59.448 91.902C59.252 92.014 59.0513 92.07 58.846 92.07C58.65 92.07 58.5053 91.9907 58.412 91.832C58.328 91.664 58.2813 91.3653 58.272 90.936C58.0107 91.3 57.642 91.594 57.166 91.818C56.69 92.0327 56.1767 92.14 55.626 92.14C54.0487 92.14 53.26 91.2767 53.26 89.55V84.3H54.212V89.452C54.212 90.1333 54.338 90.628 54.59 90.936C54.842 91.2347 55.2433 91.384 55.794 91.384C56.2887 91.384 56.7507 91.258 57.18 91.006C57.6187 90.754 57.9827 90.3993 58.272 89.942V84.3H59.238V90.418ZM63.9749 92.14C63.5549 92.14 63.1209 92.07 62.6729 91.93C62.2249 91.79 61.8516 91.6033 61.5529 91.37C61.2543 91.1367 61.1049 90.8893 61.1049 90.628C61.1049 90.5067 61.1423 90.3993 61.2169 90.306C61.3009 90.2033 61.4036 90.1333 61.5249 90.096C61.8609 90.5347 62.2249 90.8567 62.6169 91.062C63.0089 91.258 63.4803 91.356 64.0309 91.356C64.6189 91.356 65.0623 91.2207 65.3609 90.95C65.6689 90.6793 65.8229 90.32 65.8229 89.872C65.8229 89.5733 65.7296 89.3307 65.5429 89.144C65.3656 88.9573 65.1416 88.8173 64.8709 88.724C64.6096 88.6307 64.2456 88.5233 63.7789 88.402C63.2376 88.262 62.7989 88.1267 62.4629 87.996C62.1363 87.8653 61.8563 87.6693 61.6229 87.408C61.3989 87.1373 61.2869 86.778 61.2869 86.33C61.2869 85.854 61.4129 85.4527 61.6649 85.126C61.9169 84.7993 62.2389 84.5567 62.6309 84.398C63.0229 84.2393 63.4243 84.16 63.8349 84.16C64.4229 84.16 64.9549 84.2767 65.4309 84.51C65.9163 84.7433 66.2943 85.084 66.5649 85.532C66.3409 85.7653 66.1496 85.882 65.9909 85.882C65.8696 85.882 65.7529 85.8167 65.6409 85.686C65.4169 85.4247 65.1556 85.2333 64.8569 85.112C64.5676 84.9813 64.2129 84.916 63.7929 84.916C63.3169 84.916 62.9389 85.028 62.6589 85.252C62.3789 85.476 62.2389 85.8213 62.2389 86.288C62.2389 86.5587 62.3229 86.778 62.4909 86.946C62.6589 87.114 62.8689 87.2447 63.1209 87.338C63.3729 87.422 63.7183 87.52 64.1569 87.632C64.7169 87.7627 65.1696 87.898 65.5149 88.038C65.8696 88.178 66.1683 88.3973 66.4109 88.696C66.6536 88.9853 66.7749 89.3773 66.7749 89.872C66.7749 90.5627 66.5183 91.1133 66.0049 91.524C65.5009 91.9347 64.8243 92.14 63.9749 92.14ZM74.6198 87.604C74.6198 87.8187 74.6105 88.0333 74.5918 88.248H69.0198C69.0385 89.2187 69.2532 89.9747 69.6638 90.516C70.0838 91.0573 70.6625 91.328 71.3998 91.328C71.9038 91.328 72.3285 91.23 72.6738 91.034C73.0285 90.838 73.3225 90.5253 73.5558 90.096C73.6212 89.9747 73.7192 89.914 73.8498 89.914C73.9992 89.914 74.2045 90.0027 74.4658 90.18C74.2605 90.7867 73.8825 91.2673 73.3318 91.622C72.7812 91.9673 72.1372 92.14 71.3998 92.14C70.7185 92.14 70.1212 91.9813 69.6078 91.664C69.1038 91.3373 68.7165 90.8753 68.4458 90.278C68.1752 89.6713 68.0398 88.9573 68.0398 88.136C68.0398 86.8947 68.3478 85.924 68.9638 85.224C69.5798 84.5147 70.4245 84.16 71.4978 84.16C72.4778 84.16 73.2432 84.4633 73.7938 85.07C74.3445 85.6767 74.6198 86.5213 74.6198 87.604ZM73.6398 87.492C73.6398 85.812 72.9118 84.972 71.4558 84.972C70.7465 84.972 70.1865 85.1867 69.7758 85.616C69.3652 86.0453 69.1225 86.6707 69.0478 87.492H73.6398ZM79.4578 84.202C79.7845 84.202 80.0318 84.258 80.1998 84.37C80.3772 84.4727 80.4658 84.6313 80.4658 84.846C80.4658 84.9953 80.4145 85.1307 80.3118 85.252C80.0878 85.1307 79.7798 85.07 79.3878 85.07C78.7625 85.07 78.2585 85.3173 77.8758 85.812C77.5025 86.3067 77.3158 86.9553 77.3158 87.758V92H76.3638V84.3H77.3158V85.686C77.5305 85.2567 77.8338 84.902 78.2258 84.622C78.6178 84.342 79.0285 84.202 79.4578 84.202ZM84.2093 92.14C83.7893 92.14 83.3553 92.07 82.9073 91.93C82.4593 91.79 82.086 91.6033 81.7873 91.37C81.4886 91.1367 81.3393 90.8893 81.3393 90.628C81.3393 90.5067 81.3766 90.3993 81.4513 90.306C81.5353 90.2033 81.638 90.1333 81.7593 90.096C82.0953 90.5347 82.4593 90.8567 82.8513 91.062C83.2433 91.258 83.7146 91.356 84.2653 91.356C84.8533 91.356 85.2966 91.2207 85.5953 90.95C85.9033 90.6793 86.0573 90.32 86.0573 89.872C86.0573 89.5733 85.964 89.3307 85.7773 89.144C85.6 88.9573 85.376 88.8173 85.1053 88.724C84.844 88.6307 84.48 88.5233 84.0133 88.402C83.472 88.262 83.0333 88.1267 82.6973 87.996C82.3706 87.8653 82.0906 87.6693 81.8573 87.408C81.6333 87.1373 81.5213 86.778 81.5213 86.33C81.5213 85.854 81.6473 85.4527 81.8993 85.126C82.1513 84.7993 82.4733 84.5567 82.8653 84.398C83.2573 84.2393 83.6586 84.16 84.0693 84.16C84.6573 84.16 85.1893 84.2767 85.6653 84.51C86.1506 84.7433 86.5286 85.084 86.7993 85.532C86.5753 85.7653 86.384 85.882 86.2253 85.882C86.104 85.882 85.9873 85.8167 85.8753 85.686C85.6513 85.4247 85.39 85.2333 85.0913 85.112C84.802 84.9813 84.4473 84.916 84.0273 84.916C83.5513 84.916 83.1733 85.028 82.8933 85.252C82.6133 85.476 82.4733 85.8213 82.4733 86.288C82.4733 86.5587 82.5573 86.778 82.7253 86.946C82.8933 87.114 83.1033 87.2447 83.3553 87.338C83.6073 87.422 83.9526 87.52 84.3913 87.632C84.9513 87.7627 85.404 87.898 85.7493 88.038C86.104 88.178 86.4026 88.3973 86.6453 88.696C86.888 88.9853 87.0093 89.3773 87.0093 89.872C87.0093 90.5627 86.7526 91.1133 86.2393 91.524C85.7353 91.9347 85.0586 92.14 84.2093 92.14ZM95.3276 92.14C94.1983 92.14 93.3163 91.7853 92.6816 91.076C92.0563 90.3667 91.7436 89.3773 91.7436 88.108C91.7436 87.3053 91.8836 86.61 92.1636 86.022C92.4529 85.4247 92.8636 84.9673 93.3956 84.65C93.9276 84.3233 94.5529 84.16 95.2716 84.16C96.1303 84.16 96.8349 84.3793 97.3856 84.818C97.9456 85.2473 98.2723 85.8353 98.3656 86.582C98.2816 86.6193 98.1649 86.6567 98.0156 86.694C97.8756 86.7313 97.7589 86.75 97.6656 86.75C97.5723 86.75 97.5023 86.7267 97.4556 86.68C97.4183 86.624 97.3763 86.512 97.3296 86.344C97.2269 85.9053 96.9936 85.5647 96.6296 85.322C96.2656 85.07 95.8129 84.944 95.2716 84.944C94.7676 84.944 94.3196 85.0747 93.9276 85.336C93.5449 85.5973 93.2463 85.9707 93.0316 86.456C92.8263 86.932 92.7236 87.4827 92.7236 88.108C92.7236 89.0973 92.9569 89.886 93.4236 90.474C93.8996 91.062 94.5343 91.356 95.3276 91.356C95.9343 91.356 96.4523 91.216 96.8816 90.936C97.3109 90.6467 97.6329 90.2267 97.8476 89.676C97.9783 89.676 98.0856 89.732 98.1696 89.844C98.2629 89.956 98.3096 90.0867 98.3096 90.236C98.3096 90.5627 98.1696 90.8753 97.8896 91.174C97.6189 91.4633 97.2503 91.6967 96.7836 91.874C96.3263 92.0513 95.8409 92.14 95.3276 92.14ZM105.559 90.082C105.559 90.5113 105.591 90.852 105.657 91.104C105.731 91.3467 105.857 91.566 106.035 91.762C105.941 91.8553 105.829 91.93 105.699 91.986C105.577 92.042 105.461 92.07 105.349 92.07C105.162 92.07 105.003 91.9627 104.873 91.748C104.751 91.5333 104.672 91.2393 104.635 90.866C104.345 91.258 103.958 91.5707 103.473 91.804C102.987 92.028 102.479 92.14 101.947 92.14C101.237 92.14 100.668 91.958 100.239 91.594C99.8092 91.2207 99.5945 90.7353 99.5945 90.138C99.5945 89.2607 100.019 88.5747 100.869 88.08C101.727 87.5853 102.973 87.3007 104.607 87.226V86.778C104.607 86.162 104.448 85.7047 104.131 85.406C103.823 85.098 103.351 84.944 102.717 84.944C102.306 84.944 101.923 85.0327 101.569 85.21C101.223 85.378 100.85 85.6627 100.449 86.064C100.393 86.12 100.323 86.148 100.239 86.148C100.145 86.148 100.043 86.1107 99.9305 86.036C99.8185 85.952 99.7112 85.8353 99.6085 85.686C100.029 85.1913 100.505 84.8133 101.037 84.552C101.578 84.2907 102.152 84.16 102.759 84.16C103.627 84.16 104.308 84.3933 104.803 84.86C105.307 85.3267 105.559 85.966 105.559 86.778V90.082ZM102.017 91.356C102.521 91.356 102.997 91.216 103.445 90.936C103.893 90.656 104.28 90.2593 104.607 89.746V88.01C101.919 88.122 100.575 88.8267 100.575 90.124C100.575 90.9453 101.055 91.356 102.017 91.356ZM113.981 90.208C113.981 90.7773 113.986 91.1647 113.995 91.37C114.014 91.566 114.051 91.7433 114.107 91.902C113.883 92.014 113.641 92.07 113.379 92.07C113.239 92.07 113.146 91.972 113.099 91.776C113.053 91.5707 113.029 91.1693 113.029 90.572V86.778C113.029 86.1247 112.908 85.6533 112.665 85.364C112.423 85.0653 112.031 84.916 111.489 84.916C110.649 84.916 109.791 85.3313 108.913 86.162V92H107.961V86.918C107.961 85.5367 107.905 84.7153 107.793 84.454C108.092 84.314 108.33 84.244 108.507 84.244C108.778 84.244 108.913 84.5147 108.913 85.056V85.182C109.343 84.8273 109.772 84.5707 110.201 84.412C110.64 84.244 111.102 84.16 111.587 84.16C112.39 84.16 112.987 84.3793 113.379 84.818C113.781 85.2473 113.981 85.9053 113.981 86.792V90.208ZM123.447 84.16C124.493 84.16 125.291 84.5053 125.841 85.196C126.392 85.8773 126.667 86.8573 126.667 88.136C126.667 88.948 126.523 89.6573 126.233 90.264C125.953 90.8613 125.543 91.3233 125.001 91.65C124.469 91.9767 123.844 92.14 123.125 92.14C122.771 92.14 122.411 92.1027 122.047 92.028C121.693 91.9627 121.375 91.874 121.095 91.762V95.08H120.143V86.918C120.143 85.5367 120.087 84.7153 119.975 84.454C120.274 84.314 120.512 84.244 120.689 84.244C120.96 84.244 121.095 84.5147 121.095 85.056V85.112C121.403 84.804 121.758 84.5707 122.159 84.412C122.57 84.244 122.999 84.16 123.447 84.16ZM123.125 91.356C123.928 91.356 124.549 91.076 124.987 90.516C125.435 89.956 125.659 89.1627 125.659 88.136C125.659 86.008 124.922 84.944 123.447 84.944C123.018 84.944 122.598 85.042 122.187 85.238C121.786 85.434 121.422 85.714 121.095 86.078V90.936C121.674 91.216 122.351 91.356 123.125 91.356ZM134.461 90.418C134.461 90.9593 134.531 91.454 134.671 91.902C134.475 92.014 134.274 92.07 134.069 92.07C133.873 92.07 133.728 91.9907 133.635 91.832C133.551 91.664 133.504 91.3653 133.495 90.936C133.233 91.3 132.865 91.594 132.389 91.818C131.913 92.0327 131.399 92.14 130.849 92.14C129.271 92.14 128.483 91.2767 128.483 89.55V84.3H129.435V89.452C129.435 90.1333 129.561 90.628 129.813 90.936C130.065 91.2347 130.466 91.384 131.017 91.384C131.511 91.384 131.973 91.258 132.403 91.006C132.841 90.754 133.205 90.3993 133.495 89.942V84.3H134.461V90.418ZM140.5 84.16C141.536 84.16 142.334 84.496 142.894 85.168C143.463 85.84 143.748 86.792 143.748 88.024C143.748 89.312 143.454 90.32 142.866 91.048C142.278 91.776 141.466 92.14 140.43 92.14C139.44 92.14 138.666 91.846 138.106 91.258C138.022 91.7527 137.858 92 137.616 92C137.336 92 137.102 91.944 136.916 91.832C137.093 91.44 137.182 90.88 137.182 90.152V80.926H138.162V84.874C138.843 84.398 139.622 84.16 140.5 84.16ZM140.43 91.328C141.176 91.328 141.75 91.0433 142.152 90.474C142.562 89.8953 142.768 89.0787 142.768 88.024C142.768 87.0347 142.572 86.274 142.18 85.742C141.788 85.21 141.228 84.944 140.5 84.944C139.641 84.944 138.862 85.21 138.162 85.742V90.292C138.712 90.9827 139.468 91.328 140.43 91.328ZM145.713 80.926H146.665V92H145.713V80.926ZM149.599 84.3H150.551V92H149.599V84.3ZM150.019 82.886C149.599 82.886 149.389 82.676 149.389 82.256V82.13C149.389 81.71 149.599 81.5 150.019 81.5H150.131C150.551 81.5 150.761 81.71 150.761 82.13V82.256C150.761 82.676 150.551 82.886 150.131 82.886H150.019ZM155.522 92.14C155.102 92.14 154.668 92.07 154.22 91.93C153.772 91.79 153.398 91.6033 153.1 91.37C152.801 91.1367 152.652 90.8893 152.652 90.628C152.652 90.5067 152.689 90.3993 152.764 90.306C152.848 90.2033 152.95 90.1333 153.072 90.096C153.408 90.5347 153.772 90.8567 154.164 91.062C154.556 91.258 155.027 91.356 155.578 91.356C156.166 91.356 156.609 91.2207 156.908 90.95C157.216 90.6793 157.37 90.32 157.37 89.872C157.37 89.5733 157.276 89.3307 157.09 89.144C156.912 88.9573 156.688 88.8173 156.418 88.724C156.156 88.6307 155.792 88.5233 155.326 88.402C154.784 88.262 154.346 88.1267 154.01 87.996C153.683 87.8653 153.403 87.6693 153.17 87.408C152.946 87.1373 152.834 86.778 152.834 86.33C152.834 85.854 152.96 85.4527 153.212 85.126C153.464 84.7993 153.786 84.5567 154.178 84.398C154.57 84.2393 154.971 84.16 155.382 84.16C155.97 84.16 156.502 84.2767 156.978 84.51C157.463 84.7433 157.841 85.084 158.112 85.532C157.888 85.7653 157.696 85.882 157.538 85.882C157.416 85.882 157.3 85.8167 157.188 85.686C156.964 85.4247 156.702 85.2333 156.404 85.112C156.114 84.9813 155.76 84.916 155.34 84.916C154.864 84.916 154.486 85.028 154.206 85.252C153.926 85.476 153.786 85.8213 153.786 86.288C153.786 86.5587 153.87 86.778 154.038 86.946C154.206 87.114 154.416 87.2447 154.668 87.338C154.92 87.422 155.265 87.52 155.704 87.632C156.264 87.7627 156.716 87.898 157.062 88.038C157.416 88.178 157.715 88.3973 157.958 88.696C158.2 88.9853 158.322 89.3773 158.322 89.872C158.322 90.5627 158.065 91.1133 157.552 91.524C157.048 91.9347 156.371 92.14 155.522 92.14ZM163.829 84.16C164.631 84.16 165.266 84.3933 165.733 84.86C166.199 85.3173 166.433 85.9427 166.433 86.736V92H165.481V86.834C165.481 86.2273 165.331 85.7607 165.033 85.434C164.734 85.1073 164.305 84.944 163.745 84.944C163.315 84.944 162.863 85.042 162.387 85.238C161.911 85.4247 161.486 85.6767 161.113 85.994V92H160.161V80.926H161.113V85.084C161.523 84.7853 161.962 84.5567 162.429 84.398C162.895 84.2393 163.362 84.16 163.829 84.16ZM175.15 92.14C174.068 92.14 173.251 91.804 172.7 91.132C172.15 90.46 171.874 89.4613 171.874 88.136C171.874 85.4853 172.966 84.16 175.15 84.16C177.334 84.16 178.426 85.4853 178.426 88.136C178.426 89.4613 178.151 90.46 177.6 91.132C177.05 91.804 176.233 92.14 175.15 92.14ZM175.15 91.356C175.944 91.356 176.522 91.0993 176.886 90.586C177.26 90.0633 177.446 89.2467 177.446 88.136C177.446 87.0347 177.26 86.2273 176.886 85.714C176.522 85.2007 175.944 84.944 175.15 84.944C174.357 84.944 173.774 85.2007 173.4 85.714C173.036 86.2273 172.854 87.0347 172.854 88.136C172.854 89.2467 173.036 90.0633 173.4 90.586C173.774 91.0993 174.357 91.356 175.15 91.356ZM189.092 84.3C188.719 87.1373 188.01 89.704 186.964 92H186.096C185.611 90.936 185.224 89.9653 184.934 89.088C184.654 88.2107 184.435 87.296 184.276 86.344C184.108 87.3147 183.88 88.2433 183.59 89.13C183.301 90.0073 182.914 90.964 182.428 92H181.532C181.038 90.9453 180.622 89.8067 180.286 88.584C179.96 87.3613 179.68 85.9333 179.446 84.3H180.426C180.585 85.6627 180.786 86.8573 181.028 87.884C181.28 88.9013 181.607 89.8487 182.008 90.726C182.904 88.8873 183.511 86.7453 183.828 84.3H184.752C185.088 86.8293 185.69 88.9807 186.558 90.754C187.37 88.8127 187.851 86.6613 188 84.3H189.092ZM196.901 90.208C196.901 90.7773 196.906 91.1647 196.915 91.37C196.934 91.566 196.971 91.7433 197.027 91.902C196.803 92.014 196.56 92.07 196.299 92.07C196.159 92.07 196.066 91.972 196.019 91.776C195.972 91.5707 195.949 91.1693 195.949 90.572V86.778C195.949 86.1247 195.828 85.6533 195.585 85.364C195.342 85.0653 194.95 84.916 194.409 84.916C193.569 84.916 192.71 85.3313 191.833 86.162V92H190.881V86.918C190.881 85.5367 190.825 84.7153 190.713 84.454C191.012 84.314 191.25 84.244 191.427 84.244C191.698 84.244 191.833 84.5147 191.833 85.056V85.182C192.262 84.8273 192.692 84.5707 193.121 84.412C193.56 84.244 194.022 84.16 194.507 84.16C195.31 84.16 195.907 84.3793 196.299 84.818C196.7 85.2473 196.901 85.9053 196.901 86.792V90.208ZM205.205 92.14C204.785 92.14 204.351 92.07 203.903 91.93C203.455 91.79 203.082 91.6033 202.783 91.37C202.485 91.1367 202.335 90.8893 202.335 90.628C202.335 90.5067 202.373 90.3993 202.447 90.306C202.531 90.2033 202.634 90.1333 202.755 90.096C203.091 90.5347 203.455 90.8567 203.847 91.062C204.239 91.258 204.711 91.356 205.261 91.356C205.849 91.356 206.293 91.2207 206.591 90.95C206.899 90.6793 207.053 90.32 207.053 89.872C207.053 89.5733 206.96 89.3307 206.773 89.144C206.596 88.9573 206.372 88.8173 206.101 88.724C205.84 88.6307 205.476 88.5233 205.009 88.402C204.468 88.262 204.029 88.1267 203.693 87.996C203.367 87.8653 203.087 87.6693 202.853 87.408C202.629 87.1373 202.517 86.778 202.517 86.33C202.517 85.854 202.643 85.4527 202.895 85.126C203.147 84.7993 203.469 84.5567 203.861 84.398C204.253 84.2393 204.655 84.16 205.065 84.16C205.653 84.16 206.185 84.2767 206.661 84.51C207.147 84.7433 207.525 85.084 207.795 85.532C207.571 85.7653 207.38 85.882 207.221 85.882C207.1 85.882 206.983 85.8167 206.871 85.686C206.647 85.4247 206.386 85.2333 206.087 85.112C205.798 84.9813 205.443 84.916 205.023 84.916C204.547 84.916 204.169 85.028 203.889 85.252C203.609 85.476 203.469 85.8213 203.469 86.288C203.469 86.5587 203.553 86.778 203.721 86.946C203.889 87.114 204.099 87.2447 204.351 87.338C204.603 87.422 204.949 87.52 205.387 87.632C205.947 87.7627 206.4 87.898 206.745 88.038C207.1 88.178 207.399 88.3973 207.641 88.696C207.884 88.9853 208.005 89.3773 208.005 89.872C208.005 90.5627 207.749 91.1133 207.235 91.524C206.731 91.9347 206.055 92.14 205.205 92.14ZM215.808 90.418C215.808 90.9593 215.878 91.454 216.018 91.902C215.822 92.014 215.622 92.07 215.416 92.07C215.22 92.07 215.076 91.9907 214.982 91.832C214.898 91.664 214.852 91.3653 214.842 90.936C214.581 91.3 214.212 91.594 213.736 91.818C213.26 92.0327 212.747 92.14 212.196 92.14C210.619 92.14 209.83 91.2767 209.83 89.55V84.3H210.782V89.452C210.782 90.1333 210.908 90.628 211.16 90.936C211.412 91.2347 211.814 91.384 212.364 91.384C212.859 91.384 213.321 91.258 213.75 91.006C214.189 90.754 214.553 90.3993 214.842 89.942V84.3H215.808V90.418ZM221.399 84.202C221.726 84.202 221.973 84.258 222.141 84.37C222.319 84.4727 222.407 84.6313 222.407 84.846C222.407 84.9953 222.356 85.1307 222.253 85.252C222.029 85.1307 221.721 85.07 221.329 85.07C220.704 85.07 220.2 85.3173 219.817 85.812C219.444 86.3067 219.257 86.9553 219.257 87.758V92H218.305V84.3H219.257V85.686C219.472 85.2567 219.775 84.902 220.167 84.622C220.559 84.342 220.97 84.202 221.399 84.202ZM229.287 84.3C229.175 85.7373 228.899 87.0813 228.461 88.332C228.022 89.5733 227.392 90.796 226.571 92H225.661C224.839 90.796 224.209 89.5733 223.771 88.332C223.332 87.0813 223.057 85.7373 222.945 84.3H223.897C224.027 85.6533 224.265 86.8573 224.611 87.912C224.965 88.9573 225.469 89.9747 226.123 90.964C226.776 89.9747 227.275 88.9573 227.621 87.912C227.966 86.8573 228.204 85.6533 228.335 84.3H229.287ZM236.796 87.604C236.796 87.8187 236.786 88.0333 236.768 88.248H231.196C231.214 89.2187 231.429 89.9747 231.84 90.516C232.26 91.0573 232.838 91.328 233.576 91.328C234.08 91.328 234.504 91.23 234.85 91.034C235.204 90.838 235.498 90.5253 235.732 90.096C235.797 89.9747 235.895 89.914 236.026 89.914C236.175 89.914 236.38 90.0027 236.642 90.18C236.436 90.7867 236.058 91.2673 235.508 91.622C234.957 91.9673 234.313 92.14 233.576 92.14C232.894 92.14 232.297 91.9813 231.784 91.664C231.28 91.3373 230.892 90.8753 230.622 90.278C230.351 89.6713 230.216 88.9573 230.216 88.136C230.216 86.8947 230.524 85.924 231.14 85.224C231.756 84.5147 232.6 84.16 233.674 84.16C234.654 84.16 235.419 84.4633 235.97 85.07C236.52 85.6767 236.796 86.5213 236.796 87.604ZM235.816 87.492C235.816 85.812 235.088 84.972 233.632 84.972C232.922 84.972 232.362 85.1867 231.952 85.616C231.541 86.0453 231.298 86.6707 231.224 87.492H235.816ZM243.986 84.3L241.004 92.588C240.742 93.3253 240.411 93.862 240.01 94.198C239.618 94.5433 239.118 94.716 238.512 94.716C238.157 94.716 237.877 94.66 237.672 94.548C237.466 94.4453 237.364 94.3053 237.364 94.128C237.364 93.9413 237.443 93.792 237.602 93.68C237.695 93.7453 237.835 93.8013 238.022 93.848C238.218 93.8947 238.409 93.918 238.596 93.918C238.978 93.918 239.305 93.75 239.576 93.414C239.856 93.078 240.094 92.5647 240.29 91.874L237.546 84.3H238.554L240.78 90.502L242.978 84.3H243.986ZM247.575 92.14C247.155 92.14 246.721 92.07 246.273 91.93C245.825 91.79 245.451 91.6033 245.153 91.37C244.854 91.1367 244.705 90.8893 244.705 90.628C244.705 90.5067 244.742 90.3993 244.817 90.306C244.901 90.2033 245.003 90.1333 245.125 90.096C245.461 90.5347 245.825 90.8567 246.217 91.062C246.609 91.258 247.08 91.356 247.631 91.356C248.219 91.356 248.662 91.2207 248.961 90.95C249.269 90.6793 249.423 90.32 249.423 89.872C249.423 89.5733 249.329 89.3307 249.143 89.144C248.965 88.9573 248.741 88.8173 248.471 88.724C248.209 88.6307 247.845 88.5233 247.379 88.402C246.837 88.262 246.399 88.1267 246.063 87.996C245.736 87.8653 245.456 87.6693 245.223 87.408C244.999 87.1373 244.887 86.778 244.887 86.33C244.887 85.854 245.013 85.4527 245.265 85.126C245.517 84.7993 245.839 84.5567 246.231 84.398C246.623 84.2393 247.024 84.16 247.435 84.16C248.023 84.16 248.555 84.2767 249.031 84.51C249.516 84.7433 249.894 85.084 250.165 85.532C249.941 85.7653 249.749 85.882 249.591 85.882C249.469 85.882 249.353 85.8167 249.241 85.686C249.017 85.4247 248.755 85.2333 248.457 85.112C248.167 84.9813 247.813 84.916 247.393 84.916C246.917 84.916 246.539 85.028 246.259 85.252C245.979 85.476 245.839 85.8213 245.839 86.288C245.839 86.5587 245.923 86.778 246.091 86.946C246.259 87.114 246.469 87.2447 246.721 87.338C246.973 87.422 247.318 87.52 247.757 87.632C248.317 87.7627 248.769 87.898 249.115 88.038C249.469 88.178 249.768 88.3973 250.011 88.696C250.253 88.9853 250.375 89.3773 250.375 89.872C250.375 90.5627 250.118 91.1133 249.605 91.524C249.101 91.9347 248.424 92.14 247.575 92.14ZM259.337 91.062C259.402 91.1087 259.453 91.1787 259.491 91.272C259.537 91.356 259.561 91.4447 259.561 91.538C259.561 91.7153 259.486 91.8413 259.337 91.916C259.038 92.0653 258.651 92.14 258.175 92.14C257.568 92.14 257.083 91.9767 256.719 91.65C256.355 91.314 256.173 90.866 256.173 90.306V85.056H254.717V84.3H256.173V82.2H257.125V84.3H259.141V85.056H257.125V90.124C257.125 90.908 257.461 91.3 258.133 91.3C258.562 91.3 258.963 91.2207 259.337 91.062ZM263.621 92.14C262.538 92.14 261.722 91.804 261.171 91.132C260.62 90.46 260.345 89.4613 260.345 88.136C260.345 85.4853 261.437 84.16 263.621 84.16C265.805 84.16 266.897 85.4853 266.897 88.136C266.897 89.4613 266.622 90.46 266.071 91.132C265.52 91.804 264.704 92.14 263.621 92.14ZM263.621 91.356C264.414 91.356 264.993 91.0993 265.357 90.586C265.73 90.0633 265.917 89.2467 265.917 88.136C265.917 87.0347 265.73 86.2273 265.357 85.714C264.993 85.2007 264.414 84.944 263.621 84.944C262.828 84.944 262.244 85.2007 261.871 85.714C261.507 86.2273 261.325 87.0347 261.325 88.136C261.325 89.2467 261.507 90.0633 261.871 90.586C262.244 91.0993 262.828 91.356 263.621 91.356ZM271.291 92.14C270.208 92.14 269.392 91.804 268.841 91.132C268.29 90.46 268.015 89.4613 268.015 88.136C268.015 85.4853 269.107 84.16 271.291 84.16C273.475 84.16 274.567 85.4853 274.567 88.136C274.567 89.4613 274.292 90.46 273.741 91.132C273.19 91.804 272.374 92.14 271.291 92.14ZM271.291 91.356C272.084 91.356 272.663 91.0993 273.027 90.586C273.4 90.0633 273.587 89.2467 273.587 88.136C273.587 87.0347 273.4 86.2273 273.027 85.714C272.663 85.2007 272.084 84.944 271.291 84.944C270.498 84.944 269.914 85.2007 269.541 85.714C269.177 86.2273 268.995 87.0347 268.995 88.136C268.995 89.2467 269.177 90.0633 269.541 90.586C269.914 91.0993 270.498 91.356 271.291 91.356ZM277.225 92C276.805 92 276.595 91.79 276.595 91.37V91.244C276.595 90.824 276.805 90.614 277.225 90.614H277.337C277.757 90.614 277.967 90.824 277.967 91.244V91.37C277.967 91.79 277.757 92 277.337 92H277.225Z" fill="#79A3B5"/>
<path opacity="0.3" fill-rule="evenodd" clip-rule="evenodd" d="M3.27427 18.3143C3.14289 18.6428 3.38477 19 3.73851 19H8.49999C8.77613 19 8.99999 18.7762 8.99999 18.5V6.59631C8.99999 6.04578 8.24021 5.89947 8.03575 6.41062L3.27427 18.3143Z" fill="#4BB59B"/>
<path fill-rule="evenodd" clip-rule="evenodd" d="M20.7257 18.3143C20.8571 18.6427 20.6152 19 20.2615 19H15.5C15.2239 19 15 18.7761 15 18.5V6.59629C15 6.04576 15.7598 5.89944 15.9642 6.4106L20.7257 18.3143Z" fill="#4BB59B"/>
<rect opacity="0.3" x="11" y="2" width="2" height="20" rx="1" fill="#4BB59B"/>
</svg>
