<svg width="299" height="106" viewBox="0 0 299 106" fill="none" xmlns="http://www.w3.org/2000/svg">
<path d="M61.81 16L60.262 12.022H55.168L53.638 16H52L57.022 3.094H58.48L63.484 16H61.81ZM58.336 6.694C58.3 6.598 58.24 6.424 58.156 6.172C58.072 5.92 57.988 5.662 57.904 5.398C57.832 5.122 57.772 4.912 57.724 4.768C57.64 5.14 57.544 5.506 57.436 5.866C57.328 6.214 57.238 6.49 57.166 6.694L55.708 10.582H59.776L58.336 6.694ZM68.4461 16.18C67.2461 16.18 66.2861 15.766 65.5661 14.938C64.8461 14.098 64.4861 12.85 64.4861 11.194C64.4861 9.538 64.8461 8.29 65.5661 7.45C66.2981 6.598 67.2641 6.172 68.4641 6.172C69.2081 6.172 69.8141 6.31 70.2821 6.586C70.7621 6.862 71.1521 7.198 71.4521 7.594H71.5601C71.5481 7.438 71.5241 7.21 71.4881 6.91C71.4641 6.598 71.4521 6.352 71.4521 6.172V2.32H73.0361V16H71.7581L71.5241 14.704H71.4521C71.1641 15.112 70.7801 15.46 70.3001 15.748C69.8201 16.036 69.2021 16.18 68.4461 16.18ZM68.6981 14.866C69.7181 14.866 70.4321 14.59 70.8401 14.038C71.2601 13.474 71.4701 12.628 71.4701 11.5V11.212C71.4701 10.012 71.2721 9.094 70.8761 8.458C70.4801 7.81 69.7481 7.486 68.6801 7.486C67.8281 7.486 67.1861 7.828 66.7541 8.512C66.3341 9.184 66.1241 10.09 66.1241 11.23C66.1241 12.382 66.3341 13.276 66.7541 13.912C67.1861 14.548 67.8341 14.866 68.6981 14.866ZM78.2243 16L74.5703 6.352H76.2623L78.3143 12.04C78.4103 12.304 78.5123 12.598 78.6203 12.922C78.7283 13.246 78.8243 13.558 78.9083 13.858C78.9923 14.146 79.0523 14.392 79.0883 14.596H79.1603C79.2083 14.392 79.2743 14.14 79.3583 13.84C79.4543 13.54 79.5563 13.228 79.6643 12.904C79.7843 12.58 79.8863 12.292 79.9703 12.04L82.0223 6.352H83.7143L80.0423 16H78.2243ZM88.9669 6.172C89.7949 6.172 90.5029 6.352 91.0909 6.712C91.6909 7.072 92.1469 7.582 92.4589 8.242C92.7829 8.89 92.9449 9.652 92.9449 10.528V11.482H86.3389C86.3629 12.574 86.6389 13.408 87.1669 13.984C87.7069 14.548 88.4569 14.83 89.4169 14.83C90.0289 14.83 90.5689 14.776 91.0369 14.668C91.5169 14.548 92.0089 14.38 92.5129 14.164V15.55C92.0209 15.766 91.5349 15.922 91.0549 16.018C90.5749 16.126 90.0049 16.18 89.3449 16.18C88.4329 16.18 87.6229 15.994 86.9149 15.622C86.2189 15.25 85.6729 14.698 85.2769 13.966C84.8929 13.222 84.7009 12.316 84.7009 11.248C84.7009 10.192 84.8749 9.286 85.2229 8.53C85.5829 7.774 86.0809 7.192 86.7169 6.784C87.3649 6.376 88.1149 6.172 88.9669 6.172ZM88.9489 7.468C88.1929 7.468 87.5929 7.714 87.1489 8.206C86.7169 8.686 86.4589 9.358 86.3749 10.222H91.2889C91.2769 9.406 91.0849 8.746 90.7129 8.242C90.3409 7.726 89.7529 7.468 88.9489 7.468ZM99.9011 6.172C100.081 6.172 100.273 6.184 100.477 6.208C100.693 6.22 100.879 6.244 101.035 6.28L100.837 7.738C100.681 7.702 100.507 7.672 100.315 7.648C100.135 7.624 99.9611 7.612 99.7931 7.612C99.3011 7.612 98.8391 7.75 98.4071 8.026C97.9751 8.29 97.6271 8.668 97.3631 9.16C97.1111 9.64 96.9851 10.204 96.9851 10.852V16H95.4011V6.352H96.6971L96.8771 8.116H96.9491C97.2611 7.588 97.6631 7.132 98.1551 6.748C98.6471 6.364 99.2291 6.172 99.9011 6.172ZM106.059 14.884C106.299 14.884 106.545 14.866 106.797 14.83C107.049 14.782 107.253 14.734 107.409 14.686V15.892C107.241 15.976 107.001 16.042 106.689 16.09C106.377 16.15 106.077 16.18 105.789 16.18C105.285 16.18 104.817 16.096 104.385 15.928C103.965 15.748 103.623 15.442 103.359 15.01C103.095 14.578 102.963 13.972 102.963 13.192V7.576H101.595V6.82L102.981 6.19L103.611 4.138H104.547V6.352H107.337V7.576H104.547V13.156C104.547 13.744 104.685 14.182 104.961 14.47C105.249 14.746 105.615 14.884 106.059 14.884ZM110.151 2.734C110.391 2.734 110.601 2.818 110.781 2.986C110.973 3.142 111.069 3.394 111.069 3.742C111.069 4.078 110.973 4.33 110.781 4.498C110.601 4.666 110.391 4.75 110.151 4.75C109.887 4.75 109.665 4.666 109.485 4.498C109.305 4.33 109.215 4.078 109.215 3.742C109.215 3.394 109.305 3.142 109.485 2.986C109.665 2.818 109.887 2.734 110.151 2.734ZM110.925 6.352V16H109.341V6.352H110.925ZM120.263 13.336C120.263 14.272 119.915 14.98 119.219 15.46C118.523 15.94 117.587 16.18 116.411 16.18C115.739 16.18 115.157 16.126 114.665 16.018C114.185 15.91 113.759 15.76 113.387 15.568V14.128C113.771 14.32 114.233 14.5 114.773 14.668C115.325 14.824 115.883 14.902 116.447 14.902C117.251 14.902 117.833 14.776 118.193 14.524C118.553 14.26 118.733 13.912 118.733 13.48C118.733 13.24 118.667 13.024 118.535 12.832C118.403 12.64 118.163 12.448 117.815 12.256C117.479 12.064 116.993 11.848 116.357 11.608C115.733 11.368 115.199 11.128 114.755 10.888C114.311 10.648 113.969 10.36 113.729 10.024C113.489 9.688 113.369 9.256 113.369 8.728C113.369 7.912 113.699 7.282 114.359 6.838C115.031 6.394 115.907 6.172 116.987 6.172C117.575 6.172 118.121 6.232 118.625 6.352C119.141 6.46 119.621 6.616 120.065 6.82L119.525 8.08C119.117 7.912 118.691 7.768 118.247 7.648C117.803 7.528 117.347 7.468 116.879 7.468C116.231 7.468 115.733 7.576 115.385 7.792C115.049 7.996 114.881 8.278 114.881 8.638C114.881 8.902 114.959 9.13 115.115 9.322C115.271 9.502 115.529 9.682 115.889 9.862C116.261 10.03 116.753 10.234 117.365 10.474C117.977 10.702 118.499 10.936 118.931 11.176C119.363 11.416 119.693 11.71 119.921 12.058C120.149 12.394 120.263 12.82 120.263 13.336ZM126.32 6.172C127.148 6.172 127.856 6.352 128.444 6.712C129.044 7.072 129.5 7.582 129.812 8.242C130.136 8.89 130.298 9.652 130.298 10.528V11.482H123.692C123.716 12.574 123.992 13.408 124.52 13.984C125.06 14.548 125.81 14.83 126.77 14.83C127.382 14.83 127.922 14.776 128.39 14.668C128.87 14.548 129.362 14.38 129.866 14.164V15.55C129.374 15.766 128.888 15.922 128.408 16.018C127.928 16.126 127.358 16.18 126.698 16.18C125.786 16.18 124.976 15.994 124.268 15.622C123.572 15.25 123.026 14.698 122.63 13.966C122.246 13.222 122.054 12.316 122.054 11.248C122.054 10.192 122.228 9.286 122.576 8.53C122.936 7.774 123.434 7.192 124.07 6.784C124.718 6.376 125.468 6.172 126.32 6.172ZM126.302 7.468C125.546 7.468 124.946 7.714 124.502 8.206C124.07 8.686 123.812 9.358 123.728 10.222H128.642C128.63 9.406 128.438 8.746 128.066 8.242C127.694 7.726 127.106 7.468 126.302 7.468ZM143.339 6.172C144.431 6.172 145.247 6.454 145.787 7.018C146.327 7.57 146.597 8.47 146.597 9.718V16H145.031V9.79C145.031 8.266 144.377 7.504 143.069 7.504C142.133 7.504 141.461 7.774 141.053 8.314C140.657 8.854 140.459 9.64 140.459 10.672V16H138.893V9.79C138.893 8.266 138.233 7.504 136.913 7.504C135.941 7.504 135.269 7.804 134.897 8.404C134.525 9.004 134.339 9.868 134.339 10.996V16H132.755V6.352H134.033L134.267 7.666H134.357C134.657 7.162 135.059 6.79 135.563 6.55C136.079 6.298 136.625 6.172 137.201 6.172C138.713 6.172 139.697 6.712 140.153 7.792H140.243C140.567 7.24 141.005 6.832 141.557 6.568C142.121 6.304 142.715 6.172 143.339 6.172ZM153.303 6.172C154.131 6.172 154.839 6.352 155.427 6.712C156.027 7.072 156.483 7.582 156.795 8.242C157.119 8.89 157.281 9.652 157.281 10.528V11.482H150.675C150.699 12.574 150.975 13.408 151.503 13.984C152.043 14.548 152.793 14.83 153.753 14.83C154.365 14.83 154.905 14.776 155.373 14.668C155.853 14.548 156.345 14.38 156.849 14.164V15.55C156.357 15.766 155.871 15.922 155.391 16.018C154.911 16.126 154.341 16.18 153.681 16.18C152.769 16.18 151.959 15.994 151.251 15.622C150.555 15.25 150.009 14.698 149.613 13.966C149.229 13.222 149.037 12.316 149.037 11.248C149.037 10.192 149.211 9.286 149.559 8.53C149.919 7.774 150.417 7.192 151.053 6.784C151.701 6.376 152.451 6.172 153.303 6.172ZM153.285 7.468C152.529 7.468 151.929 7.714 151.485 8.206C151.053 8.686 150.795 9.358 150.711 10.222H155.625C155.613 9.406 155.421 8.746 155.049 8.242C154.677 7.726 154.089 7.468 153.285 7.468ZM164.381 6.172C165.533 6.172 166.403 6.454 166.991 7.018C167.579 7.57 167.873 8.47 167.873 9.718V16H166.307V9.826C166.307 8.278 165.587 7.504 164.147 7.504C163.079 7.504 162.341 7.804 161.933 8.404C161.525 9.004 161.321 9.868 161.321 10.996V16H159.737V6.352H161.015L161.249 7.666H161.339C161.651 7.162 162.083 6.79 162.635 6.55C163.187 6.298 163.769 6.172 164.381 6.172ZM174.086 14.884C174.326 14.884 174.572 14.866 174.824 14.83C175.076 14.782 175.28 14.734 175.436 14.686V15.892C175.268 15.976 175.028 16.042 174.716 16.09C174.404 16.15 174.104 16.18 173.816 16.18C173.312 16.18 172.844 16.096 172.412 15.928C171.992 15.748 171.65 15.442 171.386 15.01C171.122 14.578 170.99 13.972 170.99 13.192V7.576H169.622V6.82L171.008 6.19L171.638 4.138H172.574V6.352H175.364V7.576H172.574V13.156C172.574 13.744 172.712 14.182 172.988 14.47C173.276 14.746 173.642 14.884 174.086 14.884ZM183.65 13.336C183.65 14.272 183.302 14.98 182.606 15.46C181.91 15.94 180.974 16.18 179.798 16.18C179.126 16.18 178.544 16.126 178.052 16.018C177.572 15.91 177.146 15.76 176.774 15.568V14.128C177.158 14.32 177.62 14.5 178.16 14.668C178.712 14.824 179.27 14.902 179.834 14.902C180.638 14.902 181.22 14.776 181.58 14.524C181.94 14.26 182.12 13.912 182.12 13.48C182.12 13.24 182.054 13.024 181.922 12.832C181.79 12.64 181.55 12.448 181.202 12.256C180.866 12.064 180.38 11.848 179.744 11.608C179.12 11.368 178.586 11.128 178.142 10.888C177.698 10.648 177.356 10.36 177.116 10.024C176.876 9.688 176.756 9.256 176.756 8.728C176.756 7.912 177.086 7.282 177.746 6.838C178.418 6.394 179.294 6.172 180.374 6.172C180.962 6.172 181.508 6.232 182.012 6.352C182.528 6.46 183.008 6.616 183.452 6.82L182.912 8.08C182.504 7.912 182.078 7.768 181.634 7.648C181.19 7.528 180.734 7.468 180.266 7.468C179.618 7.468 179.12 7.576 178.772 7.792C178.436 7.996 178.268 8.278 178.268 8.638C178.268 8.902 178.346 9.13 178.502 9.322C178.658 9.502 178.916 9.682 179.276 9.862C179.648 10.03 180.14 10.234 180.752 10.474C181.364 10.702 181.886 10.936 182.318 11.176C182.75 11.416 183.08 11.71 183.308 12.058C183.536 12.394 183.65 12.82 183.65 13.336Z" fill="#4BB59B"/>
<path d="M56.928 48.14C55.5933 48.14 54.5573 47.7013 53.82 46.824C53.092 45.9467 52.728 44.7053 52.728 43.1C52.728 41.4853 53.092 40.244 53.82 39.376C54.548 38.4987 55.584 38.06 56.928 38.06C57.4693 38.06 57.9733 38.1533 58.44 38.34C58.9067 38.5173 59.308 38.7833 59.644 39.138C59.588 39.3153 59.5087 39.4507 59.406 39.544C59.3033 39.6373 59.1867 39.684 59.056 39.684C58.9253 39.684 58.804 39.642 58.692 39.558C58.188 39.166 57.5907 38.97 56.9 38.97C55.8733 38.97 55.094 39.32 54.562 40.02C54.03 40.72 53.764 41.7467 53.764 43.1C53.764 44.444 54.03 45.466 54.562 46.166C55.094 46.866 55.8733 47.216 56.9 47.216C57.3387 47.216 57.7307 47.1553 58.076 47.034C58.4307 46.9127 58.7807 46.712 59.126 46.432C59.2473 46.4413 59.35 46.4927 59.434 46.586C59.518 46.67 59.56 46.7773 59.56 46.908C59.56 47.1227 59.434 47.3233 59.182 47.51C58.9393 47.6967 58.6127 47.8507 58.202 47.972C57.8007 48.084 57.376 48.14 56.928 48.14ZM64.1758 48.14C63.0932 48.14 62.2765 47.804 61.7258 47.132C61.1752 46.46 60.8998 45.4613 60.8998 44.136C60.8998 41.4853 61.9918 40.16 64.1758 40.16C66.3598 40.16 67.4518 41.4853 67.4518 44.136C67.4518 45.4613 67.1765 46.46 66.6258 47.132C66.0752 47.804 65.2585 48.14 64.1758 48.14ZM64.1758 47.356C64.9692 47.356 65.5478 47.0993 65.9118 46.586C66.2852 46.0633 66.4718 45.2467 66.4718 44.136C66.4718 43.0347 66.2852 42.2273 65.9118 41.714C65.5478 41.2007 64.9692 40.944 64.1758 40.944C63.3825 40.944 62.7992 41.2007 62.4258 41.714C62.0618 42.2273 61.8798 43.0347 61.8798 44.136C61.8798 45.2467 62.0618 46.0633 62.4258 46.586C62.7992 47.0993 63.3825 47.356 64.1758 47.356ZM77.2638 40.16C77.9264 40.16 78.4631 40.3747 78.8738 40.804C79.2938 41.2333 79.5038 41.7887 79.5038 42.47V48H78.5378V42.512C78.5378 41.9707 78.4164 41.5693 78.1738 41.308C77.9311 41.0467 77.5624 40.916 77.0678 40.916C76.2744 40.916 75.5371 41.28 74.8558 42.008C74.8744 42.1573 74.8838 42.2693 74.8838 42.344V48H73.9318V42.372C73.9318 41.9333 73.7964 41.5833 73.5258 41.322C73.2644 41.0513 72.9144 40.916 72.4758 40.916C72.0744 40.916 71.6918 41.0047 71.3278 41.182C70.9731 41.3593 70.6138 41.644 70.2498 42.036V48H69.2978V42.918C69.2978 41.5367 69.2418 40.7153 69.1298 40.454C69.4284 40.314 69.6664 40.244 69.8438 40.244C70.1144 40.244 70.2498 40.5147 70.2498 41.056V41.112C70.6044 40.776 70.9684 40.5333 71.3418 40.384C71.7244 40.2347 72.1584 40.16 72.6438 40.16C73.0824 40.16 73.4744 40.2627 73.8198 40.468C74.1651 40.664 74.4311 40.9347 74.6178 41.28C75.0191 40.888 75.4251 40.6033 75.8358 40.426C76.2558 40.2487 76.7318 40.16 77.2638 40.16ZM85.3713 40.16C86.4166 40.16 87.2146 40.5053 87.7653 41.196C88.316 41.8773 88.5913 42.8573 88.5913 44.136C88.5913 44.948 88.4466 45.6573 88.1573 46.264C87.8773 46.8613 87.4666 47.3233 86.9253 47.65C86.3933 47.9767 85.768 48.14 85.0493 48.14C84.6946 48.14 84.3353 48.1027 83.9713 48.028C83.6166 47.9627 83.2993 47.874 83.0193 47.762V51.08H82.0673V42.918C82.0673 41.5367 82.0113 40.7153 81.8993 40.454C82.198 40.314 82.436 40.244 82.6133 40.244C82.884 40.244 83.0193 40.5147 83.0193 41.056V41.112C83.3273 40.804 83.682 40.5707 84.0833 40.412C84.494 40.244 84.9233 40.16 85.3713 40.16ZM85.0493 47.356C85.852 47.356 86.4726 47.076 86.9113 46.516C87.3593 45.956 87.5833 45.1627 87.5833 44.136C87.5833 42.008 86.846 40.944 85.3713 40.944C84.942 40.944 84.522 41.042 84.1113 41.238C83.71 41.434 83.346 41.714 83.0193 42.078V46.936C83.598 47.216 84.2746 47.356 85.0493 47.356ZM95.8105 46.082C95.8105 46.5113 95.8432 46.852 95.9085 47.104C95.9832 47.3467 96.1092 47.566 96.2865 47.762C96.1932 47.8553 96.0812 47.93 95.9505 47.986C95.8292 48.042 95.7125 48.07 95.6005 48.07C95.4138 48.07 95.2552 47.9627 95.1245 47.748C95.0032 47.5333 94.9238 47.2393 94.8865 46.866C94.5972 47.258 94.2098 47.5707 93.7245 47.804C93.2392 48.028 92.7305 48.14 92.1985 48.14C91.4892 48.14 90.9198 47.958 90.4905 47.594C90.0612 47.2207 89.8465 46.7353 89.8465 46.138C89.8465 45.2607 90.2712 44.5747 91.1205 44.08C91.9792 43.5853 93.2252 43.3007 94.8585 43.226V42.778C94.8585 42.162 94.6998 41.7047 94.3825 41.406C94.0745 41.098 93.6032 40.944 92.9685 40.944C92.5578 40.944 92.1752 41.0327 91.8205 41.21C91.4752 41.378 91.1018 41.6627 90.7005 42.064C90.6445 42.12 90.5745 42.148 90.4905 42.148C90.3972 42.148 90.2945 42.1107 90.1825 42.036C90.0705 41.952 89.9632 41.8353 89.8605 41.686C90.2805 41.1913 90.7565 40.8133 91.2885 40.552C91.8298 40.2907 92.4038 40.16 93.0105 40.16C93.8785 40.16 94.5598 40.3933 95.0545 40.86C95.5585 41.3267 95.8105 41.966 95.8105 42.778V46.082ZM92.2685 47.356C92.7725 47.356 93.2485 47.216 93.6965 46.936C94.1445 46.656 94.5318 46.2593 94.8585 45.746V44.01C92.1705 44.122 90.8265 44.8267 90.8265 46.124C90.8265 46.9453 91.3072 47.356 92.2685 47.356ZM104.233 46.208C104.233 46.7773 104.238 47.1647 104.247 47.37C104.266 47.566 104.303 47.7433 104.359 47.902C104.135 48.014 103.892 48.07 103.631 48.07C103.491 48.07 103.398 47.972 103.351 47.776C103.304 47.5707 103.281 47.1693 103.281 46.572V42.778C103.281 42.1247 103.16 41.6533 102.917 41.364C102.674 41.0653 102.282 40.916 101.741 40.916C100.901 40.916 100.042 41.3313 99.1651 42.162V48H98.2131V42.918C98.2131 41.5367 98.1571 40.7153 98.0451 40.454C98.3438 40.314 98.5818 40.244 98.7591 40.244C99.0298 40.244 99.1651 40.5147 99.1651 41.056V41.182C99.5945 40.8273 100.024 40.5707 100.453 40.412C100.892 40.244 101.354 40.16 101.839 40.16C102.642 40.16 103.239 40.3793 103.631 40.818C104.032 41.2473 104.233 41.9053 104.233 42.792V46.208ZM107.038 40.3H107.99V48H107.038V40.3ZM107.458 38.886C107.038 38.886 106.828 38.676 106.828 38.256V38.13C106.828 37.71 107.038 37.5 107.458 37.5H107.57C107.99 37.5 108.2 37.71 108.2 38.13V38.256C108.2 38.676 107.99 38.886 107.57 38.886H107.458ZM116.811 43.604C116.811 43.8187 116.802 44.0333 116.783 44.248H111.211C111.23 45.2187 111.445 45.9747 111.855 46.516C112.275 47.0573 112.854 47.328 113.591 47.328C114.095 47.328 114.52 47.23 114.865 47.034C115.22 46.838 115.514 46.5253 115.747 46.096C115.813 45.9747 115.911 45.914 116.041 45.914C116.191 45.914 116.396 46.0027 116.657 46.18C116.452 46.7867 116.074 47.2673 115.523 47.622C114.973 47.9673 114.329 48.14 113.591 48.14C112.91 48.14 112.313 47.9813 111.799 47.664C111.295 47.3373 110.908 46.8753 110.637 46.278C110.367 45.6713 110.231 44.9573 110.231 44.136C110.231 42.8947 110.539 41.924 111.155 41.224C111.771 40.5147 112.616 40.16 113.689 40.16C114.669 40.16 115.435 40.4633 115.985 41.07C116.536 41.6767 116.811 42.5213 116.811 43.604ZM115.831 43.492C115.831 41.812 115.103 40.972 113.647 40.972C112.938 40.972 112.378 41.1867 111.967 41.616C111.557 42.0453 111.314 42.6707 111.239 43.492H115.831ZM120.795 48.14C120.375 48.14 119.941 48.07 119.493 47.93C119.045 47.79 118.672 47.6033 118.373 47.37C118.075 47.1367 117.925 46.8893 117.925 46.628C117.925 46.5067 117.963 46.3993 118.037 46.306C118.121 46.2033 118.224 46.1333 118.345 46.096C118.681 46.5347 119.045 46.8567 119.437 47.062C119.829 47.258 120.301 47.356 120.851 47.356C121.439 47.356 121.883 47.2207 122.181 46.95C122.489 46.6793 122.643 46.32 122.643 45.872C122.643 45.5733 122.55 45.3307 122.363 45.144C122.186 44.9573 121.962 44.8173 121.691 44.724C121.43 44.6307 121.066 44.5233 120.599 44.402C120.058 44.262 119.619 44.1267 119.283 43.996C118.957 43.8653 118.677 43.6693 118.443 43.408C118.219 43.1373 118.107 42.778 118.107 42.33C118.107 41.854 118.233 41.4527 118.485 41.126C118.737 40.7993 119.059 40.5567 119.451 40.398C119.843 40.2393 120.245 40.16 120.655 40.16C121.243 40.16 121.775 40.2767 122.251 40.51C122.737 40.7433 123.115 41.084 123.385 41.532C123.161 41.7653 122.97 41.882 122.811 41.882C122.69 41.882 122.573 41.8167 122.461 41.686C122.237 41.4247 121.976 41.2333 121.677 41.112C121.388 40.9813 121.033 40.916 120.613 40.916C120.137 40.916 119.759 41.028 119.479 41.252C119.199 41.476 119.059 41.8213 119.059 42.288C119.059 42.5587 119.143 42.778 119.311 42.946C119.479 43.114 119.689 43.2447 119.941 43.338C120.193 43.422 120.539 43.52 120.977 43.632C121.537 43.7627 121.99 43.898 122.335 44.038C122.69 44.178 122.989 44.3973 123.231 44.696C123.474 44.9853 123.595 45.3773 123.595 45.872C123.595 46.5627 123.339 47.1133 122.825 47.524C122.321 47.9347 121.645 48.14 120.795 48.14ZM135.19 39.894C135.358 39.894 135.479 39.9407 135.554 40.034C135.638 40.118 135.68 40.258 135.68 40.454C135.68 40.51 135.67 40.622 135.652 40.79C134.961 40.79 134.48 40.8833 134.21 41.07C134.583 41.518 134.77 42.0733 134.77 42.736C134.77 44.528 133.738 45.424 131.676 45.424C131.041 45.424 130.574 45.4707 130.276 45.564C129.986 45.648 129.842 45.7833 129.842 45.97C129.842 46.39 130.593 46.6 132.096 46.6C133.15 46.6 133.967 46.7773 134.546 47.132C135.124 47.4867 135.414 47.9907 135.414 48.644C135.414 49.344 135.101 49.8807 134.476 50.254C133.86 50.6367 132.973 50.828 131.816 50.828C130.724 50.828 129.893 50.66 129.324 50.324C128.754 49.988 128.47 49.4933 128.47 48.84C128.47 48.4667 128.596 48.1353 128.848 47.846C129.109 47.5567 129.468 47.342 129.926 47.202V47.16C129.646 47.0853 129.422 46.95 129.254 46.754C129.086 46.5487 129.002 46.306 129.002 46.026C129.002 45.7927 129.095 45.5873 129.282 45.41C129.468 45.2233 129.72 45.0973 130.038 45.032C129.636 44.808 129.324 44.514 129.1 44.15C128.885 43.7767 128.778 43.3613 128.778 42.904C128.778 41.0747 129.832 40.16 131.942 40.16C132.604 40.16 133.169 40.3047 133.636 40.594C133.869 40.3793 134.121 40.2113 134.392 40.09C134.672 39.9593 134.938 39.894 135.19 39.894ZM131.76 44.64C132.478 44.64 132.992 44.5 133.3 44.22C133.617 43.9307 133.776 43.4547 133.776 42.792C133.776 42.1387 133.617 41.6627 133.3 41.364C132.982 41.0653 132.469 40.916 131.76 40.916C131.069 40.916 130.56 41.07 130.234 41.378C129.916 41.6767 129.758 42.148 129.758 42.792C129.758 44.024 130.425 44.64 131.76 44.64ZM131.872 47.468C131.078 47.468 130.476 47.5753 130.066 47.79C129.664 48.0047 129.464 48.3173 129.464 48.728C129.464 49.1573 129.664 49.484 130.066 49.708C130.467 49.932 131.05 50.044 131.816 50.044C132.674 50.044 133.323 49.932 133.762 49.708C134.2 49.4933 134.42 49.1667 134.42 48.728C134.42 48.28 134.219 47.958 133.818 47.762C133.426 47.566 132.777 47.468 131.872 47.468ZM143.239 43.604C143.239 43.8187 143.23 44.0333 143.211 44.248H137.639C137.658 45.2187 137.872 45.9747 138.283 46.516C138.703 47.0573 139.282 47.328 140.019 47.328C140.523 47.328 140.948 47.23 141.293 47.034C141.648 46.838 141.942 46.5253 142.175 46.096C142.24 45.9747 142.338 45.914 142.469 45.914C142.618 45.914 142.824 46.0027 143.085 46.18C142.88 46.7867 142.502 47.2673 141.951 47.622C141.4 47.9673 140.756 48.14 140.019 48.14C139.338 48.14 138.74 47.9813 138.227 47.664C137.723 47.3373 137.336 46.8753 137.065 46.278C136.794 45.6713 136.659 44.9573 136.659 44.136C136.659 42.8947 136.967 41.924 137.583 41.224C138.199 40.5147 139.044 40.16 140.117 40.16C141.097 40.16 141.862 40.4633 142.413 41.07C142.964 41.6767 143.239 42.5213 143.239 43.604ZM142.259 43.492C142.259 41.812 141.531 40.972 140.075 40.972C139.366 40.972 138.806 41.1867 138.395 41.616C137.984 42.0453 137.742 42.6707 137.667 43.492H142.259ZM148.581 47.062C148.646 47.1087 148.698 47.1787 148.735 47.272C148.782 47.356 148.805 47.4447 148.805 47.538C148.805 47.7153 148.73 47.8413 148.581 47.916C148.282 48.0653 147.895 48.14 147.419 48.14C146.812 48.14 146.327 47.9767 145.963 47.65C145.599 47.314 145.417 46.866 145.417 46.306V41.056H143.961V40.3H145.417V38.2H146.369V40.3H148.385V41.056H146.369V46.124C146.369 46.908 146.705 47.3 147.377 47.3C147.806 47.3 148.208 47.2207 148.581 47.062ZM156.475 48.14C155.392 48.14 154.575 47.804 154.025 47.132C153.474 46.46 153.199 45.4613 153.199 44.136C153.199 41.4853 154.291 40.16 156.475 40.16C158.659 40.16 159.751 41.4853 159.751 44.136C159.751 45.4613 159.475 46.46 158.925 47.132C158.374 47.804 157.557 48.14 156.475 48.14ZM156.475 47.356C157.268 47.356 157.847 47.0993 158.211 46.586C158.584 46.0633 158.771 45.2467 158.771 44.136C158.771 43.0347 158.584 42.2273 158.211 41.714C157.847 41.2007 157.268 40.944 156.475 40.944C155.681 40.944 155.098 41.2007 154.725 41.714C154.361 42.2273 154.179 43.0347 154.179 44.136C154.179 45.2467 154.361 46.0633 154.725 46.586C155.098 47.0993 155.681 47.356 156.475 47.356ZM164.593 40.202C164.919 40.202 165.167 40.258 165.335 40.37C165.512 40.4727 165.601 40.6313 165.601 40.846C165.601 40.9953 165.549 41.1307 165.447 41.252C165.223 41.1307 164.915 41.07 164.523 41.07C163.897 41.07 163.393 41.3173 163.011 41.812C162.637 42.3067 162.451 42.9553 162.451 43.758V48H161.499V40.3H162.451V41.686C162.665 41.2567 162.969 40.902 163.361 40.622C163.753 40.342 164.163 40.202 164.593 40.202ZM173.334 39.894C173.502 39.894 173.623 39.9407 173.698 40.034C173.782 40.118 173.824 40.258 173.824 40.454C173.824 40.51 173.815 40.622 173.796 40.79C173.105 40.79 172.625 40.8833 172.354 41.07C172.727 41.518 172.914 42.0733 172.914 42.736C172.914 44.528 171.883 45.424 169.82 45.424C169.185 45.424 168.719 45.4707 168.42 45.564C168.131 45.648 167.986 45.7833 167.986 45.97C167.986 46.39 168.737 46.6 170.24 46.6C171.295 46.6 172.111 46.7773 172.69 47.132C173.269 47.4867 173.558 47.9907 173.558 48.644C173.558 49.344 173.245 49.8807 172.62 50.254C172.004 50.6367 171.117 50.828 169.96 50.828C168.868 50.828 168.037 50.66 167.468 50.324C166.899 49.988 166.614 49.4933 166.614 48.84C166.614 48.4667 166.74 48.1353 166.992 47.846C167.253 47.5567 167.613 47.342 168.07 47.202V47.16C167.79 47.0853 167.566 46.95 167.398 46.754C167.23 46.5487 167.146 46.306 167.146 46.026C167.146 45.7927 167.239 45.5873 167.426 45.41C167.613 45.2233 167.865 45.0973 168.182 45.032C167.781 44.808 167.468 44.514 167.244 44.15C167.029 43.7767 166.922 43.3613 166.922 42.904C166.922 41.0747 167.977 40.16 170.086 40.16C170.749 40.16 171.313 40.3047 171.78 40.594C172.013 40.3793 172.265 40.2113 172.536 40.09C172.816 39.9593 173.082 39.894 173.334 39.894ZM169.904 44.64C170.623 44.64 171.136 44.5 171.444 44.22C171.761 43.9307 171.92 43.4547 171.92 42.792C171.92 42.1387 171.761 41.6627 171.444 41.364C171.127 41.0653 170.613 40.916 169.904 40.916C169.213 40.916 168.705 41.07 168.378 41.378C168.061 41.6767 167.902 42.148 167.902 42.792C167.902 44.024 168.569 44.64 169.904 44.64ZM170.016 47.468C169.223 47.468 168.621 47.5753 168.21 47.79C167.809 48.0047 167.608 48.3173 167.608 48.728C167.608 49.1573 167.809 49.484 168.21 49.708C168.611 49.932 169.195 50.044 169.96 50.044C170.819 50.044 171.467 49.932 171.906 49.708C172.345 49.4933 172.564 49.1667 172.564 48.728C172.564 48.28 172.363 47.958 171.962 47.762C171.57 47.566 170.921 47.468 170.016 47.468ZM180.768 46.082C180.768 46.5113 180.8 46.852 180.866 47.104C180.94 47.3467 181.066 47.566 181.244 47.762C181.15 47.8553 181.038 47.93 180.908 47.986C180.786 48.042 180.67 48.07 180.558 48.07C180.371 48.07 180.212 47.9627 180.082 47.748C179.96 47.5333 179.881 47.2393 179.844 46.866C179.554 47.258 179.167 47.5707 178.682 47.804C178.196 48.028 177.688 48.14 177.156 48.14C176.446 48.14 175.877 47.958 175.448 47.594C175.018 47.2207 174.804 46.7353 174.804 46.138C174.804 45.2607 175.228 44.5747 176.078 44.08C176.936 43.5853 178.182 43.3007 179.816 43.226V42.778C179.816 42.162 179.657 41.7047 179.34 41.406C179.032 41.098 178.56 40.944 177.926 40.944C177.515 40.944 177.132 41.0327 176.778 41.21C176.432 41.378 176.059 41.6627 175.658 42.064C175.602 42.12 175.532 42.148 175.448 42.148C175.354 42.148 175.252 42.1107 175.14 42.036C175.028 41.952 174.92 41.8353 174.818 41.686C175.238 41.1913 175.714 40.8133 176.246 40.552C176.787 40.2907 177.361 40.16 177.968 40.16C178.836 40.16 179.517 40.3933 180.012 40.86C180.516 41.3267 180.768 41.966 180.768 42.778V46.082ZM177.226 47.356C177.73 47.356 178.206 47.216 178.654 46.936C179.102 46.656 179.489 46.2593 179.816 45.746V44.01C177.128 44.122 175.784 44.8267 175.784 46.124C175.784 46.9453 176.264 47.356 177.226 47.356ZM189.19 46.208C189.19 46.7773 189.195 47.1647 189.204 47.37C189.223 47.566 189.26 47.7433 189.316 47.902C189.092 48.014 188.849 48.07 188.588 48.07C188.448 48.07 188.355 47.972 188.308 47.776C188.261 47.5707 188.238 47.1693 188.238 46.572V42.778C188.238 42.1247 188.117 41.6533 187.874 41.364C187.631 41.0653 187.239 40.916 186.698 40.916C185.858 40.916 184.999 41.3313 184.122 42.162V48H183.17V42.918C183.17 41.5367 183.114 40.7153 183.002 40.454C183.301 40.314 183.539 40.244 183.716 40.244C183.987 40.244 184.122 40.5147 184.122 41.056V41.182C184.551 40.8273 184.981 40.5707 185.41 40.412C185.849 40.244 186.311 40.16 186.796 40.16C187.599 40.16 188.196 40.3793 188.588 40.818C188.989 41.2473 189.19 41.9053 189.19 42.792V46.208ZM191.995 40.3H192.947V48H191.995V40.3ZM192.415 38.886C191.995 38.886 191.785 38.676 191.785 38.256V38.13C191.785 37.71 191.995 37.5 192.415 37.5H192.527C192.947 37.5 193.157 37.71 193.157 38.13V38.256C193.157 38.676 192.947 38.886 192.527 38.886H192.415ZM198.632 48.14C197.503 48.14 196.621 47.7853 195.986 47.076C195.361 46.3667 195.048 45.3773 195.048 44.108C195.048 43.3053 195.188 42.61 195.468 42.022C195.758 41.4247 196.168 40.9673 196.7 40.65C197.232 40.3233 197.858 40.16 198.576 40.16C199.435 40.16 200.14 40.3793 200.69 40.818C201.25 41.2473 201.577 41.8353 201.67 42.582C201.586 42.6193 201.47 42.6567 201.32 42.694C201.18 42.7313 201.064 42.75 200.97 42.75C200.877 42.75 200.807 42.7267 200.76 42.68C200.723 42.624 200.681 42.512 200.634 42.344C200.532 41.9053 200.298 41.5647 199.934 41.322C199.57 41.07 199.118 40.944 198.576 40.944C198.072 40.944 197.624 41.0747 197.232 41.336C196.85 41.5973 196.551 41.9707 196.336 42.456C196.131 42.932 196.028 43.4827 196.028 44.108C196.028 45.0973 196.262 45.886 196.728 46.474C197.204 47.062 197.839 47.356 198.632 47.356C199.239 47.356 199.757 47.216 200.186 46.936C200.616 46.6467 200.938 46.2267 201.152 45.676C201.283 45.676 201.39 45.732 201.474 45.844C201.568 45.956 201.614 46.0867 201.614 46.236C201.614 46.5627 201.474 46.8753 201.194 47.174C200.924 47.4633 200.555 47.6967 200.088 47.874C199.631 48.0513 199.146 48.14 198.632 48.14ZM209.953 48.14C208.823 48.14 207.941 47.7853 207.307 47.076C206.681 46.3667 206.369 45.3773 206.369 44.108C206.369 43.3053 206.509 42.61 206.789 42.022C207.078 41.4247 207.489 40.9673 208.021 40.65C208.553 40.3233 209.178 40.16 209.897 40.16C210.755 40.16 211.46 40.3793 212.011 40.818C212.571 41.2473 212.897 41.8353 212.991 42.582C212.907 42.6193 212.79 42.6567 212.641 42.694C212.501 42.7313 212.384 42.75 212.291 42.75C212.197 42.75 212.127 42.7267 212.081 42.68C212.043 42.624 212.001 42.512 211.955 42.344C211.852 41.9053 211.619 41.5647 211.255 41.322C210.891 41.07 210.438 40.944 209.897 40.944C209.393 40.944 208.945 41.0747 208.553 41.336C208.17 41.5973 207.871 41.9707 207.657 42.456C207.451 42.932 207.349 43.4827 207.349 44.108C207.349 45.0973 207.582 45.886 208.049 46.474C208.525 47.062 209.159 47.356 209.953 47.356C210.559 47.356 211.077 47.216 211.507 46.936C211.936 46.6467 212.258 46.2267 212.473 45.676C212.603 45.676 212.711 45.732 212.795 45.844C212.888 45.956 212.935 46.0867 212.935 46.236C212.935 46.5627 212.795 46.8753 212.515 47.174C212.244 47.4633 211.875 47.6967 211.409 47.874C210.951 48.0513 210.466 48.14 209.953 48.14ZM214.92 36.926H215.872V48H214.92V36.926ZM218.806 40.3H219.758V48H218.806V40.3ZM219.226 38.886C218.806 38.886 218.596 38.676 218.596 38.256V38.13C218.596 37.71 218.806 37.5 219.226 37.5H219.338C219.758 37.5 219.968 37.71 219.968 38.13V38.256C219.968 38.676 219.758 38.886 219.338 38.886H219.226ZM225.443 48.14C224.313 48.14 223.431 47.7853 222.797 47.076C222.171 46.3667 221.859 45.3773 221.859 44.108C221.859 43.3053 221.999 42.61 222.279 42.022C222.568 41.4247 222.979 40.9673 223.511 40.65C224.043 40.3233 224.668 40.16 225.387 40.16C226.245 40.16 226.95 40.3793 227.501 40.818C228.061 41.2473 228.387 41.8353 228.481 42.582C228.397 42.6193 228.28 42.6567 228.131 42.694C227.991 42.7313 227.874 42.75 227.781 42.75C227.687 42.75 227.617 42.7267 227.571 42.68C227.533 42.624 227.491 42.512 227.445 42.344C227.342 41.9053 227.109 41.5647 226.745 41.322C226.381 41.07 225.928 40.944 225.387 40.944C224.883 40.944 224.435 41.0747 224.043 41.336C223.66 41.5973 223.361 41.9707 223.147 42.456C222.941 42.932 222.839 43.4827 222.839 44.108C222.839 45.0973 223.072 45.886 223.539 46.474C224.015 47.062 224.649 47.356 225.443 47.356C226.049 47.356 226.567 47.216 226.997 46.936C227.426 46.6467 227.748 46.2267 227.963 45.676C228.093 45.676 228.201 45.732 228.285 45.844C228.378 45.956 228.425 46.0867 228.425 46.236C228.425 46.5627 228.285 46.8753 228.005 47.174C227.734 47.4633 227.365 47.6967 226.899 47.874C226.441 48.0513 225.956 48.14 225.443 48.14ZM236.416 48C236.257 48 236.075 48.0093 235.87 48.028C235.702 48.0467 235.599 48.056 235.562 48.056C235.384 48.056 235.249 47.9813 235.156 47.832L233.35 44.92C233.079 44.4813 232.589 44.276 231.88 44.304L231.236 44.332V48H230.284V36.926H231.236V43.464L231.782 43.45C231.978 43.4407 232.146 43.4033 232.286 43.338C232.426 43.2633 232.552 43.1513 232.664 43.002L234.764 40.3H235.94L233.448 43.352C233.429 43.3707 233.387 43.422 233.322 43.506C233.256 43.5807 233.172 43.646 233.07 43.702C233.527 43.8233 233.858 44.0473 234.064 44.374L236.416 48ZM240.096 48.14C239.676 48.14 239.242 48.07 238.794 47.93C238.346 47.79 237.973 47.6033 237.674 47.37C237.375 47.1367 237.226 46.8893 237.226 46.628C237.226 46.5067 237.263 46.3993 237.338 46.306C237.422 46.2033 237.525 46.1333 237.646 46.096C237.982 46.5347 238.346 46.8567 238.738 47.062C239.13 47.258 239.601 47.356 240.152 47.356C240.74 47.356 241.183 47.2207 241.482 46.95C241.79 46.6793 241.944 46.32 241.944 45.872C241.944 45.5733 241.851 45.3307 241.664 45.144C241.487 44.9573 241.263 44.8173 240.992 44.724C240.731 44.6307 240.367 44.5233 239.9 44.402C239.359 44.262 238.92 44.1267 238.584 43.996C238.257 43.8653 237.977 43.6693 237.744 43.408C237.52 43.1373 237.408 42.778 237.408 42.33C237.408 41.854 237.534 41.4527 237.786 41.126C238.038 40.7993 238.36 40.5567 238.752 40.398C239.144 40.2393 239.545 40.16 239.956 40.16C240.544 40.16 241.076 40.2767 241.552 40.51C242.037 40.7433 242.415 41.084 242.686 41.532C242.462 41.7653 242.271 41.882 242.112 41.882C241.991 41.882 241.874 41.8167 241.762 41.686C241.538 41.4247 241.277 41.2333 240.978 41.112C240.689 40.9813 240.334 40.916 239.914 40.916C239.438 40.916 239.06 41.028 238.78 41.252C238.5 41.476 238.36 41.8213 238.36 42.288C238.36 42.5587 238.444 42.778 238.612 42.946C238.78 43.114 238.99 43.2447 239.242 43.338C239.494 43.422 239.839 43.52 240.278 43.632C240.838 43.7627 241.291 43.898 241.636 44.038C241.991 44.178 242.289 44.3973 242.532 44.696C242.775 44.9853 242.896 45.3773 242.896 45.872C242.896 46.5627 242.639 47.1133 242.126 47.524C241.622 47.9347 240.945 48.14 240.096 48.14ZM251.858 47.062C251.924 47.1087 251.975 47.1787 252.012 47.272C252.059 47.356 252.082 47.4447 252.082 47.538C252.082 47.7153 252.008 47.8413 251.858 47.916C251.56 48.0653 251.172 48.14 250.696 48.14C250.09 48.14 249.604 47.9767 249.24 47.65C248.876 47.314 248.694 46.866 248.694 46.306V41.056H247.238V40.3H248.694V38.2H249.646V40.3H251.662V41.056H249.646V46.124C249.646 46.908 249.982 47.3 250.654 47.3C251.084 47.3 251.485 47.2207 251.858 47.062ZM256.143 48.14C255.06 48.14 254.243 47.804 253.693 47.132C253.142 46.46 252.867 45.4613 252.867 44.136C252.867 41.4853 253.959 40.16 256.143 40.16C258.327 40.16 259.419 41.4853 259.419 44.136C259.419 45.4613 259.143 46.46 258.593 47.132C258.042 47.804 257.225 48.14 256.143 48.14ZM256.143 47.356C256.936 47.356 257.515 47.0993 257.879 46.586C258.252 46.0633 258.439 45.2467 258.439 44.136C258.439 43.0347 258.252 42.2273 257.879 41.714C257.515 41.2007 256.936 40.944 256.143 40.944C255.349 40.944 254.766 41.2007 254.393 41.714C254.029 42.2273 253.847 43.0347 253.847 44.136C253.847 45.2467 254.029 46.0633 254.393 46.586C254.766 47.0993 255.349 47.356 256.143 47.356ZM267.422 48.14C266.339 48.14 265.523 47.804 264.972 47.132C264.421 46.46 264.146 45.4613 264.146 44.136C264.146 41.4853 265.238 40.16 267.422 40.16C269.606 40.16 270.698 41.4853 270.698 44.136C270.698 45.4613 270.423 46.46 269.872 47.132C269.321 47.804 268.505 48.14 267.422 48.14ZM267.422 47.356C268.215 47.356 268.794 47.0993 269.158 46.586C269.531 46.0633 269.718 45.2467 269.718 44.136C269.718 43.0347 269.531 42.2273 269.158 41.714C268.794 41.2007 268.215 40.944 267.422 40.944C266.629 40.944 266.045 41.2007 265.672 41.714C265.308 42.2273 265.126 43.0347 265.126 44.136C265.126 45.2467 265.308 46.0633 265.672 46.586C266.045 47.0993 266.629 47.356 267.422 47.356ZM281.364 40.3C280.991 43.1373 280.281 45.704 279.236 48H278.368C277.883 46.936 277.495 45.9653 277.206 45.088C276.926 44.2107 276.707 43.296 276.548 42.344C276.38 43.3147 276.151 44.2433 275.862 45.13C275.573 46.0073 275.185 46.964 274.7 48H273.804C273.309 46.9453 272.894 45.8067 272.558 44.584C272.231 43.3613 271.951 41.9333 271.718 40.3H272.698C272.857 41.6627 273.057 42.8573 273.3 43.884C273.552 44.9013 273.879 45.8487 274.28 46.726C275.176 44.8873 275.783 42.7453 276.1 40.3H277.024C277.36 42.8293 277.962 44.9807 278.83 46.754C279.642 44.8127 280.123 42.6613 280.272 40.3H281.364ZM289.173 46.208C289.173 46.7773 289.177 47.1647 289.187 47.37C289.205 47.566 289.243 47.7433 289.299 47.902C289.075 48.014 288.832 48.07 288.571 48.07C288.431 48.07 288.337 47.972 288.291 47.776C288.244 47.5707 288.221 47.1693 288.221 46.572V42.778C288.221 42.1247 288.099 41.6533 287.857 41.364C287.614 41.0653 287.222 40.916 286.681 40.916C285.841 40.916 284.982 41.3313 284.105 42.162V48H283.153V42.918C283.153 41.5367 283.097 40.7153 282.985 40.454C283.283 40.314 283.521 40.244 283.699 40.244C283.969 40.244 284.105 40.5147 284.105 41.056V41.182C284.534 40.8273 284.963 40.5707 285.393 40.412C285.831 40.244 286.293 40.16 286.779 40.16C287.581 40.16 288.179 40.3793 288.571 40.818C288.972 41.2473 289.173 41.9053 289.173 42.792V46.208ZM53.4 58.926H54.352V70H53.4V58.926ZM57.2861 62.3H58.2381V70H57.2861V62.3ZM57.7061 60.886C57.2861 60.886 57.0761 60.676 57.0761 60.256V60.13C57.0761 59.71 57.2861 59.5 57.7061 59.5H57.8181C58.2381 59.5 58.4481 59.71 58.4481 60.13V60.256C58.4481 60.676 58.2381 60.886 57.8181 60.886H57.7061ZM67.0593 68.208C67.0593 68.7773 67.064 69.1647 67.0733 69.37C67.092 69.566 67.1293 69.7433 67.1853 69.902C66.9613 70.014 66.7186 70.07 66.4573 70.07C66.3173 70.07 66.224 69.972 66.1773 69.776C66.1306 69.5707 66.1073 69.1693 66.1073 68.572V64.778C66.1073 64.1247 65.986 63.6533 65.7433 63.364C65.5006 63.0653 65.1086 62.916 64.5673 62.916C63.7273 62.916 62.8686 63.3313 61.9913 64.162V70H61.0393V64.918C61.0393 63.5367 60.9833 62.7153 60.8713 62.454C61.17 62.314 61.408 62.244 61.5853 62.244C61.856 62.244 61.9913 62.5147 61.9913 63.056V63.182C62.4206 62.8273 62.85 62.5707 63.2793 62.412C63.718 62.244 64.18 62.16 64.6653 62.16C65.468 62.16 66.0653 62.3793 66.4573 62.818C66.8586 63.2473 67.0593 63.9053 67.0593 64.792V68.208ZM75.7302 70C75.5716 70 75.3896 70.0093 75.1842 70.028C75.0162 70.0467 74.9136 70.056 74.8762 70.056C74.6989 70.056 74.5636 69.9813 74.4702 69.832L72.6642 66.92C72.3936 66.4813 71.9036 66.276 71.1942 66.304L70.5502 66.332V70H69.5982V58.926H70.5502V65.464L71.0962 65.45C71.2922 65.4407 71.4602 65.4033 71.6002 65.338C71.7402 65.2633 71.8662 65.1513 71.9782 65.002L74.0782 62.3H75.2542L72.7622 65.352C72.7436 65.3707 72.7016 65.422 72.6362 65.506C72.5709 65.5807 72.4869 65.646 72.3842 65.702C72.8416 65.8233 73.1729 66.0473 73.3782 66.374L75.7302 70ZM79.4105 70.14C78.9905 70.14 78.5565 70.07 78.1085 69.93C77.6605 69.79 77.2871 69.6033 76.9885 69.37C76.6898 69.1367 76.5405 68.8893 76.5405 68.628C76.5405 68.5067 76.5778 68.3993 76.6525 68.306C76.7365 68.2033 76.8391 68.1333 76.9605 68.096C77.2965 68.5347 77.6605 68.8567 78.0525 69.062C78.4445 69.258 78.9158 69.356 79.4665 69.356C80.0545 69.356 80.4978 69.2207 80.7965 68.95C81.1045 68.6793 81.2585 68.32 81.2585 67.872C81.2585 67.5733 81.1651 67.3307 80.9785 67.144C80.8011 66.9573 80.5771 66.8173 80.3065 66.724C80.0451 66.6307 79.6811 66.5233 79.2145 66.402C78.6731 66.262 78.2345 66.1267 77.8985 65.996C77.5718 65.8653 77.2918 65.6693 77.0585 65.408C76.8345 65.1373 76.7225 64.778 76.7225 64.33C76.7225 63.854 76.8485 63.4527 77.1005 63.126C77.3525 62.7993 77.6745 62.5567 78.0665 62.398C78.4585 62.2393 78.8598 62.16 79.2705 62.16C79.8585 62.16 80.3905 62.2767 80.8665 62.51C81.3518 62.7433 81.7298 63.084 82.0005 63.532C81.7765 63.7653 81.5851 63.882 81.4265 63.882C81.3051 63.882 81.1885 63.8167 81.0765 63.686C80.8525 63.4247 80.5911 63.2333 80.2925 63.112C80.0031 62.9813 79.6485 62.916 79.2285 62.916C78.7525 62.916 78.3745 63.028 78.0945 63.252C77.8145 63.476 77.6745 63.8213 77.6745 64.288C77.6745 64.5587 77.7585 64.778 77.9265 64.946C78.0945 65.114 78.3045 65.2447 78.5565 65.338C78.8085 65.422 79.1538 65.52 79.5925 65.632C80.1525 65.7627 80.6051 65.898 80.9505 66.038C81.3051 66.178 81.6038 66.3973 81.8465 66.696C82.0891 66.9853 82.2105 67.3773 82.2105 67.872C82.2105 68.5627 81.9538 69.1133 81.4405 69.524C80.9365 69.9347 80.2598 70.14 79.4105 70.14ZM91.1168 62.16C92.1528 62.16 92.9508 62.496 93.5108 63.168C94.0801 63.84 94.3648 64.792 94.3648 66.024C94.3648 67.312 94.0708 68.32 93.4828 69.048C92.8948 69.776 92.0828 70.14 91.0468 70.14C90.0574 70.14 89.2828 69.846 88.7228 69.258C88.6388 69.7527 88.4754 70 88.2328 70C87.9528 70 87.7194 69.944 87.5328 69.832C87.7101 69.44 87.7988 68.88 87.7988 68.152V58.926H88.7788V62.874C89.4601 62.398 90.2394 62.16 91.1168 62.16ZM91.0468 69.328C91.7934 69.328 92.3674 69.0433 92.7688 68.474C93.1794 67.8953 93.3848 67.0787 93.3848 66.024C93.3848 65.0347 93.1888 64.274 92.7968 63.742C92.4048 63.21 91.8448 62.944 91.1168 62.944C90.2581 62.944 89.4788 63.21 88.7788 63.742V68.292C89.3294 68.9827 90.0854 69.328 91.0468 69.328ZM101.566 62.3L98.5837 70.588C98.3224 71.3253 97.991 71.862 97.5897 72.198C97.1977 72.5433 96.6984 72.716 96.0917 72.716C95.737 72.716 95.457 72.66 95.2517 72.548C95.0464 72.4453 94.9437 72.3053 94.9437 72.128C94.9437 71.9413 95.023 71.792 95.1817 71.68C95.275 71.7453 95.415 71.8013 95.6017 71.848C95.7977 71.8947 95.989 71.918 96.1757 71.918C96.5584 71.918 96.885 71.75 97.1557 71.414C97.4357 71.078 97.6737 70.5647 97.8697 69.874L95.1257 62.3H96.1337L98.3597 68.502L100.558 62.3H101.566ZM109.926 62.16C110.971 62.16 111.769 62.5053 112.32 63.196C112.871 63.8773 113.146 64.8573 113.146 66.136C113.146 66.948 113.001 67.6573 112.712 68.264C112.432 68.8613 112.021 69.3233 111.48 69.65C110.948 69.9767 110.323 70.14 109.604 70.14C109.249 70.14 108.89 70.1027 108.526 70.028C108.171 69.9627 107.854 69.874 107.574 69.762V73.08H106.622V64.918C106.622 63.5367 106.566 62.7153 106.454 62.454C106.753 62.314 106.991 62.244 107.168 62.244C107.439 62.244 107.574 62.5147 107.574 63.056V63.112C107.882 62.804 108.237 62.5707 108.638 62.412C109.049 62.244 109.478 62.16 109.926 62.16ZM109.604 69.356C110.407 69.356 111.027 69.076 111.466 68.516C111.914 67.956 112.138 67.1627 112.138 66.136C112.138 64.008 111.401 62.944 109.926 62.944C109.497 62.944 109.077 63.042 108.666 63.238C108.265 63.434 107.901 63.714 107.574 64.078V68.936C108.153 69.216 108.829 69.356 109.604 69.356ZM120.939 68.418C120.939 68.9593 121.009 69.454 121.149 69.902C120.953 70.014 120.753 70.07 120.547 70.07C120.351 70.07 120.207 69.9907 120.113 69.832C120.029 69.664 119.983 69.3653 119.973 68.936C119.712 69.3 119.343 69.594 118.867 69.818C118.391 70.0327 117.878 70.14 117.327 70.14C115.75 70.14 114.961 69.2767 114.961 67.55V62.3H115.913V67.452C115.913 68.1333 116.039 68.628 116.291 68.936C116.543 69.2347 116.945 69.384 117.495 69.384C117.99 69.384 118.452 69.258 118.881 69.006C119.32 68.754 119.684 68.3993 119.973 67.942V62.3H120.939V68.418ZM126.978 62.16C128.014 62.16 128.812 62.496 129.372 63.168C129.941 63.84 130.226 64.792 130.226 66.024C130.226 67.312 129.932 68.32 129.344 69.048C128.756 69.776 127.944 70.14 126.908 70.14C125.919 70.14 125.144 69.846 124.584 69.258C124.5 69.7527 124.337 70 124.094 70C123.814 70 123.581 69.944 123.394 69.832C123.571 69.44 123.66 68.88 123.66 68.152V58.926H124.64V62.874C125.321 62.398 126.101 62.16 126.978 62.16ZM126.908 69.328C127.655 69.328 128.229 69.0433 128.63 68.474C129.041 67.8953 129.246 67.0787 129.246 66.024C129.246 65.0347 129.05 64.274 128.658 63.742C128.266 63.21 127.706 62.944 126.978 62.944C126.119 62.944 125.34 63.21 124.64 63.742V68.292C125.191 68.9827 125.947 69.328 126.908 69.328ZM132.191 58.926H133.143V70H132.191V58.926ZM136.077 62.3H137.029V70H136.077V62.3ZM136.497 60.886C136.077 60.886 135.867 60.676 135.867 60.256V60.13C135.867 59.71 136.077 59.5 136.497 59.5H136.609C137.029 59.5 137.239 59.71 137.239 60.13V60.256C137.239 60.676 137.029 60.886 136.609 60.886H136.497ZM142 70.14C141.58 70.14 141.146 70.07 140.698 69.93C140.25 69.79 139.877 69.6033 139.578 69.37C139.28 69.1367 139.13 68.8893 139.13 68.628C139.13 68.5067 139.168 68.3993 139.242 68.306C139.326 68.2033 139.429 68.1333 139.55 68.096C139.886 68.5347 140.25 68.8567 140.642 69.062C141.034 69.258 141.506 69.356 142.056 69.356C142.644 69.356 143.088 69.2207 143.386 68.95C143.694 68.6793 143.848 68.32 143.848 67.872C143.848 67.5733 143.755 67.3307 143.568 67.144C143.391 66.9573 143.167 66.8173 142.896 66.724C142.635 66.6307 142.271 66.5233 141.804 66.402C141.263 66.262 140.824 66.1267 140.488 65.996C140.162 65.8653 139.882 65.6693 139.648 65.408C139.424 65.1373 139.312 64.778 139.312 64.33C139.312 63.854 139.438 63.4527 139.69 63.126C139.942 62.7993 140.264 62.5567 140.656 62.398C141.048 62.2393 141.45 62.16 141.86 62.16C142.448 62.16 142.98 62.2767 143.456 62.51C143.942 62.7433 144.32 63.084 144.59 63.532C144.366 63.7653 144.175 63.882 144.016 63.882C143.895 63.882 143.778 63.8167 143.666 63.686C143.442 63.4247 143.181 63.2333 142.882 63.112C142.593 62.9813 142.238 62.916 141.818 62.916C141.342 62.916 140.964 63.028 140.684 63.252C140.404 63.476 140.264 63.8213 140.264 64.288C140.264 64.5587 140.348 64.778 140.516 64.946C140.684 65.114 140.894 65.2447 141.146 65.338C141.398 65.422 141.744 65.52 142.182 65.632C142.742 65.7627 143.195 65.898 143.54 66.038C143.895 66.178 144.194 66.3973 144.436 66.696C144.679 66.9853 144.8 67.3773 144.8 67.872C144.8 68.5627 144.544 69.1133 144.03 69.524C143.526 69.9347 142.85 70.14 142 70.14ZM150.307 62.16C151.11 62.16 151.745 62.3933 152.211 62.86C152.678 63.3173 152.911 63.9427 152.911 64.736V70H151.959V64.834C151.959 64.2273 151.81 63.7607 151.511 63.434C151.213 63.1073 150.783 62.944 150.223 62.944C149.794 62.944 149.341 63.042 148.865 63.238C148.389 63.4247 147.965 63.6767 147.591 63.994V70H146.639V58.926H147.591V63.084C148.002 62.7853 148.441 62.5567 148.907 62.398C149.374 62.2393 149.841 62.16 150.307 62.16ZM155.724 62.3H156.676V70H155.724V62.3ZM156.144 60.886C155.724 60.886 155.514 60.676 155.514 60.256V60.13C155.514 59.71 155.724 59.5 156.144 59.5H156.256C156.676 59.5 156.886 59.71 156.886 60.13V60.256C156.886 60.676 156.676 60.886 156.256 60.886H156.144ZM165.497 68.208C165.497 68.7773 165.501 69.1647 165.511 69.37C165.529 69.566 165.567 69.7433 165.623 69.902C165.399 70.014 165.156 70.07 164.895 70.07C164.755 70.07 164.661 69.972 164.615 69.776C164.568 69.5707 164.545 69.1693 164.545 68.572V64.778C164.545 64.1247 164.423 63.6533 164.181 63.364C163.938 63.0653 163.546 62.916 163.005 62.916C162.165 62.916 161.306 63.3313 160.429 64.162V70H159.477V64.918C159.477 63.5367 159.421 62.7153 159.309 62.454C159.607 62.314 159.845 62.244 160.023 62.244C160.293 62.244 160.429 62.5147 160.429 63.056V63.182C160.858 62.8273 161.287 62.5707 161.717 62.412C162.155 62.244 162.617 62.16 163.103 62.16C163.905 62.16 164.503 62.3793 164.895 62.818C165.296 63.2473 165.497 63.9053 165.497 64.792V68.208ZM174.182 61.894C174.35 61.894 174.471 61.9407 174.546 62.034C174.63 62.118 174.672 62.258 174.672 62.454C174.672 62.51 174.662 62.622 174.644 62.79C173.953 62.79 173.472 62.8833 173.202 63.07C173.575 63.518 173.762 64.0733 173.762 64.736C173.762 66.528 172.73 67.424 170.668 67.424C170.033 67.424 169.566 67.4707 169.268 67.564C168.978 67.648 168.834 67.7833 168.834 67.97C168.834 68.39 169.585 68.6 171.088 68.6C172.142 68.6 172.959 68.7773 173.538 69.132C174.116 69.4867 174.406 69.9907 174.406 70.644C174.406 71.344 174.093 71.8807 173.468 72.254C172.852 72.6367 171.965 72.828 170.808 72.828C169.716 72.828 168.885 72.66 168.316 72.324C167.746 71.988 167.462 71.4933 167.462 70.84C167.462 70.4667 167.588 70.1353 167.84 69.846C168.101 69.5567 168.46 69.342 168.918 69.202V69.16C168.638 69.0853 168.414 68.95 168.246 68.754C168.078 68.5487 167.994 68.306 167.994 68.026C167.994 67.7927 168.087 67.5873 168.274 67.41C168.46 67.2233 168.712 67.0973 169.03 67.032C168.628 66.808 168.316 66.514 168.092 66.15C167.877 65.7767 167.77 65.3613 167.77 64.904C167.77 63.0747 168.824 62.16 170.934 62.16C171.596 62.16 172.161 62.3047 172.628 62.594C172.861 62.3793 173.113 62.2113 173.384 62.09C173.664 61.9593 173.93 61.894 174.182 61.894ZM170.752 66.64C171.47 66.64 171.984 66.5 172.292 66.22C172.609 65.9307 172.768 65.4547 172.768 64.792C172.768 64.1387 172.609 63.6627 172.292 63.364C171.974 63.0653 171.461 62.916 170.752 62.916C170.061 62.916 169.552 63.07 169.226 63.378C168.908 63.6767 168.75 64.148 168.75 64.792C168.75 66.024 169.417 66.64 170.752 66.64ZM170.864 69.468C170.07 69.468 169.468 69.5753 169.058 69.79C168.656 70.0047 168.456 70.3173 168.456 70.728C168.456 71.1573 168.656 71.484 169.058 71.708C169.459 71.932 170.042 72.044 170.808 72.044C171.666 72.044 172.315 71.932 172.754 71.708C173.192 71.4933 173.412 71.1667 173.412 70.728C173.412 70.28 173.211 69.958 172.81 69.762C172.418 69.566 171.769 69.468 170.864 69.468ZM185.225 68.082C185.225 68.5113 185.257 68.852 185.323 69.104C185.397 69.3467 185.523 69.566 185.701 69.762C185.607 69.8553 185.495 69.93 185.365 69.986C185.243 70.042 185.127 70.07 185.015 70.07C184.828 70.07 184.669 69.9627 184.539 69.748C184.417 69.5333 184.338 69.2393 184.301 68.866C184.011 69.258 183.624 69.5707 183.139 69.804C182.653 70.028 182.145 70.14 181.613 70.14C180.903 70.14 180.334 69.958 179.905 69.594C179.475 69.2207 179.261 68.7353 179.261 68.138C179.261 67.2607 179.685 66.5747 180.535 66.08C181.393 65.5853 182.639 65.3007 184.273 65.226V64.778C184.273 64.162 184.114 63.7047 183.797 63.406C183.489 63.098 183.017 62.944 182.383 62.944C181.972 62.944 181.589 63.0327 181.235 63.21C180.889 63.378 180.516 63.6627 180.115 64.064C180.059 64.12 179.989 64.148 179.905 64.148C179.811 64.148 179.709 64.1107 179.597 64.036C179.485 63.952 179.377 63.8353 179.275 63.686C179.695 63.1913 180.171 62.8133 180.703 62.552C181.244 62.2907 181.818 62.16 182.425 62.16C183.293 62.16 183.974 62.3933 184.469 62.86C184.973 63.3267 185.225 63.966 185.225 64.778V68.082ZM181.683 69.356C182.187 69.356 182.663 69.216 183.111 68.936C183.559 68.656 183.946 68.2593 184.273 67.746V66.01C181.585 66.122 180.241 66.8267 180.241 68.124C180.241 68.9453 180.721 69.356 181.683 69.356ZM193.465 68.208C193.465 68.5067 193.484 68.81 193.521 69.118C193.559 69.426 193.605 69.6827 193.661 69.888C193.428 70 193.213 70.056 193.017 70.056C192.765 70.056 192.607 69.7387 192.541 69.104C192.233 69.4773 191.897 69.7433 191.533 69.902C191.169 70.0607 190.721 70.14 190.189 70.14C189.172 70.14 188.374 69.79 187.795 69.09C187.217 68.3807 186.927 67.41 186.927 66.178C186.927 64.9087 187.235 63.924 187.851 63.224C188.477 62.5147 189.345 62.16 190.455 62.16C190.801 62.16 191.165 62.2253 191.547 62.356C191.939 62.4773 192.261 62.6313 192.513 62.818V58.926H193.465V68.208ZM190.259 69.356C190.735 69.356 191.155 69.258 191.519 69.062C191.883 68.866 192.215 68.5627 192.513 68.152V63.742C192.289 63.5087 191.981 63.3127 191.589 63.154C191.207 62.9953 190.829 62.916 190.455 62.916C189.634 62.916 189.004 63.196 188.565 63.756C188.127 64.316 187.907 65.1233 187.907 66.178C187.907 67.2047 188.108 67.9933 188.509 68.544C188.911 69.0853 189.494 69.356 190.259 69.356ZM198.164 70.14C197.744 70.14 197.31 70.07 196.862 69.93C196.414 69.79 196.041 69.6033 195.742 69.37C195.444 69.1367 195.294 68.8893 195.294 68.628C195.294 68.5067 195.332 68.3993 195.406 68.306C195.49 68.2033 195.593 68.1333 195.714 68.096C196.05 68.5347 196.414 68.8567 196.806 69.062C197.198 69.258 197.67 69.356 198.22 69.356C198.808 69.356 199.252 69.2207 199.55 68.95C199.858 68.6793 200.012 68.32 200.012 67.872C200.012 67.5733 199.919 67.3307 199.732 67.144C199.555 66.9573 199.331 66.8173 199.06 66.724C198.799 66.6307 198.435 66.5233 197.968 66.402C197.427 66.262 196.988 66.1267 196.652 65.996C196.326 65.8653 196.046 65.6693 195.812 65.408C195.588 65.1373 195.476 64.778 195.476 64.33C195.476 63.854 195.602 63.4527 195.854 63.126C196.106 62.7993 196.428 62.5567 196.82 62.398C197.212 62.2393 197.614 62.16 198.024 62.16C198.612 62.16 199.144 62.2767 199.62 62.51C200.106 62.7433 200.484 63.084 200.754 63.532C200.53 63.7653 200.339 63.882 200.18 63.882C200.059 63.882 199.942 63.8167 199.83 63.686C199.606 63.4247 199.345 63.2333 199.046 63.112C198.757 62.9813 198.402 62.916 197.982 62.916C197.506 62.916 197.128 63.028 196.848 63.252C196.568 63.476 196.428 63.8213 196.428 64.288C196.428 64.5587 196.512 64.778 196.68 64.946C196.848 65.114 197.058 65.2447 197.31 65.338C197.562 65.422 197.908 65.52 198.346 65.632C198.906 65.7627 199.359 65.898 199.704 66.038C200.059 66.178 200.358 66.3973 200.6 66.696C200.843 66.9853 200.964 67.3773 200.964 67.872C200.964 68.5627 200.708 69.1133 200.194 69.524C199.69 69.9347 199.014 70.14 198.164 70.14ZM203.629 70C203.209 70 202.999 69.79 202.999 69.37V69.244C202.999 68.824 203.209 68.614 203.629 68.614H203.741C204.161 68.614 204.371 68.824 204.371 69.244V69.37C204.371 69.79 204.161 70 203.741 70H203.629Z" fill="#79A3B5"/>
<path opacity="0.3" fill-rule="evenodd" clip-rule="evenodd" d="M7.25619 18.9292L5.97889 20.4681C3.47693 18.3916 2 15.3153 2 12C2 8.68921 3.47282 5.61675 5.96885 3.54016L7.24797 5.07765C5.20393 6.77819 4 9.28973 4 12C4 14.714 5.2073 17.2287 7.25619 18.9292ZM16.7438 18.9292L18.0211 20.4681C20.5231 18.3916 22 15.3153 22 12C22 8.68921 20.5272 5.61675 18.0311 3.54016L16.752 5.07765C18.7961 6.77819 20 9.28973 20 12C20 14.714 18.7927 17.2287 16.7438 18.9292ZM14.1785 15.8599L15.4509 17.4029C17.0529 16.082 18 14.1173 18 12C18 9.88957 17.0591 7.93072 15.4661 6.60961L14.1894 8.14908C15.329 9.09417 16 10.4912 16 12C16 13.5137 15.3245 14.9149 14.1785 15.8599ZM8.5491 17.4029L9.8215 15.8599C8.6755 14.9149 8 13.5137 8 12C8 10.4912 8.67104 9.09417 9.81062 8.14908L8.53389 6.60961C6.94091 7.93072 6 9.88957 6 12C6 14.1173 6.94714 16.082 8.5491 17.4029Z" fill="#4BB59B"/>
<path fill-rule="evenodd" clip-rule="evenodd" d="M12 14C13.1046 14 14 13.1046 14 12C14 10.8954 13.1046 10 12 10C10.8954 10 10 10.8954 10 12C10 13.1046 10.8954 14 12 14Z" fill="#4BB59B"/>
</svg>
