<svg width="299" height="106" viewBox="0 0 299 106" fill="none" xmlns="http://www.w3.org/2000/svg">
<path d="M59.416 16L55.186 4.732H55.114C55.15 5.104 55.18 5.608 55.204 6.244C55.228 6.868 55.24 7.522 55.24 8.206V16H53.746V3.148H56.14L60.1 13.678H60.172L64.204 3.148H66.58V16H64.978V8.098C64.978 7.474 64.99 6.856 65.014 6.244C65.05 5.632 65.08 5.134 65.104 4.75H65.032L60.748 16H59.416ZM73.5141 6.19C74.6901 6.19 75.5601 6.448 76.1241 6.964C76.6881 7.48 76.9701 8.302 76.9701 9.43V16H75.8181L75.5121 14.632H75.4401C75.0201 15.16 74.5761 15.55 74.1081 15.802C73.6521 16.054 73.0161 16.18 72.2001 16.18C71.3241 16.18 70.5981 15.952 70.0221 15.496C69.4461 15.028 69.1581 14.302 69.1581 13.318C69.1581 12.358 69.5361 11.62 70.2921 11.104C71.0481 10.576 72.2121 10.288 73.7841 10.24L75.4221 10.186V9.61C75.4221 8.806 75.2481 8.248 74.9001 7.936C74.5521 7.624 74.0601 7.468 73.4241 7.468C72.9201 7.468 72.4401 7.546 71.9841 7.702C71.5281 7.846 71.1021 8.014 70.7061 8.206L70.2201 7.018C70.6401 6.79 71.1381 6.598 71.7141 6.442C72.2901 6.274 72.8901 6.19 73.5141 6.19ZM73.9821 11.338C72.7821 11.386 71.9481 11.578 71.4801 11.914C71.0241 12.25 70.7961 12.724 70.7961 13.336C70.7961 13.876 70.9581 14.272 71.2821 14.524C71.6181 14.776 72.0441 14.902 72.5601 14.902C73.3761 14.902 74.0541 14.68 74.5941 14.236C75.1341 13.78 75.4041 13.084 75.4041 12.148V11.284L73.9821 11.338ZM81.5159 9.466C81.5159 9.658 81.5039 9.91 81.4799 10.222C81.4679 10.534 81.4559 10.804 81.4439 11.032H81.5159C81.5879 10.936 81.6959 10.798 81.8399 10.618C81.9839 10.438 82.1279 10.258 82.2719 10.078C82.4279 9.886 82.5599 9.73 82.6679 9.61L85.7459 6.352H87.5999L83.6939 10.474L87.8699 16H85.9619L82.6139 11.5L81.5159 12.454V16H79.9499V2.32H81.5159V9.466ZM90.3752 2.734C90.6152 2.734 90.8252 2.818 91.0052 2.986C91.1972 3.142 91.2932 3.394 91.2932 3.742C91.2932 4.078 91.1972 4.33 91.0052 4.498C90.8252 4.666 90.6152 4.75 90.3752 4.75C90.1112 4.75 89.8892 4.666 89.7092 4.498C89.5292 4.33 89.4392 4.078 89.4392 3.742C89.4392 3.394 89.5292 3.142 89.7092 2.986C89.8892 2.818 90.1112 2.734 90.3752 2.734ZM91.1492 6.352V16H89.5652V6.352H91.1492ZM98.8498 6.172C100.002 6.172 100.872 6.454 101.46 7.018C102.048 7.57 102.342 8.47 102.342 9.718V16H100.776V9.826C100.776 8.278 100.056 7.504 98.6158 7.504C97.5478 7.504 96.8098 7.804 96.4018 8.404C95.9938 9.004 95.7898 9.868 95.7898 10.996V16H94.2058V6.352H95.4838L95.7178 7.666H95.8078C96.1198 7.162 96.5518 6.79 97.1038 6.55C97.6558 6.298 98.2378 6.172 98.8498 6.172ZM108.753 6.172C109.389 6.172 109.959 6.292 110.463 6.532C110.979 6.772 111.417 7.138 111.777 7.63H111.867L112.083 6.352H113.343V16.162C113.343 17.542 112.989 18.58 112.281 19.276C111.585 19.972 110.499 20.32 109.023 20.32C107.607 20.32 106.449 20.116 105.549 19.708V18.25C106.497 18.754 107.685 19.006 109.113 19.006C109.941 19.006 110.589 18.76 111.057 18.268C111.537 17.788 111.777 17.128 111.777 16.288V15.91C111.777 15.766 111.783 15.562 111.795 15.298C111.807 15.022 111.819 14.83 111.831 14.722H111.759C111.111 15.694 110.115 16.18 108.771 16.18C107.523 16.18 106.545 15.742 105.837 14.866C105.141 13.99 104.793 12.766 104.793 11.194C104.793 9.658 105.141 8.44 105.837 7.54C106.545 6.628 107.517 6.172 108.753 6.172ZM108.969 7.504C108.165 7.504 107.541 7.828 107.097 8.476C106.653 9.112 106.431 10.024 106.431 11.212C106.431 12.4 106.647 13.312 107.079 13.948C107.523 14.572 108.165 14.884 109.005 14.884C109.977 14.884 110.685 14.626 111.129 14.11C111.573 13.582 111.795 12.736 111.795 11.572V11.194C111.795 9.874 111.567 8.932 111.111 8.368C110.655 7.792 109.941 7.504 108.969 7.504ZM126.246 16H124.626V4.57H120.612V3.148H130.242V4.57H126.246V16ZM134.176 6.19C135.352 6.19 136.222 6.448 136.786 6.964C137.35 7.48 137.632 8.302 137.632 9.43V16H136.48L136.174 14.632H136.102C135.682 15.16 135.238 15.55 134.77 15.802C134.314 16.054 133.678 16.18 132.862 16.18C131.986 16.18 131.26 15.952 130.684 15.496C130.108 15.028 129.82 14.302 129.82 13.318C129.82 12.358 130.198 11.62 130.954 11.104C131.71 10.576 132.874 10.288 134.446 10.24L136.084 10.186V9.61C136.084 8.806 135.91 8.248 135.562 7.936C135.214 7.624 134.722 7.468 134.086 7.468C133.582 7.468 133.102 7.546 132.646 7.702C132.19 7.846 131.764 8.014 131.368 8.206L130.882 7.018C131.302 6.79 131.8 6.598 132.376 6.442C132.952 6.274 133.552 6.19 134.176 6.19ZM134.644 11.338C133.444 11.386 132.61 11.578 132.142 11.914C131.686 12.25 131.458 12.724 131.458 13.336C131.458 13.876 131.62 14.272 131.944 14.524C132.28 14.776 132.706 14.902 133.222 14.902C134.038 14.902 134.716 14.68 135.256 14.236C135.796 13.78 136.066 13.084 136.066 12.148V11.284L134.644 11.338ZM146.894 13.336C146.894 14.272 146.546 14.98 145.85 15.46C145.154 15.94 144.218 16.18 143.042 16.18C142.37 16.18 141.788 16.126 141.296 16.018C140.816 15.91 140.39 15.76 140.018 15.568V14.128C140.402 14.32 140.864 14.5 141.404 14.668C141.956 14.824 142.514 14.902 143.078 14.902C143.882 14.902 144.464 14.776 144.824 14.524C145.184 14.26 145.364 13.912 145.364 13.48C145.364 13.24 145.298 13.024 145.166 12.832C145.034 12.64 144.794 12.448 144.446 12.256C144.11 12.064 143.624 11.848 142.988 11.608C142.364 11.368 141.83 11.128 141.386 10.888C140.942 10.648 140.6 10.36 140.36 10.024C140.12 9.688 140 9.256 140 8.728C140 7.912 140.33 7.282 140.99 6.838C141.662 6.394 142.538 6.172 143.618 6.172C144.206 6.172 144.752 6.232 145.256 6.352C145.772 6.46 146.252 6.616 146.696 6.82L146.156 8.08C145.748 7.912 145.322 7.768 144.878 7.648C144.434 7.528 143.978 7.468 143.51 7.468C142.862 7.468 142.364 7.576 142.016 7.792C141.68 7.996 141.512 8.278 141.512 8.638C141.512 8.902 141.59 9.13 141.746 9.322C141.902 9.502 142.16 9.682 142.52 9.862C142.892 10.03 143.384 10.234 143.996 10.474C144.608 10.702 145.13 10.936 145.562 11.176C145.994 11.416 146.324 11.71 146.552 12.058C146.78 12.394 146.894 12.82 146.894 13.336ZM150.791 9.466C150.791 9.658 150.779 9.91 150.755 10.222C150.743 10.534 150.731 10.804 150.719 11.032H150.791C150.863 10.936 150.971 10.798 151.115 10.618C151.259 10.438 151.403 10.258 151.547 10.078C151.703 9.886 151.835 9.73 151.943 9.61L155.021 6.352H156.875L152.969 10.474L157.145 16H155.237L151.889 11.5L150.791 12.454V16H149.225V2.32H150.791V9.466ZM165.123 13.336C165.123 14.272 164.775 14.98 164.079 15.46C163.383 15.94 162.447 16.18 161.271 16.18C160.599 16.18 160.017 16.126 159.525 16.018C159.045 15.91 158.619 15.76 158.247 15.568V14.128C158.631 14.32 159.093 14.5 159.633 14.668C160.185 14.824 160.743 14.902 161.307 14.902C162.111 14.902 162.693 14.776 163.053 14.524C163.413 14.26 163.593 13.912 163.593 13.48C163.593 13.24 163.527 13.024 163.395 12.832C163.263 12.64 163.023 12.448 162.675 12.256C162.339 12.064 161.853 11.848 161.217 11.608C160.593 11.368 160.059 11.128 159.615 10.888C159.171 10.648 158.829 10.36 158.589 10.024C158.349 9.688 158.229 9.256 158.229 8.728C158.229 7.912 158.559 7.282 159.219 6.838C159.891 6.394 160.767 6.172 161.847 6.172C162.435 6.172 162.981 6.232 163.485 6.352C164.001 6.46 164.481 6.616 164.925 6.82L164.385 8.08C163.977 7.912 163.551 7.768 163.107 7.648C162.663 7.528 162.207 7.468 161.739 7.468C161.091 7.468 160.593 7.576 160.245 7.792C159.909 7.996 159.741 8.278 159.741 8.638C159.741 8.902 159.819 9.13 159.975 9.322C160.131 9.502 160.389 9.682 160.749 9.862C161.121 10.03 161.613 10.234 162.225 10.474C162.837 10.702 163.359 10.936 163.791 11.176C164.223 11.416 164.553 11.71 164.781 12.058C165.009 12.394 165.123 12.82 165.123 13.336Z" fill="#4BB59B"/>
<path d="M59.266 38.2C59.3033 38.368 59.322 38.48 59.322 38.536C59.322 38.6947 59.28 38.8207 59.196 38.914C59.112 38.998 58.986 39.04 58.818 39.04H56.242V48H55.234V39.04H52.21V38.2H59.266ZM64.4205 40.16C65.2232 40.16 65.8578 40.3933 66.3245 40.86C66.7912 41.3173 67.0245 41.9427 67.0245 42.736V48H66.0725V42.834C66.0725 42.2273 65.9232 41.7607 65.6245 41.434C65.3258 41.1073 64.8965 40.944 64.3365 40.944C63.9072 40.944 63.4545 41.042 62.9785 41.238C62.5025 41.4247 62.0778 41.6767 61.7045 41.994V48H60.7525V36.926H61.7045V41.084C62.1152 40.7853 62.5538 40.5567 63.0205 40.398C63.4872 40.2393 63.9538 40.16 64.4205 40.16ZM75.5769 43.604C75.5769 43.8187 75.5675 44.0333 75.5489 44.248H69.9769C69.9955 45.2187 70.2102 45.9747 70.6209 46.516C71.0409 47.0573 71.6195 47.328 72.3569 47.328C72.8609 47.328 73.2855 47.23 73.6309 47.034C73.9855 46.838 74.2795 46.5253 74.5129 46.096C74.5782 45.9747 74.6762 45.914 74.8069 45.914C74.9562 45.914 75.1615 46.0027 75.4229 46.18C75.2175 46.7867 74.8395 47.2673 74.2889 47.622C73.7382 47.9673 73.0942 48.14 72.3569 48.14C71.6755 48.14 71.0782 47.9813 70.5649 47.664C70.0609 47.3373 69.6735 46.8753 69.4029 46.278C69.1322 45.6713 68.9969 44.9573 68.9969 44.136C68.9969 42.8947 69.3049 41.924 69.9209 41.224C70.5369 40.5147 71.3815 40.16 72.4549 40.16C73.4349 40.16 74.2002 40.4633 74.7509 41.07C75.3015 41.6767 75.5769 42.5213 75.5769 43.604ZM74.5969 43.492C74.5969 41.812 73.8689 40.972 72.4129 40.972C71.7035 40.972 71.1435 41.1867 70.7329 41.616C70.3222 42.0453 70.0795 42.6707 70.0049 43.492H74.5969ZM83.8842 48.14C82.7549 48.14 81.8729 47.7853 81.2382 47.076C80.6129 46.3667 80.3002 45.3773 80.3002 44.108C80.3002 43.3053 80.4402 42.61 80.7202 42.022C81.0096 41.4247 81.4202 40.9673 81.9522 40.65C82.4842 40.3233 83.1096 40.16 83.8282 40.16C84.6869 40.16 85.3916 40.3793 85.9422 40.818C86.5022 41.2473 86.8289 41.8353 86.9222 42.582C86.8382 42.6193 86.7216 42.6567 86.5722 42.694C86.4322 42.7313 86.3156 42.75 86.2222 42.75C86.1289 42.75 86.0589 42.7267 86.0122 42.68C85.9749 42.624 85.9329 42.512 85.8862 42.344C85.7836 41.9053 85.5502 41.5647 85.1862 41.322C84.8222 41.07 84.3696 40.944 83.8282 40.944C83.3242 40.944 82.8762 41.0747 82.4842 41.336C82.1016 41.5973 81.8029 41.9707 81.5882 42.456C81.3829 42.932 81.2802 43.4827 81.2802 44.108C81.2802 45.0973 81.5136 45.886 81.9802 46.474C82.4562 47.062 83.0909 47.356 83.8842 47.356C84.4909 47.356 85.0089 47.216 85.4382 46.936C85.8676 46.6467 86.1896 46.2267 86.4042 45.676C86.5349 45.676 86.6422 45.732 86.7262 45.844C86.8196 45.956 86.8662 46.0867 86.8662 46.236C86.8662 46.5627 86.7262 46.8753 86.4462 47.174C86.1756 47.4633 85.8069 47.6967 85.3402 47.874C84.8829 48.0513 84.3976 48.14 83.8842 48.14ZM94.6892 46.418C94.6892 46.9593 94.7592 47.454 94.8992 47.902C94.7032 48.014 94.5025 48.07 94.2972 48.07C94.1012 48.07 93.9565 47.9907 93.8632 47.832C93.7792 47.664 93.7325 47.3653 93.7232 46.936C93.4618 47.3 93.0932 47.594 92.6172 47.818C92.1412 48.0327 91.6278 48.14 91.0772 48.14C89.4998 48.14 88.7112 47.2767 88.7112 45.55V40.3H89.6632V45.452C89.6632 46.1333 89.7892 46.628 90.0412 46.936C90.2932 47.2347 90.6945 47.384 91.2452 47.384C91.7398 47.384 92.2018 47.258 92.6312 47.006C93.0698 46.754 93.4338 46.3993 93.7232 45.942V40.3H94.6892V46.418ZM99.4261 48.14C99.0061 48.14 98.5721 48.07 98.1241 47.93C97.6761 47.79 97.3028 47.6033 97.0041 47.37C96.7054 47.1367 96.5561 46.8893 96.5561 46.628C96.5561 46.5067 96.5934 46.3993 96.6681 46.306C96.7521 46.2033 96.8548 46.1333 96.9761 46.096C97.3121 46.5347 97.6761 46.8567 98.0681 47.062C98.4601 47.258 98.9314 47.356 99.4821 47.356C100.07 47.356 100.513 47.2207 100.812 46.95C101.12 46.6793 101.274 46.32 101.274 45.872C101.274 45.5733 101.181 45.3307 100.994 45.144C100.817 44.9573 100.593 44.8173 100.322 44.724C100.061 44.6307 99.6968 44.5233 99.2301 44.402C98.6888 44.262 98.2501 44.1267 97.9141 43.996C97.5874 43.8653 97.3074 43.6693 97.0741 43.408C96.8501 43.1373 96.7381 42.778 96.7381 42.33C96.7381 41.854 96.8641 41.4527 97.1161 41.126C97.3681 40.7993 97.6901 40.5567 98.0821 40.398C98.4741 40.2393 98.8754 40.16 99.2861 40.16C99.8741 40.16 100.406 40.2767 100.882 40.51C101.367 40.7433 101.745 41.084 102.016 41.532C101.792 41.7653 101.601 41.882 101.442 41.882C101.321 41.882 101.204 41.8167 101.092 41.686C100.868 41.4247 100.607 41.2333 100.308 41.112C100.019 40.9813 99.6641 40.916 99.2441 40.916C98.7681 40.916 98.3901 41.028 98.1101 41.252C97.8301 41.476 97.6901 41.8213 97.6901 42.288C97.6901 42.5587 97.7741 42.778 97.9421 42.946C98.1101 43.114 98.3201 43.2447 98.5721 43.338C98.8241 43.422 99.1694 43.52 99.6081 43.632C100.168 43.7627 100.621 43.898 100.966 44.038C101.321 44.178 101.619 44.3973 101.862 44.696C102.105 44.9853 102.226 45.3773 102.226 45.872C102.226 46.5627 101.969 47.1133 101.456 47.524C100.952 47.9347 100.275 48.14 99.4261 48.14ZM107.579 47.062C107.644 47.1087 107.696 47.1787 107.733 47.272C107.78 47.356 107.803 47.4447 107.803 47.538C107.803 47.7153 107.728 47.8413 107.579 47.916C107.28 48.0653 106.893 48.14 106.417 48.14C105.81 48.14 105.325 47.9767 104.961 47.65C104.597 47.314 104.415 46.866 104.415 46.306V41.056H102.959V40.3H104.415V38.2H105.367V40.3H107.383V41.056H105.367V46.124C105.367 46.908 105.703 47.3 106.375 47.3C106.804 47.3 107.206 47.2207 107.579 47.062ZM111.863 48.14C110.781 48.14 109.964 47.804 109.413 47.132C108.863 46.46 108.587 45.4613 108.587 44.136C108.587 41.4853 109.679 40.16 111.863 40.16C114.047 40.16 115.139 41.4853 115.139 44.136C115.139 45.4613 114.864 46.46 114.313 47.132C113.763 47.804 112.946 48.14 111.863 48.14ZM111.863 47.356C112.657 47.356 113.235 47.0993 113.599 46.586C113.973 46.0633 114.159 45.2467 114.159 44.136C114.159 43.0347 113.973 42.2273 113.599 41.714C113.235 41.2007 112.657 40.944 111.863 40.944C111.07 40.944 110.487 41.2007 110.113 41.714C109.749 42.2273 109.567 43.0347 109.567 44.136C109.567 45.2467 109.749 46.0633 110.113 46.586C110.487 47.0993 111.07 47.356 111.863 47.356ZM124.951 40.16C125.614 40.16 126.151 40.3747 126.561 40.804C126.981 41.2333 127.191 41.7887 127.191 42.47V48H126.225V42.512C126.225 41.9707 126.104 41.5693 125.861 41.308C125.619 41.0467 125.25 40.916 124.755 40.916C123.962 40.916 123.225 41.28 122.543 42.008C122.562 42.1573 122.571 42.2693 122.571 42.344V48H121.619V42.372C121.619 41.9333 121.484 41.5833 121.213 41.322C120.952 41.0513 120.602 40.916 120.163 40.916C119.762 40.916 119.379 41.0047 119.015 41.182C118.661 41.3593 118.301 41.644 117.937 42.036V48H116.985V42.918C116.985 41.5367 116.929 40.7153 116.817 40.454C117.116 40.314 117.354 40.244 117.531 40.244C117.802 40.244 117.937 40.5147 117.937 41.056V41.112C118.292 40.776 118.656 40.5333 119.029 40.384C119.412 40.2347 119.846 40.16 120.331 40.16C120.77 40.16 121.162 40.2627 121.507 40.468C121.853 40.664 122.119 40.9347 122.305 41.28C122.707 40.888 123.113 40.6033 123.523 40.426C123.943 40.2487 124.419 40.16 124.951 40.16ZM135.747 43.604C135.747 43.8187 135.737 44.0333 135.719 44.248H130.147C130.165 45.2187 130.38 45.9747 130.791 46.516C131.211 47.0573 131.789 47.328 132.527 47.328C133.031 47.328 133.455 47.23 133.801 47.034C134.155 46.838 134.449 46.5253 134.683 46.096C134.748 45.9747 134.846 45.914 134.977 45.914C135.126 45.914 135.331 46.0027 135.593 46.18C135.387 46.7867 135.009 47.2673 134.459 47.622C133.908 47.9673 133.264 48.14 132.527 48.14C131.845 48.14 131.248 47.9813 130.735 47.664C130.231 47.3373 129.843 46.8753 129.573 46.278C129.302 45.6713 129.167 44.9573 129.167 44.136C129.167 42.8947 129.475 41.924 130.091 41.224C130.707 40.5147 131.551 40.16 132.625 40.16C133.605 40.16 134.37 40.4633 134.921 41.07C135.471 41.6767 135.747 42.5213 135.747 43.604ZM134.767 43.492C134.767 41.812 134.039 40.972 132.583 40.972C131.873 40.972 131.313 41.1867 130.903 41.616C130.492 42.0453 130.249 42.6707 130.175 43.492H134.767ZM140.585 40.202C140.911 40.202 141.159 40.258 141.327 40.37C141.504 40.4727 141.593 40.6313 141.593 40.846C141.593 40.9953 141.541 41.1307 141.439 41.252C141.215 41.1307 140.907 41.07 140.515 41.07C139.889 41.07 139.385 41.3173 139.003 41.812C138.629 42.3067 138.443 42.9553 138.443 43.758V48H137.491V40.3H138.443V41.686C138.657 41.2567 138.961 40.902 139.353 40.622C139.745 40.342 140.155 40.202 140.585 40.202ZM149.66 48.14C148.53 48.14 147.648 47.7853 147.014 47.076C146.388 46.3667 146.076 45.3773 146.076 44.108C146.076 43.3053 146.216 42.61 146.496 42.022C146.785 41.4247 147.196 40.9673 147.728 40.65C148.26 40.3233 148.885 40.16 149.604 40.16C150.462 40.16 151.167 40.3793 151.718 40.818C152.278 41.2473 152.604 41.8353 152.698 42.582C152.614 42.6193 152.497 42.6567 152.348 42.694C152.208 42.7313 152.091 42.75 151.998 42.75C151.904 42.75 151.834 42.7267 151.788 42.68C151.75 42.624 151.708 42.512 151.662 42.344C151.559 41.9053 151.326 41.5647 150.962 41.322C150.598 41.07 150.145 40.944 149.604 40.944C149.1 40.944 148.652 41.0747 148.26 41.336C147.877 41.5973 147.578 41.9707 147.364 42.456C147.158 42.932 147.056 43.4827 147.056 44.108C147.056 45.0973 147.289 45.886 147.756 46.474C148.232 47.062 148.866 47.356 149.66 47.356C150.266 47.356 150.784 47.216 151.214 46.936C151.643 46.6467 151.965 46.2267 152.18 45.676C152.31 45.676 152.418 45.732 152.502 45.844C152.595 45.956 152.642 46.0867 152.642 46.236C152.642 46.5627 152.502 46.8753 152.222 47.174C151.951 47.4633 151.582 47.6967 151.116 47.874C150.658 48.0513 150.173 48.14 149.66 48.14ZM159.891 46.082C159.891 46.5113 159.923 46.852 159.989 47.104C160.063 47.3467 160.189 47.566 160.367 47.762C160.273 47.8553 160.161 47.93 160.031 47.986C159.909 48.042 159.793 48.07 159.681 48.07C159.494 48.07 159.335 47.9627 159.205 47.748C159.083 47.5333 159.004 47.2393 158.967 46.866C158.677 47.258 158.29 47.5707 157.805 47.804C157.319 48.028 156.811 48.14 156.279 48.14C155.569 48.14 155 47.958 154.571 47.594C154.141 47.2207 153.927 46.7353 153.927 46.138C153.927 45.2607 154.351 44.5747 155.201 44.08C156.059 43.5853 157.305 43.3007 158.939 43.226V42.778C158.939 42.162 158.78 41.7047 158.463 41.406C158.155 41.098 157.683 40.944 157.049 40.944C156.638 40.944 156.255 41.0327 155.901 41.21C155.555 41.378 155.182 41.6627 154.781 42.064C154.725 42.12 154.655 42.148 154.571 42.148C154.477 42.148 154.375 42.1107 154.263 42.036C154.151 41.952 154.043 41.8353 153.941 41.686C154.361 41.1913 154.837 40.8133 155.369 40.552C155.91 40.2907 156.484 40.16 157.091 40.16C157.959 40.16 158.64 40.3933 159.135 40.86C159.639 41.3267 159.891 41.966 159.891 42.778V46.082ZM156.349 47.356C156.853 47.356 157.329 47.216 157.777 46.936C158.225 46.656 158.612 46.2593 158.939 45.746V44.01C156.251 44.122 154.907 44.8267 154.907 46.124C154.907 46.9453 155.387 47.356 156.349 47.356ZM168.313 46.208C168.313 46.7773 168.318 47.1647 168.327 47.37C168.346 47.566 168.383 47.7433 168.439 47.902C168.215 48.014 167.973 48.07 167.711 48.07C167.571 48.07 167.478 47.972 167.431 47.776C167.385 47.5707 167.361 47.1693 167.361 46.572V42.778C167.361 42.1247 167.24 41.6533 166.997 41.364C166.755 41.0653 166.363 40.916 165.821 40.916C164.981 40.916 164.123 41.3313 163.245 42.162V48H162.293V42.918C162.293 41.5367 162.237 40.7153 162.125 40.454C162.424 40.314 162.662 40.244 162.839 40.244C163.11 40.244 163.245 40.5147 163.245 41.056V41.182C163.675 40.8273 164.104 40.5707 164.533 40.412C164.972 40.244 165.434 40.16 165.919 40.16C166.722 40.16 167.319 40.3793 167.711 40.818C168.113 41.2473 168.313 41.9053 168.313 42.792V46.208ZM180.468 43.604C180.468 43.8187 180.458 44.0333 180.44 44.248H174.868C174.886 45.2187 175.101 45.9747 175.512 46.516C175.932 47.0573 176.51 47.328 177.248 47.328C177.752 47.328 178.176 47.23 178.522 47.034C178.876 46.838 179.17 46.5253 179.404 46.096C179.469 45.9747 179.567 45.914 179.698 45.914C179.847 45.914 180.052 46.0027 180.314 46.18C180.108 46.7867 179.73 47.2673 179.18 47.622C178.629 47.9673 177.985 48.14 177.248 48.14C176.566 48.14 175.969 47.9813 175.456 47.664C174.952 47.3373 174.564 46.8753 174.294 46.278C174.023 45.6713 173.888 44.9573 173.888 44.136C173.888 42.8947 174.196 41.924 174.812 41.224C175.428 40.5147 176.272 40.16 177.346 40.16C178.326 40.16 179.091 40.4633 179.642 41.07C180.192 41.6767 180.468 42.5213 180.468 43.604ZM179.488 43.492C179.488 41.812 178.76 40.972 177.303 40.972C176.594 40.972 176.034 41.1867 175.624 41.616C175.213 42.0453 174.97 42.6707 174.896 43.492H179.488ZM188.301 46.208C188.301 46.7773 188.306 47.1647 188.315 47.37C188.334 47.566 188.371 47.7433 188.427 47.902C188.203 48.014 187.961 48.07 187.699 48.07C187.559 48.07 187.466 47.972 187.419 47.776C187.373 47.5707 187.349 47.1693 187.349 46.572V42.778C187.349 42.1247 187.228 41.6533 186.985 41.364C186.743 41.0653 186.351 40.916 185.809 40.916C184.969 40.916 184.111 41.3313 183.233 42.162V48H182.281V42.918C182.281 41.5367 182.225 40.7153 182.113 40.454C182.412 40.314 182.65 40.244 182.827 40.244C183.098 40.244 183.233 40.5147 183.233 41.056V41.182C183.663 40.8273 184.092 40.5707 184.521 40.412C184.96 40.244 185.422 40.16 185.907 40.16C186.71 40.16 187.307 40.3793 187.699 40.818C188.101 41.2473 188.301 41.9053 188.301 42.792V46.208ZM193.71 48.14C192.581 48.14 191.699 47.7853 191.064 47.076C190.439 46.3667 190.126 45.3773 190.126 44.108C190.126 43.3053 190.266 42.61 190.546 42.022C190.836 41.4247 191.246 40.9673 191.778 40.65C192.31 40.3233 192.936 40.16 193.654 40.16C194.513 40.16 195.218 40.3793 195.768 40.818C196.328 41.2473 196.655 41.8353 196.748 42.582C196.664 42.6193 196.548 42.6567 196.398 42.694C196.258 42.7313 196.142 42.75 196.048 42.75C195.955 42.75 195.885 42.7267 195.838 42.68C195.801 42.624 195.759 42.512 195.712 42.344C195.61 41.9053 195.376 41.5647 195.012 41.322C194.648 41.07 194.196 40.944 193.654 40.944C193.15 40.944 192.702 41.0747 192.31 41.336C191.928 41.5973 191.629 41.9707 191.414 42.456C191.209 42.932 191.106 43.4827 191.106 44.108C191.106 45.0973 191.34 45.886 191.806 46.474C192.282 47.062 192.917 47.356 193.71 47.356C194.317 47.356 194.835 47.216 195.264 46.936C195.694 46.6467 196.016 46.2267 196.23 45.676C196.361 45.676 196.468 45.732 196.552 45.844C196.646 45.956 196.692 46.0867 196.692 46.236C196.692 46.5627 196.552 46.8753 196.272 47.174C196.002 47.4633 195.633 47.6967 195.166 47.874C194.709 48.0513 194.224 48.14 193.71 48.14ZM201.113 48.14C200.031 48.14 199.214 47.804 198.663 47.132C198.113 46.46 197.837 45.4613 197.837 44.136C197.837 41.4853 198.929 40.16 201.113 40.16C203.297 40.16 204.389 41.4853 204.389 44.136C204.389 45.4613 204.114 46.46 203.563 47.132C203.013 47.804 202.196 48.14 201.113 48.14ZM201.113 47.356C201.907 47.356 202.485 47.0993 202.849 46.586C203.223 46.0633 203.409 45.2467 203.409 44.136C203.409 43.0347 203.223 42.2273 202.849 41.714C202.485 41.2007 201.907 40.944 201.113 40.944C200.32 40.944 199.737 41.2007 199.363 41.714C198.999 42.2273 198.817 43.0347 198.817 44.136C198.817 45.2467 198.999 46.0633 199.363 46.586C199.737 47.0993 200.32 47.356 201.113 47.356ZM212.185 46.418C212.185 46.9593 212.255 47.454 212.395 47.902C212.199 48.014 211.999 48.07 211.793 48.07C211.597 48.07 211.453 47.9907 211.359 47.832C211.275 47.664 211.229 47.3653 211.219 46.936C210.958 47.3 210.589 47.594 210.113 47.818C209.637 48.0327 209.124 48.14 208.573 48.14C206.996 48.14 206.207 47.2767 206.207 45.55V40.3H207.159V45.452C207.159 46.1333 207.285 46.628 207.537 46.936C207.789 47.2347 208.191 47.384 208.741 47.384C209.236 47.384 209.698 47.258 210.127 47.006C210.566 46.754 210.93 46.3993 211.219 45.942V40.3H212.185V46.418ZM217.776 40.202C218.103 40.202 218.35 40.258 218.518 40.37C218.696 40.4727 218.784 40.6313 218.784 40.846C218.784 40.9953 218.733 41.1307 218.63 41.252C218.406 41.1307 218.098 41.07 217.706 41.07C217.081 41.07 216.577 41.3173 216.194 41.812C215.821 42.3067 215.634 42.9553 215.634 43.758V48H214.682V40.3H215.634V41.686C215.849 41.2567 216.152 40.902 216.544 40.622C216.936 40.342 217.347 40.202 217.776 40.202ZM225.762 46.082C225.762 46.5113 225.794 46.852 225.86 47.104C225.934 47.3467 226.06 47.566 226.238 47.762C226.144 47.8553 226.032 47.93 225.902 47.986C225.78 48.042 225.664 48.07 225.552 48.07C225.365 48.07 225.206 47.9627 225.076 47.748C224.954 47.5333 224.875 47.2393 224.838 46.866C224.548 47.258 224.161 47.5707 223.676 47.804C223.19 48.028 222.682 48.14 222.15 48.14C221.44 48.14 220.871 47.958 220.442 47.594C220.012 47.2207 219.798 46.7353 219.798 46.138C219.798 45.2607 220.222 44.5747 221.072 44.08C221.93 43.5853 223.176 43.3007 224.81 43.226V42.778C224.81 42.162 224.651 41.7047 224.334 41.406C224.026 41.098 223.554 40.944 222.92 40.944C222.509 40.944 222.126 41.0327 221.772 41.21C221.426 41.378 221.053 41.6627 220.652 42.064C220.596 42.12 220.526 42.148 220.442 42.148C220.348 42.148 220.246 42.1107 220.134 42.036C220.022 41.952 219.914 41.8353 219.812 41.686C220.232 41.1913 220.708 40.8133 221.24 40.552C221.781 40.2907 222.355 40.16 222.962 40.16C223.83 40.16 224.511 40.3933 225.006 40.86C225.51 41.3267 225.762 41.966 225.762 42.778V46.082ZM222.22 47.356C222.724 47.356 223.2 47.216 223.648 46.936C224.096 46.656 224.483 46.2593 224.81 45.746V44.01C222.122 44.122 220.778 44.8267 220.778 46.124C220.778 46.9453 221.258 47.356 222.22 47.356ZM234.324 39.894C234.492 39.894 234.614 39.9407 234.688 40.034C234.772 40.118 234.814 40.258 234.814 40.454C234.814 40.51 234.805 40.622 234.786 40.79C234.096 40.79 233.615 40.8833 233.344 41.07C233.718 41.518 233.904 42.0733 233.904 42.736C233.904 44.528 232.873 45.424 230.81 45.424C230.176 45.424 229.709 45.4707 229.41 45.564C229.121 45.648 228.976 45.7833 228.976 45.97C228.976 46.39 229.728 46.6 231.23 46.6C232.285 46.6 233.102 46.7773 233.68 47.132C234.259 47.4867 234.548 47.9907 234.548 48.644C234.548 49.344 234.236 49.8807 233.61 50.254C232.994 50.6367 232.108 50.828 230.95 50.828C229.858 50.828 229.028 50.66 228.458 50.324C227.889 49.988 227.604 49.4933 227.604 48.84C227.604 48.4667 227.73 48.1353 227.982 47.846C228.244 47.5567 228.603 47.342 229.06 47.202V47.16C228.78 47.0853 228.556 46.95 228.388 46.754C228.22 46.5487 228.136 46.306 228.136 46.026C228.136 45.7927 228.23 45.5873 228.416 45.41C228.603 45.2233 228.855 45.0973 229.172 45.032C228.771 44.808 228.458 44.514 228.234 44.15C228.02 43.7767 227.912 43.3613 227.912 42.904C227.912 41.0747 228.967 40.16 231.076 40.16C231.739 40.16 232.304 40.3047 232.77 40.594C233.004 40.3793 233.256 40.2113 233.526 40.09C233.806 39.9593 234.072 39.894 234.324 39.894ZM230.894 44.64C231.613 44.64 232.126 44.5 232.434 44.22C232.752 43.9307 232.91 43.4547 232.91 42.792C232.91 42.1387 232.752 41.6627 232.434 41.364C232.117 41.0653 231.604 40.916 230.894 40.916C230.204 40.916 229.695 41.07 229.368 41.378C229.051 41.6767 228.892 42.148 228.892 42.792C228.892 44.024 229.56 44.64 230.894 44.64ZM231.006 47.468C230.213 47.468 229.611 47.5753 229.2 47.79C228.799 48.0047 228.598 48.3173 228.598 48.728C228.598 49.1573 228.799 49.484 229.2 49.708C229.602 49.932 230.185 50.044 230.95 50.044C231.809 50.044 232.458 49.932 232.896 49.708C233.335 49.4933 233.554 49.1667 233.554 48.728C233.554 48.28 233.354 47.958 232.952 47.762C232.56 47.566 231.912 47.468 231.006 47.468ZM242.374 43.604C242.374 43.8187 242.364 44.0333 242.346 44.248H236.774C236.792 45.2187 237.007 45.9747 237.418 46.516C237.838 47.0573 238.416 47.328 239.154 47.328C239.658 47.328 240.082 47.23 240.428 47.034C240.782 46.838 241.076 46.5253 241.31 46.096C241.375 45.9747 241.473 45.914 241.604 45.914C241.753 45.914 241.958 46.0027 242.22 46.18C242.014 46.7867 241.636 47.2673 241.086 47.622C240.535 47.9673 239.891 48.14 239.154 48.14C238.472 48.14 237.875 47.9813 237.362 47.664C236.858 47.3373 236.47 46.8753 236.2 46.278C235.929 45.6713 235.794 44.9573 235.794 44.136C235.794 42.8947 236.102 41.924 236.718 41.224C237.334 40.5147 238.178 40.16 239.252 40.16C240.232 40.16 240.997 40.4633 241.548 41.07C242.098 41.6767 242.374 42.5213 242.374 43.604ZM241.394 43.492C241.394 41.812 240.666 40.972 239.21 40.972C238.5 40.972 237.94 41.1867 237.53 41.616C237.119 42.0453 236.876 42.6707 236.802 43.492H241.394ZM251.325 47.062C251.39 47.1087 251.442 47.1787 251.479 47.272C251.526 47.356 251.549 47.4447 251.549 47.538C251.549 47.7153 251.474 47.8413 251.325 47.916C251.026 48.0653 250.639 48.14 250.163 48.14C249.556 48.14 249.071 47.9767 248.707 47.65C248.343 47.314 248.161 46.866 248.161 46.306V41.056H246.705V40.3H248.161V38.2H249.113V40.3H251.129V41.056H249.113V46.124C249.113 46.908 249.449 47.3 250.121 47.3C250.55 47.3 250.952 47.2207 251.325 47.062ZM256.715 40.16C257.518 40.16 258.153 40.3933 258.619 40.86C259.086 41.3173 259.319 41.9427 259.319 42.736V48H258.367V42.834C258.367 42.2273 258.218 41.7607 257.919 41.434C257.621 41.1073 257.191 40.944 256.631 40.944C256.202 40.944 255.749 41.042 255.273 41.238C254.797 41.4247 254.373 41.6767 253.999 41.994V48H253.047V36.926H253.999V41.084C254.41 40.7853 254.849 40.5567 255.315 40.398C255.782 40.2393 256.249 40.16 256.715 40.16ZM267.872 43.604C267.872 43.8187 267.862 44.0333 267.844 44.248H262.272C262.29 45.2187 262.505 45.9747 262.916 46.516C263.336 47.0573 263.914 47.328 264.652 47.328C265.156 47.328 265.58 47.23 265.926 47.034C266.28 46.838 266.574 46.5253 266.808 46.096C266.873 45.9747 266.971 45.914 267.102 45.914C267.251 45.914 267.456 46.0027 267.718 46.18C267.512 46.7867 267.134 47.2673 266.584 47.622C266.033 47.9673 265.389 48.14 264.652 48.14C263.97 48.14 263.373 47.9813 262.86 47.664C262.356 47.3373 261.968 46.8753 261.698 46.278C261.427 45.6713 261.292 44.9573 261.292 44.136C261.292 42.8947 261.6 41.924 262.216 41.224C262.832 40.5147 263.676 40.16 264.75 40.16C265.73 40.16 266.495 40.4633 267.046 41.07C267.596 41.6767 267.872 42.5213 267.872 43.604ZM266.892 43.492C266.892 41.812 266.164 40.972 264.708 40.972C263.998 40.972 263.438 41.1867 263.028 41.616C262.617 42.0453 262.374 42.6707 262.3 43.492H266.892ZM59.238 68.418C59.238 68.9593 59.308 69.454 59.448 69.902C59.252 70.014 59.0513 70.07 58.846 70.07C58.65 70.07 58.5053 69.9907 58.412 69.832C58.328 69.664 58.2813 69.3653 58.272 68.936C58.0107 69.3 57.642 69.594 57.166 69.818C56.69 70.0327 56.1767 70.14 55.626 70.14C54.0487 70.14 53.26 69.2767 53.26 67.55V62.3H54.212V67.452C54.212 68.1333 54.338 68.628 54.59 68.936C54.842 69.2347 55.2433 69.384 55.794 69.384C56.2887 69.384 56.7507 69.258 57.18 69.006C57.6187 68.754 57.9827 68.3993 58.272 67.942V62.3H59.238V68.418ZM63.9749 70.14C63.5549 70.14 63.1209 70.07 62.6729 69.93C62.2249 69.79 61.8516 69.6033 61.5529 69.37C61.2543 69.1367 61.1049 68.8893 61.1049 68.628C61.1049 68.5067 61.1423 68.3993 61.2169 68.306C61.3009 68.2033 61.4036 68.1333 61.5249 68.096C61.8609 68.5347 62.2249 68.8567 62.6169 69.062C63.0089 69.258 63.4803 69.356 64.0309 69.356C64.6189 69.356 65.0623 69.2207 65.3609 68.95C65.6689 68.6793 65.8229 68.32 65.8229 67.872C65.8229 67.5733 65.7296 67.3307 65.5429 67.144C65.3656 66.9573 65.1416 66.8173 64.8709 66.724C64.6096 66.6307 64.2456 66.5233 63.7789 66.402C63.2376 66.262 62.7989 66.1267 62.4629 65.996C62.1363 65.8653 61.8563 65.6693 61.6229 65.408C61.3989 65.1373 61.2869 64.778 61.2869 64.33C61.2869 63.854 61.4129 63.4527 61.6649 63.126C61.9169 62.7993 62.2389 62.5567 62.6309 62.398C63.0229 62.2393 63.4243 62.16 63.8349 62.16C64.4229 62.16 64.9549 62.2767 65.4309 62.51C65.9163 62.7433 66.2943 63.084 66.5649 63.532C66.3409 63.7653 66.1496 63.882 65.9909 63.882C65.8696 63.882 65.7529 63.8167 65.6409 63.686C65.4169 63.4247 65.1556 63.2333 64.8569 63.112C64.5676 62.9813 64.2129 62.916 63.7929 62.916C63.3169 62.916 62.9389 63.028 62.6589 63.252C62.3789 63.476 62.2389 63.8213 62.2389 64.288C62.2389 64.5587 62.3229 64.778 62.4909 64.946C62.6589 65.114 62.8689 65.2447 63.1209 65.338C63.3729 65.422 63.7183 65.52 64.1569 65.632C64.7169 65.7627 65.1696 65.898 65.5149 66.038C65.8696 66.178 66.1683 66.3973 66.4109 66.696C66.6536 66.9853 66.7749 67.3773 66.7749 67.872C66.7749 68.5627 66.5183 69.1133 66.0049 69.524C65.5009 69.9347 64.8243 70.14 63.9749 70.14ZM74.6198 65.604C74.6198 65.8187 74.6105 66.0333 74.5918 66.248H69.0198C69.0385 67.2187 69.2532 67.9747 69.6638 68.516C70.0838 69.0573 70.6625 69.328 71.3998 69.328C71.9038 69.328 72.3285 69.23 72.6738 69.034C73.0285 68.838 73.3225 68.5253 73.5558 68.096C73.6212 67.9747 73.7192 67.914 73.8498 67.914C73.9992 67.914 74.2045 68.0027 74.4658 68.18C74.2605 68.7867 73.8825 69.2673 73.3318 69.622C72.7812 69.9673 72.1372 70.14 71.3998 70.14C70.7185 70.14 70.1212 69.9813 69.6078 69.664C69.1038 69.3373 68.7165 68.8753 68.4458 68.278C68.1752 67.6713 68.0398 66.9573 68.0398 66.136C68.0398 64.8947 68.3478 63.924 68.9638 63.224C69.5798 62.5147 70.4245 62.16 71.4978 62.16C72.4778 62.16 73.2432 62.4633 73.7938 63.07C74.3445 63.6767 74.6198 64.5213 74.6198 65.604ZM73.6398 65.492C73.6398 63.812 72.9118 62.972 71.4558 62.972C70.7465 62.972 70.1865 63.1867 69.7758 63.616C69.3652 64.0453 69.1225 64.6707 69.0478 65.492H73.6398ZM79.4578 62.202C79.7845 62.202 80.0318 62.258 80.1998 62.37C80.3772 62.4727 80.4658 62.6313 80.4658 62.846C80.4658 62.9953 80.4145 63.1307 80.3118 63.252C80.0878 63.1307 79.7798 63.07 79.3878 63.07C78.7625 63.07 78.2585 63.3173 77.8758 63.812C77.5025 64.3067 77.3158 64.9553 77.3158 65.758V70H76.3638V62.3H77.3158V63.686C77.5305 63.2567 77.8338 62.902 78.2258 62.622C78.6178 62.342 79.0285 62.202 79.4578 62.202ZM84.2093 70.14C83.7893 70.14 83.3553 70.07 82.9073 69.93C82.4593 69.79 82.086 69.6033 81.7873 69.37C81.4886 69.1367 81.3393 68.8893 81.3393 68.628C81.3393 68.5067 81.3766 68.3993 81.4513 68.306C81.5353 68.2033 81.638 68.1333 81.7593 68.096C82.0953 68.5347 82.4593 68.8567 82.8513 69.062C83.2433 69.258 83.7146 69.356 84.2653 69.356C84.8533 69.356 85.2966 69.2207 85.5953 68.95C85.9033 68.6793 86.0573 68.32 86.0573 67.872C86.0573 67.5733 85.964 67.3307 85.7773 67.144C85.6 66.9573 85.376 66.8173 85.1053 66.724C84.844 66.6307 84.48 66.5233 84.0133 66.402C83.472 66.262 83.0333 66.1267 82.6973 65.996C82.3706 65.8653 82.0906 65.6693 81.8573 65.408C81.6333 65.1373 81.5213 64.778 81.5213 64.33C81.5213 63.854 81.6473 63.4527 81.8993 63.126C82.1513 62.7993 82.4733 62.5567 82.8653 62.398C83.2573 62.2393 83.6586 62.16 84.0693 62.16C84.6573 62.16 85.1893 62.2767 85.6653 62.51C86.1506 62.7433 86.5286 63.084 86.7993 63.532C86.5753 63.7653 86.384 63.882 86.2253 63.882C86.104 63.882 85.9873 63.8167 85.8753 63.686C85.6513 63.4247 85.39 63.2333 85.0913 63.112C84.802 62.9813 84.4473 62.916 84.0273 62.916C83.5513 62.916 83.1733 63.028 82.8933 63.252C82.6133 63.476 82.4733 63.8213 82.4733 64.288C82.4733 64.5587 82.5573 64.778 82.7253 64.946C82.8933 65.114 83.1033 65.2447 83.3553 65.338C83.6073 65.422 83.9526 65.52 84.3913 65.632C84.9513 65.7627 85.404 65.898 85.7493 66.038C86.104 66.178 86.4026 66.3973 86.6453 66.696C86.888 66.9853 87.0093 67.3773 87.0093 67.872C87.0093 68.5627 86.7526 69.1133 86.2393 69.524C85.7353 69.9347 85.0586 70.14 84.2093 70.14ZM95.9716 69.062C96.0369 69.1087 96.0883 69.1787 96.1256 69.272C96.1723 69.356 96.1956 69.4447 96.1956 69.538C96.1956 69.7153 96.1209 69.8413 95.9716 69.916C95.6729 70.0653 95.2856 70.14 94.8096 70.14C94.2029 70.14 93.7176 69.9767 93.3536 69.65C92.9896 69.314 92.8076 68.866 92.8076 68.306V63.056H91.3516V62.3H92.8076V60.2H93.7596V62.3H95.7756V63.056H93.7596V68.124C93.7596 68.908 94.0956 69.3 94.7676 69.3C95.1969 69.3 95.5983 69.2207 95.9716 69.062ZM100.256 70.14C99.1733 70.14 98.3566 69.804 97.8059 69.132C97.2553 68.46 96.9799 67.4613 96.9799 66.136C96.9799 63.4853 98.0719 62.16 100.256 62.16C102.44 62.16 103.532 63.4853 103.532 66.136C103.532 67.4613 103.257 68.46 102.706 69.132C102.155 69.804 101.339 70.14 100.256 70.14ZM100.256 69.356C101.049 69.356 101.628 69.0993 101.992 68.586C102.365 68.0633 102.552 67.2467 102.552 66.136C102.552 65.0347 102.365 64.2273 101.992 63.714C101.628 63.2007 101.049 62.944 100.256 62.944C99.4626 62.944 98.8793 63.2007 98.5059 63.714C98.1419 64.2273 97.9599 65.0347 97.9599 66.136C97.9599 67.2467 98.1419 68.0633 98.5059 68.586C98.8793 69.0993 99.4626 69.356 100.256 69.356ZM116.953 62.16C117.616 62.16 118.153 62.3747 118.563 62.804C118.983 63.2333 119.193 63.7887 119.193 64.47V70H118.227V64.512C118.227 63.9707 118.106 63.5693 117.863 63.308C117.621 63.0467 117.252 62.916 116.757 62.916C115.964 62.916 115.227 63.28 114.545 64.008C114.564 64.1573 114.573 64.2693 114.573 64.344V70H113.621V64.372C113.621 63.9333 113.486 63.5833 113.215 63.322C112.954 63.0513 112.604 62.916 112.165 62.916C111.764 62.916 111.381 63.0047 111.017 63.182C110.663 63.3593 110.303 63.644 109.939 64.036V70H108.987V64.918C108.987 63.5367 108.931 62.7153 108.819 62.454C109.118 62.314 109.356 62.244 109.533 62.244C109.804 62.244 109.939 62.5147 109.939 63.056V63.112C110.294 62.776 110.658 62.5333 111.031 62.384C111.414 62.2347 111.848 62.16 112.333 62.16C112.772 62.16 113.164 62.2627 113.509 62.468C113.855 62.664 114.121 62.9347 114.307 63.28C114.709 62.888 115.115 62.6033 115.525 62.426C115.945 62.2487 116.421 62.16 116.953 62.16ZM127.133 68.082C127.133 68.5113 127.165 68.852 127.231 69.104C127.305 69.3467 127.431 69.566 127.609 69.762C127.515 69.8553 127.403 69.93 127.273 69.986C127.151 70.042 127.035 70.07 126.923 70.07C126.736 70.07 126.577 69.9627 126.447 69.748C126.325 69.5333 126.246 69.2393 126.209 68.866C125.919 69.258 125.532 69.5707 125.047 69.804C124.561 70.028 124.053 70.14 123.521 70.14C122.811 70.14 122.242 69.958 121.813 69.594C121.383 69.2207 121.169 68.7353 121.169 68.138C121.169 67.2607 121.593 66.5747 122.443 66.08C123.301 65.5853 124.547 65.3007 126.181 65.226V64.778C126.181 64.162 126.022 63.7047 125.705 63.406C125.397 63.098 124.925 62.944 124.291 62.944C123.88 62.944 123.497 63.0327 123.143 63.21C122.797 63.378 122.424 63.6627 122.023 64.064C121.967 64.12 121.897 64.148 121.813 64.148C121.719 64.148 121.617 64.1107 121.505 64.036C121.393 63.952 121.285 63.8353 121.183 63.686C121.603 63.1913 122.079 62.8133 122.611 62.552C123.152 62.2907 123.726 62.16 124.333 62.16C125.201 62.16 125.882 62.3933 126.377 62.86C126.881 63.3267 127.133 63.966 127.133 64.778V68.082ZM123.591 69.356C124.095 69.356 124.571 69.216 125.019 68.936C125.467 68.656 125.854 68.2593 126.181 67.746V66.01C123.493 66.122 122.149 66.8267 122.149 68.124C122.149 68.9453 122.629 69.356 123.591 69.356ZM135.681 70C135.523 70 135.341 70.0093 135.135 70.028C134.967 70.0467 134.865 70.056 134.827 70.056C134.65 70.056 134.515 69.9813 134.421 69.832L132.615 66.92C132.345 66.4813 131.855 66.276 131.145 66.304L130.501 66.332V70H129.549V58.926H130.501V65.464L131.047 65.45C131.243 65.4407 131.411 65.4033 131.551 65.338C131.691 65.2633 131.817 65.1513 131.929 65.002L134.029 62.3H135.205L132.713 65.352C132.695 65.3707 132.653 65.422 132.587 65.506C132.522 65.5807 132.438 65.646 132.335 65.702C132.793 65.8233 133.124 66.0473 133.329 66.374L135.681 70ZM143.212 65.604C143.212 65.8187 143.202 66.0333 143.184 66.248H137.612C137.63 67.2187 137.845 67.9747 138.256 68.516C138.676 69.0573 139.254 69.328 139.992 69.328C140.496 69.328 140.92 69.23 141.266 69.034C141.62 68.838 141.914 68.5253 142.148 68.096C142.213 67.9747 142.311 67.914 142.442 67.914C142.591 67.914 142.796 68.0027 143.058 68.18C142.852 68.7867 142.474 69.2673 141.924 69.622C141.373 69.9673 140.729 70.14 139.992 70.14C139.31 70.14 138.713 69.9813 138.2 69.664C137.696 69.3373 137.308 68.8753 137.038 68.278C136.767 67.6713 136.632 66.9573 136.632 66.136C136.632 64.8947 136.94 63.924 137.556 63.224C138.172 62.5147 139.016 62.16 140.09 62.16C141.07 62.16 141.835 62.4633 142.386 63.07C142.936 63.6767 143.212 64.5213 143.212 65.604ZM142.232 65.492C142.232 63.812 141.504 62.972 140.048 62.972C139.338 62.972 138.778 63.1867 138.368 63.616C137.957 64.0453 137.714 64.6707 137.64 65.492H142.232ZM150.805 70.14C150.385 70.14 149.951 70.07 149.503 69.93C149.055 69.79 148.682 69.6033 148.383 69.37C148.084 69.1367 147.935 68.8893 147.935 68.628C147.935 68.5067 147.972 68.3993 148.047 68.306C148.131 68.2033 148.234 68.1333 148.355 68.096C148.691 68.5347 149.055 68.8567 149.447 69.062C149.839 69.258 150.31 69.356 150.861 69.356C151.449 69.356 151.892 69.2207 152.191 68.95C152.499 68.6793 152.653 68.32 152.653 67.872C152.653 67.5733 152.56 67.3307 152.373 67.144C152.196 66.9573 151.972 66.8173 151.701 66.724C151.44 66.6307 151.076 66.5233 150.609 66.402C150.068 66.262 149.629 66.1267 149.293 65.996C148.966 65.8653 148.686 65.6693 148.453 65.408C148.229 65.1373 148.117 64.778 148.117 64.33C148.117 63.854 148.243 63.4527 148.495 63.126C148.747 62.7993 149.069 62.5567 149.461 62.398C149.853 62.2393 150.254 62.16 150.665 62.16C151.253 62.16 151.785 62.2767 152.261 62.51C152.746 62.7433 153.124 63.084 153.395 63.532C153.171 63.7653 152.98 63.882 152.821 63.882C152.7 63.882 152.583 63.8167 152.471 63.686C152.247 63.4247 151.986 63.2333 151.687 63.112C151.398 62.9813 151.043 62.916 150.623 62.916C150.147 62.916 149.769 63.028 149.489 63.252C149.209 63.476 149.069 63.8213 149.069 64.288C149.069 64.5587 149.153 64.778 149.321 64.946C149.489 65.114 149.699 65.2447 149.951 65.338C150.203 65.422 150.548 65.52 150.987 65.632C151.547 65.7627 152 65.898 152.345 66.038C152.7 66.178 152.998 66.3973 153.241 66.696C153.484 66.9853 153.605 67.3773 153.605 67.872C153.605 68.5627 153.348 69.1133 152.835 69.524C152.331 69.9347 151.654 70.14 150.805 70.14ZM158.006 70.14C156.923 70.14 156.107 69.804 155.556 69.132C155.005 68.46 154.73 67.4613 154.73 66.136C154.73 63.4853 155.822 62.16 158.006 62.16C160.19 62.16 161.282 63.4853 161.282 66.136C161.282 67.4613 161.007 68.46 160.456 69.132C159.905 69.804 159.089 70.14 158.006 70.14ZM158.006 69.356C158.799 69.356 159.378 69.0993 159.742 68.586C160.115 68.0633 160.302 67.2467 160.302 66.136C160.302 65.0347 160.115 64.2273 159.742 63.714C159.378 63.2007 158.799 62.944 158.006 62.944C157.213 62.944 156.629 63.2007 156.256 63.714C155.892 64.2273 155.71 65.0347 155.71 66.136C155.71 67.2467 155.892 68.0633 156.256 68.586C156.629 69.0993 157.213 69.356 158.006 69.356ZM171.094 62.16C171.757 62.16 172.293 62.3747 172.704 62.804C173.124 63.2333 173.334 63.7887 173.334 64.47V70H172.368V64.512C172.368 63.9707 172.247 63.5693 172.004 63.308C171.761 63.0467 171.393 62.916 170.898 62.916C170.105 62.916 169.367 63.28 168.686 64.008C168.705 64.1573 168.714 64.2693 168.714 64.344V70H167.762V64.372C167.762 63.9333 167.627 63.5833 167.356 63.322C167.095 63.0513 166.745 62.916 166.306 62.916C165.905 62.916 165.522 63.0047 165.158 63.182C164.803 63.3593 164.444 63.644 164.08 64.036V70H163.128V64.918C163.128 63.5367 163.072 62.7153 162.96 62.454C163.259 62.314 163.497 62.244 163.674 62.244C163.945 62.244 164.08 62.5147 164.08 63.056V63.112C164.435 62.776 164.799 62.5333 165.172 62.384C165.555 62.2347 165.989 62.16 166.474 62.16C166.913 62.16 167.305 62.2627 167.65 62.468C167.995 62.664 168.261 62.9347 168.448 63.28C168.849 62.888 169.255 62.6033 169.666 62.426C170.086 62.2487 170.562 62.16 171.094 62.16ZM181.889 65.604C181.889 65.8187 181.88 66.0333 181.861 66.248H176.289C176.308 67.2187 176.523 67.9747 176.933 68.516C177.353 69.0573 177.932 69.328 178.669 69.328C179.173 69.328 179.598 69.23 179.943 69.034C180.298 68.838 180.592 68.5253 180.825 68.096C180.891 67.9747 180.989 67.914 181.119 67.914C181.269 67.914 181.474 68.0027 181.735 68.18C181.53 68.7867 181.152 69.2673 180.601 69.622C180.051 69.9673 179.407 70.14 178.669 70.14C177.988 70.14 177.391 69.9813 176.877 69.664C176.373 69.3373 175.986 68.8753 175.715 68.278C175.445 67.6713 175.309 66.9573 175.309 66.136C175.309 64.8947 175.617 63.924 176.233 63.224C176.849 62.5147 177.694 62.16 178.767 62.16C179.747 62.16 180.513 62.4633 181.063 63.07C181.614 63.6767 181.889 64.5213 181.889 65.604ZM180.909 65.492C180.909 63.812 180.181 62.972 178.725 62.972C178.016 62.972 177.456 63.1867 177.045 63.616C176.635 64.0453 176.392 64.6707 176.317 65.492H180.909ZM187.231 69.062C187.297 69.1087 187.348 69.1787 187.385 69.272C187.432 69.356 187.455 69.4447 187.455 69.538C187.455 69.7153 187.381 69.8413 187.231 69.916C186.933 70.0653 186.545 70.14 186.069 70.14C185.463 70.14 184.977 69.9767 184.613 69.65C184.249 69.314 184.067 68.866 184.067 68.306V63.056H182.611V62.3H184.067V60.2H185.019V62.3H187.035V63.056H185.019V68.124C185.019 68.908 185.355 69.3 186.027 69.3C186.457 69.3 186.858 69.2207 187.231 69.062ZM192.622 62.16C193.424 62.16 194.059 62.3933 194.526 62.86C194.992 63.3173 195.226 63.9427 195.226 64.736V70H194.274V64.834C194.274 64.2273 194.124 63.7607 193.826 63.434C193.527 63.1073 193.098 62.944 192.538 62.944C192.108 62.944 191.656 63.042 191.18 63.238C190.704 63.4247 190.279 63.6767 189.906 63.994V70H188.954V58.926H189.906V63.084C190.316 62.7853 190.755 62.5567 191.222 62.398C191.688 62.2393 192.155 62.16 192.622 62.16ZM198.038 62.3H198.99V70H198.038V62.3ZM198.458 60.886C198.038 60.886 197.828 60.676 197.828 60.256V60.13C197.828 59.71 198.038 59.5 198.458 59.5H198.57C198.99 59.5 199.2 59.71 199.2 60.13V60.256C199.2 60.676 198.99 60.886 198.57 60.886H198.458ZM207.811 68.208C207.811 68.7773 207.816 69.1647 207.825 69.37C207.844 69.566 207.881 69.7433 207.937 69.902C207.713 70.014 207.471 70.07 207.209 70.07C207.069 70.07 206.976 69.972 206.929 69.776C206.883 69.5707 206.859 69.1693 206.859 68.572V64.778C206.859 64.1247 206.738 63.6533 206.495 63.364C206.253 63.0653 205.861 62.916 205.319 62.916C204.479 62.916 203.621 63.3313 202.743 64.162V70H201.791V64.918C201.791 63.5367 201.735 62.7153 201.623 62.454C201.922 62.314 202.16 62.244 202.337 62.244C202.608 62.244 202.743 62.5147 202.743 63.056V63.182C203.173 62.8273 203.602 62.5707 204.031 62.412C204.47 62.244 204.932 62.16 205.417 62.16C206.22 62.16 206.817 62.3793 207.209 62.818C207.611 63.2473 207.811 63.9053 207.811 64.792V68.208ZM216.496 61.894C216.664 61.894 216.786 61.9407 216.86 62.034C216.944 62.118 216.986 62.258 216.986 62.454C216.986 62.51 216.977 62.622 216.958 62.79C216.268 62.79 215.787 62.8833 215.516 63.07C215.89 63.518 216.076 64.0733 216.076 64.736C216.076 66.528 215.045 67.424 212.982 67.424C212.348 67.424 211.881 67.4707 211.582 67.564C211.293 67.648 211.148 67.7833 211.148 67.97C211.148 68.39 211.9 68.6 213.402 68.6C214.457 68.6 215.274 68.7773 215.852 69.132C216.431 69.4867 216.72 69.9907 216.72 70.644C216.72 71.344 216.408 71.8807 215.782 72.254C215.166 72.6367 214.28 72.828 213.122 72.828C212.03 72.828 211.2 72.66 210.63 72.324C210.061 71.988 209.776 71.4933 209.776 70.84C209.776 70.4667 209.902 70.1353 210.154 69.846C210.416 69.5567 210.775 69.342 211.232 69.202V69.16C210.952 69.0853 210.728 68.95 210.56 68.754C210.392 68.5487 210.308 68.306 210.308 68.026C210.308 67.7927 210.402 67.5873 210.588 67.41C210.775 67.2233 211.027 67.0973 211.344 67.032C210.943 66.808 210.63 66.514 210.406 66.15C210.192 65.7767 210.084 65.3613 210.084 64.904C210.084 63.0747 211.139 62.16 213.248 62.16C213.911 62.16 214.476 62.3047 214.942 62.594C215.176 62.3793 215.428 62.2113 215.698 62.09C215.978 61.9593 216.244 61.894 216.496 61.894ZM213.066 66.64C213.785 66.64 214.298 66.5 214.606 66.22C214.924 65.9307 215.082 65.4547 215.082 64.792C215.082 64.1387 214.924 63.6627 214.606 63.364C214.289 63.0653 213.776 62.916 213.066 62.916C212.376 62.916 211.867 63.07 211.54 63.378C211.223 63.6767 211.064 64.148 211.064 64.792C211.064 66.024 211.732 66.64 213.066 66.64ZM213.178 69.468C212.385 69.468 211.783 69.5753 211.372 69.79C210.971 70.0047 210.77 70.3173 210.77 70.728C210.77 71.1573 210.971 71.484 211.372 71.708C211.774 71.932 212.357 72.044 213.122 72.044C213.981 72.044 214.63 71.932 215.068 71.708C215.507 71.4933 215.726 71.1667 215.726 70.728C215.726 70.28 215.526 69.958 215.124 69.762C214.732 69.566 214.084 69.468 213.178 69.468ZM220.696 70.14C220.276 70.14 219.842 70.07 219.394 69.93C218.946 69.79 218.572 69.6033 218.274 69.37C217.975 69.1367 217.826 68.8893 217.826 68.628C217.826 68.5067 217.863 68.3993 217.938 68.306C218.022 68.2033 218.124 68.1333 218.246 68.096C218.582 68.5347 218.946 68.8567 219.338 69.062C219.73 69.258 220.201 69.356 220.752 69.356C221.34 69.356 221.783 69.2207 222.082 68.95C222.39 68.6793 222.544 68.32 222.544 67.872C222.544 67.5733 222.45 67.3307 222.264 67.144C222.086 66.9573 221.862 66.8173 221.592 66.724C221.33 66.6307 220.966 66.5233 220.5 66.402C219.958 66.262 219.52 66.1267 219.184 65.996C218.857 65.8653 218.577 65.6693 218.344 65.408C218.12 65.1373 218.008 64.778 218.008 64.33C218.008 63.854 218.134 63.4527 218.386 63.126C218.638 62.7993 218.96 62.5567 219.352 62.398C219.744 62.2393 220.145 62.16 220.556 62.16C221.144 62.16 221.676 62.2767 222.152 62.51C222.637 62.7433 223.015 63.084 223.286 63.532C223.062 63.7653 222.87 63.882 222.712 63.882C222.59 63.882 222.474 63.8167 222.362 63.686C222.138 63.4247 221.876 63.2333 221.578 63.112C221.288 62.9813 220.934 62.916 220.514 62.916C220.038 62.916 219.66 63.028 219.38 63.252C219.1 63.476 218.96 63.8213 218.96 64.288C218.96 64.5587 219.044 64.778 219.212 64.946C219.38 65.114 219.59 65.2447 219.842 65.338C220.094 65.422 220.439 65.52 220.878 65.632C221.438 65.7627 221.89 65.898 222.236 66.038C222.59 66.178 222.889 66.3973 223.132 66.696C223.374 66.9853 223.496 67.3773 223.496 67.872C223.496 68.5627 223.239 69.1133 222.726 69.524C222.222 69.9347 221.545 70.14 220.696 70.14ZM55.584 81.052C56.0133 81.052 56.34 81.1033 56.564 81.206C56.788 81.3087 56.9 81.458 56.9 81.654C56.9 81.7567 56.8813 81.8547 56.844 81.948C56.816 82.032 56.7787 82.074 56.732 82.074C56.452 81.934 56.13 81.864 55.766 81.864C55.374 81.864 55.0753 81.9853 54.87 82.228C54.6647 82.4707 54.562 82.8207 54.562 83.278V84.3H56.298V85.028H54.562V92H53.61V85.028H52.168V84.3H53.61V83.264C53.61 82.592 53.7873 82.0553 54.142 81.654C54.506 81.2527 54.9867 81.052 55.584 81.052ZM60.5255 92.14C59.4428 92.14 58.6261 91.804 58.0755 91.132C57.5248 90.46 57.2495 89.4613 57.2495 88.136C57.2495 85.4853 58.3415 84.16 60.5255 84.16C62.7095 84.16 63.8015 85.4853 63.8015 88.136C63.8015 89.4613 63.5261 90.46 62.9755 91.132C62.4248 91.804 61.6081 92.14 60.5255 92.14ZM60.5255 91.356C61.3188 91.356 61.8975 91.0993 62.2615 90.586C62.6348 90.0633 62.8215 89.2467 62.8215 88.136C62.8215 87.0347 62.6348 86.2273 62.2615 85.714C61.8975 85.2007 61.3188 84.944 60.5255 84.944C59.7321 84.944 59.1488 85.2007 58.7755 85.714C58.4115 86.2273 58.2295 87.0347 58.2295 88.136C58.2295 89.2467 58.4115 90.0633 58.7755 90.586C59.1488 91.0993 59.7321 91.356 60.5255 91.356ZM68.6434 84.202C68.97 84.202 69.2174 84.258 69.3854 84.37C69.5627 84.4727 69.6514 84.6313 69.6514 84.846C69.6514 84.9953 69.6 85.1307 69.4974 85.252C69.2734 85.1307 68.9654 85.07 68.5734 85.07C67.948 85.07 67.444 85.3173 67.0614 85.812C66.688 86.3067 66.5014 86.9553 66.5014 87.758V92H65.5494V84.3H66.5014V85.686C66.716 85.2567 67.0194 84.902 67.4114 84.622C67.8034 84.342 68.214 84.202 68.6434 84.202ZM77.0042 92.14C76.5842 92.14 76.1502 92.07 75.7022 91.93C75.2542 91.79 74.8809 91.6033 74.5822 91.37C74.2836 91.1367 74.1342 90.8893 74.1342 90.628C74.1342 90.5067 74.1716 90.3993 74.2462 90.306C74.3302 90.2033 74.4329 90.1333 74.5542 90.096C74.8902 90.5347 75.2542 90.8567 75.6462 91.062C76.0382 91.258 76.5096 91.356 77.0602 91.356C77.6482 91.356 78.0916 91.2207 78.3902 90.95C78.6982 90.6793 78.8522 90.32 78.8522 89.872C78.8522 89.5733 78.7589 89.3307 78.5722 89.144C78.3949 88.9573 78.1709 88.8173 77.9002 88.724C77.6389 88.6307 77.2749 88.5233 76.8082 88.402C76.2669 88.262 75.8282 88.1267 75.4922 87.996C75.1656 87.8653 74.8856 87.6693 74.6522 87.408C74.4282 87.1373 74.3162 86.778 74.3162 86.33C74.3162 85.854 74.4422 85.4527 74.6942 85.126C74.9462 84.7993 75.2682 84.5567 75.6602 84.398C76.0522 84.2393 76.4536 84.16 76.8642 84.16C77.4522 84.16 77.9842 84.2767 78.4602 84.51C78.9456 84.7433 79.3236 85.084 79.5942 85.532C79.3702 85.7653 79.1789 85.882 79.0202 85.882C78.8989 85.882 78.7822 85.8167 78.6702 85.686C78.4462 85.4247 78.1849 85.2333 77.8862 85.112C77.5969 84.9813 77.2422 84.916 76.8222 84.916C76.3462 84.916 75.9682 85.028 75.6882 85.252C75.4082 85.476 75.2682 85.8213 75.2682 86.288C75.2682 86.5587 75.3522 86.778 75.5202 86.946C75.6882 87.114 75.8982 87.2447 76.1502 87.338C76.4022 87.422 76.7476 87.52 77.1862 87.632C77.7462 87.7627 78.1989 87.898 78.5442 88.038C78.8989 88.178 79.1976 88.3973 79.4402 88.696C79.6829 88.9853 79.8042 89.3773 79.8042 89.872C79.8042 90.5627 79.5476 91.1133 79.0342 91.524C78.5302 91.9347 77.8536 92.14 77.0042 92.14ZM84.2051 92.14C83.1225 92.14 82.3058 91.804 81.7551 91.132C81.2045 90.46 80.9291 89.4613 80.9291 88.136C80.9291 85.4853 82.0211 84.16 84.2051 84.16C86.3891 84.16 87.4811 85.4853 87.4811 88.136C87.4811 89.4613 87.2058 90.46 86.6551 91.132C86.1045 91.804 85.2878 92.14 84.2051 92.14ZM84.2051 91.356C84.9985 91.356 85.5771 91.0993 85.9411 90.586C86.3145 90.0633 86.5011 89.2467 86.5011 88.136C86.5011 87.0347 86.3145 86.2273 85.9411 85.714C85.5771 85.2007 84.9985 84.944 84.2051 84.944C83.4118 84.944 82.8285 85.2007 82.4551 85.714C82.0911 86.2273 81.9091 87.0347 81.9091 88.136C81.9091 89.2467 82.0911 90.0633 82.4551 90.586C82.8285 91.0993 83.4118 91.356 84.2051 91.356ZM97.2931 84.16C97.9557 84.16 98.4924 84.3747 98.9031 84.804C99.3231 85.2333 99.5331 85.7887 99.5331 86.47V92H98.5671V86.512C98.5671 85.9707 98.4457 85.5693 98.2031 85.308C97.9604 85.0467 97.5917 84.916 97.0971 84.916C96.3037 84.916 95.5664 85.28 94.8851 86.008C94.9037 86.1573 94.9131 86.2693 94.9131 86.344V92H93.9611V86.372C93.9611 85.9333 93.8257 85.5833 93.5551 85.322C93.2937 85.0513 92.9437 84.916 92.5051 84.916C92.1037 84.916 91.7211 85.0047 91.3571 85.182C91.0024 85.3593 90.6431 85.644 90.2791 86.036V92H89.3271V86.918C89.3271 85.5367 89.2711 84.7153 89.1591 84.454C89.4577 84.314 89.6957 84.244 89.8731 84.244C90.1437 84.244 90.2791 84.5147 90.2791 85.056V85.112C90.6337 84.776 90.9977 84.5333 91.3711 84.384C91.7537 84.2347 92.1877 84.16 92.6731 84.16C93.1117 84.16 93.5037 84.2627 93.8491 84.468C94.1944 84.664 94.4604 84.9347 94.6471 85.28C95.0484 84.888 95.4544 84.6033 95.8651 84.426C96.2851 84.2487 96.7611 84.16 97.2931 84.16ZM108.089 87.604C108.089 87.8187 108.079 88.0333 108.061 88.248H102.489C102.507 89.2187 102.722 89.9747 103.133 90.516C103.553 91.0573 104.131 91.328 104.869 91.328C105.373 91.328 105.797 91.23 106.143 91.034C106.497 90.838 106.791 90.5253 107.025 90.096C107.09 89.9747 107.188 89.914 107.319 89.914C107.468 89.914 107.673 90.0027 107.935 90.18C107.729 90.7867 107.351 91.2673 106.801 91.622C106.25 91.9673 105.606 92.14 104.869 92.14C104.187 92.14 103.59 91.9813 103.077 91.664C102.573 91.3373 102.185 90.8753 101.915 90.278C101.644 89.6713 101.509 88.9573 101.509 88.136C101.509 86.8947 101.817 85.924 102.433 85.224C103.049 84.5147 103.893 84.16 104.967 84.16C105.947 84.16 106.712 84.4633 107.263 85.07C107.813 85.6767 108.089 86.5213 108.089 87.604ZM107.109 87.492C107.109 85.812 106.381 84.972 104.925 84.972C104.215 84.972 103.655 85.1867 103.245 85.616C102.834 86.0453 102.591 86.6707 102.517 87.492H107.109ZM119.518 82.2C119.555 82.368 119.574 82.48 119.574 82.536C119.574 82.6947 119.532 82.8207 119.448 82.914C119.364 82.998 119.238 83.04 119.07 83.04H116.494V92H115.486V83.04H112.462V82.2H119.518ZM121.942 83.04V86.498H126.1V87.338H121.942V92H120.934V82.2H126.702V83.04H121.942ZM133.412 86.946C133.926 87.086 134.346 87.3707 134.672 87.8C134.999 88.2293 135.162 88.724 135.162 89.284C135.162 90.152 134.864 90.824 134.266 91.3C133.669 91.7667 132.82 92 131.718 92H128.358V82.2H131.578C132.549 82.2 133.314 82.4333 133.874 82.9C134.434 83.3573 134.714 83.9827 134.714 84.776C134.714 85.2707 134.593 85.714 134.35 86.106C134.117 86.498 133.804 86.778 133.412 86.946ZM133.706 84.776C133.706 84.2347 133.515 83.81 133.132 83.502C132.759 83.194 132.241 83.04 131.578 83.04H129.366V86.61H131.536C132.983 86.61 133.706 85.9987 133.706 84.776ZM131.578 91.16C132.493 91.16 133.151 91.0153 133.552 90.726C133.954 90.4273 134.154 89.9467 134.154 89.284C134.154 88.6307 133.944 88.1547 133.524 87.856C133.114 87.5573 132.456 87.408 131.55 87.408H129.366V91.16H131.578ZM142.502 92C142.352 91.104 142.058 90.32 141.62 89.648C141.181 88.9667 140.588 88.248 139.842 87.492C139.095 88.248 138.502 88.9667 138.064 89.648C137.625 90.32 137.331 91.104 137.182 92H136.104C136.244 91.2347 136.463 90.5487 136.762 89.942C137.07 89.326 137.415 88.7847 137.798 88.318C138.18 87.8513 138.642 87.352 139.184 86.82C138.39 86.0267 137.76 85.2893 137.294 84.608C136.827 83.9173 136.5 83.1147 136.314 82.2H137.364C137.532 82.984 137.816 83.6747 138.218 84.272C138.628 84.86 139.17 85.49 139.842 86.162C140.514 85.49 141.05 84.86 141.452 84.272C141.862 83.6747 142.152 82.984 142.32 82.2H143.37C143.183 83.1147 142.856 83.9173 142.39 84.608C141.923 85.2893 141.293 86.0267 140.5 86.82C141.041 87.352 141.503 87.8513 141.886 88.318C142.268 88.7847 142.609 89.326 142.908 89.942C143.216 90.5487 143.44 91.2347 143.58 92H142.502ZM146.016 92C145.596 92 145.386 91.79 145.386 91.37V91.244C145.386 90.824 145.596 90.614 146.016 90.614H146.128C146.548 90.614 146.758 90.824 146.758 91.244V91.37C146.758 91.79 146.548 92 146.128 92H146.016Z" fill="#79A3B5"/>
<path fill-rule="evenodd" clip-rule="evenodd" d="M15 19.5229C15 20.265 15.9624 20.5564 16.374 19.9389L22.2227 11.166C22.5549 10.6676 22.1976 10 21.5986 10H17V4.47708C17 3.73503 16.0376 3.44363 15.626 4.06106L9.77735 12.834C9.44507 13.3324 9.80237 14 10.4014 14H15V19.5229Z" fill="#4BB59B"/>
<path opacity="0.3" fill-rule="evenodd" clip-rule="evenodd" d="M3 6.5C3 5.67157 3.67157 5 4.5 5H9.5C10.3284 5 11 5.67157 11 6.5C11 7.32843 10.3284 8 9.5 8H4.5C3.67157 8 3 7.32843 3 6.5ZM3 18.5C3 17.6716 3.67157 17 4.5 17H9.5C10.3284 17 11 17.6716 11 18.5C11 19.3284 10.3284 20 9.5 20H4.5C3.67157 20 3 19.3284 3 18.5ZM2.5 11C1.67157 11 1 11.6716 1 12.5C1 13.3284 1.67157 14 2.5 14H6.5C7.32843 14 8 13.3284 8 12.5C8 11.6716 7.32843 11 6.5 11H2.5Z" fill="#4BB59B"/>
</svg>
