<svg width="233" height="226" viewBox="0 0 233 226" fill="none" xmlns="http://www.w3.org/2000/svg">
<g clip-path="url(#clip0_2_554)">
<g filter="url(#filter0_d_2_554)">
<rect x="0.326653" y="0.599365" width="232.404" height="225.253" rx="8.93861" fill="#1D2067"/>
</g>
<path d="M33.021 41.1144C32.0104 41.1144 31.0998 40.8951 30.2894 40.4565C29.479 40.0084 28.8402 39.3934 28.373 38.6116C27.9153 37.8298 27.6865 36.9574 27.6865 35.9944C27.6865 35.0314 27.9153 34.159 28.373 33.3772C28.8402 32.5953 29.479 31.9851 30.2894 31.5465C31.0998 31.0984 32.0104 30.8743 33.021 30.8743C34.0222 30.8743 34.9279 31.0984 35.7384 31.5465C36.5488 31.9851 37.1829 32.5953 37.6405 33.3772C38.0982 34.1495 38.327 35.0219 38.327 35.9944C38.327 36.9669 38.0982 37.8441 37.6405 38.6259C37.1829 39.3982 36.5488 40.0084 35.7384 40.4565C34.9279 40.8951 34.0222 41.1144 33.021 41.1144ZM33.021 39.8416C33.7552 39.8416 34.4131 39.6747 34.9947 39.341C35.5858 39.0073 36.0483 38.5496 36.382 37.968C36.7252 37.3769 36.8968 36.719 36.8968 35.9944C36.8968 35.2698 36.7252 34.6166 36.382 34.035C36.0483 33.4439 35.5858 32.9815 34.9947 32.6478C34.4131 32.3141 33.7552 32.1472 33.021 32.1472C32.2869 32.1472 31.6195 32.3141 31.0188 32.6478C30.4277 32.9815 29.9605 33.4439 29.6172 34.035C29.2835 34.6166 29.1167 35.2698 29.1167 35.9944C29.1167 36.719 29.2835 37.3769 29.6172 37.968C29.9605 38.5496 30.4277 39.0073 31.0188 39.341C31.6195 39.6747 32.2869 39.8416 33.021 39.8416ZM47.0202 33.4201L43.7022 41H42.3007L38.9827 33.4201H40.4128L43.0158 39.4983L45.6759 33.4201H47.0202ZM54.9426 37.2529C54.9426 37.3578 54.9331 37.4961 54.914 37.6677H48.7643C48.8501 38.3351 49.1409 38.8738 49.6367 39.2838C50.142 39.6842 50.7665 39.8845 51.5102 39.8845C52.416 39.8845 53.1454 39.5794 53.6984 38.9691L54.4564 39.8559C54.1131 40.2563 53.6841 40.5614 53.1692 40.7712C52.6639 40.9809 52.0966 41.0858 51.4673 41.0858C50.6664 41.0858 49.9561 40.9237 49.3364 40.5996C48.7166 40.2658 48.2351 39.8034 47.8919 39.2123C47.5582 38.6211 47.3913 37.9537 47.3913 37.21C47.3913 36.4759 47.5534 35.8132 47.8776 35.2221C48.2113 34.6309 48.6642 34.1733 49.2362 33.8491C49.8178 33.5154 50.471 33.3486 51.1956 33.3486C51.9202 33.3486 52.5638 33.5154 53.1263 33.8491C53.6984 34.1733 54.1417 34.6309 54.4564 35.2221C54.7806 35.8132 54.9426 36.4902 54.9426 37.2529ZM51.1956 34.507C50.5377 34.507 49.9847 34.7072 49.5366 35.1077C49.098 35.5081 48.8406 36.0325 48.7643 36.6809H53.6269C53.5506 36.0421 53.2884 35.5224 52.8403 35.122C52.4017 34.712 51.8535 34.507 51.1956 34.507ZM58.1649 34.6929C58.4033 34.2543 58.756 33.9206 59.2232 33.6918C59.6904 33.463 60.2577 33.3486 60.9251 33.3486V34.6786C60.8489 34.6691 60.744 34.6643 60.6105 34.6643C59.8668 34.6643 59.2804 34.8884 58.8514 35.3365C58.4319 35.7751 58.2221 36.4044 58.2221 37.2243V41H56.8491V33.4201H58.1649V34.6929ZM69.6321 33.4201L66.3141 41H64.9125L61.5945 33.4201H63.0247L65.6276 39.4983L68.2878 33.4201H69.6321ZM70.9135 33.4201H72.2865V41H70.9135V33.4201ZM71.6 31.9613C71.333 31.9613 71.1089 31.8755 70.9278 31.7038C70.7562 31.5322 70.6704 31.3225 70.6704 31.0746C70.6704 30.8267 70.7562 30.6169 70.9278 30.4453C71.1089 30.2641 71.333 30.1736 71.6 30.1736C71.8669 30.1736 72.0862 30.2594 72.2579 30.431C72.439 30.5931 72.5296 30.7981 72.5296 31.046C72.5296 31.3034 72.439 31.5227 72.2579 31.7038C72.0862 31.8755 71.8669 31.9613 71.6 31.9613ZM81.7585 37.2529C81.7585 37.3578 81.7489 37.4961 81.7299 37.6677H75.5801C75.6659 38.3351 75.9567 38.8738 76.4525 39.2838C76.9578 39.6842 77.5824 39.8845 78.326 39.8845C79.2318 39.8845 79.9612 39.5794 80.5142 38.9691L81.2722 39.8559C80.929 40.2563 80.4999 40.5614 79.9851 40.7712C79.4797 40.9809 78.9124 41.0858 78.2831 41.0858C77.4822 41.0858 76.7719 40.9237 76.1522 40.5996C75.5324 40.2658 75.0509 39.8034 74.7077 39.2123C74.374 38.6211 74.2071 37.9537 74.2071 37.21C74.2071 36.4759 74.3692 35.8132 74.6934 35.2221C75.0271 34.6309 75.48 34.1733 76.0521 33.8491C76.6337 33.5154 77.2868 33.3486 78.0114 33.3486C78.736 33.3486 79.3796 33.5154 79.9421 33.8491C80.5142 34.1733 80.9576 34.6309 81.2722 35.2221C81.5964 35.8132 81.7585 36.4902 81.7585 37.2529ZM78.0114 34.507C77.3535 34.507 76.8005 34.7072 76.3524 35.1077C75.9138 35.5081 75.6564 36.0325 75.5801 36.6809H80.4427C80.3664 36.0421 80.1042 35.5224 79.6561 35.122C79.2175 34.712 78.6693 34.507 78.0114 34.507ZM94.9953 33.4201L92.1636 41H90.8478L88.6596 35.2507L86.4429 41H85.1271L82.3096 33.4201H83.6111L85.8136 39.4554L88.1019 33.4201H89.2603L91.5057 39.484L93.7654 33.4201H94.9953Z" fill="#79A3B5"/>
<path d="M151.747 41.4152V35.0342H152.489V40.743H155.304V41.4152H151.747ZM159.224 41.4152L159.079 40.7343H159.045C158.806 41.034 158.567 41.2377 158.329 41.3453C158.093 41.4501 157.798 41.5025 157.443 41.5025C156.968 41.5025 156.596 41.3802 156.325 41.1358C156.058 40.8914 155.924 40.5437 155.924 40.0927C155.924 39.1267 156.696 38.6204 158.241 38.5738L159.053 38.5476V38.2509C159.053 37.8755 158.972 37.5991 158.809 37.4216C158.649 37.2412 158.391 37.151 158.036 37.151C157.638 37.151 157.187 37.2732 156.683 37.5176L156.461 36.9633C156.696 36.8353 156.954 36.7349 157.233 36.6622C157.516 36.5894 157.798 36.553 158.08 36.553C158.65 36.553 159.072 36.6796 159.346 36.9328C159.622 37.1859 159.76 37.5918 159.76 38.1505V41.4152H159.224ZM157.587 40.9045C158.038 40.9045 158.391 40.7808 158.647 40.5335C158.906 40.2862 159.036 39.9399 159.036 39.4948V39.0627L158.311 39.0932C157.735 39.1136 157.319 39.2038 157.063 39.3638C156.81 39.5209 156.683 39.7668 156.683 40.1014C156.683 40.3633 156.762 40.5626 156.919 40.6994C157.079 40.8361 157.302 40.9045 157.587 40.9045ZM164.343 40.1102C164.343 40.5553 164.177 40.8987 163.846 41.1402C163.514 41.3817 163.048 41.5025 162.449 41.5025C161.815 41.5025 161.32 41.4021 160.965 41.2013V40.5292C161.195 40.6455 161.441 40.7372 161.703 40.8041C161.967 40.871 162.222 40.9045 162.466 40.9045C162.845 40.9045 163.136 40.8449 163.339 40.7256C163.543 40.6034 163.645 40.4186 163.645 40.1713C163.645 39.985 163.563 39.8265 163.4 39.6955C163.24 39.5617 162.926 39.4046 162.458 39.2242C162.012 39.0583 161.695 38.9143 161.506 38.7921C161.32 38.6669 161.18 38.5258 161.087 38.3687C160.997 38.2116 160.952 38.0239 160.952 37.8057C160.952 37.4158 161.11 37.1088 161.428 36.8848C161.745 36.6578 162.18 36.5443 162.733 36.5443C163.248 36.5443 163.751 36.6491 164.243 36.8586L163.985 37.4478C163.505 37.2499 163.07 37.151 162.68 37.151C162.337 37.151 162.078 37.2048 161.903 37.3125C161.729 37.4201 161.641 37.5685 161.641 37.7577C161.641 37.8857 161.673 37.9948 161.737 38.085C161.804 38.1752 161.911 38.261 162.056 38.3425C162.202 38.424 162.481 38.5418 162.894 38.696C163.461 38.9026 163.844 39.1107 164.042 39.3202C164.243 39.5297 164.343 39.793 164.343 40.1102ZM167.071 40.9045C167.199 40.9045 167.323 40.8958 167.442 40.8783C167.561 40.858 167.656 40.8376 167.726 40.8172V41.3715C167.647 41.4093 167.531 41.4399 167.376 41.4632C167.225 41.4894 167.088 41.5025 166.966 41.5025C166.041 41.5025 165.578 41.0151 165.578 40.0403V37.1946H164.893V36.8455L165.578 36.5443L165.884 35.523H166.303V36.6316H167.691V37.1946H166.303V40.0098C166.303 40.2978 166.371 40.519 166.508 40.6732C166.645 40.8274 166.832 40.9045 167.071 40.9045ZM172.671 37.5176C173.343 37.5176 173.871 37.6849 174.255 38.0195C174.642 38.3512 174.836 38.8066 174.836 39.3856C174.836 40.0461 174.625 40.5641 174.203 40.9394C173.784 41.3148 173.205 41.5025 172.466 41.5025C171.747 41.5025 171.198 41.3875 170.82 41.1577V40.4593C171.024 40.5903 171.277 40.6936 171.58 40.7692C171.882 40.8419 172.18 40.8783 172.474 40.8783C172.986 40.8783 173.384 40.7576 173.666 40.5161C173.951 40.2746 174.094 39.9254 174.094 39.4686C174.094 38.5782 173.548 38.133 172.457 38.133C172.18 38.133 171.811 38.1752 171.348 38.2596L170.973 38.0195L171.213 35.0342H174.386V35.702H171.833L171.671 37.618C172.006 37.5511 172.339 37.5176 172.671 37.5176ZM184.542 41.4152V38.3032C184.542 37.9221 184.461 37.6369 184.298 37.4478C184.135 37.2557 183.882 37.1597 183.538 37.1597C183.087 37.1597 182.754 37.2892 182.539 37.5482C182.324 37.8071 182.216 38.2058 182.216 38.7441V41.4152H181.491V38.3032C181.491 37.9221 181.41 37.6369 181.247 37.4478C181.084 37.2557 180.83 37.1597 180.483 37.1597C180.029 37.1597 179.696 37.2965 179.484 37.57C179.274 37.8406 179.17 38.2858 179.17 38.9055V41.4152H178.445V36.6316H179.034L179.152 37.2863H179.187C179.324 37.0535 179.516 36.8717 179.763 36.7407C180.013 36.6098 180.293 36.5443 180.601 36.5443C181.349 36.5443 181.838 36.8149 182.068 37.3561H182.102C182.245 37.1059 182.452 36.908 182.722 36.7625C182.993 36.6171 183.301 36.5443 183.648 36.5443C184.189 36.5443 184.593 36.684 184.861 36.9633C185.131 37.2397 185.267 37.6835 185.267 38.2945V41.4152H184.542ZM190.893 39.019C190.893 39.7988 190.696 40.4084 190.303 40.8478C189.911 41.2842 189.368 41.5025 188.676 41.5025C188.248 41.5025 187.868 41.4021 187.536 41.2013C187.205 41.0005 186.949 40.7125 186.768 40.3371C186.588 39.9618 186.498 39.5224 186.498 39.019C186.498 38.2392 186.693 37.6325 187.082 37.199C187.472 36.7625 188.014 36.5443 188.706 36.5443C189.375 36.5443 189.906 36.7669 190.299 37.2121C190.695 37.6573 190.893 38.2596 190.893 39.019ZM187.248 39.019C187.248 39.6301 187.371 40.0956 187.615 40.4157C187.859 40.7357 188.219 40.8958 188.693 40.8958C189.167 40.8958 189.527 40.7372 189.771 40.42C190.018 40.1 190.142 39.633 190.142 39.019C190.142 38.4109 190.018 37.9497 189.771 37.6355C189.527 37.3183 189.164 37.1597 188.684 37.1597C188.21 37.1597 187.852 37.3154 187.611 37.6267C187.369 37.9381 187.248 38.4022 187.248 39.019ZM195.441 41.4152V38.3207C195.441 37.9308 195.352 37.6398 195.174 37.4478C194.997 37.2557 194.719 37.1597 194.341 37.1597C193.84 37.1597 193.474 37.295 193.241 37.5656C193.008 37.8362 192.892 38.2829 192.892 38.9055V41.4152H192.167V36.6316H192.756L192.874 37.2863H192.909C193.058 37.0506 193.266 36.8687 193.533 36.7407C193.801 36.6098 194.099 36.5443 194.428 36.5443C195.004 36.5443 195.438 36.684 195.729 36.9633C196.02 37.2397 196.165 37.6835 196.165 38.2945V41.4152H195.441ZM199.203 40.9045C199.331 40.9045 199.455 40.8958 199.574 40.8783C199.693 40.858 199.788 40.8376 199.858 40.8172V41.3715C199.779 41.4093 199.663 41.4399 199.508 41.4632C199.357 41.4894 199.22 41.5025 199.098 41.5025C198.173 41.5025 197.71 41.0151 197.71 40.0403V37.1946H197.025V36.8455L197.71 36.5443L198.016 35.523H198.435V36.6316H199.823V37.1946H198.435V40.0098C198.435 40.2978 198.503 40.519 198.64 40.6732C198.777 40.8274 198.964 40.9045 199.203 40.9045ZM204.091 41.4152V38.3207C204.091 37.9308 204.002 37.6398 203.825 37.4478C203.647 37.2557 203.37 37.1597 202.991 37.1597C202.488 37.1597 202.12 37.2965 201.887 37.57C201.657 37.8435 201.542 38.2916 201.542 38.9143V41.4152H200.818V34.6239H201.542V36.6796C201.542 36.9269 201.531 37.1321 201.507 37.295H201.551C201.694 37.0652 201.896 36.8848 202.158 36.7538C202.422 36.62 202.724 36.553 203.061 36.553C203.646 36.553 204.084 36.6927 204.375 36.972C204.669 37.2485 204.816 37.6893 204.816 38.2945V41.4152H204.091Z" fill="#79A3B5"/>
<g opacity="0.2" clip-path="url(#clip1_2_554)">
<path d="M121.713 193.735L119.548 188.078H119.513C119.554 188.526 119.574 189.059 119.574 189.676V193.735H118.889V187.354H120.006L122.027 192.617H122.062L124.1 187.354H125.209V193.735H124.467V189.623C124.467 189.152 124.487 188.64 124.528 188.087H124.493L122.311 193.735H121.713ZM129.796 193.735L129.652 193.054H129.617C129.378 193.353 129.14 193.557 128.901 193.665C128.666 193.77 128.37 193.822 128.015 193.822C127.541 193.822 127.168 193.7 126.898 193.455C126.63 193.211 126.496 192.863 126.496 192.412C126.496 191.446 127.269 190.94 128.814 190.893L129.626 190.867V190.57C129.626 190.195 129.544 189.919 129.381 189.741C129.221 189.561 128.964 189.47 128.609 189.47C128.21 189.47 127.759 189.593 127.256 189.837L127.033 189.283C127.269 189.155 127.526 189.054 127.806 188.982C128.088 188.909 128.37 188.873 128.652 188.873C129.223 188.873 129.645 188.999 129.918 189.252C130.195 189.505 130.333 189.911 130.333 190.47V193.735H129.796ZM128.159 193.224C128.61 193.224 128.964 193.1 129.22 192.853C129.479 192.606 129.608 192.259 129.608 191.814V191.382L128.884 191.413C128.308 191.433 127.892 191.523 127.635 191.683C127.382 191.84 127.256 192.086 127.256 192.421C127.256 192.683 127.334 192.882 127.491 193.019C127.651 193.156 127.874 193.224 128.159 193.224ZM134.012 188.864C134.225 188.864 134.415 188.881 134.584 188.916L134.483 189.588C134.286 189.545 134.111 189.523 133.96 189.523C133.573 189.523 133.241 189.68 132.965 189.994C132.691 190.308 132.554 190.7 132.554 191.168V193.735H131.83V188.951H132.428L132.511 189.837H132.546C132.723 189.526 132.937 189.286 133.187 189.117C133.437 188.948 133.712 188.864 134.012 188.864Z" fill="white"/>
<path d="M185.643 193.735L183.478 188.078H183.443C183.484 188.526 183.504 189.059 183.504 189.676V193.735H182.819V187.354H183.936L185.957 192.617H185.992L188.03 187.354H189.139V193.735H188.397V189.623C188.397 189.152 188.417 188.64 188.458 188.087H188.423L186.241 193.735H185.643ZM193.726 193.735L193.582 193.054H193.547C193.309 193.353 193.07 193.557 192.831 193.665C192.596 193.77 192.3 193.822 191.945 193.822C191.471 193.822 191.099 193.7 190.828 193.455C190.56 193.211 190.427 192.863 190.427 192.412C190.427 191.446 191.199 190.94 192.744 190.893L193.556 190.867V190.57C193.556 190.195 193.474 189.919 193.312 189.741C193.152 189.561 192.894 189.47 192.539 189.47C192.14 189.47 191.689 189.593 191.186 189.837L190.963 189.283C191.199 189.155 191.457 189.054 191.736 188.982C192.018 188.909 192.3 188.873 192.583 188.873C193.153 188.873 193.575 188.999 193.848 189.252C194.125 189.505 194.263 189.911 194.263 190.47V193.735H193.726ZM192.089 193.224C192.54 193.224 192.894 193.1 193.15 192.853C193.409 192.606 193.539 192.259 193.539 191.814V191.382L192.814 191.413C192.238 191.433 191.822 191.523 191.566 191.683C191.313 191.84 191.186 192.086 191.186 192.421C191.186 192.683 191.265 192.882 191.422 193.019C191.582 193.156 191.804 193.224 192.089 193.224ZM195.001 188.951H195.778L196.825 191.679C197.055 192.302 197.197 192.751 197.253 193.028H197.288C197.325 192.879 197.404 192.626 197.523 192.268C197.646 191.907 198.041 190.802 198.711 188.951H199.487L197.432 194.398C197.228 194.936 196.989 195.317 196.716 195.542C196.445 195.769 196.112 195.882 195.716 195.882C195.495 195.882 195.277 195.857 195.062 195.808V195.227C195.222 195.262 195.401 195.28 195.599 195.28C196.096 195.28 196.451 195 196.664 194.442L196.93 193.761L195.001 188.951Z" fill="white"/>
<path d="M156.035 193.735L155.24 191.705H152.683L151.897 193.735H151.146L153.669 187.327H154.293L156.803 193.735H156.035ZM155.009 191.037L154.267 189.06C154.171 188.81 154.072 188.503 153.97 188.139C153.906 188.419 153.815 188.726 153.695 189.06L152.945 191.037H155.009ZM159.797 193.822C159.486 193.822 159.201 193.765 158.942 193.652C158.686 193.535 158.47 193.358 158.296 193.119H158.243C158.278 193.399 158.296 193.663 158.296 193.914V195.882H157.571V188.951H158.16L158.261 189.606H158.296C158.482 189.344 158.699 189.155 158.946 189.038C159.193 188.922 159.477 188.864 159.797 188.864C160.431 188.864 160.92 189.081 161.264 189.514C161.61 189.948 161.783 190.556 161.783 191.338C161.783 192.124 161.607 192.735 161.255 193.172C160.906 193.605 160.42 193.822 159.797 193.822ZM159.692 189.479C159.203 189.479 158.85 189.614 158.632 189.885C158.413 190.156 158.301 190.586 158.296 191.177V191.338C158.296 192.011 158.408 192.492 158.632 192.783C158.856 193.071 159.215 193.215 159.71 193.215C160.123 193.215 160.446 193.048 160.679 192.713C160.914 192.379 161.032 191.918 161.032 191.33C161.032 190.733 160.914 190.276 160.679 189.959C160.446 189.639 160.117 189.479 159.692 189.479ZM165.235 188.864C165.448 188.864 165.638 188.881 165.807 188.916L165.707 189.588C165.509 189.545 165.334 189.523 165.183 189.523C164.796 189.523 164.464 189.68 164.188 189.994C163.914 190.308 163.777 190.7 163.777 191.168V193.735H163.053V188.951H163.651L163.734 189.837H163.769C163.946 189.526 164.16 189.286 164.41 189.117C164.661 188.948 164.936 188.864 165.235 188.864Z" fill="white"/>
<path d="M88.2419 193.735H87.4999V187.354H91.057V188.013H88.2419V190.348H90.8868V191.007H88.2419V193.735ZM94.0293 193.822C93.3222 193.822 92.7636 193.607 92.3533 193.176C91.9459 192.745 91.7423 192.147 91.7423 191.382C91.7423 190.611 91.9314 189.999 92.3097 189.545C92.6908 189.091 93.2015 188.864 93.8416 188.864C94.441 188.864 94.9153 189.062 95.2645 189.457C95.6136 189.85 95.7882 190.37 95.7882 191.016V191.474H92.493C92.5075 192.035 92.6486 192.462 92.9163 192.753C93.1869 193.044 93.5666 193.189 94.0555 193.189C94.5705 193.189 95.0797 193.081 95.5831 192.866V193.512C95.327 193.623 95.0841 193.701 94.8542 193.748C94.6272 193.797 94.3523 193.822 94.0293 193.822ZM93.8329 189.47C93.4488 189.47 93.1418 189.596 92.912 189.846C92.685 190.096 92.5512 190.442 92.5104 190.885H95.0113C95.0113 190.428 94.9095 190.079 94.7058 189.837C94.5021 189.593 94.2111 189.47 93.8329 189.47ZM99.2537 188.873C99.8822 188.873 100.37 189.088 100.716 189.518C101.065 189.946 101.24 190.553 101.24 191.338C101.24 192.124 101.063 192.735 100.711 193.172C100.362 193.605 99.8763 193.822 99.2537 193.822C98.9423 193.822 98.6572 193.765 98.3982 193.652C98.1422 193.535 97.9268 193.358 97.7523 193.119H97.6999L97.5471 193.735H97.0277V186.943H97.7523V188.593C97.7523 188.963 97.7406 189.294 97.7173 189.588H97.7523C98.0898 189.111 98.5902 188.873 99.2537 188.873ZM99.1489 189.479C98.6543 189.479 98.2978 189.622 98.0796 189.907C97.8614 190.189 97.7523 190.666 97.7523 191.338C97.7523 192.011 97.8643 192.492 98.0883 192.783C98.3124 193.071 98.6717 193.215 99.1664 193.215C99.6116 193.215 99.9433 193.054 100.161 192.731C100.38 192.405 100.489 191.938 100.489 191.33C100.489 190.707 100.38 190.243 100.161 189.937C99.9433 189.632 99.6057 189.479 99.1489 189.479Z" fill="white"/>
<path d="M55.5217 195.415C55.2482 195.415 55.0329 195.376 54.8757 195.297V194.664C55.0823 194.722 55.2977 194.752 55.5217 194.752C55.8098 194.752 56.028 194.664 56.1764 194.49C56.3277 194.315 56.4033 194.063 56.4033 193.735V187.354H57.1453V193.674C57.1453 194.226 57.0056 194.654 56.7263 194.957C56.447 195.262 56.0454 195.415 55.5217 195.415ZM61.6757 193.735L61.5317 193.054H61.4968C61.2582 193.353 61.0196 193.557 60.781 193.665C60.5453 193.77 60.25 193.822 59.895 193.822C59.4207 193.822 59.0483 193.7 58.7777 193.455C58.51 193.211 58.3761 192.863 58.3761 192.412C58.3761 191.446 59.1486 190.94 60.6937 190.893L61.5055 190.867V190.57C61.5055 190.195 61.424 189.919 61.2611 189.741C61.1011 189.561 60.8435 189.47 60.4886 189.47C60.0899 189.47 59.6389 189.593 59.1355 189.837L58.913 189.283C59.1486 189.155 59.4062 189.054 59.6855 188.982C59.9677 188.909 60.25 188.873 60.5322 188.873C61.1025 188.873 61.5244 188.999 61.7979 189.252C62.0743 189.505 62.2126 189.911 62.2126 190.47V193.735H61.6757ZM60.039 193.224C60.49 193.224 60.8435 193.1 61.0996 192.853C61.3586 192.606 61.488 192.259 61.488 191.814V191.382L60.7635 191.413C60.1874 191.433 59.7713 191.523 59.5153 191.683C59.2621 191.84 59.1355 192.086 59.1355 192.421C59.1355 192.683 59.2141 192.882 59.3712 193.019C59.5313 193.156 59.7539 193.224 60.039 193.224ZM66.983 193.735V190.64C66.983 190.25 66.8943 189.959 66.7168 189.767C66.5393 189.575 66.2614 189.479 65.8832 189.479C65.3827 189.479 65.0161 189.614 64.7833 189.885C64.5505 190.156 64.4341 190.602 64.4341 191.225V193.735H63.7096V188.951H64.2988L64.4167 189.606H64.4516C64.6 189.37 64.808 189.188 65.0757 189.06C65.3434 188.929 65.6416 188.864 65.9704 188.864C66.5466 188.864 66.9801 189.003 67.2711 189.283C67.562 189.559 67.7075 190.003 67.7075 190.614V193.735H66.983Z" fill="white"/>
</g>
<g opacity="0.1">
<path d="M46.8074 114.567H207.702" stroke="#EDE9F2" stroke-width="0.44693"/>
<path d="M46.8074 69.8736H207.702" stroke="#EDE9F2" stroke-width="0.44693"/>
<path d="M46.8074 92.22H207.702" stroke="#EDE9F2" stroke-width="0.44693"/>
<path d="M46.8074 136.913H207.702" stroke="#EDE9F2" stroke-width="0.44693"/>
<path d="M46.8074 159.26H207.702" stroke="#EDE9F2" stroke-width="0.44693"/>
<path d="M46.8074 181.606H207.702" stroke="#EDE9F2" stroke-width="0.44693"/>
</g>
<g opacity="0.2" clip-path="url(#clip2_2_554)">
<path d="M34.2812 85.3618C34.8631 85.3618 35.3243 85.4971 35.6647 85.7677C36.0052 86.0383 36.1754 86.4122 36.1754 86.8894C36.1754 87.2037 36.0779 87.4903 35.883 87.7492C35.688 88.0082 35.3767 88.2439 34.9489 88.4563C35.4669 88.7036 35.8349 88.9641 36.0532 89.2376C36.2714 89.5082 36.3805 89.8224 36.3805 90.1803C36.3805 90.7099 36.1957 91.1332 35.8262 91.4504C35.4567 91.7646 34.9504 91.9218 34.3073 91.9218C33.6265 91.9218 33.1027 91.7734 32.7361 91.4766C32.3695 91.1769 32.1862 90.7535 32.1862 90.2065C32.1862 89.4762 32.6314 88.9073 33.5217 88.5C33.1202 88.273 32.8321 88.0286 32.6575 87.7667C32.483 87.5019 32.3957 87.2066 32.3957 86.8807C32.3957 86.4181 32.5659 86.05 32.9063 85.7765C33.2497 85.5 33.708 85.3618 34.2812 85.3618ZM32.902 90.224C32.902 90.5731 33.0227 90.8452 33.2642 91.0401C33.5086 91.2351 33.8505 91.3325 34.2899 91.3325C34.7234 91.3325 35.061 91.2307 35.3025 91.027C35.544 90.8234 35.6647 90.544 35.6647 90.189C35.6647 89.9068 35.5512 89.6566 35.3243 89.4383C35.0973 89.2172 34.7016 89.0033 34.1371 88.7967C33.7036 88.983 33.3893 89.1896 33.1944 89.4165C32.9994 89.6406 32.902 89.9097 32.902 90.224ZM34.2724 85.9511C33.9087 85.9511 33.6236 86.0383 33.417 86.2129C33.2104 86.3875 33.1071 86.6203 33.1071 86.9113C33.1071 87.1789 33.1929 87.4088 33.3646 87.6009C33.5363 87.7929 33.8534 87.9849 34.3161 88.177C34.7322 88.0024 35.026 87.8147 35.1977 87.6139C35.3723 87.4132 35.4596 87.1789 35.4596 86.9113C35.4596 86.6174 35.3534 86.3846 35.141 86.2129C34.9315 86.0383 34.642 85.9511 34.2724 85.9511ZM42.3338 91.8345H41.4609L39.1345 88.74L38.4668 89.3336V91.8345H37.7248V85.4535H38.4668V88.6178L41.3605 85.4535H42.2377L39.6714 88.225L42.3338 91.8345Z" fill="white"/>
<path d="M36.3631 158.874H32.1687V158.25L33.8491 156.561C34.3612 156.043 34.6987 155.673 34.8616 155.452C35.0246 155.231 35.1468 155.016 35.2283 154.806C35.3097 154.597 35.3505 154.371 35.3505 154.13C35.3505 153.789 35.2472 153.52 35.0406 153.322C34.834 153.122 34.5474 153.021 34.1808 153.021C33.916 153.021 33.6643 153.065 33.4257 153.152C33.19 153.24 32.9267 153.398 32.6357 153.628L32.2516 153.135C32.8394 152.646 33.4795 152.402 34.172 152.402C34.7714 152.402 35.2414 152.556 35.5818 152.864C35.9222 153.17 36.0925 153.581 36.0925 154.099C36.0925 154.504 35.979 154.904 35.752 155.3C35.5251 155.695 35.1002 156.196 34.4776 156.801L33.0809 158.167V158.202H36.3631V158.874ZM42.3338 158.874H41.4609L39.1345 155.78L38.4668 156.373V158.874H37.7248V152.493H38.4668V155.657L41.3605 152.493H42.2377L39.6714 155.265L42.3338 158.874Z" fill="white"/>
<path d="M41.8886 178.021C41.8886 179.124 41.714 179.948 41.3648 180.492C41.0186 181.036 40.4876 181.308 39.7718 181.308C39.0851 181.308 38.5628 181.03 38.2049 180.474C37.847 179.916 37.6681 179.098 37.6681 178.021C37.6681 176.91 37.8412 176.085 38.1874 175.547C38.5337 175.008 39.0618 174.739 39.7718 174.739C40.4643 174.739 40.9895 175.02 41.3474 175.582C41.7082 176.143 41.8886 176.956 41.8886 178.021ZM38.4013 178.021C38.4013 178.95 38.5104 179.626 38.7286 180.051C38.9469 180.473 39.2946 180.684 39.7718 180.684C40.2548 180.684 40.6039 180.47 40.8193 180.042C41.0375 179.612 41.1466 178.938 41.1466 178.021C41.1466 177.105 41.0375 176.434 40.8193 176.009C40.6039 175.582 40.2548 175.368 39.7718 175.368C39.2946 175.368 38.9469 175.579 38.7286 176.001C38.5104 176.42 38.4013 177.093 38.4013 178.021Z" fill="white"/>
<path d="M32.2429 111.453C32.2429 110.199 32.4859 109.262 32.9718 108.642C33.4606 108.02 34.1822 107.708 35.1366 107.708C35.4654 107.708 35.7244 107.736 35.9135 107.791V108.415C35.6895 108.343 35.4334 108.306 35.1453 108.306C34.4616 108.306 33.9393 108.52 33.5785 108.948C33.2177 109.373 33.0198 110.042 32.9849 110.956H33.0373C33.3573 110.455 33.8636 110.205 34.5561 110.205C35.1293 110.205 35.5803 110.378 35.9091 110.724C36.2408 111.071 36.4067 111.54 36.4067 112.134C36.4067 112.797 36.2248 113.32 35.8611 113.701C35.5003 114.079 35.0115 114.268 34.3946 114.268C33.7341 114.268 33.2104 114.021 32.8234 113.526C32.4364 113.029 32.2429 112.338 32.2429 111.453ZM34.3859 113.653C34.7991 113.653 35.1192 113.523 35.3461 113.264C35.576 113.003 35.6909 112.626 35.6909 112.134C35.6909 111.712 35.5847 111.38 35.3723 111.139C35.1599 110.897 34.8427 110.777 34.4208 110.777C34.159 110.777 33.9189 110.831 33.7007 110.938C33.4824 111.046 33.3079 111.194 33.1769 111.383C33.0489 111.572 32.9849 111.769 32.9849 111.973C32.9849 112.272 33.0431 112.552 33.1595 112.811C33.2759 113.07 33.4403 113.275 33.6527 113.426C33.868 113.577 34.1124 113.653 34.3859 113.653ZM42.3338 114.181H41.4609L39.1345 111.087L38.4668 111.68V114.181H37.7248V107.8H38.4668V110.964L41.3605 107.8H42.2377L39.6714 110.572L42.3338 114.181Z" fill="white"/>
<path d="M29.7377 69.488H29.0306V64.9402C29.0306 64.5619 29.0422 64.204 29.0655 63.8665C29.0044 63.9276 28.936 63.9916 28.8604 64.0585C28.7847 64.1255 28.4385 64.4092 27.8216 64.9096L27.4375 64.4121L29.1266 63.1071H29.7377V69.488ZM36.398 66.2888C36.398 67.3916 36.2234 68.215 35.8742 68.7592C35.528 69.3033 34.9969 69.5753 34.2812 69.5753C33.5945 69.5753 33.0722 69.2975 32.7143 68.7417C32.3564 68.183 32.1774 67.3654 32.1774 66.2888C32.1774 65.1773 32.3506 64.3524 32.6968 63.8141C33.0431 63.2758 33.5712 63.0067 34.2812 63.0067C34.9737 63.0067 35.4989 63.2875 35.8568 63.849C36.2176 64.4106 36.398 65.2239 36.398 66.2888ZM32.9107 66.2888C32.9107 67.217 33.0198 67.8935 33.238 68.3183C33.4563 68.7402 33.804 68.9512 34.2812 68.9512C34.7642 68.9512 35.1133 68.7373 35.3286 68.3096C35.5469 67.879 35.656 67.2054 35.656 66.2888C35.656 65.3723 35.5469 64.7016 35.3286 64.2768C35.1133 63.849 34.7642 63.6352 34.2812 63.6352C33.804 63.6352 33.4563 63.8461 33.238 64.268C33.0198 64.687 32.9107 65.3606 32.9107 66.2888ZM42.3338 69.488H41.4608L39.1345 66.3936L38.4668 66.9871V69.488H37.7248V63.1071H38.4668V66.2714L41.3605 63.1071H42.2377L39.6714 65.8786L42.3338 69.488Z" fill="white"/>
<path d="M36.6642 135.061H35.7171V136.528H35.0231V135.061H31.9199V134.428L34.9489 130.112H35.7171V134.402H36.6642V135.061ZM35.0231 134.402V132.281C35.0231 131.865 35.0377 131.395 35.0668 130.871H35.0319C34.8922 131.15 34.7613 131.382 34.6391 131.565L32.6445 134.402H35.0231ZM42.3338 136.528H41.4609L39.1345 133.433L38.4668 134.027V136.528H37.7248V130.147H38.4668V133.311L41.3605 130.147H42.2377L39.6714 132.918L42.3338 136.528Z" fill="white"/>
</g>
<path d="M123.679 129.315C123.679 127.834 124.88 126.634 126.361 126.634C127.842 126.634 129.043 127.834 129.043 129.315V181.159H123.679V129.315Z" fill="#79A3B5"/>
<path d="M131 144.5C131 143.119 132.119 142 133.5 142C134.881 142 136 143.119 136 144.5V181H131V144.5Z" fill="#4BB59B"/>
<path d="M91.5005 114.12C91.5005 112.639 92.701 111.438 94.182 111.438C95.663 111.438 96.8636 112.639 96.8636 114.12V181.159H91.5005V114.12Z" fill="#79A3B5"/>
<path d="M99 134.5C99 133.119 100.119 132 101.5 132C102.881 132 104 133.119 104 134.5V181H99V134.5Z" fill="#4BB59B"/>
<path d="M188.037 76.5775C188.037 75.0965 189.238 73.8959 190.719 73.8959C192.2 73.8959 193.401 75.0965 193.401 76.5775V181.159H188.037V76.5775Z" fill="#79A3B5"/>
<path d="M195 107.5C195 106.119 196.119 105 197.5 105C198.881 105 200 106.119 200 107.5V181H195V107.5Z" fill="#4BB59B"/>
<path d="M59.3215 149.874C59.3215 148.393 60.5221 147.193 62.0031 147.193C63.4841 147.193 64.6846 148.393 64.6846 149.874V181.159H59.3215V149.874Z" fill="#79A3B5"/>
<path d="M66 160C66 158.343 67.3431 157 69 157C70.6569 157 72 158.343 72 160V181H66V160Z" fill="#4BB59B"/>
<path d="M155.858 88.1977C155.858 86.7167 157.059 85.5161 158.54 85.5161C160.021 85.5161 161.222 86.7167 161.222 88.1977V181.159H155.858V88.1977Z" fill="#79A3B5"/>
<path d="M163 115.5C163 114.119 164.119 113 165.5 113C166.881 113 168 114.119 168 115.5V181H163V115.5Z" fill="#4BB59B"/>
</g>
<defs>
<filter id="filter0_d_2_554" x="-60.4559" y="-38.7305" width="339.667" height="332.516" filterUnits="userSpaceOnUse" color-interpolation-filters="sRGB">
<feFlood flood-opacity="0" result="BackgroundImageFix"/>
<feColorMatrix in="SourceAlpha" type="matrix" values="0 0 0 0 0 0 0 0 0 0 0 0 0 0 0 0 0 0 127 0" result="hardAlpha"/>
<feOffset dx="-7.15089" dy="14.3018"/>
<feGaussianBlur stdDeviation="26.8158"/>
<feColorMatrix type="matrix" values="0 0 0 0 0.322856 0 0 0 0 0.446289 0 0 0 0 0.545035 0 0 0 0.24 0"/>
<feBlend mode="normal" in2="BackgroundImageFix" result="effect1_dropShadow_2_554"/>
<feBlend mode="normal" in="SourceGraphic" in2="effect1_dropShadow_2_554" result="shape"/>
</filter>
<clipPath id="clip0_2_554">
<rect width="232.404" height="225.253" fill="white" transform="translate(0.326653 0.599365)"/>
</clipPath>
<clipPath id="clip1_2_554">
<rect width="146.593" height="12.5141" fill="white" transform="translate(53.0645 184.735)"/>
</clipPath>
<clipPath id="clip2_2_554">
<rect width="16.0895" height="124.247" fill="white" transform="translate(26.2486 60.488)"/>
</clipPath>
</defs>
</svg>
