<svg width="36" height="48" viewBox="0 0 36 48" fill="none" xmlns="http://www.w3.org/2000/svg">
<path d="M16.6619 0.830112C16.2093 0.177313 15.1648 0.142496 14.6513 0.760478C14.1029 1.33494 14.3031 2.39683 15.0168 2.73628C15.365 2.84073 15.7306 2.87555 16.07 2.94518C19.5342 10.2043 22.9723 17.4808 26.4974 24.7138C26.1318 25.2361 25.7488 25.9585 26.1666 26.5765C26.5757 27.2989 27.7159 27.3947 28.2033 26.7157C28.6908 26.2457 28.4297 25.5581 28.3601 24.9924C28.7604 25.3405 28.83 25.8889 28.9867 26.3589C30.6318 31.7118 32.3291 37.0474 33.9654 42.4003C33.6782 42.6875 33.4344 43.0096 33.2081 43.3577C30.5534 43.175 27.8987 42.7746 25.2353 42.6788C24.9481 42.0783 24.5999 41.3732 23.8514 41.2862C23.0071 41.1295 22.3543 41.8955 22.2237 42.6701C15.922 43.5231 9.62908 44.4283 3.3187 45.2639C3.01406 44.2717 1.60402 43.9322 0.933815 44.7678C0.106937 45.5773 0.890293 47.1527 2.02181 47.0395C2.84869 47.0918 3.27516 46.2736 3.46665 45.5947C9.76833 44.8984 16.0265 43.8278 22.3195 43.0966C22.5893 43.5754 22.9984 44.1063 23.6164 44.0541C24.3301 44.1498 24.7914 43.5231 25.1047 42.9835C27.7943 43.2794 30.5012 43.4535 33.1908 43.7755C33.3387 44.2194 33.5041 44.7156 33.9654 44.9158C34.8184 45.4293 35.9934 44.6459 35.9586 43.6885C35.9934 42.8442 35.1491 42.2349 34.3571 42.2785C32.5814 36.5164 30.7275 30.7805 29.0041 25.0011C29.3523 24.679 29.7962 24.3309 29.7265 23.7999C29.831 22.6771 28.2817 21.9024 27.4722 22.738C26.8543 23.2254 27.0806 24.0784 27.2024 24.7312C26.7237 24.6355 26.5932 24.1307 26.4017 23.7564C23.0854 16.7149 19.6648 9.71687 16.3747 2.65795C16.9056 2.22275 17.158 1.39587 16.6619 0.830112Z" fill="url(#paint0_linear_2_33)" stroke="url(#paint1_linear_2_33)" stroke-width="0.0816433" stroke-miterlimit="10.43"/>
<defs>
<linearGradient id="paint0_linear_2_33" x1="18.2748" y1="0.317947" x2="18.2748" y2="47.0453" gradientUnits="userSpaceOnUse">
<stop stop-color="#A4FFFF"/>
<stop offset="1" stop-color="#ABB7E3" stop-opacity="0"/>
</linearGradient>
<linearGradient id="paint1_linear_2_33" x1="18.2748" y1="0.317947" x2="18.2748" y2="47.0453" gradientUnits="userSpaceOnUse">
<stop stop-color="#A4FFFF"/>
<stop offset="1" stop-color="#ABB7E3" stop-opacity="0"/>
</linearGradient>
</defs>
</svg>
